/* XPM */
static char *supertuxkart[] = {
/* columns rows colors chars-per-pixel */
"32 32 137 2 ",
"   c #000000",
".  c #0C0101",
"X  c #0E0907",
"o  c #0B0A0A",
"O  c #1B0404",
"+  c #140F0D",
"@  c #131313",
"#  c #1C1C1C",
"$  c #240606",
"%  c #2D0606",
"&  c #3A0707",
"*  c #3C0B0B",
"=  c #391105",
"-  c #201717",
";  c #2E1714",
":  c #331717",
">  c #36311A",
",  c #242424",
"<  c #2C2C2C",
"1  c #2F302F",
"2  c #333333",
"3  c #3B3C3B",
"4  c #450707",
"5  c #4F0707",
"6  c #410A0A",
"7  c #570707",
"8  c #580404",
"9  c #570F0F",
"0  c #5A0909",
"q  c #660202",
"w  c #6E0F0F",
"e  c #740D0D",
"r  c #790E0E",
"t  c #771111",
"y  c #7E1414",
"u  c #7F1818",
"i  c #473C08",
"p  c #584B0F",
"a  c #544A1A",
"s  c #7F5609",
"d  c gray26",
"f  c #4B4B4B",
"g  c #524F4F",
"h  c #555555",
"j  c #585858",
"k  c #634E48",
"l  c #615C43",
"z  c #675F5C",
"x  c gray40",
"c  c #6C6C6C",
"v  c #757575",
"b  c #797874",
"n  c #7C7C7C",
"m  c #970404",
"M  c #811414",
"N  c #841D14",
"B  c #951010",
"V  c #9E1212",
"C  c #94191A",
"Z  c #9B1B1A",
"A  c #A30B0B",
"S  c #AA090A",
"D  c #BC0606",
"F  c #B40E0E",
"G  c #B80808",
"H  c #AF110E",
"J  c #B4140F",
"K  c #A51616",
"L  c #AC1414",
"P  c #AF1913",
"I  c #A61B1B",
"U  c #A91B1A",
"Y  c #B11212",
"T  c #B51A1A",
"R  c #9C3434",
"E  c #B72121",
"W  c #B92424",
"Q  c #BD3434",
"!  c #C32708",
"~  c #865E17",
"^  c #BC4813",
"/  c #A26F0B",
"(  c #BB7911",
")  c #C26015",
"_  c #CB7612",
"`  c #8E6F6F",
"'  c #867171",
"]  c #C14444",
"[  c #C65A5A",
"{  c #CD6666",
"}  c #CA6D6D",
"|  c #C1900E",
" . c #C39908",
".. c #DAAC0C",
"X. c #DFBA0B",
"o. c #DEBC1C",
"O. c #E5B50B",
"+. c #E6BD0C",
"@. c #D9BA28",
"#. c #E8C10B",
"$. c #E5C737",
"%. c #EDCE3D",
"&. c #938C77",
"*. c #E7CE59",
"=. c #EBD363",
"-. c #F1DA71",
";. c #838384",
":. c #8B8B8B",
">. c #9B9C9C",
",. c #A08686",
"<. c #A4A4A4",
"1. c gray68",
"2. c gray70",
"3. c #BCBCBC",
"4. c #CF8181",
"5. c #C78989",
"6. c #D08181",
"7. c #D69898",
"8. c #DCAFAF",
"9. c #DBBFBF",
"0. c #C6C6C6",
"q. c #CFC4C4",
"w. c #CBCBCB",
"e. c #D6CECE",
"r. c #DDCDCD",
"t. c #D3D3D3",
"y. c gainsboro",
"u. c #E1C4C4",
"i. c #ECE7CC",
"p. c #F6EEC6",
"a. c #E4E3E3",
"s. c #EEEEEE",
"d. c #F8F7EF",
"f. c gray95",
"g. c #F9F9F7",
"h. c #F9F9F9",
"j. c None",
/* pixels */
"j.j.j.j.j.j.j.j.j.j.j.j.j.j.j.j.j.j.j.j.j.j.j.j.j.j.j.j.j.j.j.j.",
"j.j.j.j.j.j.j.j.j.j.j.j.j.j.j.j.j.j.j.j.j.j.j.j.j.j.j.j.j.j.j.j.",
"j.j.j.j.j.j.j.j.j.j.j.j.j.j.j.j.j.j.j.j.j.j.j.j.j.j.j.j.j.j.j.j.",
"j.j.j.j.j.j.j.j.j.j.j.j.j.j.j.j.j.j.j.j.j.j.j.j.j.j.j.j.j.j.j.j.",
"j.j.j.j.j.j.j.j.j.j.j.j.j.j.j.j.j.j.j.j.j.j.j.j.j.j.j.j.j.j.j.j.",
"j.j.j.j.j.j.j.j.j.j.j.j.j.      j.j.j.j.j.j.j.j.j.j.j.j.j.j.j.j.",
"j.j.j.j.j.j.j.j.j.j.j.j.    d o d j.j.j.j.j.j.j.j.j.j.j.j.j.j.j.",
"j.j.j.j.j.j.j.j.j.j.j.j.  # v l v j.j.j.j.j.j.j.j.j.j.j.j.j.j.j.",
"j.j.j.j.j.j.j.j.j.j.j.j.. i @.#.o.~ j.j.j.j.j.j.j.j.j.j.j.j.j.j.",
"j.j.j.S T 5.Z C Z Z C C O > =.+.$.&.R j.j.j.j.j.j.j.j.j.j.j.j.j.",
"j.j.j.j.j.j.O - j.j.j.X   j g.d.h.t.j.j.j.j.j.j.j.j.j.j.j.j.j.j.",
"j.j.j.j.j.j.j.1 3 j.j.+   n f.s.w.w.2 j.j.j.j.j.j.j.j.j.j.j.j.j.",
"j.j.j.j.j.j.v x 1 j.;.  o 3.a.c 2.2.o   j.j.j.j.j.j.j.j.j.j.j.j.",
"j.j.j.j.j.3 @ < < , z     < j n <.c x   j.j.j.j.j.j.j.j.j.j.j.j.",
"j.j.j.j.j.o o   X : ;   c j 3 c , @ f g .       j.j.j.j.j.j.j.j.",
"j.j.          & K G 8   w.g.t.v c @ y.' K y $   j.j.j.j.j.j.j.j.",
"j.o #       9 U P D q   :.h.h.h.h.:.1.k ! P M * j.j.j.j.j.j.j.j.",
"j.# #       Z I U F m   p *.%.-.p.i.a X.#.O.( Z M j.j.j.j.j.j.j.",
"j.,       . K I I U J  .+.+.+.+...| s / _ ) ^ H 6         j.j.j.",
"j.j.        r w 0 5 4 = N U U U I I K 6 I I I e o 2         j.j.",
"j.j.        . o         O U U I I I I K I I U I 9 ` .       j.j.",
"j.j.j.j.j.j.  n o         V L I I I U U I I I I I I U V r & j.j.",
"j.j.j.j.j.j.j., o     % t U U L I U I U I K I U U K L H F F A j.",
"j.j.j.j.j.j.j.o   8 B L Y Y Y Y L L L L L Y Y Y F Y Y E ] { 6.j.",
"j.j.j.j.j.j.j.    ,.] F F F Y J T W Q ] [ } 4.7.8.9.q.3.<.:.j.j.",
"j.j.j.j.j.j.j.    v a.u.u.r.r.e.w.0.3.1.>.:.v j j.j.j.j.j.j.j.j.",
"j.j.j.j.j.j.j.j.j.j.j.j.j.j.j.j.j.j.j.j.j.j.j.j.j.j.j.j.j.j.j.j.",
"j.j.j.j.j.j.j.j.j.j.j.j.j.j.j.j.j.j.j.j.j.j.j.j.j.j.j.j.j.j.j.j.",
"j.j.j.j.j.j.j.j.j.j.j.j.j.j.j.j.j.j.j.j.j.j.j.j.j.j.j.j.j.j.j.j.",
"j.j.j.j.j.j.j.j.j.j.j.j.j.j.j.j.j.j.j.j.j.j.j.j.j.j.j.j.j.j.j.j.",
"j.j.j.j.j.j.j.j.j.j.j.j.j.j.j.j.j.j.j.j.j.j.j.j.j.j.j.j.j.j.j.j.",
"j.j.j.j.j.j.j.j.j.j.j.j.j.j.j.j.j.j.j.j.j.j.j.j.j.j.j.j.j.j.j.j."
};
