/* XPM */
static char *pokemon_online[] = {
/* columns rows colors chars-per-pixel */
"32 32 90 1 ",
"  c #000011",
". c #000022",
"X c #001122",
"o c #000033",
"O c #001133",
"+ c #111133",
"@ c #002233",
"# c #000044",
"$ c #001144",
"% c #001155",
"& c #002244",
"* c #112244",
"= c #002255",
"- c #112255",
"; c #113355",
": c #001166",
"> c #002266",
", c #003366",
"< c #113366",
"1 c #002277",
"2 c #003377",
"3 c #223366",
"4 c #114477",
"5 c #224466",
"6 c #224477",
"7 c #334477",
"8 c #002288",
"9 c #003388",
"0 c #003399",
"q c #0033AA",
"w c #004499",
"e c #224488",
"r c #334488",
"t c #225588",
"y c #335588",
"u c #335599",
"i c #0044AA",
"p c #0044BB",
"a c #2255BB",
"s c #445588",
"d c #445599",
"f c #556688",
"g c #556699",
"h c #6677BB",
"j c #0044CC",
"k c #0055CC",
"l c #1155CC",
"z c #0055DD",
"x c #1155DD",
"c c #1166DD",
"v c #2266EE",
"b c #3366EE",
"n c #3377EE",
"m c #3377FF",
"M c #5577DD",
"N c #4477FF",
"B c #5577FF",
"V c #7788BB",
"C c #6688CC",
"Z c #7788CC",
"A c #5588FF",
"S c #6688EE",
"D c #7788EE",
"F c #7799EE",
"G c #6688FF",
"H c #7788FF",
"J c #6699FF",
"K c #7799FF",
"L c #8888CC",
"P c #8899CC",
"I c #8899DD",
"U c #9999DD",
"Y c #AAAADD",
"T c #8899EE",
"R c #8899FF",
"E c #99AAEE",
"W c #88AAFF",
"Q c #99AAFF",
"! c #AAAAEE",
"~ c #BBBBEE",
"^ c #AAAAFF",
"/ c #AABBFF",
"( c #BBBBFF",
") c #CCBBEE",
"_ c #CCBBFF",
"` c #CCCCFF",
"' c #DDCCFF",
"] c #EECCFF",
"[ c #EEDDFF",
"{ c None",
/* pixels */
"{{{{{{{{{{{{{{{{{{{{{{{{{{{{{{{{",
"{{{{{{{{{{{{{{{{{{{{{{{{{{{{{{{{",
"{{{{{{{{{{{{AKQ/((^R{{{{{{{{{{{{",
"{{{{{{{{{pkvmAJKWQ^((QG{{{{{{{{{",
"{{{{{{{{900pkxvmAKKRQ(`Q{{{{{{{{",
"{{{{{{{11190qpjzxvNGKR^`({{{{{{{",
"{{{{{{11188890ippkzvNKRQ`({{{{{{",
"{{{{{19009111890qipkxnHRQ`({{{{{",
"{{{{11pzp01>>>1890ipkznKR^`Q{{{{",
"{{{9%1jzi01:%%:>1800ijzNKQ(`K{{{",
"{{{>%10q09>%$$%%>1190pjcARQ_^{{{",
"{{{%%>1881:%$$$%%>1190pkbHR^_{{{",
"{{1$%%>1>:%$$$$$%%:>10ipxBKQ_R{{",
"{{>$$%%%%%$$####$$%:180ikbGR(Q{{",
"{{%$$$$$$$##oooo#$%%>19qpxAK^^{{",
"{{$$$$$$$#ooooooo$$%%>10ilNGQ^{{",
"{{%$$$$$oooooooooo$$%>190pbGRQ{{",
"{{O$$OOoooo$%=%$oo#$%%>10pvARK{{",
"{{@X$$ooooOO&&&=$o#$$%>19ivBMu{{",
"{{M3X$$$ooXfICeO$$$$$%%>8ixa<={{",
"{{{TyXX$$.g`(RSuOO$$$%%19w2=y{{{",
"{{{^^Z3X +Y]]_FD;O$%=>>2,=4V`{{{",
"{{{^^(^Z7*!]'_^R<O&&&==<th~[[{{{",
"{{{{^((_(dV'`((I-*;<egV!('[[{{{{",
"{{{{{(___I6P((T7s!~)'''''[[{{{{{",
"{{{{{{(___Lryu5g)]]]]'`'[[{{{{{{",
"{{{{{{{_`''~UI!'''''''][[{{{{{{{",
"{{{{{{{{_'''''''''''][[[{{{{{{{{",
"{{{{{{{{{!_']]]]]][[[[`{{{{{{{{{",
"{{{{{{{{{{{T(`'[]'`(E{{{{{{{{{{{",
"{{{{{{{{{{{{{{{{{{{{{{{{{{{{{{{{",
"{{{{{{{{{{{{{{{{{{{{{{{{{{{{{{{{"
};
