/* XPM */
static char * speed_dreams_xpm[] = {
"46 42 687 2",
"  	c None",
". 	c #2F2F2F",
"+ 	c #575757",
"@ 	c #808080",
"# 	c #A4A4A4",
"$ 	c #B8B8B8",
"% 	c #BDBDBD",
"& 	c #BCBCBC",
"* 	c #B7B7B7",
"= 	c #A1A1A1",
"- 	c #747474",
"; 	c #3E3E3E",
"> 	c #191919",
", 	c #131313",
"' 	c #454545",
") 	c #8E8E8E",
"! 	c #C9C9C9",
"~ 	c #E8E8E8",
"{ 	c #F4F4F4",
"] 	c #F2F2F2",
"^ 	c #EFEFEF",
"/ 	c #F6F6F6",
"( 	c #FBFBFB",
"_ 	c #F7F7F7",
": 	c #E5E5E5",
"< 	c #B2B2B2",
"[ 	c #595959",
"} 	c #181818",
"| 	c #0C0C0C",
"1 	c #424242",
"2 	c #A5A5A5",
"3 	c #E9E9E9",
"4 	c #F9F9F9",
"5 	c #D7D7D7",
"6 	c #A0A0A0",
"7 	c #8D8D8D",
"8 	c #E3E3E3",
"9 	c #CECECE",
"0 	c #717171",
"a 	c #202020",
"b 	c #212121",
"c 	c #848484",
"d 	c #E4E4E4",
"e 	c #FEFEFE",
"f 	c #E1E1E1",
"g 	c #323232",
"h 	c #414141",
"i 	c #767676",
"j 	c #999999",
"k 	c #9A9A9A",
"l 	c #6A6A6A",
"m 	c #2A2A2A",
"n 	c #060606",
"o 	c #383838",
"p 	c #FFFFFF",
"q 	c #FCFCFC",
"r 	c #D3D3D3",
"s 	c #656565",
"t 	c #1A1A1A",
"u 	c #272727",
"v 	c #050505",
"w 	c #AFAFAF",
"x 	c #F5F5F5",
"y 	c #B1B1B1",
"z 	c #676767",
"A 	c #3A3A3A",
"B 	c #1B1B1B",
"C 	c #080808",
"D 	c #1E1E1E",
"E 	c #CACACA",
"F 	c #F1F1F1",
"G 	c #DCDCDC",
"H 	c #B3B3B3",
"I 	c #7B7B7B",
"J 	c #464646",
"K 	c #222222",
"L 	c #606060",
"M 	c #979797",
"N 	c #C7C7C7",
"O 	c #FAFAFA",
"P 	c #C1C1C1",
"Q 	c #797979",
"R 	c #313131",
"S 	c #252525",
"T 	c #BEBEBE",
"U 	c #F0F0F0",
"V 	c #FDFDFD",
"W 	c #C4C4C4",
"X 	c #151515",
"Y 	c #545454",
"Z 	c #F8F8F8",
"` 	c #D4D4D4",
" .	c #4A4A4A",
"..	c #C0C0C0",
"+.	c #4B4B4B",
"@.	c #474747",
"#.	c #484848",
"$.	c #494949",
"%.	c #626262",
"&.	c #A8A8A8",
"*.	c #EBEBEB",
"=.	c #D1D1D1",
"-.	c #727272",
";.	c #242424",
">.	c #CCCCCC",
",.	c #CDCDCD",
"'.	c #CBCBCB",
").	c #D0D0D0",
"!.	c #DFDFDF",
"~.	c #E7E7E7",
"{.	c #707070",
"].	c #292929",
"^.	c #C8C8C8",
"/.	c #BBBCBC",
"(.	c #9F9F9F",
"_.	c #3F3F3F",
":.	c #171717",
"<.	c #393838",
"[.	c #3B3B3B",
"}.	c #3A3939",
"|.	c #393939",
"1.	c #353535",
"2.	c #2D2C2C",
"3.	c #1F1F1F",
"4.	c #0F0F0F",
"5.	c #060404",
"6.	c #000000",
"7.	c #372626",
"8.	c #392727",
"9.	c #392726",
"0.	c #362626",
"a.	c #382626",
"b.	c #382625",
"c.	c #382525",
"d.	c #382424",
"e.	c #362323",
"f.	c #362222",
"g.	c #362221",
"h.	c #331F1F",
"i.	c #2D1B1B",
"j.	c #261717",
"k.	c #1E1010",
"l.	c #130B09",
"m.	c #BD7A79",
"n.	c #BE7A79",
"o.	c #BD7978",
"p.	c #BC7978",
"q.	c #BD7977",
"r.	c #BD7877",
"s.	c #BE7877",
"t.	c #BE7777",
"u.	c #BE7876",
"v.	c #BE7776",
"w.	c #BF7675",
"x.	c #BE7675",
"y.	c #BF7574",
"z.	c #BF7573",
"A.	c #BF7473",
"B.	c #BE7372",
"C.	c #BD7170",
"D.	c #BC7270",
"E.	c #BD716F",
"F.	c #BD706F",
"G.	c #BB6D6C",
"H.	c #B66968",
"I.	c #AA6160",
"J.	c #975353",
"K.	c #794040",
"L.	c #542C2B",
"M.	c #341919",
"N.	c #DF7270",
"O.	c #DF726F",
"P.	c #DF716F",
"Q.	c #E0706E",
"R.	c #E1706E",
"S.	c #E1706D",
"T.	c #E16F6C",
"U.	c #E26F6C",
"V.	c #E26E6B",
"W.	c #E26D6A",
"X.	c #E36C69",
"Y.	c #E36B69",
"Z.	c #E36B68",
"`.	c #E46A68",
" +	c #E46A67",
".+	c #E56967",
"++	c #E56866",
"@+	c #E66865",
"#+	c #E76765",
"$+	c #E76665",
"%+	c #E96967",
"&+	c #E76A68",
"*+	c #DE6A68",
"=+	c #C55E5C",
"-+	c #934341",
";+	c #512222",
">+	c #DB5F5C",
",+	c #DB5E5B",
"'+	c #DC5D5A",
")+	c #DD5C59",
"!+	c #DD5C58",
"~+	c #DE5B58",
"{+	c #DF5A57",
"]+	c #DF5956",
"^+	c #E05855",
"/+	c #E05755",
"(+	c #E05754",
"_+	c #E15653",
":+	c #E15553",
"<+	c #E25552",
"[+	c #E35452",
"}+	c #E35351",
"|+	c #E45351",
"1+	c #E3524F",
"2+	c #E3504E",
"3+	c #E24F4D",
"4+	c #E34F4D",
"5+	c #E4504E",
"6+	c #E55351",
"7+	c #E65755",
"8+	c #DE5755",
"9+	c #B14442",
"0+	c #5A1F1F",
"a+	c #140606",
"b+	c #A54744",
"c+	c #A64845",
"d+	c #A64745",
"e+	c #A44744",
"f+	c #A64746",
"g+	c #A54745",
"h+	c #A54643",
"i+	c #A64644",
"j+	c #A74644",
"k+	c #A64543",
"l+	c #A64442",
"m+	c #A64342",
"n+	c #A74341",
"o+	c #A84341",
"p+	c #A84240",
"q+	c #A84140",
"r+	c #A8413F",
"s+	c #A9403F",
"t+	c #AA403E",
"u+	c #AA403D",
"v+	c #A93F3D",
"w+	c #AC3F3D",
"x+	c #B54240",
"y+	c #C84846",
"z+	c #DB4E4C",
"A+	c #E2504E",
"B+	c #E24E4B",
"C+	c #E34D4C",
"D+	c #E34C4A",
"E+	c #E54C4A",
"F+	c #E64E4C",
"G+	c #E04C4B",
"H+	c #A03534",
"I+	c #310F0E",
"J+	c #281111",
"K+	c #2A1212",
"L+	c #2B1211",
"M+	c #2A1111",
"N+	c #291110",
"O+	c #2A1211",
"P+	c #2B1313",
"Q+	c #2C1211",
"R+	c #2D1312",
"S+	c #2C1111",
"T+	c #29100F",
"U+	c #260F0F",
"V+	c #271010",
"W+	c #281010",
"X+	c #27100E",
"Y+	c #240E0D",
"Z+	c #240D0D",
"`+	c #2D1010",
" @	c #481A19",
".@	c #84302F",
"+@	c #C84F4E",
"@@	c #E25856",
"#@	c #E34D4B",
"$@	c #E34C4B",
"%@	c #E44C4A",
"&@	c #E64C4A",
"*@	c #CB4241",
"=@	c #5F1E1E",
"-@	c #080505",
";@	c #271B19",
">@	c #472F2F",
",@	c #4F3433",
"'@	c #4F3232",
")@	c #4F2F2F",
"!@	c #371D1C",
"~@	c #0D0605",
"{@	c #010000",
"]@	c #040101",
"^@	c #200D0D",
"/@	c #773837",
"(@	c #D26361",
"_@	c #E55B59",
":@	c #E44B49",
"<@	c #E64B49",
"[@	c #D94644",
"}@	c #8A2C2B",
"|@	c #1D1513",
"1@	c #6D4C4A",
"2@	c #C17F7D",
"3@	c #CF7D7B",
"4@	c #CE7978",
"5@	c #CE7A78",
"6@	c #CE7977",
"7@	c #CF7876",
"8@	c #C86966",
"9@	c #7D3836",
"0@	c #1A0A0A",
"a@	c #030303",
"b@	c #050202",
"c@	c #371F1E",
"d@	c #B26260",
"e@	c #E66967",
"f@	c #E34E4D",
"g@	c #E34A48",
"h@	c #E44A48",
"i@	c #E54A48",
"j@	c #DC4644",
"k@	c #9C3130",
"l@	c #342425",
"m@	c #9C6867",
"n@	c #E1817F",
"o@	c #E16664",
"p@	c #E0625F",
"q@	c #E0615F",
"r@	c #E1605E",
"s@	c #E45F5D",
"t@	c #CE5250",
"u@	c #662725",
"v@	c #100605",
"w@	c #020202",
"x@	c #090909",
"y@	c #020201",
"z@	c #231515",
"A@	c #A35F5E",
"B@	c #E76F6D",
"C@	c #E34E4C",
"D@	c #E24947",
"E@	c #E34947",
"F@	c #E44846",
"G@	c #E54846",
"H@	c #DA4442",
"I@	c #922D2C",
"J@	c #503636",
"K@	c #DE6D6B",
"L@	c #D8524F",
"M@	c #D94F4C",
"N@	c #DA4F4D",
"O@	c #DB4F4D",
"P@	c #DD4F4D",
"Q@	c #B13E3C",
"R@	c #3E1615",
"S@	c #060202",
"T@	c #010101",
"U@	c #0A0A0A",
"V@	c #2E1C1C",
"W@	c #AD6867",
"X@	c #E66D6C",
"Y@	c #E14A48",
"Z@	c #E24745",
"`@	c #E24644",
" #	c #E34644",
".#	c #D23F3D",
"+#	c #722221",
"@#	c #1D1312",
"##	c #774F4E",
"$#	c #D47C79",
"%#	c #DB5C5A",
"&#	c #D74C4A",
"*#	c #D84C4A",
"=#	c #D84C49",
"-#	c #DA4B49",
";#	c #D54947",
">#	c #8A2F2E",
",#	c #210C0B",
"'#	c #030101",
")#	c #070707",
"!#	c #070404",
"~#	c #4C2F2F",
"{#	c #C27272",
"]#	c #E56261",
"^#	c #E04442",
"/#	c #E04341",
"(#	c #E14341",
"_#	c #E24240",
":#	c #E34240",
"<#	c #C03736",
"[#	c #4A1515",
"}#	c #322020",
"|#	c #A26665",
"1#	c #DE7472",
"2#	c #D7504D",
"3#	c #D54846",
"4#	c #D64847",
"5#	c #D74746",
"6#	c #D94846",
"7#	c #C6413F",
"8#	c #62201F",
"9#	c #0F0504",
"0#	c #0B0B0B",
"a#	c #110A09",
"b#	c #724444",
"c#	c #D77170",
"d#	c #E1514F",
"e#	c #DE3F3D",
"f#	c #DF403E",
"g#	c #E03F3D",
"h#	c #E13E3D",
"i#	c #E03D3C",
"j#	c #A22C2B",
"k#	c #2C0C0B",
"l#	c #100909",
"m#	c #553635",
"n#	c #C37372",
"o#	c #DC6260",
"p#	c #D34644",
"q#	c #D44542",
"r#	c #D54443",
"s#	c #D64442",
"t#	c #D74341",
"u#	c #AC3634",
"v#	c #3D1413",
"w#	c #050606",
"x#	c #0D0D0D",
"y#	c #291817",
"z#	c #9C5958",
"A#	c #DE6564",
"B#	c #DE4342",
"C#	c #DD3C3B",
"D#	c #DE3C3A",
"E#	c #DF3C3A",
"F#	c #E13C3A",
"G#	c #D63737",
"H#	c #7C2020",
"I#	c #180707",
"J#	c #1C1110",
"K#	c #7B4B4A",
"L#	c #D57271",
"M#	c #D6504E",
"N#	c #D1403E",
"O#	c #D2413E",
"P#	c #D3403E",
"Q#	c #D43F3E",
"R#	c #CF3D3C",
"S#	c #8A2928",
"T#	c #220A0A",
"U#	c #020101",
"V#	c #060303",
"W#	c #482928",
"X#	c #BD6462",
"Y#	c #E05452",
"Z#	c #DC3B39",
"`#	c #DC3937",
" $	c #DC3936",
".$	c #DE3836",
"+$	c #E03837",
"@$	c #C2302F",
"#$	c #5C1716",
"$$	c #382222",
"%$	c #A35D5C",
"&$	c #D96462",
"*$	c #D14140",
"=$	c #CF3C3A",
"-$	c #D13C3A",
";$	c #D23C3A",
">$	c #D33B3A",
",$	c #C03535",
"'$	c #631C1B",
")$	c #100504",
"!$	c #020303",
"~$	c #130A0A",
"{$	c #703D3D",
"]$	c #DD4442",
"^$	c #DA3533",
"/$	c #DB3534",
"($	c #DC3433",
"_$	c #DD3433",
":$	c #DC3432",
"<$	c #A52726",
"[$	c #400F0F",
"}$	c #5F3635",
"|$	c #C26765",
"1$	c #D55150",
"2$	c #CD3837",
"3$	c #CE3836",
"4$	c #CF3836",
"5$	c #CF3736",
"6$	c #D03734",
"7$	c #A92D2B",
"8$	c #3F1110",
"9$	c #060102",
"0$	c #030404",
"a$	c #2A1617",
"b$	c #9A5150",
"c$	c #DD5957",
"d$	c #DA3836",
"e$	c #D83130",
"f$	c #DA3130",
"g$	c #DA312F",
"h$	c #DC302F",
"i$	c #D32E2C",
"j$	c #871E1D",
"k$	c #241414",
"l$	c #814746",
"m$	c #D16361",
"n$	c #CF403F",
"o$	c #CB3331",
"p$	c #CD3432",
"q$	c #CD3332",
"r$	c #CE3231",
"s$	c #CB3130",
"t$	c #882220",
"u$	c #1F0807",
"v$	c #0F0808",
"w$	c #5B3231",
"x$	c #C4605D",
"y$	c #DD4846",
"z$	c #D72F2E",
"A$	c #D72D2C",
"B$	c #D82C2B",
"C$	c #D92C2B",
"D$	c #DA2C2B",
"E$	c #BA2625",
"F$	c #6B1616",
"G$	c #351D1D",
"H$	c #A25654",
"I$	c #D45553",
"J$	c #C92E2D",
"K$	c #CA2E2E",
"L$	c #CB2E2C",
"M$	c #CE2F2D",
"N$	c #BE2B2A",
"O$	c #601616",
"P$	c #0E0303",
"Q$	c #0C0605",
"R$	c #422323",
"S$	c #A65654",
"T$	c #DA5654",
"U$	c #D73332",
"V$	c #D42A28",
"W$	c #D52928",
"X$	c #D72928",
"Y$	c #D92928",
"Z$	c #C92525",
"`$	c #881B1A",
" %	c #552E2E",
".%	c #BC5B59",
"+%	c #D04441",
"@%	c #C82B2A",
"#%	c #C92B2A",
"$%	c #CA2A29",
"%%	c #CC2A29",
"&%	c #A52322",
"*%	c #370C0C",
"=%	c #190C0C",
"-%	c #512929",
";%	c #A55352",
">%	c #D75857",
",%	c #D83736",
"'%	c #D32726",
")%	c #D32625",
"!%	c #D52625",
"~%	c #D72625",
"{%	c #CF2423",
"]%	c #941B1A",
"^%	c #490E0E",
"/%	c #1F1010",
"(%	c #7B413F",
"_%	c #CA5654",
":%	c #CA3432",
"<%	c #C62726",
"[%	c #C72827",
"}%	c #C82726",
"|%	c #C92726",
"1%	c #C62625",
"2%	c #871C1C",
"3%	c #2D0D0D",
"4%	c #1C0C0C",
"5%	c #2D1515",
"6%	c #512827",
"7%	c #874341",
"8%	c #BF5857",
"9%	c #D8504E",
"0%	c #D63433",
"a%	c #D12423",
"b%	c #D22322",
"c%	c #D32322",
"d%	c #D42322",
"e%	c #CE2221",
"f%	c #9B1918",
"g%	c #4A0D0C",
"h%	c #A14D4B",
"i%	c #CE4846",
"j%	c #C62827",
"k%	c #C42424",
"l%	c #C62522",
"m%	c #C62423",
"n%	c #C82423",
"o%	c #C72525",
"p%	c #AC302F",
"q%	c #953938",
"r%	c #9D403F",
"s%	c #B24C4A",
"t%	c #C95351",
"u%	c #D64E4D",
"v%	c #D43B39",
"w%	c #D12826",
"x%	c #CF2120",
"y%	c #D02120",
"z%	c #D12120",
"A%	c #D1211F",
"B%	c #C61E1D",
"C%	c #931716",
"D%	c #490C0C",
"E%	c #552A2A",
"F%	c #B9514F",
"G%	c #CC3836",
"H%	c #C22120",
"I%	c #C32120",
"J%	c #C5201F",
"K%	c #C92423",
"L%	c #D03130",
"M%	c #D63A39",
"N%	c #D53635",
"O%	c #D12D2C",
"P%	c #CE2423",
"Q%	c #CD1E1D",
"R%	c #CE1E1D",
"S%	c #D01E1D",
"T%	c #D11E1D",
"U%	c #CA1D1C",
"V%	c #AF1918",
"W%	c #771211",
"X%	c #390808",
"Y%	c #190909",
"Z%	c #6D2D2C",
"`%	c #C2413F",
" &	c #C82827",
".&	c #C31E1D",
"+&	c #C41F1E",
"@&	c #C41E1E",
"#&	c #C51E1D",
"$&	c #C71E1D",
"%&	c #C81F1E",
"&&	c #C91F1E",
"*&	c #C91D1C",
"=&	c #C91C1B",
"-&	c #CB1C1B",
";&	c #CD1C1B",
">&	c #CE1C1B",
",&	c #C01B1A",
"'&	c #A81716",
")&	c #7E1110",
"!&	c #490A0A",
"~&	c #1E0505",
"{&	c #551817",
"]&	c #9D2221",
"^&	c #B71E1D",
"/&	c #B91D1C",
"(&	c #BB1D1C",
"_&	c #BC1D1C",
":&	c #BC1C1C",
"<&	c #BE1B1B",
"[&	c #BE1B1A",
"}&	c #BF1B1A",
"|&	c #BD1B1A",
"1&	c #B91B1A",
"2&	c #B01918",
"3&	c #A41717",
"4&	c #921515",
"5&	c #7A1111",
"6&	c #5F0D0D",
"7&	c #3D0808",
"8&	c #1F0405",
"9&	c #0C0101",
"0&	c #6A0F0F",
"a&	c #590C0C",
"b&	c #450A0A",
"c&	c #310606",
"d&	c #1F0404",
"                                                                                            ",
"                                                                . + @ # $ % & * = - ; >     ",
"                                                            , ' ) ! ~ { ] ^ / ( _ : < [ }   ",
"                                                          | 1 2 3 ( 4 5 6 7 < 8 _ { 9 0 a   ",
"                                                          b c d e e f c g b h i j k l m     ",
"                                                        n o < / p q r s t     } u           ",
"                                                        v o w x p e ^ y z A B C             ",
"                                                          D - E F q e x G H I J K           ",
"                                                            m L M N 3 O e 4 3 P Q R         ",
"                                                                S ' I T U V e 4 W +         ",
"                                                                  n X Y W Z p V ` s         ",
"                                                                  n |  ...Z p / * +.        ",
"@.#.#.J J J J J J J J J J J J J J @.@.@.@.@.@.@.@.@.@.@.@.@.@.@.@.$.%.&.*.e Z =.-.;.        ",
">.,.>.'.E E E E E E E E E '.'.E E E E E E E E E E E E E E E E E '.).!.F x ~.% {.].          ",
"^.! ! ^.^.^.^.^.^.^.^.^.^.^.^.^.^.^.^.^.^.^.^.^.^.^.^.^.^.^.^.^.^.^.N /.(.-._.:.            ",
"<.[.}.<.<.<.<.<.<.<.<.<.<.<.|.<.<.|.|.|.|.|.|.|.|.|.|.|.|.|.<.<.<.<.1.2.3.4.5.6.            ",
"7.8.9.0.7.7.7.7.7.7.7.7.7.7.a.7.7.b.b.b.b.c.c.c.c.c.c.c.c.d.e.e.e.e.f.g.h.i.j.k.l.          ",
"m.n.o.o.p.p.p.p.p.p.p.p.p.o.q.o.o.r.s.t.u.v.w.w.x.y.z.z.A.B.C.D.D.C.E.F.G.H.I.J.K.L.M.      ",
"N.O.O.N.N.N.N.N.N.N.N.N.N.N.O.O.O.P.Q.R.S.T.U.V.W.X.Y.Z.`. +.+.+++@+#+#+$+#+%+&+*+=+-+;+    ",
">+>+>+>+>+>+>+>+>+>+>+>+>+>+>+>+>+,+'+'+)+!+~+{+]+^+/+(+_+:+<+[+}+|+1+2+3+4+4+5+6+7+8+9+0+a+",
"b+c+d+e+b+b+b+b+b+b+b+e+e+b+f+g+e+h+i+j+k+l+m+n+o+p+q+r+s+t+u+v+w+x+y+z+A+2+B+C+D+E+F+G+H+I+",
"J+K+L+M+M+N+N+N+N+N+N+O+M+O+P+L+L+Q+R+R+S+T+U+V+V+V+W+W+W+W+X+Y+Z+`+ @.@+@@@2+#@$@D+%@&@*@=@",
"                                          -@;@>@,@'@'@'@'@)@!@~@{@6.]@^@/@(@_@#@%@D+:@<@[@}@",
"                                          |@1@2@3@4@5@6@7@8@9@0@{@a@a@b@c@d@e@f@:@g@h@i@j@k@",
"                                          l@m@n@o@p@q@r@s@t@u@v@w@x@n y@z@A@B@C@D@E@F@G@H@I@",
"                                          J@u.K@L@M@N@O@P@Q@R@S@T@U@a@w@V@W@X@Y@Z@`@`@ #.#+#",
"                                        @###$#%#&#*#=#-#;#>#,#'#)#U@w@!#~#{#]#^#/#(#_#:#<#[#",
"                                        }#|#1#2#3#4#5#6#7#8#9#w@0#)#{@a#b#c#d#e#f#g#h#i#j#k#",
"                                      l#m#n#o#p#q#r#s#t#u#v#S@w#x#w#T@y#z#A#B#C#D#E#F#G#H#I#",
"                                      J#K#L#M#N#O#P#Q#R#S#T#U#)#| w@V#W#X#Y#Z#`# $.$+$@$#$  ",
"                                      $$%$&$*$=$-$;$>$,$'$)$!$x@n T@~${$(@]$^$/$($_$:$<$[$  ",
"                                      }$|$1$2$3$4$5$6$7$8$9$0$C w@U#a$b$c$d$e$f$g$h$i$j$    ",
"                                    k$l$m$n$o$p$q$r$s$t$u$T@T@T@6.v$w$x$y$z$A$B$C$D$E$F$    ",
"                                    G$H$I$o$J$K$L$M$N$O$P$6.6.6.Q$R$S$T$U$V$W$X$Y$Z$`$      ",
"                                  v$ %.%+%@%@%#%$%%%&%*%]@{@b@=%-%;%>%,%'%)%!%~%{%]%^%      ",
"                                  /%(%_%:%<%[%}%|%1%2%3%4%5%6%7%8%9%0%a%b%c%d%e%f%g%        ",
"                                  !@h%i%j%k%l%m%n%o%p%q%r%s%t%u%v%w%x%y%z%A%B%C%D%          ",
"                                v$E%F%G%H%I%I%J%J%K%L%v%M%N%O%P%Q%R%S%T%U%V%W%X%            ",
"                                Y%Z%`% &.&+&@&#&B%$&%&&&*&=&-&;&>&-&,&'&)&!&~&              ",
"                                  {&]&^&/&/&(&_&:&<&[&}&|&1&2&3&4&5&6&7&8&9&                ",
"                                                          0&a&b&c&d&                        ",
"                                                                                            "};
