/* XPM */
static char * violetland_xpm[] = {
"48 48 699 2",
"  	c None",
". 	c #44007E",
"+ 	c #44007D",
"@ 	c #340060",
"# 	c #3F0075",
"$ 	c #43007D",
"% 	c #43007B",
"& 	c #42007B",
"* 	c #42007A",
"= 	c #410079",
"- 	c #410078",
"; 	c #400078",
"> 	c #3F0076",
", 	c #3E0074",
"' 	c #3E0073",
") 	c #3D0072",
"! 	c #3D0071",
"~ 	c #3C006F",
"{ 	c #3B006E",
"] 	c #3A006D",
"^ 	c #39006C",
"/ 	c #3A006B",
"( 	c #390069",
"_ 	c #380067",
": 	c #370066",
"< 	c #370064",
"[ 	c #360064",
"} 	c #340062",
"| 	c #330060",
"1 	c #33005E",
"2 	c #31005D",
"3 	c #31005B",
"4 	c #30005A",
"5 	c #2F0058",
"6 	c #2E0056",
"7 	c #2D0054",
"8 	c #2C0053",
"9 	c #2B0051",
"0 	c #2B004F",
"a 	c #29004D",
"b 	c #28004B",
"c 	c #270049",
"d 	c #460082",
"e 	c #450081",
"f 	c #470085",
"g 	c #1F0039",
"h 	c #000000",
"i 	c #08000E",
"j 	c #450082",
"k 	c #45007F",
"l 	c #44007F",
"m 	c #43007C",
"n 	c #41007A",
"o 	c #400077",
"p 	c #400076",
"q 	c #3E0075",
"r 	c #3C0071",
"s 	c #39006B",
"t 	c #380069",
"u 	c #370067",
"v 	c #370065",
"w 	c #350064",
"x 	c #350063",
"y 	c #340061",
"z 	c #33005F",
"A 	c #31005C",
"B 	c #2F0059",
"C 	c #2E0057",
"D 	c #2D0055",
"E 	c #2C0051",
"F 	c #2A004F",
"G 	c #470084",
"H 	c #4A008A",
"I 	c #17002D",
"J 	c #06000A",
"K 	c #470083",
"L 	c #450080",
"M 	c #3A006C",
"N 	c #39006A",
"O 	c #360066",
"P 	c #360065",
"Q 	c #300059",
"R 	c #490087",
"S 	c #4B008B",
"T 	c #05000A",
"U 	c #000100",
"V 	c #3D0070",
"W 	c #460083",
"X 	c #3C0070",
"Y 	c #380068",
"Z 	c #32005C",
"` 	c #490089",
" .	c #4D008F",
"..	c #0A0014",
"+.	c #010001",
"@.	c #050008",
"#.	c #490088",
"$.	c #490086",
"%.	c #480086",
"&.	c #440080",
"*.	c #42007C",
"=.	c #43007E",
"-.	c #410077",
";.	c #3B006F",
">.	c #32005E",
",.	c #31005A",
"'.	c #4B008C",
").	c #4E0091",
"!.	c #230041",
"~.	c #010101",
"{.	c #020003",
"].	c #4C008C",
"^.	c #4A0089",
"/.	c #480087",
"(.	c #480085",
"_.	c #160029",
":.	c #16002A",
"<.	c #0F001B",
"[.	c #10001C",
"}.	c #3D0073",
"|.	c #360063",
"1.	c #2C0052",
"2.	c #4E0090",
"3.	c #0F001C",
"4.	c #42007D",
"5.	c #4C008D",
"6.	c #4B0089",
"7.	c #490085",
"8.	c #460084",
"9.	c #10001F",
"0.	c #1A0030",
"a.	c #3F0074",
"b.	c #4F0091",
"c.	c #510095",
"d.	c #270048",
"e.	c #130023",
"f.	c #520099",
"g.	c #4C008E",
"h.	c #4A0088",
"i.	c #090010",
"j.	c #260048",
"k.	c #3B006D",
"l.	c #370068",
"m.	c #4F0094",
"n.	c #500095",
"o.	c #0E011B",
"p.	c #55009D",
"q.	c #4D0090",
"r.	c #21003D",
"s.	c #010002",
"t.	c #520097",
"u.	c #520098",
"v.	c #0D0118",
"w.	c #5600A0",
"x.	c #500093",
"y.	c #4F0092",
"z.	c #4B008A",
"A.	c #1D0037",
"B.	c #1F003B",
"C.	c #38006A",
"D.	c #52009A",
"E.	c #53009A",
"F.	c #54009B",
"G.	c #0C0017",
"H.	c #0C0116",
"I.	c #5800A3",
"J.	c #4F0093",
"K.	c #4F0090",
"L.	c #0E001B",
"M.	c #050009",
"N.	c #30005B",
"O.	c #55009C",
"P.	c #54009C",
"Q.	c #5B00AB",
"R.	c #510098",
"S.	c #510097",
"T.	c #500094",
"U.	c #230040",
"V.	c #3F0077",
"W.	c #330061",
"X.	c #56009F",
"Y.	c #54009A",
"Z.	c #1A0031",
"`.	c #510096",
" +	c #500096",
".+	c #030006",
"++	c #350062",
"@+	c #5800A2",
"#+	c #5700A1",
"$+	c #55009F",
"%+	c #230042",
"&+	c #2A004E",
"*+	c #5900A5",
"=+	c #5800A4",
"-+	c #29004B",
";+	c #140026",
">+	c #5A00A6",
",+	c #55009E",
"'+	c #39006D",
")+	c #5A00A7",
"!+	c #150027",
"~+	c #0D0017",
"{+	c #5700A3",
"]+	c #5700A2",
"^+	c #5C00AA",
"/+	c #5C00A9",
"(+	c #1D0036",
"_+	c #5700A0",
":+	c #56009E",
"<+	c #5B00A9",
"[+	c #19002F",
"}+	c #5C00AC",
"|+	c #5E00AD",
"1+	c #5B00AA",
"2+	c #0C0016",
"3+	c #5A00A8",
"4+	c #5600A1",
"5+	c #010103",
"6+	c #10001D",
"7+	c #3F0078",
"8+	c #5F00B0",
"9+	c #5F00B1",
"0+	c #6B00C8",
"a+	c #22003E",
"b+	c #010102",
"c+	c #17002B",
"d+	c #6100B2",
"e+	c #6100B4",
"f+	c #19002D",
"g+	c #6400B9",
"h+	c #5D00AC",
"i+	c #5D00AB",
"j+	c #5E00AE",
"k+	c #150026",
"l+	c #040008",
"m+	c #2F0056",
"n+	c #3E0078",
"o+	c #3E0072",
"p+	c #6200B5",
"q+	c #6000B2",
"r+	c #5F00B2",
"s+	c #4E00A8",
"t+	c #5200A7",
"u+	c #5F00AD",
"v+	c #5B00A8",
"w+	c #5900A6",
"x+	c #53009B",
"y+	c #4E008F",
"z+	c #42007F",
"A+	c #4C0A84",
"B+	c #7C4DA3",
"C+	c #3A0075",
"D+	c #6300B7",
"E+	c #6700BE",
"F+	c #29004C",
"G+	c #450085",
"H+	c #863BC5",
"I+	c #FFFFFF",
"J+	c #DAC6ED",
"K+	c #5F02B0",
"L+	c #5D00AE",
"M+	c #5D00AD",
"N+	c #2F0057",
"O+	c #090011",
"P+	c #4D008E",
"Q+	c #500D89",
"R+	c #F6F2F9",
"S+	c #8E65B0",
"T+	c #3D0076",
"U+	c #3D0075",
"V+	c #3C0072",
"W+	c #3A006E",
"X+	c #6400BA",
"Y+	c #6200B6",
"Z+	c #7645A2",
"`+	c #FFFFFE",
" @	c #A874D5",
".@	c #5A00AE",
"+@	c #6100B5",
"@@	c #240043",
"#@	c #000001",
"$@	c #17002A",
"%@	c #470086",
"&@	c #7E4CA9",
"*@	c #F8F6FA",
"=@	c #C2ACD5",
"-@	c #8E6BB0",
";@	c #906FB0",
">@	c #561E86",
",@	c #6D4196",
"'@	c #805DA2",
")@	c #440975",
"!@	c #6500BC",
"~@	c #6500BB",
"{@	c #6600BD",
"]@	c #400075",
"^@	c #B0AFB1",
"/@	c #690DB8",
"(@	c #6200B7",
"_@	c #000101",
":@	c #06000B",
"<@	c #140025",
"[@	c #440084",
"}@	c #8E61B4",
"|@	c #FBFAFC",
"1@	c #FEFEFE",
"2@	c #FCFBFC",
"3@	c #FDFDFE",
"4@	c #EEE9F3",
"5@	c #F6F3F8",
"6@	c #D0C2DD",
"7@	c #430B74",
"8@	c #6800BF",
"9@	c #6700BF",
"0@	c #6A00C9",
"a@	c #4E3E5D",
"b@	c #292929",
"c@	c #B384DC",
"d@	c #6E12BC",
"e@	c #5C00AB",
"f@	c #05010A",
"g@	c #A37EC3",
"h@	c #9676B0",
"i@	c #6900C2",
"j@	c #6800C2",
"k@	c #6700C1",
"l@	c #8F41D4",
"m@	c #BAB8BB",
"n@	c #949494",
"o@	c #F4EBFB",
"p@	c #4F2476",
"q@	c #33174B",
"r@	c #A485BE",
"s@	c #BBA4CE",
"t@	c #6900C5",
"u@	c #6A00C5",
"v@	c #6A00C4",
"w@	c #B883E5",
"x@	c #D1D1D1",
"y@	c #1A1A1A",
"z@	c #EFEFEF",
"A@	c #F9F9F9",
"B@	c #5B5A5C",
"C@	c #F9F8FB",
"D@	c #551B87",
"E@	c #4F1682",
"F@	c #E8E0EE",
"G@	c #6C00C7",
"H@	c #6B00C6",
"I@	c #6E05C7",
"J@	c #CBA5EA",
"K@	c #6D6D6C",
"L@	c #FCFBFD",
"M@	c #E6E6E6",
"N@	c #090909",
"O@	c #D7D7D7",
"P@	c #C9B7D9",
"Q@	c #501184",
"R@	c #E3DAEB",
"S@	c #6D00C9",
"T@	c #6D00CA",
"U@	c #7613CC",
"V@	c #FBF9FD",
"W@	c #E2BFFC",
"X@	c #545652",
"Y@	c #161B11",
"Z@	c #9A62C9",
"`@	c #CDD7C5",
" #	c #979897",
".#	c #FEFEFF",
"+#	c #E7DEEE",
"@#	c #531787",
"##	c #47097B",
"$#	c #835AA5",
"%#	c #6F00CD",
"&#	c #6900CA",
"*#	c #D1AFEF",
"=#	c #F8F3FC",
"-#	c #801BD5",
";#	c #B3B9AE",
">#	c #714595",
",#	c #523967",
"'#	c #353236",
")#	c #D7BDEC",
"!#	c #FAF9FC",
"~#	c #FEFFFE",
"{#	c #6B3698",
"]#	c #400079",
"^#	c #410178",
"/#	c #7000CF",
"(#	c #6D00CD",
"_#	c #7E1AD3",
":#	c #AB6AE2",
"<#	c #6B00CB",
"[#	c #EAF0E5",
"}#	c #261238",
"|#	c #130022",
"1#	c #020007",
"2#	c #764A99",
"3#	c #FAF7FC",
"4#	c #8E66B2",
"5#	c #7300D5",
"6#	c #6C00D0",
"7#	c #DEC5F4",
"8#	c #F1E8FA",
"9#	c #7106D0",
"0#	c #8424D5",
"a#	c #ECF1E7",
"b#	c #060606",
"c#	c #030008",
"d#	c #260247",
"e#	c #C6AFDC",
"f#	c #FFFEFE",
"g#	c #E0D4E9",
"h#	c #42037B",
"i#	c #7400D5",
"j#	c #B273E7",
"k#	c #B072E7",
"l#	c #6600CF",
"m#	c #A155E0",
"n#	c #FFFFFC",
"o#	c #616161",
"p#	c #120021",
"q#	c #120028",
"r#	c #753DA5",
"s#	c #9C79BA",
"t#	c #3B0075",
"u#	c #7609D7",
"v#	c #DABBF4",
"w#	c #A459E4",
"x#	c #7000D5",
"y#	c #6A00D2",
"z#	c #DDC1F4",
"A#	c #FDFDFD",
"B#	c #1B1B1B",
"C#	c #60556B",
"D#	c #3A007A",
"E#	c #DCCDE9",
"F#	c #BFA8D2",
"G#	c #380075",
"H#	c #821EDD",
"I#	c #FCF9FD",
"J#	c #7D0FDC",
"K#	c #7500D8",
"L#	c #6900D4",
"M#	c #EFE2FA",
"N#	c #383838",
"O#	c #5D2490",
"P#	c #6700C2",
"Q#	c #130025",
"R#	c #6513AA",
"S#	c #170E1D",
"T#	c #1A0033",
"U#	c #7C47B1",
"V#	c #9F7BBC",
"W#	c #3B0076",
"X#	c #983BE5",
"Y#	c #E0C4F6",
"Z#	c #A351E7",
"`#	c #7300DA",
" $	c #7500DA",
".$	c #F0E3FB",
"+$	c #767874",
"@$	c #4E504B",
"#$	c #D3AEF4",
"$$	c #6900D1",
"%$	c #5D08A5",
"&$	c #3C0569",
"*$	c #020004",
"=$	c #5A1C94",
"-$	c #895FAE",
";$	c #3D0079",
">$	c #7E14E1",
",$	c #C896F2",
"'$	c #7C05DF",
")$	c #7800DE",
"!$	c #861BE1",
"~$	c #F4EAFC",
"{$	c #E3CAF8",
"]$	c #CDA8ED",
"^$	c #1E1724",
"/$	c #DFC6F0",
"($	c #DECAF2",
"_$	c #6700D1",
":$	c #1D0035",
"<$	c #2D0053",
"[$	c #0A0012",
"}$	c #523968",
"|$	c #CDBADF",
"1$	c #43007F",
"2$	c #7A00E2",
"3$	c #7700E0",
"4$	c #7A00E1",
"5$	c #7800E0",
"6$	c #9232E5",
"7$	c #F7EFFD",
"8$	c #C08BEE",
"9$	c #8312E5",
"0$	c #9CA396",
"a$	c #5700A6",
"b$	c #BC8AE9",
"c$	c #C498E9",
"d$	c #22003F",
"e$	c #1C1D1B",
"f$	c #F8F4FA",
"g$	c #6D319F",
"h$	c #300072",
"i$	c #7C00E5",
"j$	c #7B00E4",
"k$	c #7A00E3",
"l$	c #A14FEA",
"m$	c #FAF6FE",
"n$	c #FDFCFE",
"o$	c #AD67EA",
"p$	c #6600D7",
"q$	c #BBC2B5",
"r$	c #521983",
"s$	c #7100D3",
"t$	c #7C17D3",
"u$	c #760CD1",
"v$	c #7100D2",
"w$	c #101010",
"x$	c #D6D7D5",
"y$	c #E1D5EC",
"z$	c #591593",
"A$	c #330075",
"B$	c #7E00E8",
"C$	c #7D00E7",
"D$	c #7C00E6",
"E$	c #7A00E5",
"F$	c #B26EEF",
"G$	c #FEFDFE",
"H$	c #F8F1FD",
"I$	c #983AE6",
"J$	c #6B00DB",
"K$	c #EDDEFA",
"L$	c #9C44E6",
"M$	c #7100D4",
"N$	c #7200D3",
"O$	c #7100D1",
"P$	c #6F00CE",
"Q$	c #BBBDB9",
"R$	c #C8B1DC",
"S$	c #520B90",
"T$	c #EAE2F1",
"U$	c #380078",
"V$	c #7E00E9",
"W$	c #7F00EA",
"X$	c #7F00E9",
"Y$	c #7D00E8",
"Z$	c #BF82F3",
"`$	c #F4E9FC",
" %	c #8617E4",
".%	c #7000DD",
"+%	c #CDA1F3",
"@%	c #B577EA",
"#%	c #6F00D5",
"$%	c #7200D2",
"%%	c #7000D0",
"&%	c #6900C3",
"*%	c #0B0114",
"=%	c #18002C",
"-%	c #050505",
";%	c #ACAFA9",
">%	c #9365BB",
",%	c #550E91",
"'%	c #E4D9ED",
")%	c #3D007C",
"!%	c #8000ED",
"~%	c #8000EC",
"{%	c #7F00EB",
"]%	c #8001EA",
"^%	c #C68FF5",
"/%	c #FEFFFF",
"(%	c #F0E1FC",
"_%	c #7600E3",
":%	c #7600E0",
"<%	c #B26DEC",
"[%	c #DEC2F5",
"}%	c #6A00D6",
"|%	c #7400D6",
"1%	c #7300D4",
"2%	c #6F00CF",
"3%	c #32015E",
"4%	c #5800A1",
"5%	c #28004A",
"6%	c #73786E",
"7%	c #7338A5",
"8%	c #4F058E",
"9%	c #C4ACD8",
"0%	c #5C1F92",
"a%	c #42007E",
"b%	c #8200F0",
"c%	c #8200EF",
"d%	c #8100EE",
"e%	c #8100ED",
"f%	c #C489F6",
"g%	c #EDDDFC",
"h%	c #7200E3",
"i%	c #7800E3",
"j%	c #A451EA",
"k%	c #6700D6",
"l%	c #7500D7",
"m%	c #7500D9",
"n%	c #140123",
"o%	c #5900A7",
"p%	c #1B2017",
"q%	c #5F1F95",
"r%	c #4E038C",
"s%	c #BCA1D3",
"t%	c #8455AB",
"u%	c #3E007C",
"v%	c #8200F2",
"w%	c #8200F1",
"x%	c #8100EF",
"y%	c #C284F6",
"z%	c #F1E3FC",
"A%	c #7E01E7",
"B%	c #7900E4",
"C%	c #9737E7",
"D%	c #EAD8FA",
"E%	c #7B07DB",
"F%	c #7400D8",
"G%	c #7300D3",
"H%	c #010100",
"I%	c #06010C",
"J%	c #470087",
"K%	c #49008A",
"L%	c #A57FC4",
"M%	c #A989C4",
"N%	c #3D007B",
"O%	c #8400F4",
"P%	c #8300F2",
"Q%	c #C07FF7",
"R%	c #F1E4FC",
"S%	c #7F01E8",
"T%	c #7B00E6",
"U%	c #8A1DE6",
"V%	c #E9D7F9",
"W%	c #902FE2",
"X%	c #7300D8",
"Y%	c #7400D7",
"Z%	c #010000",
"`%	c #5800A5",
" &	c #520096",
".&	c #0D001A",
"+&	c #48008A",
"@&	c #936FB9",
"#&	c #B195CB",
"$&	c #3C007B",
"%&	c #8700F8",
"&&	c #8600F7",
"*&	c #8500F5",
"=&	c #BD79F7",
"-&	c #F0E2FC",
";&	c #7A00E8",
">&	c #7D00E6",
",&	c #800FE5",
"'&	c #E5CEF9",
")&	c #9C46E5",
"!&	c #2E0254",
"~&	c #0D0117",
"{&	c #7E50AB",
"]&	c #B498CD",
"^&	c #8700FA",
"/&	c #8600F9",
"(&	c #8500F6",
"_&	c #8200F4",
":&	c #BB74F7",
"<&	c #E6CDFA",
"[&	c #7500E8",
"}&	c #7A00E4",
"|&	c #BF8AF1",
"1&	c #AC63E9",
"2&	c #7100D9",
"3&	c #6100B3",
"4&	c #704495",
"5&	c #0D0E0D",
"6&	c #040108",
"7&	c #7F51AC",
"8&	c #BEA5D3",
"9&	c #8800FC",
"0&	c #8700F9",
"a&	c #8600F8",
"b&	c #8400F5",
"c&	c #BD77F8",
"d&	c #BA75F4",
"e&	c #7800E8",
"f&	c #9D47E9",
"g&	c #FCFAFE",
"h&	c #BD84EE",
"i&	c #7000D8",
"j&	c #590E9F",
"k&	c #E6D4F5",
"l&	c #2D2E2D",
"m&	c #4A008B",
"n&	c #5F2196",
"o&	c #F3EFF7",
"p&	c #BFA6D3",
". . . . + @ # . $ $ % & * = - ; > > # , ' ) ! ~ { ] ^ / ( _ : < [ } | 1 2 3 4 5 6 7 8 9 0 a b c ",
"d d e f g h i j k k l $ $ $ m * n = o p p q ' ' r ~ { ] ^ s t u v w x y z 2 A 3 B C D 8 E F a b ",
"G G H I h h J ' K j e L l l . $ $ & & = ; > > # ' ' r ~ { M M N u O P [ y @ 1 A 3 Q C D 8 9 0 a ",
"R R S T U h T V f G W d d e L l . . $ & & * ; > > # ' ) X { ] ^ s Y : [ [ } | 1 Z 3 B C D 8 9 F ",
"` `  ...U +.@./ #.$.%.%.G G W d e &.k . $ *.. e l l =.-.' ! ;.{ M s t _ P [ } | >.Z ,.B C D 8 E ",
"'.'.).!.h ~.{.1 ].^.#.R /.%.(.f G d e L =.K 6 _.:.<.[.a o }.) X ] ] / t u P |.} | 1 A 3 B C D 1.",
"2.2. .; U +.h 3.4.5.S S 6.` R #./.7.f 8.. 9.U U U h U h 0.a., ) X { ] M t _ P < x | >.Z 3 B C D ",
"b.).c.d.h ~.+.h e.f.g.5.].'.S ^.h.R #.o i.h ~.U ~.~.~.U h j.; q ' ! ;.k.M t l.v [ x | 1 Z 3 B C ",
"m.n.).+.h ~.~.U o.p.q. . .g.5.'.S H #.r.h ~.h ~.~.~.~.~.h s.d > # }.! ;.] / t l.P [ x | >.A 3 5 ",
"t.u.).U h U ~.U v.w.x.y.y.b.2. .g.].z.A.U +.~.~.~.~.~.~.~.h B.l p q ' ! ;.{ ] C.Y v |.} @ >.3 ,.",
"D.E.F.G.U ~.~.U H.I.c.n.m.J.y.K.2. .#.L.U ~.~.~.~.~.~.~.~.h M., = > q , ) ~ { M t l.P |.} | 2 N.",
"O.P.P.^.{.h ~.U ~.Q.R.S.S.c.T.m.J.m.N U U ~.~.~.~.~.~.~.h ~.h U.$ ; V.p }.) ;.] M C.u P w W.z A ",
"X.X.X.Y.Z.U U ~.h n.P.E.f.u.u.`. +t.h h ~.~.~.~.~.~.~.~.~.~.s..+++m = > p , ! ;.k.M N u v |.y z ",
"@+@+#+$+%+U ~.~.h &+*+p.F.E.D.f.E.K U U +.~.~.~.~.~.~.~.~.~.{.F : l % = o # ' ! ;.k./ Y : [ x | ",
"=+=+=+I.-+U ~.+.U ;+>+X.,+,+O.F.F.e U U ~.~.~.~.~.~.~.~.~.~.h e.. . + % = o a.' ! ~ '+s t O w } ",
")+)+)+,+!+h ~.~.h ~+{+]+#+w.,+p.P.F.U U +.~.~.~.~.~.~.~.~.~.U h ] e . $ & ; > # }.! k.M N _ P [ ",
"^+/+^+(+h h ~.h ~.i _+=+{+@+#+_+:+<+U h ~.~.~.~.~.~.~.~.~.U s.[+-.W e . $ n ; > , ) X ] M C.u w ",
"}+|+1+~.h ~.U ~.h 2+3+)+*+*+{+]+4+*+A h U U ~.~.~.~.~.~.h 5+6+H R f W L =.m * 7+> # ! ~ { s t : ",
"8+9+I.U ~.~.~.h U 0+^+^+<+)+>+*+I.]+:+a+s.U h ~.~.~.~.~.b+c+R.^.#.R (.d k . m = o # ' ! ~ M s Y ",
"d+e+#+U +.~.~.h f+g+h+i+^+^+<+)+>+=+I.j+k+{.~.U ~.~.~.l+m+G  .].H #.$.G d L *.n+* > a.o+X { M ( ",
"e+p+q+s.U U +.U s r+s+t+u+}+^+<+v+w+*+*+x+z U h ~.~.~.s.y x.y+g.'.` R %.W z+A+B+C+= q ' ) ;.] s ",
"D+D+E+F+h h U U G+H+I+J+K+L+M+M+/+_+S.^.N+h +.~.~.~.U U O+a.P+y. .S ^.h.G Q+R+I+S+T+U+q V+W+W+M ",
"X+X+g+Y+3.h h h Z+I+`+I+ @.@+@5.@@G.#@h U +.U +.~.~.~.+.h h $@Q $ m.'.#.%@&@*@I+=@-@;@>@,@'@)@^ ",
"!@!@~@{@]@h ~.h ^@I+`+I+/@(@y.{.h U U U +.U +.~.~.~.~.U ~.U U _@:@<@S '.[@}@|@1@2@3@1@4@5@|@6@7@",
"8@8@E+9@0@a@h h b@I+I+c@d@e@f@h ~.h ~.~.~.~.~.~.~.~.~.~.~.~.~.~.~.h G.z+g@I+I+I+I+1@I+1@|@I+I+h@",
"i@i@j@k@l@m@h ~.h n@I+I+o@p@#@~.h ~.~.~.~.~.~.~.~.~.~.~.~.~.~.~.h ~.h q@I+1@I+I+I+I+I+I+r@s@I+|@",
"t@u@v@v@w@x@h ~.h y@z@1@A@B@h U ~.~.~.~.~.~.~.~.~.~.~.~.~.~.~.~.~.~.h h I+I+1@I+I+I+I+C@D@E@F@`+",
"G@H@G@I@J@I+h h ~.h K@L@M@N@h ~.~.~.~.~.~.~.~.~.~.~.~.~.~.~.~.~.~.~.~.h O@I+I+I+I+I+I+P@Q@V., R@",
"S@T@T@U@V@W@X@h ~.h Y@Z@`@h ~.~.~.~.~.~.~.~.~.~.~.~.~.~.~.~.~.~.~.~.~.h  #I+`+.#I+I+I++#@#= ##$#",
"%#%#&#*#=#-#;#h ~.h h >#,#h ~.~.~.~.~.~.~.~.~.~.~.~.~.~.~.~.~.~.~.~.~.h '#)#!#I+I+I+~#I+{#]#^#, ",
"/#(#_#I+:#<#[#h h ~.h }#|#U h U U U ~.~.~.~.~.~.~.~.~.~.~.~.~.~.~.~.~.~.1#2#3#1@I+I+I+I+4#n+= > ",
"5#6#7#8#9#0#a#b#h +.U c#h ~.U U U U ~.~.~.~.~.~.~.~.~.~.~.~.~.~.h ~.h ~.h d#e#I+f#.#1@I+g#h#= o ",
"i#j#I+k#l#m#n#o#h ~.+.U ~.h ~..+p#+.U ~.~.~.~.~.~.~.~.~.~.~.~.h ~.h ~.h U q#r#I+.#I+I+1@I+s#t#- ",
"u#v#w#x#y#z#I+A#B#h ~.~.~.~.h L.(..+~.~.~.~.~.~.~.~.~.~.~.~.~.h h C#h ~.h h D#E#I+1@1@I+I+F#G#= ",
"H#I#J#K#L#M#1@I+N#h h ~.h ~.h O#P#O+~.~.~.~.~.~.~.~.~.~.~.~.~.h Q#R#S#h U U T#U#I+1@I+I+I+V#W#= ",
"X#Y#Z#`# $.$1@I++$h ~.~.~.h @$#$$$G.+.~.~.~.~.~.~.~.~.~.~.~.+.U Y %$&$*$~.U h =$I+A#I+1@I+-$;$& ",
">$,$'$)$!$~$I+{$]$h h ~.h ^$/$($_$:$h ~.~.~.~.~.~.~.~.~.~.~.~.U <$=+Y.[$U ~.h }$I+I+|$I+I+1$4.% ",
"2$3$4$5$6$7$I+8$9$0$h h <.a$b$c$$$7 U ~.~.~.~.~.~.~.~.~.~.~.~.U M ]+v+d$h ~.h e$I+f$g$I+I+h$. *.",
"i$i$j$k$l$m$n$o$p$!#q$r$/#s$t$u$v$' U ~.~.~.~.~.~.~.~.~.~.~.U U ' {+w.T.h ~.~.w$x$y$z$I+I+A$k m ",
"B$C$D$E$F$G$H$I$J$K$I+L$M$N$O$P$O$b.U ~.U ~.~.~.~.~.~.~.~.~.U h K ]+$+3+@.U ~.N@Q$R$S$T$I+U$l + ",
"V$W$X$Y$Z$~#`$ %.%+%I+@%#%5#$%%%/#&%*%U ~.~.~.~.~.~.~.~.~.~.U [+X.4+w.I.=%U ~.-%;%>%,%'%I+)%l . ",
"!%~%{%]%^%/%(%_%:%<%I+[%}%|%1%%%2%|%3%U ~.~.~.~.~.~.~.~.~.~.U Q 3+]+w.4%5%U +.h 6%7%8%9%I+0%a%$ ",
"b%c%d%e%f%I+g%h%i%j%I+I+k%l%1%$%%%m%n%U ~.~.~.~.~.~.~.~.~.~.U F+o%]+#+@+F+h ~.h p%q%r%s%I+t%u%. ",
"v%v%w%x%y%I+z%A%B%C%D%I+E%F%5#G%%#1 U _@H%~.~.~.~.~.~.~.~.~.U i.y+=+#+w.' h #@h I%J%K%L%I+M%N%. ",
"O%O%P%b%Q%I+R%S%T%U%V%I+W%X%|%Y%#.#@~.H%_@~.~.~.~.~.~.~.~.~.Z%U o+`%]+$+ &.&h U H.H +&@&I+#&$&l ",
"%&&&*&v%=&1@-&;&>&,&'&I+)&X%|%i#/ h h ~.~.~.~.~.~.~.~.~.~.~.+.U |.o%]+X.p.!&U U ~&H K%{&L@]&$&l ",
"^&/&(&_&:&`+<&[&C$}&|&I+1&2&|%5#[ h ~.~.~.~.~.~.~.~.~.~.~.~.~.h e.3&#+$+O.4&5&U 6&` K%7&|@8&$&l ",
"9&0&a&b&c&I+d&e&B$}&f&g&h&i&Y%K## h ~.~.~.~.~.~.~.~.~.~.~.~.~.h U E.I.w.j&k&l&h U (.m&n&o&p&$&l "};
