/* XPM */
static char * 5ball_xpm[] = {
"48 45 682 2",
"  	c None",
". 	c #567E96",
"+ 	c #577E97",
"@ 	c #587F98",
"# 	c #577E98",
"$ 	c #557D96",
"% 	c #547B95",
"& 	c #517993",
"* 	c #4F7790",
"= 	c #4C758E",
"- 	c #557C95",
"; 	c #59809A",
"> 	c #5C839B",
", 	c #5E859D",
"' 	c #60869E",
") 	c #60879F",
"! 	c #61869F",
"~ 	c #5E849D",
"{ 	c #5C829C",
"] 	c #598099",
"^ 	c #567D96",
"/ 	c #4D758F",
"( 	c #49728C",
"_ 	c #456E88",
": 	c #5B819A",
"< 	c #6188A1",
"[ 	c #658BA3",
"} 	c #678DA5",
"| 	c #688EA6",
"1 	c #698FA6",
"2 	c #688EA5",
"3 	c #668CA4",
"4 	c #638AA2",
"5 	c #61879F",
"6 	c #5E849C",
"7 	c #4F7791",
"8 	c #4A728D",
"9 	c #456D88",
"0 	c #406A84",
"a 	c #547B94",
"b 	c #5D849C",
"c 	c #698FA7",
"d 	c #6C92AA",
"e 	c #6F95AC",
"f 	c #7096AD",
"g 	c #7096AE",
"h 	c #7095AC",
"i 	c #6E94AB",
"j 	c #6C91A9",
"k 	c #698EA6",
"l 	c #658BA4",
"m 	c #60869F",
"n 	c #5C829B",
"o 	c #517891",
"p 	c #4B728C",
"q 	c #456D87",
"r 	c #3F6782",
"s 	c #537A94",
"t 	c #6389A2",
"u 	c #6C93AB",
"v 	c #7196AD",
"w 	c #7499B0",
"x 	c #779CB2",
"y 	c #789DB3",
"z 	c #799EB4",
"A 	c #789DB4",
"B 	c #769BB2",
"C 	c #6289A1",
"D 	c #567D97",
"E 	c #507891",
"F 	c #4A728C",
"G 	c #436C86",
"H 	c #3C6480",
"I 	c #517992",
"J 	c #648AA2",
"K 	c #6A8FA7",
"L 	c #6F94AC",
"M 	c #799DB4",
"N 	c #7CA1B7",
"O 	c #7FA3B9",
"P 	c #80A5BB",
"Q 	c #81A6BC",
"R 	c #82A6BB",
"S 	c #81A5BA",
"T 	c #7EA3B9",
"U 	c #7BA0B6",
"V 	c #779CB3",
"W 	c #7298AF",
"X 	c #6E93AA",
"Y 	c #6288A1",
"Z 	c #5B829B",
"` 	c #4E7690",
" .	c #48708A",
"..	c #416984",
"+.	c #39627E",
"@.	c #5C839C",
"#.	c #6389A1",
"$.	c #759AB1",
"%.	c #7FA4BA",
"&.	c #84A8BD",
"*.	c #87ABC0",
"=.	c #89ADC2",
"-.	c #8AAEC3",
";.	c #8AADC2",
">.	c #89ACC1",
",.	c #86AABF",
"'.	c #82A7BC",
").	c #799FB4",
"!.	c #6D93AB",
"~.	c #5A819A",
"{.	c #4C748E",
"].	c #446C87",
"^.	c #3D6681",
"/.	c #365F7A",
"(.	c #527992",
"_.	c #7B9FB6",
":.	c #81A5BB",
"<.	c #8BAEC3",
"[.	c #8FB2C7",
"}.	c #91B5C9",
"|.	c #92B6CA",
"1.	c #92B5CA",
"2.	c #90B4C8",
"3.	c #8DB1C6",
"4.	c #89AEC3",
"5.	c #85A9BE",
"6.	c #799FB5",
"7.	c #7398AF",
"8.	c #6D92AA",
"9.	c #668BA4",
"0.	c #406984",
"a.	c #38627D",
"b.	c #1D3546",
"c.	c #648BA2",
"d.	c #6B91A9",
"e.	c #7A9FB5",
"f.	c #8CB0C5",
"g.	c #96B9CD",
"h.	c #99BCD0",
"i.	c #9ABDD1",
"j.	c #9ABDD0",
"k.	c #99BBCF",
"l.	c #95B8CC",
"m.	c #91B4C8",
"n.	c #8BAFC4",
"o.	c #85A9BF",
"p.	c #7FA4B9",
"q.	c #6A8FA8",
"r.	c #4B738D",
"s.	c #436B87",
"t.	c #3B6480",
"u.	c #1D3544",
"v.	c #0C1821",
"w.	c #49718B",
"x.	c #6F94AB",
"y.	c #93B6CA",
"z.	c #98BBCF",
"A.	c #9DC0D4",
"B.	c #A1C4D6",
"C.	c #A2C5D8",
"D.	c #A2C5D7",
"E.	c #A0C3D6",
"F.	c #9CBFD3",
"G.	c #97BACE",
"H.	c #91B4C9",
"I.	c #83A8BD",
"J.	c #6D93AA",
"K.	c #5D849D",
"L.	c #4E758F",
"M.	c #192D3B",
"N.	c #152936",
"O.	c #527993",
"P.	c #5A8099",
"Q.	c #6288A0",
"R.	c #6A90A7",
"S.	c #7297AE",
"T.	c #799EB5",
"U.	c #90B3C8",
"V.	c #9EC1D4",
"W.	c #A4C6D9",
"X.	c #A9CADD",
"Y.	c #ABCDDF",
"Z.	c #ABCCDE",
"`.	c #A7C9DC",
" +	c #A3C5D8",
".+	c #80A4BA",
"++	c #60879E",
"@+	c #507791",
"#+	c #47708A",
"$+	c #406883",
"%+	c #13222C",
"&+	c #193040",
"*+	c #1D3D53",
"=+	c #446D87",
"-+	c #4A738D",
";+	c #5B829C",
">+	c #648AA1",
",+	c #7BA1B7",
"'+	c #84A8BE",
")+	c #8CB0C4",
"!+	c #93B7CB",
"~+	c #9CBED2",
"{+	c #A3C6D9",
"]+	c #AACBDE",
"^+	c #B0D1E3",
"/+	c #B3D4E7",
"(+	c #B3D4E6",
"_+	c #AECFE2",
":+	c #A1C3D7",
"<+	c #92B5C9",
"[+	c #7A9EB5",
"}+	c #6990A7",
"|+	c #6188A0",
"1+	c #49718C",
"2+	c #3A5E76",
"3+	c #111E26",
"4+	c #1D3648",
"5+	c #23465E",
"6+	c #537B95",
"7+	c #648BA3",
"8+	c #7DA2B8",
"9+	c #8EB1C6",
"0+	c #A5C9DB",
"a+	c #AECFE1",
"b+	c #B6D7E8",
"c+	c #BBDCED",
"d+	c #BADBED",
"e+	c #B3D5E6",
"f+	c #ACCEE0",
"g+	c #94B7CB",
"h+	c #83A7BD",
"i+	c #7498AF",
"j+	c #6A91A8",
"k+	c #4A728E",
"l+	c #2C4658",
"m+	c #14222C",
"n+	c #203C50",
"o+	c #244B64",
"p+	c #759AB2",
"q+	c #7EA2B8",
"r+	c #86AAC0",
"s+	c #8EB2C7",
"t+	c #9FC1D5",
"u+	c #B0D0E3",
"v+	c #B7D8EA",
"w+	c #BFDFF0",
"x+	c #BEDEEF",
"y+	c #B5D6E8",
"z+	c #ADCFE1",
"A+	c #A5C7DA",
"B+	c #9DBFD2",
"C+	c #94B8CC",
"D+	c #7BA0B7",
"E+	c #527A93",
"F+	c #4B7590",
"G+	c #192933",
"H+	c #192C38",
"I+	c #244358",
"J+	c #264D68",
"K+	c #224C69",
"L+	c #446C86",
"M+	c #4C738E",
"N+	c #537B94",
"O+	c #7599B1",
"P+	c #8DB0C6",
"Q+	c #9DC0D3",
"R+	c #A5C8DB",
"S+	c #B4D5E8",
"T+	c #B9D9EB",
"U+	c #B8D8EA",
"V+	c #B2D3E6",
"W+	c #ABCCE0",
"X+	c #A3C6D8",
"Y+	c #9BBDD1",
"Z+	c #7A9FB7",
"`+	c #537A95",
" @	c #3C5D72",
".@	c #121F27",
"+@	c #1E3544",
"@@	c #284B62",
"#@	c #27506B",
"$@	c #214D69",
"%@	c #3C6581",
"&@	c #426B86",
"*@	c #537A93",
"=@	c #6B90A9",
"-@	c #7398B0",
";@	c #93B6CB",
">@	c #9ABDD2",
",@	c #A1C4D7",
"'@	c #B1D2E4",
")@	c #AFD1E3",
"!@	c #ABCEE0",
"~@	c #9FC2D5",
"{@	c #88ACC2",
"]@	c #7197AD",
"^@	c #527A94",
"/@	c #1F313D",
"(@	c #182832",
"_@	c #254053",
":@	c #2B506A",
"<@	c #27506D",
"[@	c #214B68",
"}@	c #3A637E",
"|@	c #517892",
"1@	c #6187A0",
"2@	c #88ACC1",
"3@	c #8FB2C8",
"4@	c #A3C4D8",
"5@	c #A6C7DB",
"6@	c #B0CEE0",
"7@	c #B0CDDE",
"8@	c #AAC8DA",
"9@	c #A5C4D6",
"0@	c #9FBED0",
"a@	c #9CBACD",
"b@	c #94B3C6",
"c@	c #6B90A7",
"d@	c #7092A8",
"e@	c #6D90A7",
"f@	c #415D6F",
"g@	c #1E282F",
"h@	c #263946",
"i@	c #2A4B60",
"j@	c #2B536F",
"k@	c #26506D",
"l@	c #1F4A68",
"m@	c #355B75",
"n@	c #476F8A",
"o@	c #5E859E",
"p@	c #6E93AB",
"q@	c #9BBED2",
"r@	c #A3C4D7",
"s@	c #BCD1E1",
"t@	c #DAE2ED",
"u@	c #E1E6F0",
"v@	c #DEE4ED",
"w@	c #B7CAD9",
"x@	c #A7BECF",
"y@	c #6A90A8",
"z@	c #6E91A8",
"A@	c #8FA9BC",
"B@	c #9CAAB7",
"C@	c #474A4E",
"D@	c #454B50",
"E@	c #3B5161",
"F@	c #2E536B",
"G@	c #2B5571",
"H@	c #244F6C",
"I@	c #1E4966",
"J@	c #2D4F66",
"K@	c #3B637D",
"L@	c #446D88",
"M@	c #4C748D",
"N@	c #7197AE",
"O@	c #8AAFC4",
"P@	c #90B3C7",
"Q@	c #96BACE",
"R@	c #D2DCE7",
"S@	c #FDF6FA",
"T@	c #FEF6FB",
"U@	c #FFFAFE",
"V@	c #95B3C6",
"W@	c #799FB6",
"X@	c #6189A2",
"Y@	c #52788F",
"Z@	c #4A555D",
"`@	c #525153",
" #	c #3A4C59",
".#	c #2E5067",
"+#	c #315873",
"@#	c #2A5471",
"##	c #224D6B",
"$#	c #1C4765",
"%#	c #2A4D64",
"&#	c #305269",
"*#	c #406782",
"=#	c #49728B",
"-#	c #577F98",
";#	c #5F869E",
">#	c #84A9BE",
",#	c #89ACC2",
"'#	c #8EB2C6",
")#	c #8FB3C7",
"!#	c #8CB1C6",
"~#	c #A5C0D1",
"{#	c #EBEBF2",
"]#	c #FCF5FA",
"^#	c #FEF7FB",
"/#	c #BACAD7",
"(#	c #749BB2",
"_#	c #6B90A8",
":#	c #658DA5",
"<#	c #597E96",
"[#	c #2A4150",
"}#	c #3D4044",
"|#	c #434F58",
"1#	c #2E4D62",
"2#	c #335973",
"3#	c #2F5874",
"4#	c #28526F",
"5#	c #204B68",
"6#	c #194462",
"7#	c #2D5570",
"8#	c #2D5269",
"9#	c #315167",
"0#	c #436A85",
"a#	c #5B829A",
"b#	c #7399B0",
"c#	c #87ACC0",
"d#	c #86ABC0",
"e#	c #82A8BD",
"f#	c #D1DAE5",
"g#	c #FBF5FA",
"h#	c #F2EFF5",
"i#	c #6C92A9",
"j#	c #688FA7",
"k#	c #5B8097",
"l#	c #304552",
"m#	c #1C2830",
"n#	c #5F6267",
"o#	c #3D5667",
"p#	c #355971",
"q#	c #335B76",
"r#	c #2C5773",
"s#	c #264F6D",
"t#	c #1D4865",
"u#	c #174360",
"v#	c #305873",
"w#	c #31546B",
"x#	c #304F62",
"y#	c #426880",
"z#	c #507893",
"A#	c #557C96",
"B#	c #688DA5",
"C#	c #759BB1",
"D#	c #7FA3BA",
"E#	c #A3BBCB",
"F#	c #F0EEF4",
"G#	c #ABBDCC",
"H#	c #638CA4",
"I#	c #587B91",
"J#	c #2A3D48",
"K#	c #14222A",
"L#	c #525960",
"M#	c #63727E",
"N#	c #3C5F76",
"O#	c #365D78",
"P#	c #305A77",
"Q#	c #29536F",
"R#	c #224C6A",
"S#	c #1A4563",
"T#	c #15405E",
"U#	c #2E5874",
"V#	c #325A75",
"W#	c #33576E",
"X#	c #2F4B5F",
"Y#	c #3B5A6E",
"Z#	c #4F7690",
"`#	c #567E97",
" $	c #769CB2",
".$	c #DEE1E9",
"+$	c #FCF6FB",
"@$	c #EDECF3",
"#$	c #446173",
"$$	c #1C2831",
"%$	c #1B2933",
"&$	c #2B3F4B",
"*$	c #858C96",
"=$	c #587488",
"-$	c #375F79",
";$	c #335C79",
">$	c #2D5773",
",$	c #25506D",
"'$	c #174260",
")$	c #315A76",
"!$	c #355D78",
"~$	c #365A71",
"{$	c #314E62",
"]$	c #2E4959",
"^$	c #426277",
"/$	c #547992",
"($	c #5A8199",
"_$	c #5F859E",
":$	c #678DA4",
"<$	c #6D94AB",
"[$	c #658CA5",
"}$	c #A5B9C8",
"|$	c #F3EFF4",
"1$	c #C5C0C4",
"2$	c #656466",
"3$	c #2A3035",
"4$	c #21323D",
"5$	c #294150",
"6$	c #6C7D8A",
"7$	c #8899A7",
"8$	c #456A83",
"9$	c #355E7A",
"0$	c #2F5975",
"a$	c #214C69",
"b$	c #1A4663",
"c$	c #143F5E",
"d$	c #2C5572",
"e$	c #325B77",
"f$	c #395F77",
"g$	c #36576C",
"h$	c #2E4858",
"i$	c #2C4352",
"j$	c #3A5567",
"k$	c #4B6D82",
"l$	c #567991",
"m$	c #5A7E95",
"n$	c #5D8399",
"o$	c #60849C",
"p$	c #62859D",
"q$	c #61859C",
"r$	c #60849A",
"s$	c #5E8198",
"t$	c #527287",
"u$	c #445A69",
"v$	c #555558",
"w$	c #4A494A",
"x$	c #656365",
"y$	c #75767B",
"z$	c #345062",
"A$	c #406076",
"B$	c #99A8B6",
"C$	c #738EA1",
"D$	c #315C78",
"E$	c #2A5470",
"F$	c #244E6B",
"G$	c #1D4765",
"H$	c #164260",
"I$	c #123E5C",
"J$	c #27516E",
"K$	c #325C78",
"L$	c #38607C",
"M$	c #3B617C",
"N$	c #3B5F78",
"O$	c #38586C",
"P$	c #314B5C",
"Q$	c #283D4A",
"R$	c #283B48",
"S$	c #2D424F",
"T$	c #324856",
"U$	c #354C5A",
"V$	c #354B59",
"W$	c #324653",
"X$	c #202E37",
"Y$	c #1D2931",
"Z$	c #1C2D37",
"`$	c #515961",
" %	c #938F92",
".%	c #AFABAE",
"+%	c #C3C0C5",
"@%	c #748A9C",
"#%	c #688599",
"$%	c #9CADBC",
"%%	c #466B85",
"&%	c #305A76",
"*%	c #254F6C",
"=%	c #1E4967",
"-%	c #184362",
";%	c #133E5D",
">%	c #37607C",
",%	c #3B637E",
"'%	c #3E657E",
")%	c #3F637B",
"!%	c #3D5F75",
"~%	c #3A596C",
"{%	c #365263",
"]%	c #314B5B",
"^%	c #304656",
"/%	c #2E4452",
"(%	c #304654",
"_%	c #334A59",
":%	c #365060",
"<%	c #385567",
"[%	c #4B6779",
"}%	c #D0CCD1",
"|%	c #E6E1E5",
"1%	c #F1EBF0",
"2%	c #CACFD9",
"3%	c #8FA3B5",
"4%	c #8198AB",
"5%	c #295471",
"6%	c #2C5571",
"7%	c #26506C",
"8%	c #1F4A67",
"9%	c #1A4462",
"0%	c #143F5D",
"a%	c #214D6A",
"b%	c #27506E",
"c%	c #2B5672",
"d%	c #315B76",
"e%	c #355F7B",
"f%	c #3D6680",
"g%	c #406781",
"h%	c #416781",
"i%	c #42677F",
"j%	c #41657D",
"k%	c #42647C",
"l%	c #41647A",
"m%	c #42647B",
"n%	c #42667C",
"o%	c #43677E",
"p%	c #446982",
"q%	c #3B647E",
"r%	c #B7C1CD",
"s%	c #FBF5F9",
"t%	c #B4BFCC",
"u%	c #3D637E",
"v%	c #28536F",
"w%	c #204A67",
"x%	c #194563",
"y%	c #14405E",
"z%	c #204A68",
"A%	c #254F6D",
"B%	c #335D78",
"C%	c #37607B",
"D%	c #39637E",
"E%	c #3C6580",
"F%	c #416983",
"G%	c #426A84",
"H%	c #426A85",
"I%	c #436B85",
"J%	c #436B84",
"K%	c #426B85",
"L%	c #416A84",
"M%	c #3C6681",
"N%	c #5D7E95",
"O%	c #FFF9FD",
"P%	c #F0ECF3",
"Q%	c #8298AB",
"R%	c #204C6A",
"S%	c #1E4A67",
"T%	c #234E6B",
"U%	c #28516E",
"V%	c #2B5572",
"W%	c #2F5875",
"X%	c #335C78",
"Y%	c #39637D",
"Z%	c #3B647F",
"`%	c #3C6680",
" &	c #3A637F",
".&	c #335D79",
"+&	c #C6CDD8",
"@&	c #D0D4DE",
"#&	c #2F5773",
"$&	c #1D4866",
"%&	c #184361",
"&&	c #14405D",
"*&	c #133F5D",
"=&	c #1C4764",
"-&	c #204B69",
";&	c #2A5571",
">&	c #305975",
",&	c #345D79",
"'&	c #617E95",
")&	c #FFF8FD",
"!&	c #8498AB",
"~&	c #164261",
"{&	c #1B4663",
"]&	c #16425F",
"^&	c #224D6A",
"/&	c #25506C",
"(&	c #27526F",
"_&	c #26516E",
":&	c #2A526F",
"<&	c #B5BECB",
"[&	c #274F6C",
"}&	c #15415F",
"|&	c #133E5C",
"1&	c #123F5D",
"2&	c #15405F",
"3&	c #1B4664",
"4&	c #234D6A",
"5&	c #133F5E",
"6&	c #13405D",
"7&	c #123E5D",
"8&	c #184462",
"9&	c #123D5C",
"                                                                                                ",
"                                                                                                ",
"                                                                                                ",
"                                                                                                ",
"                                      . + @ @ # . $ % & * =                                     ",
"                                - # ; > , ' ) ! ' ~ { ] ^ & / ( _                               ",
"                              + : , < [ } | 1 1 2 3 4 5 6 ] - 7 8 9 0                           ",
"                          a @ b < 3 c d e f f g h i j k l m n ^ o p q r                         ",
"                        s @ ~ t | u v w x y z z A B w f j } C b D E F G H                       ",
"                      I + ~ J K L w M N O P Q R S T U V W X | Y Z - `  ...+.                    ",
"                    * - @.#.c e $.U %.&.*.=.-.;.>.,.'.T ).w !.| 5 ~.s {.].^./.                  ",
"                    (.] ) } i $._.:.*.<.[.}.|.1.2.3.4.5.%.6.7.8.9., + 7  .0.a.b.                ",
"                  / - @.c.d.7.e.P *.f.1.g.h.i.j.k.l.m.n.o.p.y f q.C : s r.s.t.u.v.              ",
"                w.* @ m } x.x T o.f.y.z.A.B.C.D.E.F.G.H.-.I.N $.J.l K.^ L._ ^.M.N.              ",
"                F O.P.Q.R.S.T.R =.U.z.V.W.X.Y.Z.`. +F.g.[.*..+y h | ++@ @+#+$+%+&+*+            ",
"              =+-+s ;+>+j w ,+'+)+!+~+{+]+^+/+(+_+X.:+i.<+-.'.[+S.}+|+] & 1+2+3+4+5+            ",
"              q {.6+@.7+8.$.8+,.9+g.V.0+a+b+c+d+e+f+W.~+g+n.h+_.i+j+Y ~.O.k+l+m+n+o+            ",
"              ].{.a @.7+!.p+q+r+s+g.t+`.u+v+w+x+y+z+A+B+C+)+h+D+7.d.#.~.E+F+G+H+I+J+K+          ",
"              L+M+N+@.7+8.O+N o.P+l.Q+R+f+S+T+U+V+W+X+Y+!+n.h+Z+W R.Y ~.`+ @.@+@@@#@$@          ",
"            %@&@-+*@Z t =@-@U &.<.;@>@,@X.a+'@)@!@R+~@z.2.{@:.z ]@c ) @ ^@/@(@_@:@<@[@          ",
"            }@0.1+|@P.1@c v M P 2@3@g.F.4@5@]+6@7@8@9@0@a@b@q+x x.c@d@e@f@g@h@i@j@k@l@          ",
"            m@r n@* + o@3 p@$.N &.-.H.g.q@V.r@s@t@u@v@v@w@x@T.7.y@z@A@B@C@D@E@F@G@H@I@          ",
"            J@K@L@M@% n #.y@N@y T o.O@P@!+g.Q@k.R@S@T@U@V@W@x h | X@Y@Z@`@ #.#+#@###$#          ",
"            %#&#*#=#@+-#;#3 d 7.T.%.>#,#)+'#)#!#~#{#]#^#/#(#S._#:#<#[#}#|#1#2#3#4#5#6#          ",
"            7#8#9#0#/ N+a#|+} !.b#A 8+:.&.,.c#d#e#f#g#g#h#O+i#j#k#l#m#n#o#p#q#r#s#t#u#          ",
"              v#w#x#y#z#A#n Q.B#i#S.C#T.N T D#T W@E#F#g#]#G#H#I#J#K#L#M#N#O#P#Q#R#S#T#          ",
"              U#V#W#X#Y#Z#`#Z |+3 R.x.S.w C# $V $.N@.$g#+$@$#$$$%$&$*$=$-$;$>$,$I@'$            ",
"              G@)$!$~${$]$^$/$($_$4 :$c d.!.<$i J.[$}$|$1$2$3$4$5$6$7$8$9$0$4#a$b$c$            ",
"                d$e$/.f$g$h$i$j$k$l$m$n$o$p$q$r$s$t$u$v$w$x$y$z$A$B$C$D$)$E$F$G$H$I$            ",
"                J$>$K$L$M$N$O$P$Q$R$S$T$U$V$W$J#X$Y$Z$`$ %.%+%@%#%$%%%&%G@*%=%-%;%              ",
"                  J$>$K$>%,%'%)%!%~%{%]%^%/%/%(%_%:%<%[%}%|%1%2%3%4%5%6%7%8%9%0%I$              ",
"                  a%b%c%d%e%}@f%g%h%i%j%k%l%l%m%n%o%p%q%r%s%g#g#t%u%v%*%w%x%y%I$                ",
"                    z%A%@#0$B%C%D%E%r F%G%H%I%J%K%L%..M%N%O%]#P%Q%R%F$S%6#y%I$;%                ",
"                      I@T%U%V%W%X%9$>%Y%Z%E%`%E%Z% &+.C%.&+&O%@&#&l@$&%&&&I$*&                  ",
"                        =&-&F$U%;&>$>&e$K$.&.&,&B%K$)$0$d$'&)&!&~&{&]&*&I$I$                    ",
"                          6#$#z%^&/&(&Q#@#G@c%d$G@@#4#_&H@:&<&[&}&y%|&1&I$                      ",
"                            2&%&3&$&8%[@R#4&4&T%4&a%5#=%$#S#5&6&I$I$7&*&                        ",
"                              |&0%}&'$-%S#S#S#S#S#6#8&'$}&*&I$I$*&|&                            ",
"                                  I$I$;%*&*&5&c$*&*&|&I$9&I$*&;%                                ",
"                                        I$I$I$I$I$I$I$7&;%                                      ",
"                                                                                                ",
"                                                                                                ",
"                                                                                                ",
"                                                                                                ",
"                                                                                                "};
