/* XPM */
static char * opensonic_xpm[] = {
"48 48 670 2",
"  	c None",
". 	c #0E121B",
"+ 	c #232B3A",
"@ 	c #404859",
"# 	c #434B5B",
"$ 	c #424A5B",
"% 	c #434A5B",
"& 	c #404959",
"* 	c #262E3F",
"= 	c #111620",
"- 	c #2B3A56",
"; 	c #8396BB",
"> 	c #BECEED",
", 	c #C2D0EC",
"' 	c #C2D1EC",
") 	c #8A9DC4",
"! 	c #2F3D57",
"~ 	c #1F2C44",
"{ 	c #91A4CB",
"] 	c #B6C4E1",
"^ 	c #B6C5E0",
"/ 	c #B6C4E0",
"( 	c #B6C5E1",
"_ 	c #98ABD1",
": 	c #2A3753",
"< 	c #596A8D",
"[ 	c #ABBCDB",
"} 	c #ACBDDB",
"| 	c #ADBCDC",
"1 	c #65789C",
"2 	c #859BC5",
"3 	c #A2B3D6",
"4 	c #A3B3D6",
"5 	c #A3B4D6",
"6 	c #93A9D2",
"7 	c #111927",
"8 	c #131C2C",
"9 	c #97ACD6",
"0 	c #97AACF",
"a 	c #98ABCF",
"b 	c #98AACF",
"c 	c #98A9CF",
"d 	c #9AAED6",
"e 	c #202B41",
"f 	c #1B2436",
"g 	c #91A7D2",
"h 	c #8DA1C9",
"i 	c #8DA1C8",
"j 	c #8DA3CA",
"k 	c #8DA4CB",
"l 	c #8DA8CE",
"m 	c #8DAED2",
"n 	c #8DB2D5",
"o 	c #8DB5D6",
"p 	c #8DB6D7",
"q 	c #8DB4D6",
"r 	c #8DB1D5",
"s 	c #8DADD1",
"t 	c #8DA7CC",
"u 	c #8DA4CA",
"v 	c #8DA2C9",
"w 	c #91A6D1",
"x 	c #2B354C",
"y 	c #1B2335",
"z 	c #8BA1CD",
"A 	c #8499C3",
"B 	c #8498C2",
"C 	c #849AC3",
"D 	c #84A2CA",
"E 	c #84A9CF",
"F 	c #84AFD3",
"G 	c #84B5D7",
"H 	c #84B6D8",
"I 	c #84B5D8",
"J 	c #84B4D6",
"K 	c #84AED2",
"L 	c #84A6CD",
"M 	c #849EC7",
"N 	c #8498C3",
"O 	c #8A9FCC",
"P 	c #29344A",
"Q 	c #192233",
"R 	c #859CC8",
"S 	c #7E94BE",
"T 	c #7E93BD",
"U 	c #7EA1C9",
"V 	c #7EAED3",
"W 	c #7EB1D5",
"X 	c #7EB2D6",
"Y 	c #7EB0D5",
"Z 	c #7EAAD0",
"` 	c #7E98C2",
" .	c #849BC7",
"..	c #283348",
"+.	c #192132",
"@.	c #8097C4",
"#.	c #798FBA",
"$.	c #7997C0",
"%.	c #79AAD0",
"&.	c #79AFD5",
"*.	c #79AED4",
"=.	c #79AED5",
"-.	c #799FC7",
";.	c #7991BC",
">.	c #7F95C2",
",.	c #263146",
"'.	c #171F31",
").	c #7A91BF",
"!.	c #7389B6",
"~.	c #7388B4",
"{.	c #738DB9",
"].	c #739EC7",
"^.	c #73ABD2",
"/.	c #73ABD3",
"(.	c #73ACD3",
"_.	c #73A4CC",
":.	c #7391BC",
"<.	c #7990BE",
"[.	c #242F44",
"}.	c #171F2F",
"|.	c #758CBA",
"1.	c #6F85B1",
"2.	c #6F8DB8",
"3.	c #6FA4CD",
"4.	c #6FA8D1",
"5.	c #6FA6CF",
"6.	c #6F90BB",
"7.	c #748BB9",
"8.	c #232E43",
"9.	c #151E2E",
"0.	c #7087B5",
"a.	c #6A80AC",
"b.	c #6A7FAC",
"c.	c #6A8AB5",
"d.	c #6AA4CE",
"e.	c #6AA5CF",
"f.	c #6AA5D0",
"g.	c #6AA2CC",
"h.	c #6A9EC9",
"i.	c #6A96C2",
"j.	c #6A8DB9",
"k.	c #6A81AD",
"l.	c #6F86B4",
"m.	c #212C41",
"n.	c #141C2D",
"o.	c #6A82B0",
"p.	c #657BA8",
"q.	c #657DAA",
"r.	c #658BB7",
"s.	c #658EBA",
"t.	c #658CB9",
"u.	c #6589B5",
"v.	c #6583B0",
"w.	c #6579A6",
"x.	c #658BB8",
"y.	c #65A2CD",
"z.	c #65A1CD",
"A.	c #65A2CE",
"B.	c #659FCA",
"C.	c #6591BD",
"D.	c #6586B2",
"E.	c #657EAA",
"F.	c #657AA7",
"G.	c #6981AF",
"H.	c #1F2A3F",
"I.	c #131B2C",
"J.	c #657DAB",
"K.	c #5F75A1",
"L.	c #5F8EBB",
"M.	c #5F9FCC",
"N.	c #5F9ECC",
"O.	c #5F9DCB",
"P.	c #5F9CCA",
"Q.	c #5F9AC8",
"R.	c #5F98C5",
"S.	c #5F9FCD",
"T.	c #5F95C2",
"U.	c #5F7AA7",
"V.	c #5F76A2",
"W.	c #647CA9",
"X.	c #1E283D",
"Y.	c #121A2A",
"Z.	c #5F77A6",
"`.	c #5A6F9C",
" +	c #5A91BF",
".+	c #5A9CCB",
"++	c #5A9BCA",
"@+	c #5A8BBA",
"#+	c #5A719E",
"$+	c #5E76A5",
"%+	c #1C273C",
"&+	c #111929",
"*+	c #5971A0",
"=+	c #556A97",
"-+	c #5585B4",
";+	c #559ACA",
">+	c #5599C8",
",+	c #5599C9",
"'+	c #5598C8",
")+	c #5587B6",
"!+	c #556B98",
"~+	c #556B99",
"{+	c #556C99",
"]+	c #59719F",
"^+	c #1A253A",
"/+	c #101727",
"(+	c #546C9B",
"_+	c #4F6693",
":+	c #4F71A0",
"<+	c #4F97C9",
"[+	c #4F95C7",
"}+	c #4C93C6",
"|+	c #4891C5",
"1+	c #4790C4",
"2+	c #4A92C5",
"3+	c #4F94C6",
"4+	c #4F87B7",
"5+	c #4F7DAE",
"6+	c #4F76A4",
"7+	c #4F6896",
"8+	c #4F6491",
"9+	c #536B9A",
"0+	c #192337",
"a+	c #0F1726",
"b+	c #4E6694",
"c+	c #4A618D",
"d+	c #4A6491",
"e+	c #4A8CBF",
"f+	c #4992C5",
"g+	c #589AC9",
"h+	c #95BEDB",
"i+	c #CEE1EE",
"j+	c #E3EDF4",
"k+	c #B2CFE4",
"l+	c #5698C8",
"m+	c #4A93C6",
"n+	c #4A94C7",
"o+	c #4A86B8",
"p+	c #4A6E9C",
"q+	c #4A628F",
"r+	c #4D6593",
"s+	c #172135",
"t+	c #0E1525",
"u+	c #49618F",
"v+	c #455C88",
"w+	c #4579AA",
"x+	c #458FC3",
"y+	c #458EC3",
"z+	c #3E8AC1",
"A+	c #7EB0D4",
"B+	c #EAF1F7",
"C+	c #FFFFFF",
"D+	c #DFEBF4",
"E+	c #448EC3",
"F+	c #458FC4",
"G+	c #4590C5",
"H+	c #4582B5",
"I+	c #456796",
"J+	c #455985",
"K+	c #48608D",
"L+	c #161F34",
"M+	c #0D1423",
"N+	c #445B89",
"O+	c #405682",
"P+	c #406492",
"Q+	c #408ABF",
"R+	c #408CC2",
"S+	c #3C89C0",
"T+	c #6DA5CE",
"U+	c #FDFEFE",
"V+	c #FEFEFE",
"W+	c #A4C7E0",
"X+	c #418CC2",
"Y+	c #408AC0",
"Z+	c #406A9A",
"`+	c #40547F",
" @	c #435A88",
".@	c #141D31",
"+@	c #0C1321",
"@@	c #3E5582",
"#@	c #3B517C",
"$@	c #3B4F7A",
"%@	c #3B81B7",
"&@	c #3B88C0",
"*@	c #428CC2",
"=@	c #3A88C0",
"-@	c #428CC1",
";@	c #EAF1F8",
">@	c #4890C4",
",@	c #3B87BF",
"'@	c #3B6291",
")@	c #3B517B",
"!@	c #3E5581",
"~@	c #121C2F",
"{@	c #0A1120",
"]@	c #394F7C",
"^@	c #364B76",
"/@	c #364B75",
"(@	c #364E7A",
"_@	c #3580B7",
":@	c #4C92C4",
"<@	c #CCDFED",
"[@	c #4990C4",
"}@	c #3585BE",
"|@	c #3685BE",
"1@	c #3484BD",
"2@	c #88B7D7",
"3@	c #FDFDFE",
"4@	c #5296C6",
"5@	c #3680B7",
"6@	c #36527F",
"7@	c #394F7B",
"8@	c #111A2D",
"9@	c #0A101E",
"0@	c #354A76",
"a@	c #314670",
"b@	c #30456F",
"c@	c #30527F",
"d@	c #2B7BB7",
"e@	c #9AC1DC",
"f@	c #7EAFD4",
"g@	c #2D80BC",
"h@	c #3082BD",
"i@	c #3886BF",
"j@	c #C1D8EA",
"k@	c #F8FAFB",
"l@	c #76ABD1",
"m@	c #3183BE",
"n@	c #3174AB",
"o@	c #32436C",
"p@	c #243C6A",
"q@	c #061025",
"r@	c #000717",
"s@	c #0C2657",
"t@	c #1C325E",
"u@	c #273C65",
"v@	c #28507F",
"w@	c #2177B5",
"x@	c #D4E4EF",
"y@	c #BFD7E8",
"z@	c #237AB9",
"A@	c #2B7FBB",
"B@	c #F0F5F9",
"C@	c #E1ECF5",
"D@	c #287CB9",
"E@	c #3785BE",
"F@	c #EFF4F8",
"G@	c #94BDDB",
"H@	c #267CBA",
"I@	c #2A7FBB",
"J@	c #297EBA",
"K@	c #277DBA",
"L@	c #2078B7",
"M@	c #1072B6",
"N@	c #01326B",
"O@	c #00174A",
"P@	c #00091E",
"Q@	c #000715",
"R@	c #00184A",
"S@	c #001646",
"T@	c #001746",
"U@	c #07356B",
"V@	c #0264AA",
"W@	c #E1EBF2",
"X@	c #FEFEFD",
"Y@	c #2279B7",
"Z@	c #267CB9",
"`@	c #267DB9",
" #	c #5195C5",
".#	c #AACAE1",
"+#	c #1A75B6",
"@#	c #2079B7",
"##	c #71A7CF",
"$#	c #A7C8E1",
"%#	c #1F78B7",
"&#	c #257CB9",
"*#	c #277DB9",
"=#	c #287DBA",
"-#	c #257BB8",
";#	c #1B76B5",
">#	c #1572B4",
",#	c #0F6FB3",
"'#	c #086CB2",
")#	c #0169B1",
"!#	c #0066B0",
"~#	c #0068B2",
"{#	c #005B9F",
"]#	c #00194A",
"^#	c #00091D",
"/#	c #000714",
"(#	c #001848",
"_#	c #001745",
":#	c #001644",
"<#	c #002C61",
"[#	c #005AA5",
"}#	c #D4E3EF",
"|#	c #71A8CE",
"1#	c #0062AC",
"2#	c #0568AE",
"3#	c #73A9CF",
"4#	c #A7C9E1",
"5#	c #1874B5",
"6#	c #217AB8",
"7#	c #3988BF",
"8#	c #1B76B6",
"9#	c #227AB8",
"0#	c #2279B8",
"a#	c #1E77B6",
"b#	c #1A74B5",
"c#	c #116FB2",
"d#	c #0B6BB0",
"e#	c #0367AE",
"f#	c #0266AE",
"g#	c #0168B0",
"h#	c #0068B1",
"i#	c #00589D",
"j#	c #004785",
"k#	c #003B75",
"l#	c #00336B",
"m#	c #002F65",
"n#	c #002D63",
"o#	c #001B4C",
"p#	c #00091C",
"q#	c #000614",
"r#	c #001744",
"s#	c #001541",
"t#	c #002454",
"u#	c #005AA3",
"v#	c #AECCE3",
"w#	c #F2F6F9",
"x#	c #1570B1",
"y#	c #0063AC",
"z#	c #005FAA",
"A#	c #95BDDA",
"B#	c #B4CFE4",
"C#	c #005EA9",
"D#	c #1873B4",
"E#	c #E8F0F6",
"F#	c #98BFDB",
"G#	c #0064AC",
"H#	c #0467AE",
"I#	c #0165AD",
"J#	c #0065AD",
"K#	c #00599C",
"L#	c #00366D",
"M#	c #001743",
"N#	c #00113C",
"O#	c #00133E",
"P#	c #00143F",
"Q#	c #001440",
"R#	c #001540",
"S#	c #00081B",
"T#	c #000612",
"U#	c #001641",
"V#	c #00153E",
"W#	c #001741",
"X#	c #005AA0",
"Y#	c #7FB0D3",
"Z#	c #9CC1DC",
"`#	c #0467AD",
" $	c #2F81BB",
".$	c #D2E2EF",
"+$	c #D9E7F1",
"@$	c #005DA8",
"#$	c #0E6DB1",
"$$	c #D7E6F0",
"%$	c #79ACD2",
"&$	c #0061AB",
"*$	c #0065AE",
"=$	c #005A9E",
"-$	c #003469",
";$	c #001640",
">$	c #00123B",
",$	c #00153D",
"'$	c #000819",
")$	c #000511",
"!$	c #00143B",
"~$	c #001036",
"{$	c #004987",
"]$	c #ABCBE1",
"^$	c #BAD3E6",
"/$	c #EBF3F8",
"($	c #1F76B5",
"_$	c #D7E5F0",
":$	c #428ABF",
"<$	c #005A9F",
"[$	c #003164",
"}$	c #001239",
"|$	c #001339",
"1$	c #00143D",
"2$	c #000817",
"3$	c #00133B",
"4$	c #001238",
"5$	c #001136",
"6$	c #002451",
"7$	c #1272B6",
"8$	c #E2ECF4",
"9$	c #E9F0F5",
"0$	c #72A8D0",
"a$	c #79ADD2",
"b$	c #2078B6",
"c$	c #D7E5EF",
"d$	c #1672B4",
"e$	c #0067B0",
"f$	c #005DA3",
"g$	c #002D5D",
"h$	c #00153C",
"i$	c #001237",
"j$	c #00133A",
"k$	c #000510",
"l$	c #001235",
"m$	c #000E2F",
"n$	c #014D8B",
"o$	c #88B8DA",
"p$	c #3F89BE",
"q$	c #005DA9",
"r$	c #5E9CC8",
"s$	c #F3F7FA",
"t$	c #C6DCEB",
"u$	c #90BBD9",
"v$	c #0366AD",
"w$	c #0069B3",
"x$	c #004C8A",
"y$	c #001C44",
"z$	c #001134",
"A$	c #00040E",
"B$	c #001233",
"C$	c #001131",
"D$	c #000F2F",
"E$	c #00173C",
"F$	c #2375B1",
"G$	c #8BB8D8",
"H$	c #88B5D4",
"I$	c #9FC3DD",
"J$	c #BFD6E7",
"K$	c #0668AE",
"L$	c #005799",
"M$	c #001538",
"N$	c #001133",
"O$	c #001030",
"P$	c #000F2E",
"Q$	c #000E2C",
"R$	c #002D5B",
"S$	c #0062A9",
"T$	c #0060AA",
"U$	c #0567AD",
"V$	c #116DB0",
"W$	c #4E92C3",
"X$	c #A5C6DE",
"Y$	c #E5EFF6",
"Z$	c #ECF3F8",
"`$	c #EFF5F9",
" %	c #DFEBF3",
".%	c #72A7CF",
"+%	c #0067B1",
"@%	c #004883",
"#%	c #000D2B",
"$%	c #00040D",
"%%	c #000F2D",
"&%	c #000E2B",
"*%	c #000E2A",
"=%	c #005C9F",
"-%	c #0066AE",
";%	c #0063AB",
">%	c #257AB7",
",%	c #3181BB",
"'%	c #2379B7",
")%	c #002850",
"!%	c #000C27",
"~%	c #000F2C",
"{%	c #000611",
"]%	c #00040B",
"^%	c #000D29",
"/%	c #000D27",
"(%	c #000C26",
"_%	c #001534",
":%	c #003D70",
"<%	c #005899",
"[%	c #0060A4",
"}%	c #0066AF",
"|%	c #005798",
"1%	c #000D26",
"2%	c #000C24",
"3%	c #000A21",
"4%	c #00081E",
"5%	c #00071C",
"6%	c #002043",
"7%	c #0060A7",
"8%	c #0060A6",
"9%	c #002346",
"0%	c #000C23",
"a%	c #00050E",
"b%	c #00030A",
"c%	c #000B21",
"d%	c #000A1F",
"e%	c #002042",
"f%	c #00589A",
"g%	c #0068B3",
"h%	c #005594",
"i%	c #004880",
"j%	c #004073",
"k%	c #003A6B",
"l%	c #003765",
"m%	c #003563",
"n%	c #003562",
"o%	c #003969",
"p%	c #004378",
"q%	c #004F8A",
"r%	c #003663",
"s%	c #000A20",
"t%	c #000B22",
"u%	c #000209",
"v%	c #000A1E",
"w%	c #000F26",
"x%	c #004175",
"y%	c #003059",
"z%	c #00142E",
"A%	c #000F27",
"B%	c #000D22",
"C%	c #000B1F",
"D%	c #000E25",
"E%	c #001129",
"F%	c #001833",
"G%	c #00345F",
"H%	c #005898",
"I%	c #006AB5",
"J%	c #004478",
"K%	c #000B20",
"L%	c #00030C",
"M%	c #000208",
"N%	c #00091B",
"O%	c #00081A",
"P%	c #00091A",
"Q%	c #000616",
"R%	c #001C39",
"S%	c #004E89",
"T%	c #005DA1",
"U%	c #0060A5",
"V%	c #0062A8",
"W%	c #0061A8",
"X%	c #003D6D",
"Y%	c #001832",
"Z%	c #000413",
"`%	c #000312",
" &	c #001A36",
".&	c #00315A",
"+&	c #000207",
"@&	c #000818",
"#&	c #000615",
"$&	c #000310",
"%&	c #001025",
"&&	c #001E3C",
"*&	c #002648",
"=&	c #00274B",
"-&	c #002546",
";&	c #001D3A",
">&	c #001229",
",&	c #000411",
"'&	c #000513",
")&	c #000309",
"!&	c #000106",
"~&	c #000613",
"{&	c #000104",
"]&	c #000206",
"^&	c #000001",
"/&	c #00050D",
"(&	c #000102",
"_&	c #000103",
":&	c #000002",
"<&	c #000000",
"      . + @ # $ $ $ $ $ $ $ $ $ $ $ $ $ $ $ $ $ $ $ $ $ $ $ $ $ $ $ $ $ $ $ $ $ $ % & * =       ",
"    - ; > , ' ' ' ' ' ' ' ' ' ' ' ' ' ' ' ' ' ' ' ' ' ' ' ' ' ' ' ' ' ' ' ' ' ' ' ' , > ) !     ",
"  ~ { ] ^ / / / / / / / / / / / / / / / / / / / / / / / / / / / / / / / / / / / / / / ^ ( _ :   ",
"  < [ } } } } } } } } } } } } } } } } } } } } } } } } } } } } } } } } } } } } } } } } } } | 1   ",
"= 2 3 4 5 5 5 5 5 5 5 5 5 5 5 5 5 5 5 5 5 5 5 5 5 5 5 5 5 5 5 5 5 5 5 5 5 5 5 5 5 5 5 5 4 5 6 7 ",
"8 9 0 a a a a a a a a a a a a a a a a a a a a a b b b b c c b b b b a a a a a a a a a a a a d e ",
"f g h h h h h h h h h h h h h h h h h h i h j k l m n o p p q r s t u v i h h h h h h h h h w x ",
"y z A A A A A A A A A A A A A A A A B C D E F G H H I I I I I H H H J K L M B N A A A A A A O P ",
"Q R S S S S S S S S S S S S S S S T U V W X X X X X X X X X X X X X X X X Y Z ` T S S S S S  ...",
"+.@.#.#.#.#.#.#.#.#.#.#.#.#.#.#.$.%.&.*.*.*.*.*.*.*.*.*.*.*.*.*.*.*.*.*.*.*.=.&.-.;.#.#.#.#.>.,.",
"'.).!.!.!.!.!.!.!.!.!.!.!.~.{.].^./.^./././././././././././././././././././././.(._.:.~.!.!.<.[.",
"}.|.1.1.1.1.1.1.1.1.1.1.1.2.3.4.4.4.4.4.4.4.4.4.4.4.4.4.4.4.4.4.4.4.4.4.4.4.4.4.4.4.5.6.1.1.7.8.",
"9.0.a.a.b.b.b.b.a.a.a.a.c.d.e.e.e.e.e.e.e.e.e.e.e.e.e.e.e.e.e.e.e.e.e.e.e.e.f.d.g.h.i.j.k.a.l.m.",
"n.o.p.q.r.s.t.u.v.q.w.x.y.y.z.y.y.y.y.y.y.y.y.y.y.y.y.y.y.y.y.y.y.y.y.z.A.B.C.D.E.w.w.F.p.p.G.H.",
"I.J.K.L.M.N.N.O.P.Q.R.O.N.N.N.N.N.N.N.N.N.N.N.N.N.N.N.N.N.N.N.N.N.N.N.S.T.U.V.V.V.V.V.V.V.V.W.X.",
"Y.Z.`. +.+++++++++++++++++++++++++++++++++++++++++++++++++++++++++++.+@+`.#+#+#+#+#+#+#+#+#+$+%+",
"&+*+=+-+;+>+,+,+,+,+,+,+,+,+,+,+,+,+,+,+,+,+,+,+,+,+,+,+,+,+,+,+,+'+)+=+=+!+~+{+{+{+{+{+{+{+]+^+",
"/+(+_+:+<+[+[+[+[+[+[+[+[+[+[+[+[+}+|+1+2+[+[+[+[+[+[+[+[+[+[+[+[+3+4+5+6+7+8+_+_+_+_+_+_+_+9+0+",
"a+b+c+d+e+2+2+2+2+2+2+2+2+2+2+f+g+h+i+j+k+l+|+2+2+2+2+2+2+2+2+2+2+2+m+m+n+n+o+p+q+c+c+c+c+c+r+s+",
"t+u+v+v+w+x+y+y+y+y+y+y+y+x+z+A+B+C+C+C+C+D+l+E+y+y+y+y+y+y+y+y+y+y+y+y+y+y+F+G+H+I+J+v+v+v+K+L+",
"M+N+O+O+P+Q+R+R+R+R+R+R+R+S+T+U+C+C+C+C+V+C+W+X+R+R+R+R+R+R+R+R+R+R+R+R+R+R+R+R+R+Y+Z+`+O+O+ @.@",
"+@@@#@#@$@%@&@*@S+&@&@&@=@-@;@C+C+C+C+C+C+C+D+>@&@&@&@&@&@&@&@&@&@&@&@&@&@&@&@&@&@&@,@'@)@#@!@~@",
"{@]@^@/@(@_@:@<@[@}@|@|@1@2@3@V+C+C+C+C+C+C+C+4@}@|@|@|@|@|@|@|@|@|@|@|@|@|@|@|@|@|@|@5@6@/@7@8@",
"9@0@a@b@c@d@e@C+f@g@h@h@i@j@C+C+C+V+C+k@C+C+C+l@g@h@h@h@h@h@h@h@h@h@h@h@h@h@h@h@h@h@h@m@n@o@p@q@",
"r@s@t@u@v@w@x@C+y@z@A@A@z+B@C+C+C+C+C@D@E@F@C+G@H@A@A@A@A@A@A@A@A@A@A@A@A@A@A@A@I@J@K@L@M@N@O@P@",
"Q@R@S@T@U@V@W@C+X@Y@Z@`@ #C+C+C+C+C+.#+#@###C+$#%#Z@Z@Z@&#Z@Z@Z@`@*#*#=#-#L@;#>#,#'#)#!#~#{#]#^#",
"/#(#_#:#<#[#}#C+C+|#1#2#3#C+V+C+C+C+4#5#6#7#C+.#8#6#6#9#0#L@a#b#>#c#d#2#e#f#g#h#i#j#k#l#m#n#o#p#",
"q#r#s#s#t#u#v#C+w#x#y#z#A#C+C+C+C+C+B#C#e#D#E#F#G#H#f#I#G#y#G#G#G#G#G#J#G#K#L#M#N#O#P#Q#R#R#:#S#",
"T#U#V#V#W#X#Y#C+Z#C#`# $.$C+C+C+C+C++$@$G##$$$%$&$G#G#G#G#J#J#J#J#J#*$=$-$;$>$,$V#V#V#V#V#V#U#'$",
")$V#!$!$~${$,@C+]$z#C#^$C+C+C+C+C+V+/$($G##$_$:$y#J#J#J#J#J#J#J#J#J#*$<$[$}$|$!$!$!$!$!$!$!$1$2$",
")$3$4$4$5$6$7$8$9$C#z#0$C+C+C+C+C+C+3@a$H#b$c$d$J#J#J#J#J#J#J#J#J#J#G#J#e$f$g$h$i$4$4$4$4$4$j$r@",
"k$i$l$l$l$m$n$o$C+p$q$r$C+C+C+C+C+C+C+s$4#t$u$v$J#J#J#J#J#J#J#J#J#J#J#J#G#*$w$x$y$z$l$l$l$l$i$Q@",
"A$B$C$C$C$D$E$F$G$H$C#I$C+C+C+V+V+C+V+C+C+J$K$G#J#J#J#J#J#J#J#J#J#J#J#J#J#G#G#J#L$M$C$C$C$C$N$q#",
"A$O$P$P$Q$R$S$J#T$T$G#U$V$W$X$Y$Z$`$Z$ %.%@$J#J#J#J#J#J#J#J#J#J#J#J#J#J#J#J#J#G#+%@%#%P$P$P$O$T#",
"$%%%&%*%*%=%~#-%*$J#J#G#y#&$q$;%>%,%'%;%z#J#J#J#J#J#J#J#J#J#J#J#J#J#J#J#J#J#J#J#G#w$)%!%&%&%~%{%",
"]%^%/%/%(%_%:%<%[%}%J#G#J#J#J#G#G#G#G#G#J#J#J#J#J#J#J#J#J#J#J#J#J#J#J#J#J#J#J#J#G#J#|%(%/%/%^%k$",
"]%1%2%2%2%2%3%4%5%6%7%J#G#J#J#J#J#J#J#J#J#J#J#J#J#J#G#J#J#*$*$*$*$J#J#*$*$J#J#J#G#G#8%9%0%2%1%a%",
"b%0%c%c%c%c%c%c%c%d%e%f%~#G#G#J#J#J#J#J#J#J#J#J#J#-%g%-%h%i%j%k%l%m%n%o%p%q%=%w$~#-%J#r%s%c%t%$%",
"u%d%v%v%v%v%v%v%v%v%^#w%x%w$*$G#J#J#J#J#J#G#J#}%~#|%y%z%A%B%C%^#p#p#p#^#c%D%E%F%G%H%I%J%K%v%d%L%",
"M%N%O%O%O%O%O%O%O%O%O%P%Q%R%S%T%U%V%S$W%U%T%|%X%Y%Z%r@O%O%O%O%O%O%O%O%O%O%O%O%O%r@`% &.&C%O%N%b%",
"+&'$@&@&@&@&@&@&@&@&@&@&@&#&$&%&&&*&=&-&;&>&q#,&Q@@&@&@&@&@&@&@&@&@&@&@&@&@&@&@&@&@&Q@'&2$@&'$)&",
"!&Q@/#/#/#/#/#/#/#/#/#/#/#/#/#~&~&~&~&~&~&~&/#/#/#/#/#/#/#/#/#/#/#/#/#/#/#/#/#/#/#/#/#/#/#/#Q@+&",
"{&T#)$)$)$)$)$)$)$)$)$)$)$)$)$)$)$)$)$)$)$)$)$)$)$)$)$)$)$)$)$)$)$)$)$)$)$)$)$)$)$)$)$)$)$)$T#]&",
"^&$%/&/&/&/&/&/&/&/&/&/&/&/&/&/&/&/&/&/&/&/&/&/&/&/&/&/&/&/&/&/&/&/&/&/&/&/&/&/&/&/&/&/&/&/&a%(&",
"  +&]%]%]%]%]%]%]%]%]%]%]%]%]%]%]%]%]%]%]%]%]%]%]%]%]%]%]%]%]%]%]%]%]%]%]%]%]%]%]%]%]%]%]%]%M%  ",
"  _&+&+&+&+&+&+&+&+&+&+&+&+&+&+&+&+&+&+&+&+&+&+&+&+&+&+&+&+&+&+&+&+&+&+&+&+&+&+&+&+&+&+&+&+&:&  ",
"    ^&_&{&{&{&{&{&{&{&{&{&{&{&{&{&{&{&{&{&{&{&{&{&{&{&{&{&{&{&{&{&{&{&{&{&{&{&{&{&{&{&{&{&:&    ",
"        <&<&<&<&<&<&<&<&<&<&<&<&<&<&<&<&<&<&<&<&<&<&<&<&<&<&<&<&<&<&<&<&<&<&<&<&<&<&<&<&<&      "};
