/* XPM */
static char *xWLsqb[]={
"32 32 657 2",
".# c None",
"id c None",
".m c None",
"ic c None",
"gs c None",
".c c None",
".b c None",
"in c None",
".n c None",
".a c None",
"hV c None",
"io c None",
"ib c None",
"fC c None",
"a. c None",
"aZ c None",
"#k c None",
"#J c None",
"f# c None",
"Qt c None",
"az c #3b3b3b",
"ia c #484a44",
"bk c #515151",
".o c #3f3f3f",
".l c #0f0f0f",
"im c #2d3726",
"gt c #30302f",
".F c #333333",
"hB c #2d2d2c",
"eI c #333333",
"#K c #3b3b3b",
"gS c #3f403d",
"gT c #242423",
"bl c #373737",
"hU c #3c3e39",
".G c #3d3d3d",
"#9 c #282828",
"hf c #414140",
"fD c #2a2a2a",
"f. c #3f3f3f",
"#l c #3c3c3c",
".Z c #222222",
"he c #424440",
"bE c #2f2e2f",
"aA c #393939",
"hA c #4e504b",
".0 c #525353",
"#I c #212121",
"f3 c #454544",
"hW c #20211e",
"#j c #303030",
"aY c #282828",
"eh c #1d1d1d",
"i# c #353930",
"bF c #2b2b2b",
".p c #393939",
".E c #171717",
"eH c #434343",
"f4 c #161615",
"bY c #292929",
"a# c #363636",
"dU c #151515",
"fa c #171717",
"hC c #151613",
"gr c #444541",
"bZ c #252525",
"a0 c #2e2e2e",
"hT c #373b31",
"ay c #171717",
".H c #3c3c3c",
"eg c #3e3e3e",
"fB c #474746",
"gu c #101110",
"cg c #272727",
"dz c #101010",
"bj c #1e1e1e",
"hX c #141610",
"hg c #11120f",
"ch c #1b1b1b",
".Y c #0f0f0f",
"#L c #393939",
"i. c #313729",
"gR c #40433c",
"gU c #181917",
"hz c #393d33",
"de c #121212",
".1 c #3d3d3d",
"cC c #181818",
"dT c #343434",
"ie c #14190e",
".d c #1f1f1f",
".q c #313131",
"cB c #242424",
"cW c #080808",
"#8 c #0f100f",
"#m c #3f4040",
"hd c #41453c",
".D c #0c0c0c",
"#i c #0c0c0c",
"eJ c #0b0b0b",
"dy c #2e2e2e",
"cV c #262626",
".k c #0a0a0a",
"bm c #202020",
"il c #26391e",
"dd c #202020",
"fE c #0a0b09",
"#H c #131313",
"e9 c #393938",
"aB c #292929",
"bD c #161616",
"f2 c #3a3d37",
"hD c #0b1107",
"hY c #0e1408",
"aX c #0e0f0f",
"hS c #2b3520",
"h9 c #26341b",
".I c #2b2c2c",
"ei c #050806",
".r c #202120",
".X c #0b0c0c",
"bG c #181918",
"f5 c #060b05",
".C c #0c0d0c",
"eG c #2a2e2a",
"aa c #2b2b2b",
"hh c #091405",
"bX c #141715",
"gq c #2d3829",
"hy c #27391c",
"fb c #050d05",
"gv c #061304",
"ax c #090c0b",
".2 c #2e2f2f",
"hZ c #0f2305",
"dV c #030c05",
"gV c #0a1806",
"a1 c #272827",
"h8 c #20460f",
"b0 c #181b19",
"#M c #333433",
"#h c #131615",
"fA c #233222",
"gQ c #24391d",
"hc c #243c1b",
"#n c #343535",
"bi c #0c120e",
"hE c #0f2707",
".s c #222524",
"#7 c #0f1513",
"#G c #161b19",
".B c #212322",
"hR c #214410",
"ef c #2b322c",
"cf c #1c231e",
".J c #323533",
"dA c #031307",
"ci c #172019",
"h0 c #1b440c",
".W c #272c2b",
"eK c #042207",
"fF c #052606",
"h7 c #206b09",
"bf c #000000",
"d# c #000100",
"ea c #000200",
"dO c #000400",
"eA c #000500",
"cv c #000600",
"bg c #000603",
"ds c #000700",
"fs c #000803",
"du c #000d02",
"cy c #000f05",
"cP c #002700",
"dr c #002800",
"c8 c #004f00",
"dq c #005000",
"dL c #005100",
"dp c #007804",
"cx c #010101",
"d8 c #010901",
"cd c #010e05",
"cS c #011807",
"da c #012b0c",
"cO c #015001",
"c7 c #017805",
"d2 c #01ef59",
"be c #020202",
"e1 c #020503",
"cb c #020802",
"e2 c #020c01",
"cu c #022802",
"dP c #02310a",
"dv c #024712",
"d1 c #02b72a",
"ep c #02dd4e",
"aT c #030303",
"eb c #032907",
"dQ c #035b15",
"aS c #040404",
"ft c #041302",
"eo c #048f21",
"cQ c #050505",
"aU c #050606",
"fq c #051201",
"aW c #05180e",
"df c #051a0a",
"ej c #053e0e",
"eR c #058e27",
"bU c #060606",
"fm c #062605",
"eB c #062c06",
"fj c #065c0a",
"ec c #065d13",
"bV c #07180d",
"aV c #071a11",
"fl c #074402",
"d0 c #077908",
"hs c #078510",
".j c #080808",
"d7 c #082f08",
"eV c #083008",
"fc c #08550f",
"eL c #086a13",
"ed c #09651a",
"ek c #096c16",
"eD c #097014",
".i c #0a0a0a",
"f6 c #0a470a",
"hL c #0a4d13",
"en c #0a5c09",
".h c #0b0b0b",
"cX c #0b1d10",
"bh c #0b2918",
"hM c #0b500d",
"fM c #0b5501",
"fz c #0b6210",
"eC c #0b6611",
"e7 c #0b6f16",
"eQ c #0b721b",
"ho c #0b7520",
"dH c #0bf160",
"dN c #0c0c0c",
"fk c #0c5106",
"e3 c #0d4608",
"el c #0d7315",
"hr c #0d9813",
"eX c #0e0e0e",
".g c #0e0f0f",
"fr c #0e3006",
"hK c #0e4b18",
"dW c #0e541b",
"e6 c #0e7813",
"em c #0f7211",
"eM c #0f7912",
"c6 c #0fa227",
"fG c #107711",
"fd c #108011",
"dK c #108014",
"dG c #10b934",
".f c #111212",
"cD c #112116",
"fi c #116407",
"hn c #116a1b",
"cN c #117f15",
"cc c #121212",
"eW c #121a12",
"hN c #126008",
"fy c #128111",
"hp c #12911a",
"hq c #129c16",
"do c #12a62c",
"aR c #131313",
"aw c #13281f",
"gi c #133b04",
"f1 c #134012",
"gp c #135d0d",
"e5 c #137f12",
"if c #14200d",
"dZ c #146518",
"f0 c #147f10",
"bB c #152d1f",
"gj c #153a03",
"ct c #155d15",
"e4 c #157910",
"ig c #162c0c",
"e8 c #163c1a",
"eE c #167424",
".e c #171717",
"ih c #17380b",
"eP c #176e0e",
"eN c #178311",
"ca c #183a18",
"fV c #184e06",
"av c #19231f",
"ii c #19410c",
"hJ c #19501d",
"gb c #195f03",
"fu c #196009",
"fx c #198b10",
"fp c #1a1b1a",
"ev c #1a211a",
"gP c #1a6d0d",
"dF c #1a931b",
"fe c #1b8d10",
"eO c #1c8510",
"eS c #1c9737",
"cw c #1d1d1d",
"bT c #1d221d",
"d6 c #1d641d",
"fH c #1d9010",
"au c #1e1e1e",
"hi c #1e4b16",
"fU c #1e5b09",
"ij c #1f4612",
"fP c #1f5707",
"fN c #1f7106",
"hb c #1f730c",
"fZ c #1f900f",
"go c #1f930e",
"fw c #1f940f",
"d. c #202020",
"e0 c #202523",
"bC c #203127",
"hx c #20600c",
"dY c #20742a",
"dB c #216730",
"at c #222222",
"ik c #224016",
"gw c #22611f",
"fv c #22920f",
"dX c #237631",
"h6 c #238608",
"f7 c #23921a",
"ht c #23a508",
"fS c #24570e",
"gJ c #246904",
"dE c #248625",
"hO c #249706",
"cM c #24a939",
"dl c #24cd52",
"bA c #252525",
"hQ c #25730a",
"ff c #25990f",
"#6 c #263831",
"eu c #264926",
"h5 c #26890b",
"aQ c #282828",
"fT c #287509",
"ga c #287605",
"fY c #289b0f",
"as c #292929",
"cA c #29342c",
"h4 c #298411",
"dk c #299b2b",
"eY c #2a2a2a",
"h1 c #2a6a18",
"cs c #2a8c2d",
"fh c #2a900c",
"fI c #2a9e0f",
"gO c #2aa00d",
"cT c #2b643b",
"gW c #2b6724",
"fL c #2b8808",
"fg c #2b9f0e",
"hF c #2c631f",
"db c #2c6c3d",
"h3 c #2c8317",
"gn c #2ca40d",
"cR c #2d2d2d",
"dD c #2d7336",
"hP c #2eaa08",
"#5 c #2f3633",
"eU c #2f6f2f",
"c# c #2f6f30",
"h2 c #2f7f1b",
"hw c #2f9a0b",
"fX c #2fa30e",
"bd c #303030",
"cz c #305e3e",
"ha c #30a80c",
"hI c #316f27",
"fO c #31880a",
"dj c #319d31",
"dI c #31cf61",
"ar c #323232",
"fW c #32a10d",
"f8 c #32a618",
"eq c #32cc5f",
"cU c #334137",
"bW c #33503e",
"cr c #33af47",
"g7 c #33d406",
"dS c #343f36",
"fJ c #34a90e",
"dt c #353535",
"#4 c #353636",
"bS c #355335",
"gC c #358805",
"d9 c #363636",
"ce c #365c42",
"fQ c #36671f",
"dg c #367545",
"dw c #367746",
"dC c #367f44",
"gI c #36a405",
"gm c #36af0c",
"#F c #374641",
"fR c #376921",
"c2 c #37af44",
"f9 c #37b00c",
"cL c #37ca5d",
"dc c #38463c",
"di c #398a3d",
"c. c #39953c",
"gN c #39b00c",
"dJ c #39b34e",
"#g c #3a4641",
"dx c #3a483d",
"gk c #3aa30a",
"dm c #3af07c",
"c9 c #3b3b3b",
"d5 c #3b923e",
"c5 c #3bcc62",
"dM c #3c3c3c",
"bz c #3c403b",
"fK c #3caf0c",
"#3 c #3d3d3d",
"cq c #3dcf65",
"g6 c #3df004",
"aq c #3e3e3e",
"eT c #3e9344",
"gD c #3ea305",
"gl c #3eb70b",
"hv c #3ebb0a",
"eZ c #3f413f",
"bR c #3f793f",
"c1 c #3fa43f",
".t c #404442",
"h# c #40ba0a",
"g3 c #40e107",
"g5 c #40f503",
"ez c #414141",
"gh c #41b50a",
"b9 c #41b654",
"g8 c #41da05",
"g4 c #41f104",
"bc c #424242",
".A c #424644",
"dh c #428150",
"gz c #42b90b",
"g. c #42ba0b",
"g2 c #42c60a",
"dn c #42d46c",
"fn c #434943",
"gy c #43b11d",
"hm c #43b80d",
"hu c #43d406",
"c3 c #43ea7c",
"#E c #444d4a",
"gK c #44ad08",
"gM c #44ba0a",
"#2 c #454545",
"bn c #454b47",
"by c #456045",
"d3 c #45be6b",
"fo c #464646",
"gc c #46b609",
"g# c #46b90a",
"ap c #474747",
"bQ c #479b4a",
"c0 c #47a248",
"gg c #47c609",
"cI c #47de75",
"ew c #484848",
"et c #487a48",
"gf c #48c809",
"gH c #48e203",
"gG c #48e403",
"aP c #494949",
"cY c #497f57",
"gZ c #49c20b",
"ge c #49c709",
"b8 c #49d571",
"dR c #4a8557",
"gF c #4ae204",
"#D c #4b4c4c",
"bb c #4b4f4a",
"gL c #4bc109",
"gd c #4bc609",
"h. c #4bc708",
"cH c #4cb353",
"#1 c #4d4d4d",
"bx c #4d824c",
"gA c #4dc309",
"g9 c #4dd805",
"ao c #4f4f4f",
"cZ c #4f8a59",
"bP c #4fbb61",
"gB c #4fbe09",
"gE c #4fda05",
"aC c #505551",
"hG c #509f3a",
"aO c #515150",
"gY c #52bf28",
"g0 c #52cb08",
"#C c #535353",
"ba c #536b53",
"eF c #537959",
"g1 c #53d007",
"cn c #53fb94",
"#0 c #545454",
"bw c #54a357",
"cG c #54ae55",
"hj c #55a045",
"hH c #55ae38",
"hl c #55c41d",
"an c #565656",
"bO c #56d97c",
"e# c #575757",
".V c #57605d",
"aN c #585c58",
"#f c #596561",
"cE c #598666",
"c4 c #59e98a",
"b# c #5a8c5a",
"#B c #5b5b5b",
"cm c #5bde80",
"#Z c #5c5c5c",
"bv c #5cc06d",
"cJ c #5cf897",
"cF c #5d9c63",
"gx c #5db24f",
"cK c #5de78b",
"cp c #5dec8f",
"am c #5e5e5e",
"aM c #607660",
"b5 c #60fd9e",
"b7 c #61f094",
"co c #61fb9d",
"#A c #626262",
"#e c #626665",
".z c #626865",
"ee c #62906b",
"b. c #62aa64",
"cl c #62b864",
".3 c #636865",
"gX c #63b752",
"hk c #63c040",
"#Y c #646464",
".u c #646967",
"bu c #64db86",
"b6 c #64fc9f",
"e. c #666666",
"al c #666966",
"bH c #67766c",
"d4 c #67ac72",
"bN c #67f299",
"#d c #686969",
"cj c #688c72",
"aL c #689568",
"b4 c #69ee96",
"bM c #69fda3",
"#z c #6a6a6a",
"ck c #6aab6f",
"a9 c #6ac579",
"#X c #6c6c6c",
"ak c #6e826e",
"bL c #6efda6",
"b3 c #6fc274",
"bt c #6ff39f",
"#c c #707070",
".K c #707572",
"b1 c #708b78",
"aK c #70b171",
"#y c #727272",
"a8 c #72de91",
"#W c #747674",
"bs c #74fdaa",
"aj c #769e76",
"bK c #76e999",
"#b c #787878",
".y c #787e7c",
".U c #78807d",
"aJ c #78ca85",
"b2 c #79b77c",
"#x c #7a7a7a",
"a7 c #7af4a6",
"#V c #7b8e7b",
"br c #7bfaac",
"ex c #7d7d7d",
".v c #7d8280",
"bJ c #7dc580",
"ab c #7e887f",
"ai c #7eb87f",
"#a c #808080",
"es c #80aa81",
"aI c #80e19b",
"#w c #828482",
".x c #828886",
"a6 c #82fcb2",
"#U c #83a783",
"bq c #83db96",
".T c #858a88",
"ah c #85cf91",
".w c #868b89",
"## c #878887",
"aH c #87f4af",
"#o c #89938b",
"a5 c #89eeab",
"#v c #8a998a",
"bI c #8ac08d",
".S c #8b8e8d",
"bp c #8bca8c",
"#T c #8cbf8d",
"ag c #8ee4a6",
"#. c #8f908f",
"aG c #8ff6b4",
".R c #919292",
"a2 c #91a694",
"#u c #91ad91",
"a4 c #91d196",
"#N c #929d93",
"#S c #93d29d",
"af c #95edb3",
".9 c #979b97",
"aF c #97dda3",
".Q c #989998",
"#t c #99bc9a",
"#R c #9bdaaa",
"bo c #9dc59f",
"a3 c #9dd39d",
"ae c #9de0ab",
".8 c #9fa59f",
"aE c #a0d3a0",
".P c #a1a2a1",
"#s c #a1c1a4",
"er c #a1d2aa",
"#Q c #a2d5ab",
"ad c #a5d6a6",
"ey c #a7a7a7",
".7 c #a7b0a7",
"#r c #a8c4ab",
".L c #aab1ac",
".O c #abacab",
"#P c #abd5ac",
".6 c #b1bdb2",
"aD c #b2d4b2",
"#q c #b3cfb4",
".4 c #b5c2b7",
".N c #b7b9b7",
"ac c #b8ddb8",
".M c #bcc1bd",
"#O c #bddfbe",
".5 c #c1cfc1",
"#p c #c2dbc3",
"QtQtQtQtQtQtQtQtQtQtQtQtQtQtQtQtQtQtQtQtQtQtQtQtQtQtQtQtQtQtQtQt",
"Qt.#.#.#.#.#.#.#.#.a.b.c.d.e.f.g.h.i.j.k.l.m.n.#.#.#.#.#.#.#.#Qt",
"Qt.#.#.#.#.#.#.o.p.q.r.s.t.u.v.w.x.y.z.A.B.C.D.E.F.#.#.#.#.#.#Qt",
"Qt.#.#.#.#.#.G.H.I.J.K.L.M.N.O.P.Q.R.S.T.U.V.W.X.Y.Z.#.#.#.#.#Qt",
"Qt.#.#.#.#.0.1.2.3.4.5.6.7.8.9#.###a#b#c#d#e#f#g#h#i#j#k.#.#.#Qt",
"Qt.#.#.##l#m#n#o#p#q#r#s#t#u#v#w#x#y#z#A#B#C#D#E#F#G#H#I#J.#.#Qt",
"Qt.#.##K#L#M#N#O#P#Q#R#S#T#U#V#W#X#Y#Z#0#1#2#3#4#5#6#7#8#9.#.#Qt",
"Qt.#a.a#aaabacadaeafagahaiajakalamanaoapaqarasatauavawaxayaz.#Qt",
"Qt.#aAaBaCaDaEaFaGaHaIaJaKaLaMaNaOaPaqaQaR.jaSaTaSaUaVaWaXaY.#Qt",
"QtaZa0a1a2a3a4a5a6a7a8a9b.b#babbbcbdaRbebfbfbfbfbfbfbgbhbibjbkQt",
"QtblbmbnbobpbqbrbsbtbubvbwbxbybzbA.jbfbfbfbfaTbfbfbfbfbBbCbDbEQt",
"QtbFbGbHbIbJbKbLbMbNbObPbQbRbSbTaTbfbfbfbfbf.ibUbfbfbfbVbWbXbYQt",
"QtbZb0b1b2b3b4b5b6b7b8b9c.c#cacbbfbfbfbfbfbfccaRbfbfbfcdcecfcgQt",
"QtchcicjckclcmcncocpcqcrcsctcucvbfbfbfbfbfbfcwatcxbfbfcyczcAcBQt",
"QtcCcDcEcFcGcHcIcJcKcLcMcNcOcPcvbfbfbfbfbfcQcRcRaSbfbfcScTcUcVQt",
"QtcWcXcYcZc0c1c2c3c4c5c6c7c8cPcvbfbfbfbfbf.ec9d.cxbfd#dadbdcddQt",
"Qtdedfdgdhdidjdkdldmdndodpdqdrdsbfbfbfbf.jdtbdbUbfbfdudvdwdxdyQt",
"QtdzdAdBdCdDdEdFdGdHdIdJdKdLdrdsbfbfbf.jbddMdNbfbfdOdPdQdRdSdTQt",
"QtdUdVdWdXdYdZd0d1d2d3d4d5d6d7d8bfaTaRd9e.e#cxbfeaebecedeeefegQt",
"Qteheiejekelemeneoepeqereseteuev.ebAewexeyezbfeAeBeCeDeEeFeGeHQt",
"QteIeJeKeLeMeNeOePeQeReSeTeUeVeWcceXeYeZe0e1e2e3e4e5e6e7e8e9f.Qt",
"Qtf#fafbfcfdfefffgfhfifjfkflfmfnfofpfqfrfsftfufvfwfxfyfzfAfBfCQt",
"Qt.#fDfEfFfGfHfIfJfKfLfMfNfOfPfQfRfSfTfUd8fVfWfXfYfZf0f1f2f3.#Qt",
"Qt.#.mf4f5f6f7f8f9g.g#gagbgcgdgegfggghgigjgkglgmgngogpgqgrgs.#Qt",
"Qt.#.#gtgugvgwgxgygzgAgBgCgDgEgFgGgHgIgJgKgLgMgNgOgPgQgRgS.#.#Qt",
"Qt.#.#.#gTgUgVgWgXgYgZg0g1g2g3g4g5g6g7g8g9h.h#hahbhchdhe.#.#.#Qt",
"Qt.#.#.#.#hfhghhhihjhkhlhmhnhohphqhrhshthuhvhwhxhyhzhA.#.#.#.#Qt",
"Qt.#.#.#.#.#hBhChDhEhFhGhHhIhJhKhLhMhNhOhPhQhRhShThU.#.#.#.#.#Qt",
"Qt.#.#.#.#.#.#hVhWhXhYhZh0h1h2h3h4h5h6h7h8h9i.i#ia.#.#.#.#.#.#Qt",
"Qt.#.#.#.#.#.#.#.#ibicidieifigihiiijikiliminio.#.#.#.#.#.#.#.#Qt",
"QtQtQtQtQtQtQtQtQtQtQtQtQtQtQtQtQtQtQtQtQtQtQtQtQtQtQtQtQtQtQtQt",
"QtQtQtQtQtQtQtQtQtQtQtQtQtQtQtQtQtQtQtQtQtQtQtQtQtQtQtQtQtQtQtQt"};
