/* XPM */
static char *bla[] = {
/* columns rows colors chars-per-pixel */
"32 32 256 2 ",
"   c #00A900A2009C",
".  c #0C830B290C10",
"X  c #11BF0BBB0D27",
"o  c #13AC18150E49",
"O  c #150E07B3150E",
"+  c #136013C0123E",
"@  c #173117E318D3",
"#  c #1E411E411E41",
"$  c #23F01AEB1A4C",
"%  c #1E04208C1A8C",
"&  c #200127EB180F",
"*  c #27F428462971",
"=  c #34772E852693",
"-  c #2AFA336121FF",
";  c #33833C2E2837",
":  c #306D305A2FD2",
">  c #44DA37BE3795",
",  c #4DF1573C3B75",
"<  c #511C5DDF3E95",
"1  c #5D4336855EE2",
"2  c #73851B767385",
"3  c #70E315C971B2",
"4  c #6AF32BF86B12",
"5  c #642334F2649E",
"6  c #647A3B936494",
"7  c #6AB8332B6A5E",
"8  c #6D3B36D5666B",
"9  c #715B2181715B",
"0  c #7E382D357D05",
"q  c #756E3E21744A",
"w  c #7AE2363E7A9A",
"e  c #472946F345EE",
"r  c #5AA9467E4600",
"t  c #52364722475E",
"y  c #549A5D1E481A",
"u  c #5E0E453C5E2A",
"i  c #5EEE49515EE8",
"p  c #5BD450AC5BD4",
"a  c #635751874F16",
"s  c #69AB55645D84",
"d  c #5B3464924FA7",
"f  c #5B2566C64373",
"g  c #649267E85BDC",
"h  c #625B431C6246",
"j  c #662A485E6603",
"k  c #6A815A5668B6",
"l  c #693340C67EC8",
"z  c #73964608738E",
"x  c #733C4CDF732B",
"c  c #796D48DE79DE",
"v  c #745A529874FF",
"b  c #794259E279C0",
"n  c #69676766681E",
"m  c #6FAE744E6FAE",
"M  c #746175236DD4",
"N  c #772C6160772C",
"B  c #7AE46A047899",
"V  c #771D77596FF5",
"C  c #7873789A7784",
"Z  c #77FB70EF787F",
"A  c #811E2A6D7E90",
"S  c #86F452537E1F",
"D  c #813667A172F6",
"F  c #81478D696E89",
"G  c #82D591A56D31",
"H  c #9ACE803677C8",
"J  c #A4F6AB737FF4",
"K  c #4C262A0984E1",
"L  c #71A8325B9446",
"P  c #5EDB50D693D9",
"I  c #7FF541F68069",
"U  c #7B9058E98BFB",
"Y  c #774F58809845",
"T  c #7AF068BF86BA",
"R  c #73B76159952D",
"E  c #7BF346CFA60E",
"W  c #67735E42A7D7",
"Q  c #70EB505FAFA3",
"!  c #6033418BBA56",
"~  c #71954E72B210",
"^  c #73B04249B4E4",
"/  c #6368586CB0C0",
"(  c #7BCA7444A880",
")  c #7A88640EB7EE",
"_  c #7806783CB6E8",
"`  c #78B2783EB8C9",
"'  c #5960390ED45F",
"]  c #59C84E69CBBE",
"[  c #6AA24266CB2F",
"{  c #5D116486C6C4",
"}  c #675F6AC0C32B",
"|  c #85EC20DF85E3",
" . c #848E1BB6B495",
".. c #A2A93BE9A498",
"X. c #8829490689D5",
"o. c #8614519F8650",
"O. c #82B45A9082FB",
"+. c #8CAF54F48BF1",
"@. c #89AB5CFF89AB",
"#. c #95EA5B238EEE",
"$. c #870449729F6A",
"%. c #968758EC9574",
"&. c #82D0651882DE",
"*. c #92EA62C38F4F",
"=. c #88DD7C8C87F3",
"-. c #942C64339401",
";. c #97E26BAC9526",
":. c #95BC71D193BF",
">. c #99CE7B44981F",
",. c #A0807A0B98F6",
"<. c #9B194618A8F9",
"1. c #9D3250D8A4CB",
"2. c #8BB85B51B921",
"3. c #87D858C6B6F0",
"4. c #927556F2B7E2",
"5. c #A7E44B3BAE14",
"6. c #AD1D58A0AEC9",
"7. c #B0E05B0BAE55",
"8. c #A45B495CB46F",
"9. c #B41549A6B037",
"0. c #A92359C1B50D",
"q. c #B5D55ACCB6B1",
"w. c #88FA6B1BAD83",
"e. c #889D7807A40C",
"r. c #96CA79BAA360",
"t. c #88EA74BEB393",
"y. c #ACE460A7AC76",
"u. c #ACE06E91A9ED",
"i. c #A7656CB2AB8C",
"p. c #B2E6641BAAB0",
"a. c #AB6A7A02A6DF",
"s. c #A6F678BBA5CB",
"d. c #A16E6265B04B",
"f. c #B3916FD1B109",
"g. c #B41971AEB350",
"h. c #B0D77C23B058",
"j. c #CECA3C68CECA",
"k. c #A93F55FEC3E0",
"l. c #8ED27233C42F",
"z. c #81C97938EBA8",
"x. c #871C8A068522",
"c. c #8B6C84EB8918",
"v. c #8F0492838D34",
"b. c #97D79D818B73",
"n. c #9F0886F89E11",
"m. c #965995DA9555",
"M. c #9641984E9350",
"N. c #AEBBA0098FB3",
"B. c #A4288A4A9B70",
"V. c #AC799D149F92",
"C. c #B4D09F2B964A",
"Z. c #A97EA0398FEC",
"A. c #B4ADAF4F8DD5",
"S. c #B967AC708DF0",
"D. c #A62CB3188B97",
"F. c #B19CB8DC8BFD",
"G. c #A228AB249373",
"H. c #A80CA8C598F8",
"J. c #AA6FB4E8966F",
"K. c #B4A0B1B09FB2",
"L. c #8A258461A4D9",
"P. c #8785874DAD7A",
"I. c #973588C0A4BB",
"U. c #9FAC956CAFB3",
"Y. c #9BB89BC7B422",
"T. c #A6FD8739A548",
"R. c #AAA395EFA996",
"E. c #A86C9D75A759",
"W. c #B2039312AFDC",
"Q. c #B8348E5DB834",
"!. c #B2F49905B232",
"~. c #A536A675A5A4",
"^. c #B757B5C8A983",
"/. c #B711B664A929",
"(. c #B656AD31B5FE",
"). c #B70BB736B72C",
"_. c #B9B0BA79B9B0",
"`. c #BBF2B395B4DE",
"'. c #C6F7B7D7ACFE",
"]. c #C48CBB23BAB6",
"[. c #D1AFBB75B44C",
"{. c #B330CFCF8E7E",
"}. c #CB75C34CA22D",
"|. c #CB81CA7FA454",
" X c #DF59C276A7A7",
".X c #CA04DB06AC74",
"XX c #CD33C1D0B37B",
"oX c #CEA7CCA4B52A",
"OX c #CC63C7CABC53",
"+X c #D311CC76BBDF",
"@X c #CE53DB47B8E2",
"#X c #C98ED9E7BB0A",
"$X c #D5A7D598B98B",
"%X c #D43ADCDAB758",
"&X c #E8AEC9A1BDA9",
"*X c #F72DCDB1BB35",
"=X c #E5C3DDD3B5D3",
"-X c #EB39D4D8BA9E",
";X c #E71ED93DB770",
":X c #DCBBEDA2AF9B",
">X c #DC95F215AE86",
",X c #CFC9E391B4D1",
"<X c #D439E58DB429",
"1X c #DBCEE4A7B30C",
"2X c #DA79EBC3B155",
"3X c #DED3E633BDED",
"4X c #D51BEC6EBA19",
"5X c #E8ACE4B1B932",
"6X c #E1C5FA3EBDE1",
"7X c #8729900BC738",
"8X c #9C879169C992",
"9X c #80BC884DDE55",
"0X c #B6ED9B97CA44",
"qX c #A1839344D53E",
"wX c #C4A19E6FC476",
"eX c #C72CA17AC72C",
"rX c #C72EB72CC65A",
"tX c #CA01BCC8DF33",
"yX c #D768C001D768",
"uX c #DE05B121E7E5",
"iX c #C5CAC4F1C5A7",
"pX c #C7E5CB2BC300",
"aX c #D99FC441C437",
"sX c #D853D7EDC742",
"dX c #D94BD1C9C40A",
"fX c #DCA8DC49CA91",
"gX c #D4ACD97DCE91",
"hX c #DDD7DBCFDDAF",
"jX c #D8C2DA88D594",
"kX c #E6E7D8E4CAAC",
"lX c #F93CDD1ED609",
"zX c #D631E27AC214",
"xX c #DD95EC39C56A",
"cX c #D76EE0EEDC09",
"vX c #F1A6ED54C195",
"bX c #EA01FC0FCDBE",
"nX c #E568EAF0DC3D",
"mX c #EBB9ED70D7BE",
"MX c #F1B5FEDDDB56",
"NX c #E721D850E73A",
"BX c #DDEAEEA9FA53",
"VX c #E835E7D6E8C2",
"CX c #ECB7EC91EC6F",
"ZX c #E45EE862E0AA",
"AX c #F443FFFFE2DC",
"SX c #F779FC97EFDE",
"DX c #EB18EC6FFFFF",
"FX c #F9EDEF5DF9E7",
"GX c #F2B5E5B9FAC7",
"HX c #E54CF369FCB1",
"JX c #EA59F548FD1D",
"KX c #F4C6F3F9F4DD",
"LX c #FBA8F641FBA8",
"PX c #FF46FF4FFF4F",
"IX c #F7A8FA2EF921",
"UX c None",
/* pixels */
"UXUXUXUXUXUXUXUXUXUXUXUXUXUXUXUXUXUXUXUXUXUXUXUXUXUXUXUXUXUXUXUX",
"UXUXUXUXUXUXUXUXUXUXUXUXUXUXUXUXUXUXUXUXUXUXUXUXUXUXUXUXUXUXUXUX",
"UXUXUXUXUXUXUXUXUXUXUXUXKXhXPX6XgXMX@XUXUXUXUXUXUXUXUXUXUXUXUXUX",
"UXUXUXUXUXUXPXPXUXUXUXPXIXKXVXmX5XkX<X-X>XUXUX2XkXUXUXUXUXUXUXUX",
"UXUXUXUXUXUXPXPXPXPXPXPXKXVXSXlXfXmX%X1X+X@X+X$X2XUXUXUXUXUXUXUX",
"UXUXPXPXUXUXPXPXPXPXPXPXIXCXAXnXzXkX5X+X=X1X-X2XpXUXUX$X<XUXUXUX",
"UXUXPXPXPXPXPXPXPXPXPXPXIXKXMXnXzXgX1X1X5X$X$X=X<XUX+X2X&XUXUXUX",
"UXUXUX(.=.n iXPXyX_.rXrX!.u./.c.%.c.M S B M M '.J.+ * g s   UXUX",
"UXUXj.Q.%.x eXLXq.u.4.8.I.^ ..B w x 3 u 4 5 4 -XD.+ = k 8   UXUX",
"UXUXPXPXPX_.).PXW.a.} 4.L.~ *.S z b 2 i 6 h u }.M.d vXfXA.  UXUX",
"UXUXPXKXR.O._.PXl.[ u.7.L.~ :.o.z N 2 i 2 2 h '.D.* d /.A.  UXUX",
"UXUXUXe O O ~.PXR.P.[ t.8.L./ Y 0 m i i 2 u 7 [.G.    UX-   UXUX",
"UXUXUXUX    m.HXq.g.0.Y._ +.1.Z 0 B 4 UXh 4 j ^.F.    UXUXUXUXUX",
"UXUXUXUXUX  ).JXg.9X3.qX] >.:.@.k w h 7 i h 7 |.C.    UXUXUXUXUX",
"UXUXUXUXUXUXPXHXh.2.2.9.B.~ } -.z b 2 i p 9 j |.D.    UXUXUXUXUX",
"UXUXUXUXUXUXPXBX0.I.T.' r.$.P.| x O.4 h 9 h h ].H.    UXUXUXUXUX",
"UXUXUXUXUXUXUXIX8X{ p.d.r.<./ R 0 k 6 9 6 7 c |.H     UXUXUXUXUX",
"UXUXUXUXUXUXUXPXNXs._ k.e.E ;.Z | D 4 h 6 1 E..Xo   UXUXUXUXUXUX",
"UXUXUXUXUXUXUXUXGX0X_ Y.w.^ v.o.z T i 9 5 D oXn .   UXUXUXUXUXUX",
"UXUXUXUXUXUXUXUXPXuXi.6.I.4.W T 0 v 4 h u ,.4X; .   UXUXUXUXUXUX",
"UXUXUXUXUXUXPXPXZXLXz.2.L./ %.U L e.u 4 =.+X< J G.@   UXUXUXUXUX",
"UXUXUXUXUXPXPXKX,.fXjXp.n.>.-.w.K v 5 x.oXr   S.3XN.&   UXUXUXUX",
"UXUXUXUXPXPXhXNXwXm.).cX) ! *.B z z x.[., : F {.`.dXN.$ UXUXUXUX",
"UXUXUXPXPXhX0.a.PXm.# iXDX7X7.O.X.R._.t   a kXE...b.oXD.% UXUXUX",
"UXUXPXPXUXf.P l fXG   & CXPXFXjX#XXXr     f sXB o.%.v XXb.  UXUX",
"UXUXPXFXq.u.v x.%XC     UXPXPXxXXX,       f xXo.j 7.v '.J.  UXUX",
"UXUXPXPXcXtXwXpX}.:     UXUXUXUXUXUXUXUXUXUX;X^.~.iX(.[.e   UXUX",
"UXUXUXPXPXPXnX.X;     UXUXUXUXUXUXUXUXUXUXUXaX3XfXaX4X^.X UXUXUX",
"UXUXUXUXPXPXbX XX   UXUXUXUXUXUXUXUXUXUXUXUXUX*X1X%X=X>   UXUXUX",
"UXUXUXUXUXUXUXUXUXUXUXUXUXUXUXUXUXUXUXUXUXUXUXUXUXUXUXUXUXUXUXUX",
"UXUXUXUXUXUXUXUXUXUXUXUXUXUXUXUXUXUXUXUXUXUXUXUXUXUXUXUXUXUXUXUX",
"UXUXUXUXUXUXUXUXUXUXUXUXUXUXUXUXUXUXUXUXUXUXUXUXUXUXUXUXUXUXUXUX"
};
