/* XPM */
static char *bla[] = {
/* columns rows colors chars-per-pixel */
"32 32 129 2 ",
"   c #00B000B30097",
".  c #0DAF0DB10B6E",
"X  c #0CDE159A159A",
"o  c #149914991132",
"O  c #1B5F1B5F16D9",
"+  c #1E681E5B1BCB",
"@  c #22C322C31D05",
"#  c #2D352D6025F6",
"$  c #339433972B14",
"%  c #3EF63EF63490",
"&  c #4B4F4AFD3E74",
"*  c #445C454A454A",
"=  c #4E964E60414F",
"-  c #4FFF4FB8425F",
";  c #507450624313",
":  c #59C459C44AF1",
">  c #6F246EB95C3E",
",  c #4FBC67246164",
"<  c #46A66BEC6BED",
"1  c #48856D5A6D0C",
"2  c #54196CC966B8",
"3  c #5A3E71BB6A45",
"4  c #4C25716D76F8",
"5  c #4DA072ED7A0C",
"6  c #525675357505",
"7  c #5BD17BD276CC",
"8  c #50D275F57F76",
"9  c #5713796A7B57",
"0  c #5A4E7B9D7B8A",
"q  c #6704841C7C06",
"w  c #68F4859F7D5F",
"e  c #861C860F6FD6",
"r  c #85AB85B870CA",
"t  c #8AAA8A36732B",
"y  c #4EB074A4800F",
"u  c #54207945861D",
"i  c #55937AE88A22",
"p  c #58927DBD8F24",
"a  c #59AB7EF59213",
"s  c #5F15813F8A49",
"d  c #5E02833C9A61",
"f  c #69AF86A2807E",
"g  c #6F088C3F8D2A",
"h  c #7BFA93BB85E7",
"j  c #7DCA95CF88A7",
"k  c #609885A79E8C",
"l  c #6A988C8DA008",
"z  c #7563925897CA",
"x  c #7625931A997A",
"c  c #63298869A4D1",
"v  c #664B8B7FAACE",
"b  c #68658D8AAEA8",
"n  c #77A59626A5B3",
"m  c #7EAF9BA3AA4E",
"M  c #697B8F24B3E8",
"N  c #6C7A919DB6C4",
"B  c #72279508B4A3",
"V  c #7426976CBB10",
"C  c #76659907BBAA",
"Z  c #78459A6EBC98",
"A  c #9EE89EE884AA",
"S  c #8FE599569956",
"D  c #96D69651955C",
"F  c #A0469FBD851B",
"G  c #8D31A136903E",
"H  c #92A5A53D9505",
"J  c #9DDDAD5B9833",
"K  c #A6B9A6B78B2F",
"L  c #ABCCAB668ED3",
"P  c #AF59AEC2919D",
"I  c #A1E4B10E9EF7",
"U  c #AC66B8089EFA",
"Y  c #B2F6B26C94B3",
"T  c #B8F6B8BD9A28",
"R  c #81529F3AB3E8",
"E  c #8C4BA43CA5C2",
"W  c #9308A4B1A6AB",
"Q  c #9FE1A30EA2F8",
"!  c #99A5ADC9ADC9",
"~  c #8660A355B9C5",
"^  c #A657B526A55E",
"/  c #A74DB90BB7AD",
"(  c #AED9BDB6B6F6",
")  c #B6D8B6C8B6B8",
"_  c #BFE1BF4CBEB7",
"`  c #C06FC01DA03C",
"'  c #BC65C4CDA720",
"]  c #BDA9C5E1A92B",
"[  c #C47AC593A4EC",
"{  c #CA0BC9F5A7E0",
"}  c #C0E1C7B8A9E8",
"|  c #C641C9C8AA05",
" . c #CAFBCC1BAB5E",
".. c #D105D008AD35",
"X. c #D32ED4E4B23D",
"o. c #DA9DDA9EB667",
"O. c #D749DA50BDE7",
"+. c #DDF4DE16B975",
"@. c #E448E427BE42",
"#. c #8353A2B3C215",
"$. c #8856A5E0C11B",
"%. c #8C9CA9AEC6DA",
"&. c #9632B0D3CB74",
"*. c #A2B9BA30D19B",
"=. c #B3AEC334C340",
"-. c #C07ECD3FCD2C",
";. c #C9B2C939C8D4",
":. c #DFC1DFE9C14D",
">. c #C74DD450DB34",
",. c #D381DCF7DCEF",
"<. c #E295E292C59C",
"1. c #E3BFE3E7C92C",
"2. c #EA88EA55D441",
"3. c #EC65EC80D9EF",
"4. c #C4E4D3DBE32E",
"5. c #CA3CD7C7E55C",
"6. c #CBFFD916E62C",
"7. c #CF05DC3BE932",
"8. c #DE64E6D9EF4E",
"9. c #E7D8E823E765",
"0. c #F05CF05CE124",
"q. c #F254F268E57B",
"w. c #F5EDF608ECBD",
"e. c #F418F67DF732",
"r. c #F9F6FA06F475",
"t. c #F40FF711FA1A",
"y. c #F746F979FBAB",
"u. c #FED6FF38FF7F",
"i. c None",
/* pixels */
"i.i.i.i.i.i.i.i.i.i.i.i.i.i.i.i.i.i.i.i.i.i.i.i.i.i.i.i.i.i.i.i.",
"i.i.i.i.i.i.i.i.i.i.i.i.i.i.i.i.i.i.i.i.i.i.i.i.i.i.i.i.i.i.i.i.",
"i.i.i.i.i.i.i.i.i.i.i.i.w.2.u.1.<.q.o.i.i.i.i.i.i.i.i.i.i.i.i.i.",
"i.i.i.i.i.i.u.u.i.i.i.u.u.w.q.3.+.<.o.o.o.i.i.o.o.i.i.i.i.i.i.i.",
"i.i.i.i.i.i.u.u.u.u.u.u.r.q.w.2.<.2.o.o.o.o.o.o.o.i.i.i.i.i.i.i.",
"i.i.u.u.i.i.u.u.u.u.u.u.y.w.q.3.<.1.o.o.o.o.o.o.o.i.i.o.o.i.i.i.",
"i.i.u.u.u.u.u.u.u.u.u.u.r.w.q.3.:.<.o.o.o.o.o.o.o.i.o.o.o.i.i.i.",
"i.i.%.#.g f =.u.&.%.%.%.~ m ~ z g z q q q q q | T o # 3 2   i.i.",
"i.i.%.#.g 0 =.y.Z N M N b c d a 4 4 < < < < < ] P o # 3 ,   i.i.",
"i.i.u.u.u.=.=.y.Z N N N b k c i 4 u < 1 < 1 1 ] K : @.+.K   i.i.",
"i.i.u.e.! g =.y.Z N N N b d c i 4 u < < < < 1 ] K @ : [ P   i.i.",
"i.i.i.* X X Q u.Z N N N b v d a 4 5 < < < < 1 ] P     i.#   i.i.",
"i.i.i.i.    D u.Z N N N v d v i 5 i < < < < 1 ] P     i.i.i.i.i.",
"i.i.i.i.i.  ) y.Z N N N M c d p 5 y < 1 1 < 1 ] L     i.i.i.i.i.",
"i.i.i.i.i.i.u.t.Z N N N b c d p 4 8 < < 1 < 1 ] L     i.i.i.i.i.",
"i.i.i.i.i.i.u.t.V N N N v d v i 5 i < 1 < < < ] Y     i.i.i.i.i.",
"i.i.i.i.i.i.i.y.%.N N N b v d a 4 5 1 1 < < 7 } t     i.i.i.i.i.",
"i.i.i.i.i.i.i.u.8.N N N b k c p 5 u < < < < J  .o   i.i.i.i.i.i.",
"i.i.i.i.i.i.i.i.t.*.M N v k c i 4 u < < < w | >     i.i.i.i.i.i.",
"i.i.i.i.i.i.i.i.y.6.N N b v d s 4 5 1 < < G X.$ .   i.i.i.i.i.i.",
"i.i.i.i.i.i.u.t.*.u.*.M v k c u 5 i < < h | = A L O   i.i.i.i.i.",
"i.i.i.i.i.u.u.t.n ,.7.V v c k p 4 8 < j | =   L @.K @   i.i.i.i.",
"i.i.i.i.u.u.6.*.=.S _ 7.N c k a 4 5 j  .& $ e W / +.K + i.i.i.i.",
"i.i.i.u.y.6.B N u.D + ;.>.l B s 0 E  .=   : @.R c H X.K @ i.i.i.",
"i.i.u.t.#.V i 6 O.r   + 9.e.t.O.X. .-     : +.w 5 k 9 ] K   i.i.",
"i.i.u.t.C M i h +.t     i.u.u.1. .=       : +.q 5 N i ' P   i.i.",
"i.i.u.u.5.4.( X.T $     i.i.i.i.i.i.i.i.i.i.+.U Q ] ! } ;   i.i.",
"i.i.i.u.u.u.2. .$     i.i.i.i.i.i.i.i.i.i.i.o.+.+.+.+.T . i.i.i.",
"i.i.i.i.u.u.2.{ .   i.i.i.i.i.i.i.i.i.i.i.i.i.o.o.o.X.&   i.i.i.",
"i.i.i.i.i.i.i.i.i.i.i.i.i.i.i.i.i.i.i.i.i.i.i.i.i.i.i.i.i.i.i.i.",
"i.i.i.i.i.i.i.i.i.i.i.i.i.i.i.i.i.i.i.i.i.i.i.i.i.i.i.i.i.i.i.i.",
"i.i.i.i.i.i.i.i.i.i.i.i.i.i.i.i.i.i.i.i.i.i.i.i.i.i.i.i.i.i.i.i."
};
