/* XPM */
static char *redeclipse[] = {
/* columns rows colors chars-per-pixel */
"55 55 256 2",
"   c #000100",
".  c #060000",
"X  c #070000",
"o  c #090100",
"O  c #0F0000",
"+  c #100101",
"@  c #160003",
"#  c #0B0403",
"$  c #190100",
"%  c #1D0000",
"&  c #1D0000",
"*  c #150300",
"=  c #210000",
"-  c #1E0100",
";  c #220101",
":  c #130506",
">  c #250003",
",  c #1A0400",
"<  c #290000",
"1  c #220202",
"2  c #2A0000",
"3  c #270100",
"4  c #2D0000",
"5  c #1F0402",
"6  c #2D0001",
"7  c #2A0100",
"8  c #170701",
"9  c #310002",
"0  c #320000",
"q  c #2E0102",
"w  c #330000",
"e  c #340100",
"r  c #380002",
"t  c #250600",
"y  c #2F0305",
"u  c #3B0000",
"i  c #250700",
"p  c #3C0100",
"a  c #400002",
"s  c #410003",
"d  c #2E0600",
"f  c #320500",
"g  c #440000",
"h  c #230A00",
"j  c #2E0700",
"k  c #450101",
"l  c #4C0000",
"z  c #4D0000",
"x  c #240C03",
"c  c #470304",
"v  c #560000",
"b  c #500200",
"n  c #570001",
"m  c #500203",
"M  c #3E0800",
"N  c #4A0500",
"B  c #3F0900",
"V  c #520400",
"C  c #620003",
"Z  c #27110A",
"A  c #410B02",
"S  c #370F04",
"D  c #6D0100",
"F  c #5C0608",
"G  c #660400",
"H  c #560904",
"J  c #5E0702",
"K  c #670501",
"L  c #570A05",
"P  c #321505",
"I  c #570A0D",
"U  c #680702",
"Y  c #800003",
"T  c #3D1404",
"R  c #580B0E",
"E  c #820000",
"W  c #7A0400",
"Q  c #5A0E10",
"!  c #37190D",
"~  c #6B0C0D",
"^  c #640F10",
"/  c #900500",
"(  c #501805",
")  c #870A0A",
"_  c #691514",
"`  c #A60600",
"'  c #A6070D",
"]  c #C30000",
"[  c #BA0312",
"{  c #CE0004",
"}  c #D10006",
"|  c #861617",
" . c #BE0B04",
".. c #7C1F1F",
"X. c #752122",
"o. c #C00E05",
"O. c #F60200",
"+. c #FF0000",
"@. c #FF0000",
"#. c #FF0006",
"$. c #FF0007",
"%. c #FF0009",
"&. c #802428",
"*. c #D60E0A",
"=. c #FF0114",
"-. c #8F3133",
";. c #FC1612",
":. c #FD191C",
">. c #FF1C1D",
",. c #BA3030",
"<. c #AC3436",
"1. c #993A3A",
"2. c #9A3B3B",
"3. c #FF2026",
"4. c #A04040",
"5. c #FD2B2C",
"6. c #FE2D2D",
"7. c #FF3135",
"8. c #FD3834",
"9. c #FE3A35",
"0. c #B14F4D",
"q. c #FF3B3C",
"w. c #AD5353",
"e. c #AC595B",
"r. c #FE4444",
"t. c #FF474B",
"y. c #AD6160",
"u. c #A96466",
"i. c #FF4F4D",
"p. c #B06A6C",
"a. c #C2666B",
"s. c #B46E70",
"d. c #FF605E",
"f. c #FF615F",
"g. c #FF6A68",
"h. c #FD6E6F",
"j. c #FE6F70",
"k. c #CE7E7C",
"l. c #FD7678",
"z. c #FF7F7D",
"x. c #CA9092",
"c. c #FF8788",
"v. c #FE8C8A",
"b. c #D8969A",
"n. c #DC9897",
"m. c #FD9393",
"M. c #D99EA0",
"N. c #DA9FA1",
"B. c #DDA2A4",
"V. c #FBA0A0",
"C. c #EDA8A6",
"Z. c #D9AEB1",
"A. c #FCA8A5",
"S. c #FDA9A6",
"D. c #E0B2AF",
"F. c #FFAAA7",
"G. c #FFABA8",
"H. c #E7B2B1",
"J. c #FFADB0",
"K. c #FEB2B2",
"L. c #FFB4B4",
"P. c #FFB9B7",
"I. c #FCBFC0",
"U. c #EEC8C9",
"Y. c #FCC5C5",
"T. c #EACBCA",
"R. c #FFCAC9",
"E. c #F5CFD0",
"W. c #FFD1D4",
"Q. c #F5D6D5",
"!. c #FDD7D7",
"~. c #FED8D9",
"^. c #F4DFE2",
"/. c #FFE0DF",
"(. c #F2E4E5",
"). c #FEE7E3",
"_. c #FFE8E5",
"`. c #F8EBEC",
"'. c #FFF2F2",
"]. c #FFF3F4",
"[. c #FAF5F3",
"{. c #FCF6F5",
"}. c #FDF7F6",
"|. c #FEF8F7",
" X c #FFF9F8",
".X c #FFFAF9",
"XX c #FBFDFA",
"oX c #FFFCFA",
"OX c #FFFDFB",
"+X c #FFFDFF",
"@X c #FCFFFB",
"#X c #FEFFFC",
"$X c #000000",
"%X c #000000",
"&X c #000000",
"*X c #000000",
"=X c #000000",
"-X c #000000",
";X c #000000",
":X c #000000",
">X c #000000",
",X c #000000",
"<X c #000000",
"1X c #000000",
"2X c #000000",
"3X c #000000",
"4X c #000000",
"5X c #000000",
"6X c #000000",
"7X c #000000",
"8X c #000000",
"9X c #000000",
"0X c #000000",
"qX c #000000",
"wX c #000000",
"eX c #000000",
"rX c #000000",
"tX c #000000",
"yX c #000000",
"uX c #000000",
"iX c #000000",
"pX c #000000",
"aX c #000000",
"sX c #000000",
"dX c #000000",
"fX c #000000",
"gX c #000000",
"hX c #000000",
"jX c #000000",
"kX c #000000",
"lX c #000000",
"zX c #000000",
"xX c #000000",
"cX c #000000",
"vX c #000000",
"bX c #000000",
"nX c #000000",
"mX c #000000",
"MX c #000000",
"NX c #000000",
"BX c #000000",
"VX c #000000",
"CX c #000000",
"ZX c #000000",
"AX c #000000",
"SX c #000000",
"DX c #000000",
"FX c #000000",
"GX c #000000",
"HX c #000000",
"JX c #000000",
"KX c #000000",
"LX c #000000",
"PX c #000000",
"IX c #000000",
"UX c None",
/* pixels */
"UXUXUXUXUXUXUXUXUXUXUXUXUXUXUXUXUXUXUXUXUXUXUXUXUXUXUXUXUXUXUXUXUXUXUXUXUXUXUXUXUXUXUXUXUXUXUXUXUXUXUXUXUXUXUX",
"UXUXUXUXUXUXUXUXUXUXUXUXUXUXUXUXUXUXUXUXUXUXUXUXUXUXUXUXUXUXUXUXUXUXUXUXUXUXUXUXUXUXUXUXUXUXUXUXUXUXUXUXUXUXUX",
"UXUXUXUXUXUXUXUXUXUXUXUXUXUXUXUXUXUXUXUXUXUXUXUXUXUXUXUXUXUXUXUXUXUXUXUXUXUXUXUXUXUXUXUXUXUXUXUXUXUXUXUXUXUXUX",
"UXUXUXUXUXUXUXUXUXUXUXUXUXUXUXUXUXUXUXUXUXUXUXUXUXUXUXUXUXUXUXUXUXUXUXUXUXUXUXUXUXUXUXUXUXUXUXUXUXUXUXUXUXUXUX",
"UXUXUXUXUXUXUXUXUXUXUXUXUXUXUXUXUXUXUXUXUXUXUXUXUXUXUXUXUXUXUXUXUXUXUXUXUXUXUXUXUXUXUXUXUXUXUXUXUXUXUXUXUXUXUX",
"UXUXUXUXUXUXUXUXUXUXUXUXUXUXUXUXUXUXUXUXUXUXUXUXUXUXUXUXUXUXUXUXUXUXUXUXUXUXUXUXUXUXUXUXUXUXUXUXUXUXUXUXUXUXUX",
"UXUXUXUXUXUXUXUXUXUXUXUXUXUXUXUXUXUXUXUXUXUXUXUXUXUXUXUXUXUXUXUXUXUXUXUXUXUXUXUXUXUXUXUXUXUXUXUXUXUXUXUXUXUXUX",
"UXUXUXUXUXUXUXUXUXUXUXUXUXUXUXUXUXUXUXUXUXUXUXUXUXUXUXUXUXUXUXUXUXUXUXUXUXUXUXUXUXUXUXUXUXUXUXUXUXUXUXUXUXUXUX",
"UXUXUXUXUXUXUXUXUXUXUXUXUXUXUXUXUXUXUXUXUXUXUXUXUXUXUXUXUXUXUXUXUXUXUXUXUXUXUXUXUXUXUXUXUXUXUXUXUXUXUXUXUXUXUX",
"UXUXUXUXUXUXUXUXUXUXUXUXUXUXUXUXUXUXUXUXUXUXUXUXUXUXUXUXUXUXUXUXUXUXUXUXUXUXUXUXUXUXUXUXUXUXUXUXUXUXUXUXUXUXUX",
"UXUXUXUXUXUXUXUXUXUXUXUXUXUXUXUXUXUXUXUXUXUXUXUX+.UXUXUXUXUXUXUXUXUXUXUXUXUXUXUXUXUXUXUXUXUXUXUXUXUXUXUXUXUXUX",
"UXUXUXUXUXUXUXUXUXUXUXUXUXUXUXUXUXUXUX6.j.J.W.).).~.L.z.7.;.UXUXUXUXUXUXUXUXUXUXUXUXUXUXUXUXUXUXUXUXUXUXUXUXUX",
"UXUXUXUXUXUXUXUXUXUXUXUXUXUXUXUXUXq.A.'.#X#X#X#X#X#X#X#X XI.i.:.UXUXUXUXUXUXUXUXUXUXUXUXUXUXUXUXUXUXUXUXUXUXUX",
"UXUXUXUXUXUXUXUXUXUXUXUXUXUXUX6.v.}.#X#X#X#X#X#X#X#X X#X#X#X#XF.9.UXUXUXUXUXUXUXUXUXUXUXUXUXUXUXUXUXUXUXUXUXUX",
"UXUXUXUXUXUXUXUXUXUXUXUXUXUX9.P.#X#X#X#X#X#X#X#X#X#X#X#X#X#X#X#X/.f.UXUXUXUXUXUXUXUXUXUXUXUXUXUXUXUXUXUXUXUXUX",
"UXUXUXUXUXUXUXUXUXUXUXUXUX6.Y.#X#XXX#X#X#X#X X#X#X#X XQ.H.B.M.N.D.C.i.UXUXUXUXUXUXUXUXUXUXUXUXUXUXUXUXUXUXUXUX",
"UXUXUXUXUXUXUXUXUXUXUXUX=.K.#X#X#X#X#X#X#X X#X#XU.a.1.&._ Q I R ^ X.| ' { UXUXUXUXUXUXUXUXUXUXUXUXUXUXUXUXUXUX",
"UXUXUXUXUXUXUXUXUXUX+.$.h.#X#X#X#X#X#X#X#X#XE.<.~ c u q 2 2 % - ; 2 q r n Y  .UXUXUXUXUXUXUXUXUXUXUXUXUXUXUXUX",
"UXUXUXUXUXUXUXUX+.+.$.>.'.#XXX#X#X#X#X#X Xk.D s q > ; ; ; ; % @ , @ % @ % q z ) UXUXUXUXUXUXUXUXUXUXUXUXUXUXUX",
"UXUXUXUXUXUXUX+.+.+.$.c.#X#X#X#X#XXX#X(.w.V r 3 ; ; % % % , + + O O O O @ + - 9 U { +.UXUXUXUXUXUXUXUXUXUXUXUX",
"UXUXUXUXUXUX+.+.+.+.$./. X#X#X#X X#X^.4.p w q 3 ; > , @ + O o O O X X X O O O @ ; V  .+.UXUXUXUXUXUXUXUXUXUXUX",
"UXUXUXUXUXUX+.+.+.+.r.{. X#X#X#X#X'.2.p 2 > ; % @ + O O + + O X X X X X X o O O + % N  .UXUXUXUXUXUXUXUXUXUXUX",
"UXUXUXUXUXUX+.+.+.+.z.}. X#X#X#X#X0.s 7 ; ; - @ + + O o O + O X X X X X X X o X O O , m *.UXUXUXUXUXUXUXUXUXUX",
"UXUXUXUXUXUX+.+.+.+.V. X#X#X#X#Xn.F 2 2 - @ @ O O X X X X X o X X X X X X X X X X X X % G +.UXUXUXUXUXUXUXUXUX",
"UXUXUXUXUXUX+.+.+.+.F. X#X+X#X'.-.r > % % @ O X X X X X X X X X X X X X X X X X X X X o y ` +.UXUXUXUXUXUXUXUX",
"UXUXUXUXUXUX+.+.+.+.F. X#X#X#Xb.L 2 % % + X X X X X X X X X X X X X X X X X X X X X X X O K O.UXUXUXUXUXUXUXUX",
"UXUXUXUXUXUX+.+.+.+.m. X#X#X|.e.u > @ @ + X X X X X X X X X X X X X X X X X X X X X     X f ] +.UXUXUXUXUXUXUX",
"UXUXUXUXUXUXUX+.+.+.g.{.#X#XT...2 > % + O X X X X X X X X X X X X X X X X X X X X       X + / +.UXUXUXUXUXUXUX",
"UXUXUXUXUXUXUX+.+.+.3.'.#X#XZ.n 2 % % O X X X X X X X X X X X X X X X X X X               X J UXUXUXUXUXUXUXUX",
"UXUXUXUXUXUXUXUX+.+.$.R. X Xx.g > , + O X X X X X o X X X X X X X X X X                   X M UXUXUXUXUXUXUXUX",
"UXUXUXUXUXUXUXUX+.+.$.f.#X[.s.e 3 , % + o X X X X X O o X X X X X X                         d UXUXUXUXUXUXUXUX",
"UXUXUXUXUXUXUXUXUX+.$.$.~.[.y.e % % + o X X X X X X X X X X X X                             t UXUXUXUXUXUXUXUX",
"UXUXUXUXUXUXUXUXUXUX+.$.t.`.u.w % , + X X X X X O X X X X X X                               t UXUXUXUXUXUXUXUX",
"UXUXUXUXUXUXUXUXUXUXUXUX$.l.p.q , @ O o X X X X X O X X X X                                 t UXUXUXUXUXUXUXUX",
"UXUXUXUXUXUXUXUXUXUXUXUXUX>.,.e % O + o X X X X X X X X X                                   d UXUXUXUXUXUXUXUX",
"UXUXUXUXUXUXUXUXUXUXUXUXUXUX[ k - o + o X X X X X X X X X                                   B UXUXUXUXUXUXUXUX",
"UXUXUXUXUXUXUXUXUXUXUXUXUXUXUXn % + O O X X X X X X X X X                                 X H UXUXUXUXUXUXUXUX",
"UXUXUXUXUXUXUXUXUXUXUXUXUXUXUXC > + O O O X X X X X X                                     8 UXUXUXUXUXUXUXUXUX",
"UXUXUXUXUXUXUXUXUXUXUXUXUXUXUXE w O + X O X X X X X X                                     t UXUXUXUXUXUXUXUXUX",
"UXUXUXUXUXUXUXUXUXUXUXUXUXUXUXUXz @ O X X X X X X X X X                                 o A UXUXUXUXUXUXUXUXUX",
"UXUXUXUXUXUXUXUXUXUXUXUXUXUXUXUXW 3 O o X X X X X X X                                 X , UXUXUXUXUXUXUXUXUXUX",
"UXUXUXUXUXUXUXUXUXUXUXUXUXUXUXUXUXk @ O X X X X X X                                   X UXUXUXUXUXUXUXUXUXUXUX",
"UXUXUXUXUXUXUXUXUXUXUXUXUXUXUXUXUXUXq O X X X X X                                   X ( UXUXUXUXUXUXUXUXUXUXUX",
"UXUXUXUXUXUXUXUXUXUXUXUXUXUXUXUXUXUXUX3 O X X X X X                               X T UXUXUXUXUXUXUXUXUXUXUXUX",
"UXUXUXUXUXUXUXUXUXUXUXUXUXUXUXUXUXUXUXUX; O X X                                 o S UXUXUXUXUXUXUXUXUXUXUXUXUX",
"UXUXUXUXUXUXUXUXUXUXUXUXUXUXUXUXUXUXUXUXUX; + X X                           X : UXUXUXUXUXUXUXUXUXUXUXUXUXUXUX",
"UXUXUXUXUXUXUXUXUXUXUXUXUXUXUXUXUXUXUXUXUXUXUX5 O X X                     8 x UXUXUXUXUXUXUXUXUXUXUXUXUXUXUXUX",
"UXUXUXUXUXUXUXUXUXUXUXUXUXUXUXUXUXUXUXUXUXUXUXUXUXi : X X X X X X   # h UXUXUXUXUXUXUXUXUXUXUXUXUXUXUXUXUXUXUX",
"UXUXUXUXUXUXUXUXUXUXUXUXUXUXUXUXUXUXUXUXUXUXUXUXUXUXUXUXUXZ ! P UXUXUXUXUXUXUXUXUXUXUXUXUXUXUXUXUXUXUXUXUXUXUX",
"UXUXUXUXUXUXUXUXUXUXUXUXUXUXUXUXUXUXUXUXUXUXUXUXUXUXUXUXUXUXUXUXUXUXUXUXUXUXUXUXUXUXUXUXUXUXUXUXUXUXUXUXUXUXUX",
"UXUXUXUXUXUXUXUXUXUXUXUXUXUXUXUXUXUXUXUXUXUXUXUXUXUXUXUXUXUXUXUXUXUXUXUXUXUXUXUXUXUXUXUXUXUXUXUXUXUXUXUXUXUXUX",
"UXUXUXUXUXUXUXUXUXUXUXUXUXUXUXUXUXUXUXUXUXUXUXUXUXUXUXUXUXUXUXUXUXUXUXUXUXUXUXUXUXUXUXUXUXUXUXUXUXUXUXUXUXUXUX",
"UXUXUXUXUXUXUXUXUXUXUXUXUXUXUXUXUXUXUXUXUXUXUXUXUXUXUXUXUXUXUXUXUXUXUXUXUXUXUXUXUXUXUXUXUXUXUXUXUXUXUXUXUXUXUX",
"UXUXUXUXUXUXUXUXUXUXUXUXUXUXUXUXUXUXUXUXUXUXUXUXUXUXUXUXUXUXUXUXUXUXUXUXUXUXUXUXUXUXUXUXUXUXUXUXUXUXUXUXUXUXUX",
"UXUXUXUXUXUXUXUXUXUXUXUXUXUXUXUXUXUXUXUXUXUXUXUXUXUXUXUXUXUXUXUXUXUXUXUXUXUXUXUXUXUXUXUXUXUXUXUXUXUXUXUXUXUXUX"
};
