/* XPM */
static char * redeclipse_xpm[] = {
"32 32 32 1",
" 	c None",
".	c #FFFFFF",
"+	c #FEFEFE",
"@	c #F1F1F1",
"#	c #E5E5E5",
"$	c #D8D8D8",
"%	c #CDCDCD",
"&	c #CFCFCF",
"*	c #DBDBDB",
"=	c #E8E8E8",
"-	c #F0F0F0",
";	c #8F8F8F",
">	c #5B5B5B",
",	c #292929",
"'	c #000000",
")	c #0B0B0B",
"!	c #3E3E3E",
"~	c #717171",
"{	c #A6A6A6",
"]	c #CCCCCC",
"^	c #FCFCFC",
"/	c #848484",
"(	c #424242",
"_	c #6B6B6B",
":	c #FBFBFB",
"<	c #C2C2C2",
"[	c #505050",
"}	c #0E0E0E",
"|	c #1C1C1C",
"1	c #030303",
"2	c #949494",
"3	c #2A2A2A",
"                                ",
"                                ",
"           ......               ",
"        ............            ",
"       ..............           ",
"      ................          ",
"     ........+@#$%%&*=-         ",
"    .......+-%;>,'')!~{]        ",
"    ......^$/,'''''''')(_       ",
"   ......:<[''''''''''''}|      ",
"   .....^<,''''''''''''''1'     ",
"   ....+$['''''''''''''''''     ",
"  .....-/'''''''''''''''''''    ",
"  ....+%,''''''''''''''''''''   ",
"  ....@;'''''''''''''''''''''   ",
"   ...#>'''''''''''''''''''''   ",
"   ...$,''''''''''''''''''''''  ",
"   ...%'''''''''''''''''''''''  ",
"    ..%'''''''''''''''''''''''  ",
"    ..&)''''''''''''''''''''''  ",
"     .*!''''''''''''''''''''''  ",
"      #~'''''''''''''''''''''   ",
"       2)''''''''''''''''''''   ",
"        3''''''''''''''''''''   ",
"         1''''''''''''''''''    ",
"         ''''''''''''''''''     ",
"          ''''''''''''''''      ",
"            '''''''''''''       ",
"             '''''''''''        ",
"                '''''           ",
"                                ",
"                                "};
