/* XPM */
static char * redeclipse_xpm[] = {
"32 32 13 1",
" 	c None",
".	c #FFFFFF",
"+	c #EAEAEA",
"@	c #A4A4A4",
"#	c #555555",
"$	c #1B1B1B",
"%	c #040404",
"&	c #444444",
"*	c #E3E3E3",
"=	c #575757",
"-	c #000000",
";	c #888888",
">	c #151515",
"                                ",
"                                ",
"                                ",
"                                ",
"                                ",
"            .....               ",
"          .........             ",
"        ......+@#$%$&           ",
"       .....*=----------        ",
"       ....@-------------       ",
"      ....;---------------      ",
"      ...@-----------------     ",
"     ...*-------------------    ",
"     ...=--------------------   ",
"     ..+---------------------   ",
"     ..@---------------------   ",
"      .#----------------------  ",
"      .$----------------------  ",
"       %----------------------  ",
"       >----------------------  ",
"       %----------------------  ",
"        ---------------------   ",
"        ---------------------   ",
"        ---------------------   ",
"         -------------------    ",
"          -----------------     ",
"           ---------------      ",
"            -------------       ",
"             -----------        ",
"                -----           ",
"                                ",
"                                "};
