/* XPM */
static char * redeclipse_xpm[] = {
"32 32 215 2",
"  	c None",
". 	c #FE2928",
"+ 	c #FE8585",
"@ 	c #FEC1C1",
"# 	c #FEE2E2",
"$ 	c #FDF4F0",
"% 	c #FDF5F3",
"& 	c #FED6D5",
"* 	c #FEACAA",
"= 	c #FD6B6C",
"- 	c #FE4441",
"; 	c #FD3837",
"> 	c #FDBAB9",
", 	c #FDEAE7",
"' 	c #FEFFFF",
") 	c #FDFFFE",
"! 	c #FDFFFC",
"~ 	c #FEFFFC",
"{ 	c #FEFBFA",
"] 	c #FDFFFF",
"^ 	c #FDFEFC",
"/ 	c #FEE2DF",
"( 	c #FE7C7A",
"_ 	c #FD3F3B",
": 	c #FEDCDA",
"< 	c #FEFEFB",
"[ 	c #FDFDFA",
"} 	c #FDFCF9",
"| 	c #FEABAA",
"1 	c #FE3C3F",
"2 	c #FCE4E3",
"3 	c #FCFDFA",
"4 	c #FDFEFB",
"5 	c #FEFDFB",
"6 	c #FFFFFF",
"7 	c #F7E2E1",
"8 	c #E4C2C1",
"9 	c #CF9697",
"0 	c #B97273",
"a 	c #AF686B",
"b 	c #B16A6D",
"c 	c #BE8381",
"d 	c #DB4F4D",
"e 	c #FF0000",
"f 	c #FE121B",
"g 	c #FDC0C0",
"h 	c #FEFFFE",
"i 	c #FFF3F3",
"j 	c #C16868",
"k 	c #7F2D2F",
"l 	c #590C0C",
"m 	c #410406",
"n 	c #370000",
"o 	c #2B0000",
"p 	c #2C0000",
"q 	c #370101",
"r 	c #420506",
"s 	c #610205",
"t 	c #860001",
"u 	c #B80804",
"v 	c #FE0000",
"w 	c #FF0007",
"x 	c #FF6B6B",
"y 	c #FBFDFA",
"z 	c #EBBBB9",
"A 	c #790E0C",
"B 	c #3E0003",
"C 	c #290002",
"D 	c #220001",
"E 	c #1E0000",
"F 	c #160002",
"G 	c #180201",
"H 	c #1C0000",
"I 	c #170003",
"J 	c #230000",
"K 	c #440000",
"L 	c #880A0A",
"M 	c #FF070E",
"N 	c #FECFCE",
"O 	c #CF9E9F",
"P 	c #5E0A07",
"Q 	c #330001",
"R 	c #230100",
"S 	c #1D0000",
"T 	c #1B0000",
"U 	c #190100",
"V 	c #0E0100",
"W 	c #0F0000",
"X 	c #0D0000",
"Y 	c #0C0000",
"Z 	c #120002",
"` 	c #130000",
" .	c #240001",
"..	c #720502",
"+.	c #E20101",
"@.	c #FE2F32",
"#.	c #FDFDFB",
"$.	c #C9888A",
"%.	c #4F0504",
"&.	c #280000",
"*.	c #270101",
"=.	c #200000",
"-.	c #1A0002",
";.	c #140100",
">.	c #110001",
",.	c #0A0000",
"'.	c #080000",
").	c #060000",
"!.	c #180000",
"~.	c #570601",
"{.	c #DE0602",
"].	c #FE8381",
"^.	c #DA9C9A",
"/.	c #4D0609",
"(.	c #260000",
"_.	c #1F0100",
":.	c #150002",
"<.	c #100101",
"[.	c #090000",
"}.	c #100000",
"|.	c #070000",
"1.	c #140200",
"2.	c #550202",
"3.	c #E80F0B",
"4.	c #FBAEAD",
"5.	c #F5DFDC",
"6.	c #7C2628",
"7.	c #180001",
"8.	c #040000",
"9.	c #140000",
"0.	c #7C0300",
"a.	c #FFB7B3",
"b.	c #FEFEFD",
"c.	c #CB9293",
"d.	c #400000",
"e.	c #210001",
"f.	c #120001",
"g.	c #0B0000",
"h.	c #2E0202",
"i.	c #D20300",
"j.	c #FDA6A5",
"k.	c #FEFAF8",
"l.	c #8E3C3E",
"m.	c #2A0000",
"n.	c #030000",
"o.	c #010000",
"p.	c #0E0000",
"q.	c #8E0200",
"r.	c #FA0000",
"s.	c #FE7371",
"t.	c #FCFFFF",
"u.	c #E6C5C4",
"v.	c #590707",
"w.	c #230001",
"x.	c #050000",
"y.	c #000100",
"z.	c #4C0300",
"A.	c #F30000",
"B.	c #FF1D24",
"C.	c #D19FA2",
"D.	c #390000",
"E.	c #1E0100",
"F.	c #000000",
"G.	c #320400",
"H.	c #FF060D",
"I.	c #FEC0BC",
"J.	c #B77476",
"K.	c #290000",
"L.	c #1D0300",
"M.	c #190000",
"N.	c #020000",
"O.	c #1D0400",
"P.	c #FF0006",
"Q.	c #FE5559",
"R.	c #FFFFFE",
"S.	c #AA5D5C",
"T.	c #240000",
"U.	c #150300",
"V.	c #FF0A11",
"W.	c #FFB4B6",
"X.	c #A66365",
"Y.	c #220000",
"Z.	c #190200",
"`.	c #140300",
" +	c #FF3033",
".+	c #B24B4B",
"++	c #140001",
"@+	c #170300",
"#+	c #B80614",
"$+	c #2E0000",
"%+	c #210500",
"&+	c #480001",
"*+	c #120000",
"=+	c #330502",
"-+	c #5E0001",
";+	c #040200",
">+	c #110200",
",+	c #450200",
"'+	c #1B0400",
")+	c #1F0002",
"!+	c #1E0701",
"~+	c #1D0801",
"{+	c #160000",
"]+	c #140401",
"^+	c #120101",
"/+	c #010100",
"(+	c #0B0200",
"_+	c #140506",
":+	c #170200",
"<+	c #100303",
"[+	c #030201",
"}+	c #140600",
"|+	c #1F0C07",
"1+	c #2F150B",
"2+	c #2D1204",
"                                                                ",
"                            .                                   ",
"                    + @ # $ % & * = -                           ",
"              ; > , ' ) ! ~ ! { ] ^ / (                         ",
"            _ : ] ! < ! < ~ ~ ~ [ } } [ |                       ",
"          1 2 ' 3 4 ! 5 { 6 7 8 9 0 a b c d                     ",
"      e f g h 4 ~ ~ 4 6 i j k l m n o p q r s t u               ",
"    v w x h y ~ ~ 4 6 z A B C D D D E F G H I J K L             ",
"  e v M N ) ~ < 3 5 O P Q R D S T U V W X Y X Z `  ...+.        ",
"e e e @.] 5 ! #.6 $.%.&.*.=.-.;.>.W Y ,.'.).).,.X >.!.~.{.      ",
"e e v ].] 5 4 6 ^./.(.D _.:.<.W [.}.}.).).|.).).[.|.W 1.2.3.    ",
"e e e 4.' ~ ~ 5.6.&.(.7.:.X ,.).).).'.).|.|.|.|.).|.).8.9.0.e   ",
"e e v a.' b.4 c.d.e.T f.g.).).|.|.|.).|.|.|.|.|.|.|.).|.).h.i.  ",
"e e e j.' ! k.l.m.F F [.).|.|.|.|.|.|.|.|.|.|.|.|.|.|.n.o.p.q.r.",
"  e v s.t.6 u.v.w.S p.[.).|.).).|.|.|.|.|.|.|.|.).).x.y.y.).z.A.",
"  e e B.h 6 C.D.E.!.Y ).|.).|.).).|.|.|.).|.|.8.o.y.y.F.F.F.G.  ",
"    e H.I.6 J.K.L.M.X |.).).|.Y '.).|.|.|.n.N.y.y.F.y.y.y.F.O.  ",
"    e P.Q.R.S.T.S }.'.).).).).|.|.).).).y.F.y.F.y.y.y.y.y.F.U.  ",
"      v V.W.X.Y.Z.}.).).|.'.g.|.).|.).y.F.y.y.y.y.y.y.y.y.F.`.  ",
"           +.+=.++W '.).|.).[.|.|.x.F.F.y.y.y.y.y.y.y.y.y.F.@+  ",
"            #+$+X <.|.).|.|.).).|.n.y.y.y.y.y.y.y.y.y.y.y.F.%+  ",
"              &+*+p.X ).).|.|.|.).n.y.y.y.y.y.y.y.y.y.y.y.F.=+  ",
"              -+9.W Y ,.).|.|.|.y.y.F.y.y.y.y.y.y.y.y.y.y.;+    ",
"                w.W ).|.).|.|.|.x.y.y.y.y.y.y.y.y.y.y.F.y.>+    ",
"                ,+W '.).|.).|.|.y.F.y.y.y.y.y.y.y.y.F.y.x.'+    ",
"                  )+g.).|.|.x.y.F.y.y.y.y.y.y.y.y.y.y.F.!+      ",
"                    T |.).|.).F.y.y.y.y.y.y.y.y.y.y.F.~+        ",
"                      {+|.x.y.F.y.y.y.y.y.y.y.F.y.F.]+          ",
"                        ^+g.8.o.y.y.y.y.y.F.F./+(+_+            ",
"                            :+<+n.n.F.o.N.[+}+                  ",
"                                  |+1+2+                        ",
"                                                                "};
