/* XPM */
static char * urbanterror_xpm[] = {
"32 32 248 2",
"  	c None",
". 	c #627CA4",
"+ 	c #637CA5",
"@ 	c #426293",
"# 	c #053278",
"$ 	c #043177",
"% 	c #063278",
"& 	c #466494",
"* 	c #335589",
"= 	c #002C72",
"- 	c #0F387A",
"; 	c #2C4F85",
"> 	c #0B3678",
", 	c #3D5C8E",
"' 	c #315387",
") 	c #002B70",
"! 	c #4D668D",
"~ 	c #9DA0A4",
"{ 	c #808DA0",
"] 	c #587095",
"^ 	c #274A82",
"/ 	c #053072",
"( 	c #3C5A8A",
"_ 	c #305083",
": 	c #002A6D",
"< 	c #083172",
"[ 	c #758297",
"} 	c #9B9B9B",
"| 	c #A6A6A6",
"1 	c #AEAEAE",
"2 	c #9DA1A8",
"3 	c #728198",
"4 	c #26497F",
"5 	c #4E6993",
"6 	c #2F4E80",
"7 	c #00296B",
"8 	c #2C4C7F",
"9 	c #95999E",
"0 	c #9F9F9F",
"a 	c #A9A9A9",
"b 	c #95989C",
"c 	c #2A497A",
"d 	c #2C4D81",
"e 	c #788497",
"f 	c #A5A5A5",
"g 	c #B8B8B8",
"h 	c #2E4D7D",
"i 	c #002868",
"j 	c #576B8C",
"k 	c #9C9C9C",
"l 	c #A3A3A3",
"m 	c #ABABAB",
"n 	c #737E90",
"o 	c #072D69",
"p 	c #355281",
"q 	c #7C8697",
"r 	c #999999",
"s 	c #A0A0A0",
"t 	c #B2B2B2",
"u 	c #70809A",
"v 	c #576C8D",
"w 	c #254578",
"x 	c #002766",
"y 	c #10346E",
"z 	c #7F8998",
"A 	c #A7A7A7",
"B 	c #A2A2A2",
"C 	c #9C9C9D",
"D 	c #4B6082",
"E 	c #002765",
"F 	c #435C84",
"G 	c #8A919B",
"H 	c #9A9A9A",
"I 	c #B3B3B3",
"J 	c #A8A8A8",
"K 	c #ACACAC",
"L 	c #B0B0B0",
"M 	c #A5A6A6",
"N 	c #9E9E9E",
"O 	c #475E82",
"P 	c #002663",
"Q 	c #38537E",
"R 	c #999B9D",
"S 	c #AAAAAA",
"T 	c #8F9399",
"U 	c #1F3E6E",
"V 	c #002763",
"W 	c #516687",
"X 	c #94989E",
"Y 	c #ADADAD",
"Z 	c #9D9D9D",
"` 	c #A4A4A4",
" .	c #596B88",
"..	c #002560",
"+.	c #002561",
"@.	c #61728C",
"#.	c #687589",
"$.	c #022660",
"%.	c #12356B",
"&.	c #5A6C88",
"*.	c #A2A3A3",
"=.	c #6B788E",
"-.	c #01255F",
";.	c #00245E",
">.	c #18386B",
",.	c #898F9A",
"'.	c #A1A1A1",
").	c #9B9C9D",
"!.	c #405679",
"~.	c #234172",
"{.	c #69778D",
"].	c #7A8393",
"^.	c #07295F",
"/.	c #00235B",
"(.	c #435A7E",
"_.	c #878C95",
":.	c #153363",
"<.	c #203E6E",
"[.	c #788393",
"}.	c #868C96",
"|.	c #0F2E61",
"1.	c #002259",
"2.	c #04255B",
"3.	c #6B788D",
"4.	c #5E6C83",
"5.	c #002157",
"6.	c #3E557B",
"7.	c #566A89",
"8.	c #727D8F",
"9.	c #96989C",
"0.	c #193664",
"a.	c #002156",
"b.	c #133262",
"c.	c #6F7C90",
"d.	c #999CA0",
"e.	c #989A9C",
"f.	c #354C70",
"g.	c #2D466F",
"h.	c #91959C",
"i.	c #738298",
"j.	c #88919E",
"k.	c #697384",
"l.	c #53627A",
"m.	c #95979A",
"n.	c #274069",
"o.	c #002054",
"p.	c #4C5F7E",
"q.	c #778293",
"r.	c #6F7C91",
"s.	c #727F93",
"t.	c #848C98",
"u.	c #9C9DA0",
"v.	c #7C838E",
"w.	c #0D2A59",
"x.	c #193563",
"y.	c #717C8D",
"z.	c #9299A3",
"A.	c #6F7E95",
"B.	c #969BA3",
"C.	c #5A677C",
"D.	c #122D5A",
"E.	c #294166",
"F.	c #999A9C",
"G.	c #374C6F",
"H.	c #092757",
"I.	c #768091",
"J.	c #A8A9AA",
"K.	c #989DA5",
"L.	c #748092",
"M.	c #6E7B8F",
"N.	c #344A6C",
"O.	c #001F50",
"P.	c #001F51",
"Q.	c #2C456D",
"R.	c #88909D",
"S.	c #828A98",
"T.	c #6E7C92",
"U.	c #8F949C",
"V.	c #516078",
"W.	c #001D4D",
"X.	c #283E62",
"Y.	c #495A77",
"Z.	c #001E4F",
"`.	c #405473",
" +	c #6B7688",
".+	c #9B9EA4",
"++	c #223A61",
"@+	c #001E4E",
"#+	c #384D70",
"$+	c #92979F",
"%+	c #5C6A80",
"&+	c #2A4166",
"*+	c #001D4C",
"=+	c #273C5F",
"-+	c #5B697F",
";+	c #021E4D",
">+	c #1F375D",
",+	c #4E5E78",
"'+	c #747D8B",
")+	c #6D7786",
"!+	c #06224E",
"~+	c #445774",
"{+	c #747C89",
"]+	c #344767",
"^+	c #253A5B",
"/+	c #ACACAD",
"(+	c #A4A5A7",
"_+	c #96989B",
":+	c #5B687D",
"<+	c #021D4A",
"[+	c #001C49",
"}+	c #06214D",
"|+	c #132C54",
"1+	c #142D55",
"2+	c #243857",
"3+	c #B7B7B7",
"4+	c #7A828F",
"5+	c #606D81",
"6+	c #606C80",
"7+	c #4F5E77",
"8+	c #021D49",
"9+	c #001B47",
"0+	c #223555",
"a+	c #A3A5A8",
"b+	c #A6A7AA",
"c+	c #A0A0A1",
"d+	c #888D95",
"e+	c #0F274E",
"f+	c #001A44",
"g+	c #203351",
"h+	c #A5A6A7",
"i+	c #9EA0A4",
"j+	c #8D9197",
"k+	c #6F7784",
"l+	c #152C50",
"m+	c #001942",
"n+	c #1F304E",
"o+	c #424F64",
"p+	c #1C304F",
"q+	c #102548",
"r+	c #071E43",
"s+	c #00183F",
"t+	c #1F304B",
"u+	c #20304A",
"v+	c #102343",
"w+	c #0C2041",
"x+	c #122543",
"y+	c #26354B",
"                                                                ",
"                                                                ",
"                                                                ",
"                                                                ",
"          . + + + + + + + + + + + + + + + + + + + +             ",
"        @ # $ $ $ $ $ $ $ $ $ $ $ $ $ $ $ $ $ $ $ $ % &         ",
"        * = = = = = = = = - ; > = = = = = = = = = = = ,         ",
"        ' ) ) ) ) ) ) ) ) ! ~ { ] ^ / ) ) ) ) ) ) ) ) (         ",
"        _ : : : : : : : < [ } | 1 2 3 4 : : : : : : : 5         ",
"        6 7 7 7 7 7 7 7 8 9 0 a a 0 b c 7 7 7 7 7 7 d e f g     ",
"        h i i i i i i i j k l m | } n o i i i i i p q r s t     ",
"        u v w x x x x y z k A m B C D E x x x x F G H B a m I   ",
"  J K L M N O P P P P Q R s S J N T U P P P V W X k l S m f N Y ",
"  Z l m ` k  .......+.@.} ` m f } #.$.....%.&.*.Z ` S S ` k l K ",
"  N B m | } =.-.;.;.>.,.Z J S '.).!.;.;.~.{.0 N | m a B } `     ",
"  s s S A k ].^././.(.).'.S J Z _.:./.<.[.r s A m J '.H l       ",
"  B 0 a J Z }.|.1.2.3.H f m ` } 4.5.6.7.8.'.J m A s r 9.        ",
"  f Z J a 0 T 0.a.b.c.d.m S s e.f.g.h.X i.j.m | N 0 k.l.        ",
"  S k A S s m.n.o.p.q.r.s.t.u.v.w.x.y.` z.A.B.Z *.C.D.E.        ",
"  Y } | m B F.G.H.I.k J.K.L.M.N.O.P.Q.R.S S.T.U.V.W.P.X.        ",
"  I } ` m l k Y.Z.`. +.+K s 9 ++@+@+@+#+$+H %+&+*+@+@+=+        ",
"    Z l m ` } -+*+*+;+>+,+'+)+!+*+*+*+*+~+{+]+*+*+*+*+^+        ",
"    0 f /+(+_+:+<+[+[+[+[+}+|+[+[+[+[+[+[+1+[+[+[+[+[+2+        ",
"    3+t 4+5+6+7+8+9+9+9+9+9+9+9+9+9+9+9+9+9+9+9+9+9+9+0+        ",
"    L m a+b+c+d+e+f+f+f+f+f+f+f+f+f+f+f+f+f+f+f+f+f+f+g+        ",
"    S B h+i+j+k+l+m+m+m+m+m+m+m+m+m+m+m+m+m+m+m+m+m+m+n+        ",
"        o+p+q+r+s+s+s+s+s+s+s+s+s+s+s+s+s+s+s+s+s+s+s+t+        ",
"        u+v+w+w+w+w+w+w+w+w+w+w+w+w+w+w+w+w+w+w+w+w+x+y+        ",
"                                                                ",
"                                                                ",
"                                                                ",
"                                                                "};
