/* XPM */
static char * bubbletrain_xpm[] = {
"32 32 162 2",
"  	c None",
". 	c #34347E",
"+ 	c #4646AA",
"@ 	c #5A5ADA",
"# 	c #6868FC",
"$ 	c #42429F",
"% 	c #5A5AD9",
"& 	c #6868FB",
"* 	c #6A6AFF",
"= 	c #4444A6",
"- 	c #6464F1",
"; 	c #26265C",
"> 	c #5C5CDF",
", 	c #6C6CFF",
"' 	c #7B7BFF",
") 	c #9393FF",
"! 	c #9D9DFF",
"~ 	c #313177",
"{ 	c #6565F5",
"] 	c #6B6BFF",
"^ 	c #A7A7FF",
"/ 	c #C8C8FF",
"( 	c #D3D3FF",
"_ 	c #D4D4FF",
": 	c #B5B5FF",
"< 	c #7575FF",
"[ 	c #303074",
"} 	c #6666F8",
"| 	c #8C8CFF",
"1 	c #C1C1FF",
"2 	c #D5D5FF",
"3 	c #D1D1FF",
"4 	c #9F9FFF",
"5 	c #2F2F79",
"6 	c #212151",
"7 	c #9191FF",
"8 	c #CACAFF",
"9 	c #B8B8FF",
"0 	c #AAAAFF",
"a 	c #A1A1FF",
"b 	c #7373FF",
"c 	c #6161F8",
"d 	c #1F1F5F",
"e 	c #5B5BDD",
"f 	c #8D8DFF",
"g 	c #C9C9FF",
"h 	c #8181FF",
"i 	c #6F6FFF",
"j 	c #6868FF",
"k 	c #4949DF",
"l 	c #3E3E97",
"m 	c #7F7FFF",
"n 	c #C3C3FF",
"o 	c #8484FF",
"p 	c #5858FF",
"q 	c #2E2E97",
"r 	c #7272FF",
"s 	c #B1B1FF",
"t 	c #CBCBFF",
"u 	c #A2A2FF",
"v 	c #7474FF",
"w 	c #6060FF",
"x 	c #4242F1",
"y 	c #363683",
"z 	c #9696FF",
"A 	c #D0D0FF",
"B 	c #C7C7FF",
"C 	c #6E6EFF",
"D 	c #6464FF",
"E 	c #4343FF",
"F 	c #2B2B83",
"G 	c #5858D5",
"H 	c #7979FF",
"I 	c #C0C0FF",
"J 	c #C2C2FF",
"K 	c #8A8AFF",
"L 	c #6666FF",
"M 	c #4545FF",
"N 	c #3E3ED5",
"O 	c #27275E",
"P 	c #9C9CFF",
"Q 	c #BCBCFF",
"R 	c #8383FF",
"S 	c #6767FF",
"T 	c #4646FF",
"U 	c #4343FC",
"V 	c #4343A2",
"W 	c #7676FF",
"X 	c #ACACFF",
"Y 	c #3F3FFF",
"Z 	c #2E2E7D",
"` 	c #7C7CFF",
" .	c #7E7EFF",
"..	c #6565FF",
"+.	c #4444FF",
"@.	c #3D3DFF",
"#.	c #4949C9",
"$.	c #6969FC",
"%.	c #6262FF",
"&.	c #4141FF",
"*.	c #3C3CFF",
"=.	c #5B5BFB",
"-.	c #5D5DFF",
";.	c #6969FF",
">.	c #5252FF",
",.	c #4A4AC9",
"'.	c #4040FF",
").	c #2F2F7D",
"!.	c #26265E",
"~.	c #5B5BFF",
"{.	c #4949FF",
"].	c #3F3FD5",
"^.	c #5757FF",
"/.	c #2C2C83",
"(.	c #6262F1",
"_.	c #5F5FFF",
":.	c #4242FF",
"<.	c #4141F1",
"[.	c #373798",
"}.	c #4747FF",
"|.	c #2F2F97",
"1.	c #4D4DE2",
"2.	c #3C3CDE",
"3.	c #191954",
"4.	c #4B4BF6",
"5.	c #3E3EF5",
"6.	c #1A1A52",
"7.	c #23237C",
"8.	c #4343FA",
"9.	c #6363FF",
"0.	c #5151FF",
"a.	c #3C3CF8",
"b.	c #232376",
"c.	c #232382",
"d.	c #3C3CF6",
"e.	c #5555FF",
"f.	c #6161FF",
"g.	c #5E5EFF",
"h.	c #3B3BF5",
"i.	c #232379",
"j.	c #1A1A64",
"k.	c #3838E7",
"l.	c #4D4DFF",
"m.	c #5454FF",
"n.	c #4B4BFF",
"o.	c #3E3EFF",
"p.	c #3939E4",
"q.	c #1A1A5D",
"r.	c #2C2CB3",
"s.	c #3B3BF7",
"t.	c #3B3BF6",
"u.	c #2C2CAC",
"v.	c #2C2CB2",
"w.	c #3838E8",
"x.	c #3B3BFE",
"y.	c #3C3CFD",
"z.	c #3737E3",
"A.	c #3131BA",
"B.	c #3C3CF0",
"C.	c #3B3BFD",
"D.	c #3C3CED",
"E.	c #3030B2",
"                        . + @ # # @ + .                         ",
"                    $ % & * * * * * * & % $                     ",
"                = - * * * * * * * * * * * * - =                 ",
"            ; > * * * * , ' ) ! ' * * * * * * * > ;             ",
"          ~ { * * * ] ' ^ / ( _ : < * * * * * * * { ~           ",
"        [ } * * * , | 1 _ 2 2 2 3 4 , * * * * * * * } 5         ",
"      6 { * * * , 7 8 2 2 ( 8 9 0 a b * * * * * * * * c d       ",
"      e * * * ] f g 2 _ g ^ h i * * * * * * * * * * * j k       ",
"    l * * * * m n _ 3 : o , * * * * * * * * * * * * * * p q     ",
"    - * * * r s _ t u v * * * * * * * * * * * * * * * * w x     ",
"  y * * * ] z A B ) C * * * * * * * * * * * * * * * * * D E F   ",
"  G * * * H I J K ] * * * * * * * * * * * * * * * * * * L M N   ",
"O # * * ] P Q R ] * * * * * * * * * * * * * * * * * * * S T U   ",
"V * * * W X h * * * * * * * * * * * * * * * * * * * * * S T Y Z ",
"% * * * `  .* * * * * * * * * * * * * * * * * * * * * * ..+.@.#.",
"$.* * * , * * * * * * * * * * * * * * * * * * * * * * * %.&.*.=.",
"$.* * * * * * * * * * * * * * * * * * * * * * * * * * * -.*.*.=.",
"% * * * * * * * * * * * * * * * * * * * * * * * * * * ;.>.*.@.,.",
"V * * * * * * * * * * * * * * * * * * * * * * * * * * L M *.'.).",
"!.# * * * * * * * * * * * * * * * * * * * * * * * * * ~.@.*.U   ",
"  G * * * * * * * * * * * * * * * * * * * * * * * * L {.*.*.].  ",
"  y * * * * * * * * * * * * * * * * * * * * * * * ;.^.@.*.@./.  ",
"    (.;.* * * * * * * * * * * * * * * * * * * * ;._.:.*.*.<.    ",
"    [...* * * * * * * * * * * * * * * * * * * * %.}.*.*.*.|.    ",
"      1.L * * * * * * * * * * * * * * * * * ;.%.{.*.*.*.2.      ",
"      3.4.%.;.* * * * * * * * * * * * * * j -.M *.*.*.5.6.      ",
"        7.8.^...;.* * * * * * * * * * ;.9.0.'.*.*.*.a.b.        ",
"          c.d.T e.f.S ;.* * * * ;.L g.0.E *.*.*.*.h.i.          ",
"            j.k.*.'.T l.>.m.m.0.n.M o.*.*.*.*.*.p.q.            ",
"                r.s.*.*.*.*.*.*.*.*.*.*.*.*.t.u.                ",
"                    v.w.x.*.*.*.*.*.*.y.z.u.                    ",
"                          A.B.C.C.D.E.                          "};
