/* XPM */
static char *dummy[]={
"32 32 593 2",
"Qt c None",
"h. c None",
"aT c None",
"gQ c None",
"fX c None",
"gA c None",
".6 c None",
"h# c None",
"aq c None",
"ac c None",
"fi c None",
".J c None",
"fu c None",
"gR c None",
"e9 c None",
".# c None",
"ho c None",
"gB c #211e1f",
"aF c #231f20",
"fJ c #242123",
".q c #2d2a2b",
".a c #2d2b2b",
".5 c #322f31",
"gg c #333032",
".p c #3a3839",
"ab c #3b383a",
"ft c #242022",
"e8 c #272425",
"fY c #2a2628",
"gh c #2a2728",
"hn c #2c2829",
"g9 c #2e2b2c",
"#r c #221e1f",
"#R c #252123",
"ha c #272426",
".K c #2a2727",
"#S c #2e2b2c",
"a8 c #262324",
"gS c #292627",
"aE c #242123",
".7 c #231f20",
"#s c #242122",
"fj c #272425",
"eU c #262324",
".I c #272325",
".o c #262324",
"gP c #242122",
"fI c #262223",
"aU c #262223",
".r c #242021",
".b c #252223",
"ar c #272425",
"hm c #282526",
"eT c #262223",
"gC c #252223",
"hb c #252123",
"ap c #292627",
"gz c #211d1f",
"bp c #231f20",
"fW c #262223",
"g8 c #2c2829",
"fh c #221e1f",
"fv c #232021",
".4 c #272324",
"gf c #221e1f",
"gT c #221e1f",
"eC c #242021",
"gi c #232021",
"aS c #282425",
".n c #232021",
"fK c #232021",
"ad c #242021",
"aa c #252122",
".L c #272324",
"#q c #242021",
"hl c #272324",
"fZ c #242021",
"eB c #252122",
"f. c #282425",
"a9 c #242022",
"#Q c #211d1e",
".c c #252122",
".H c #272324",
"hc c #232021",
"bJ c #242021",
"aG c #221e1f",
".8 c #221e1f",
"gO c #231f20",
"#T c #242021",
".s c #252223",
"fs c #242021",
"#t c #221e1f",
"eh c #231f20",
"g7 c #252223",
"e7 c #221e1f",
"hk c #252122",
".m c #231f20",
"eg c #231f20",
"gD c #232021",
"hd c #231f20",
"bq c #221e1f",
"aD c #232021",
"gU c #221f20",
".d c #221e1f",
"b2 c #242022",
"a7 c #231f20",
"fk c #231f20",
".3 c #221e1f",
"gy c #221e1f",
"fH c #221e1f",
"eV c #242021",
"hj c #252122",
".G c #242020",
"d1 c #231f20",
"d0 c #242021",
"he c #221f20",
".l c #231f20",
"as c #231f20",
".M c #231f20",
"ge c #221e1f",
"fV c #231f20",
"gj c #221e1f",
"bK c #231f1f",
".e c #221e1f",
"aV c #221e1f",
"ck c #232021",
"ao c #242021",
".t c #232020",
"fw c #231f20",
"g6 c #231f20",
"eS c #221e20",
"#p c #231f1f",
"gN c #242021",
"fg c #231f20",
"gV c #231f21",
"f0 c #221e1f",
"dI c #231e1f",
"fL c #242021",
"a# c #231f20",
"hi c #242122",
"bo c #221e1f",
"#P c #221e1f",
".k c #241f1f",
"hf c #221f20",
"b3 c #252020",
"ae c #262121",
"gE c #241f22",
".9 c #262222",
".f c #242020",
"dH c #231f21",
"aR c #282425",
"eD c #231e1e",
".F c #27211e",
"f# c #2a2627",
"cH c #242022",
"#U c #2a2523",
"#u c #2a2624",
"dp c #251f1f",
".2 c #28211e",
"g5 c #282226",
"b. c #2b251d",
".j c #26211f",
"eA c #282226",
".u c #2d2928",
"cl c #26211f",
"hh c #272324",
"gx c #282227",
"fr c #292328",
"gW c #292328",
"aH c #302a21",
".g c #272321",
".N c #322d2b",
"bI c #292328",
"hg c #292526",
"do c #231e20",
"gk c #2d262d",
"gM c #2e272f",
"e6 c #2f272f",
"c4 c #28211f",
"fG c #312932",
"aC c #3d3a3b",
"fl c #413e3f",
"ei c #35261b",
"#o c #37261a",
"c3 c #221e1f",
"g4 c #332a34",
"gF c #342b35",
"fU c #352c37",
".E c #3c301b",
"f1 c #262124",
"cI c #28221f",
".i c #292420",
"ef c #342b36",
"gX c #362d38",
"a6 c #383435",
"br c #433719",
"a. c #2c292a",
"#O c #2f231c",
"fM c #343132",
"b1 c #372c39",
"eW c #3a3637",
".1 c #4a3417",
".v c #4b453d",
"at c #514830",
"#. c #555047",
"an c #585556",
"fx c #595657",
"cS c #221e1f",
"dd c #231f20",
"cT c #272324",
"bn c #292327",
".h c #2a2521",
"fR c #2d282b",
"eI c #2d292a",
"eE c #2f251e",
"ce c #2f272f",
"eH c #2f2825",
"bj c #2f2a2c",
"dS c #30292f",
"bD c #312533",
"dh c #312633",
"#9 c #312c2b",
"ev c #312c2f",
"bk c #322c31",
"cu c #322d2d",
"e2 c #332a34",
"bm c #332d31",
"bl c #332d32",
"e# c #332e33",
"dc c #332f30",
"bw c #342f2e",
"#Y c #35302f",
"d7 c #362920",
"eF c #362b23",
"#8 c #362e2a",
"bi c #363233",
"eG c #372b23",
"#7 c #372f2a",
"dv c #37302e",
"cV c #373235",
"#6 c #38312a",
"eo c #383333",
"#5 c #39312a",
"#4 c #39322a",
"#3 c #39332a",
"ax c #393430",
"eO c #393437",
"cC c #3a2941",
"bR c #3a3332",
"#2 c #3a342c",
"#1 c #3a3530",
"fN c #3a3738",
"#0 c #3b3633",
"#Z c #3b3635",
"dA c #3c2943",
"fQ c #3c383a",
"fD c #3d3241",
"fO c #3d383b",
"fP c #3d393b",
"bh c #3d3a3b",
"d# c #3e2a1b",
"bg c #3e3a3b",
"eJ c #3e3b3c",
"eK c #403d3e",
"eL c #413e3f",
"g3 c #423546",
"de c #423e3f",
"dZ c #433649",
"a0 c #443a1f",
"ea c #452e51",
"gY c #45384a",
"cj c #46374c",
"bV c #474345",
"cP c #494545",
"bW c #4a3156",
"dT c #4b305a",
"gw c #4b3c52",
"f2 c #4c3c53",
"ff c #4c3d53",
"fc c #4d3c55",
"eR c #4e3e55",
"g2 c #4e3e56",
"d2 c #4f3115",
"ew c #4f385b",
"aM c #4f4b4c",
"dz c #4f4c4d",
"gZ c #504058",
"dG c #504059",
"cW c #513262",
"cG c #513f5a",
"dO c #533215",
"gG c #54435e",
"g1 c #55435e",
"g0 c #55445f",
"fb c #555153",
"gl c #564460",
"bE c #57366a",
"c2 c #574462",
"dn c #574561",
"bQ c #593814",
"gd c #5a4765",
"eP c #5b4469",
"fS c #5c4968",
"bH c #5d446b",
"ai c #5d574c",
".D c #5e4b15",
"cR c #5f5c5d",
"cf c #603b76",
"bF c #603f74",
"f9 c #604570",
"g. c #614570",
"f8 c #614671",
"bC c #615f5f",
"di c #62397d",
"f7 c #624872",
"bL c #624c14",
"aW c #62531f",
"c. c #633811",
"ct c #643811",
"en c #643b11",
"f6 c #644a74",
"bf c #646162",
"cB c #656363",
"f5 c #664d75",
"f3 c #664f74",
"fq c #665074",
"aj c #666364",
"dJ c #673a10",
"bG c #674879",
"g# c #674e76",
"f4 c #674f77",
"dB c #683b85",
"ga c #695178",
"#N c #6a3b0f",
"cD c #6a3d86",
"gb c #6a5379",
"cX c #6b3d89",
"dU c #6b3e86",
"gc c #6b5479",
".O c #6b6559",
"dj c #6c3d8a",
"eb c #6c4385",
"gL c #6c557c",
"dC c #6d3e8a",
"bX c #6e408b",
"ez c #6e567e",
"cY c #6f408c",
"cg c #6f418c",
"dV c #70418c",
"fo c #705780",
"fC c #706e6e",
"fT c #715881",
"fF c #725883",
"gH c #725983",
".w c #726b55",
"af c #73694b",
"eM c #737171",
"ch c #744890",
"cZ c #744891",
"bY c #754991",
"bv c #755912",
"#n c #76440e",
"dk c #764a92",
"#v c #766f5f",
"dq c #77410c",
"cy c #777475",
"cx c #777576",
"dD c #784d93",
"gv c #785d8a",
"e5 c #795e8b",
"aL c #796b36",
"b4 c #7a590f",
"e3 c #7a5b8e",
"dW c #7b5297",
"du c #7c420b",
"b0 c #7c5a93",
"dR c #7c7a7a",
"bZ c #7e5699",
"gm c #7e6192",
"cE c #7f5799",
"ec c #80589a",
".C c #806911",
"c0 c #81599a",
"gK c #816496",
"#V c #817960",
"dl c #825c9c",
"c5 c #834a0a",
".0 c #835c0d",
"ci c #835f9c",
"ee c #836597",
"da c #848282",
"ex c #85609e",
"dE c #85609f",
"gI c #85679a",
"ej c #874b0a",
"cm c #875c0b",
"cF c #8763a0",
"fE c #87689c",
"cJ c #89560a",
"dX c #8964a2",
"c1 c #8965a2",
"c# c #898787",
"#M c #8a4f09",
"fe c #8a6aa1",
"gp c #8b67a4",
"dm c #8b68a4",
"fd c #8b6aa3",
"dY c #8b6ba2",
"dg c #8b8989",
"ed c #8c69a5",
"gn c #8c6ba4",
"dF c #8c6ba5",
"gu c #8c6ca3",
"eQ c #8c6ca4",
"dx c #8c8a8b",
"gq c #8d6aa6",
"go c #8d6ba6",
"e. c #8d8b8c",
"gr c #8e6ca7",
"fp c #8e6da6",
"a1 c #8e8b8c",
"ey c #8f6da7",
"gJ c #8f6ea6",
"e4 c #8f6ea7",
"gs c #8f6ea8",
"gt c #906fa8",
"el c #934c06",
".x c #938962",
"aQ c #939191",
"ek c #944e06",
"em c #944f06",
"d6 c #945006",
"bc c #947a15",
"#L c #966408",
"e1 c #969495",
".B c #9b831d",
"d. c #9d4e03",
"bS c #9d9b9c",
"#K c #9e7408",
"eu c #9e9d9d",
"b# c #9f8410",
"#X c #a09a85",
"cU c #a09e9f",
"b9 c #a25402",
"#J c #a27e08",
"d8 c #a2a0a0",
"eX c #a2a0a1",
"cs c #a45101",
"#I c #a48208",
"#G c #a5810b",
"#H c #a58209",
"#F c #a5820e",
"#E c #a68512",
"cz c #a6a4a5",
".y c #a79a60",
"cO c #a85200",
"dN c #a85601",
"d3 c #a85701",
"#D c #a98b1b",
".A c #a99438",
"aI c #a99643",
"cd c #a9a8a8",
"cr c #ab5400",
"dt c #ab5500",
"dK c #ab5600",
"bP c #ab6e04",
"bx c #abaaaa",
"d4 c #ac5700",
"a5 c #acaaab",
"#m c #ad6c03",
".z c #ad9c50",
"#C c #ae952c",
"dy c #aeacad",
"c9 c #af5c00",
"cN c #af5d00",
"d5 c #b05d00",
"dr c #b05e00",
"dL c #b15f00",
"cq c #b26200",
".Z c #b38505",
".P c #b3ab93",
"dM c #b46700",
"#B c #b4a14b",
"ay c #b4b3b3",
"## c #b5ae97",
"b8 c #b66a00",
"eY c #b6b5b6",
"c6 c #b86d00",
"ds c #b86f00",
"#A c #b9ad74",
"ep c #b9b8b8",
"cw c #bab8b9",
"c8 c #bb7500",
"aw c #bcaf78",
"fn c #bcbabb",
"#z c #beb593",
"am c #bebdbd",
"cM c #bf7c00",
"c7 c #bf7d00",
"cK c #bf7e00",
"cv c #bfbebe",
"#y c #c0b9a0",
"#x c #c1bba2",
"bs c #c29d04",
"cp c #c38500",
"#l c #c58b00",
"bB c #c5c4c5",
"cL c #c68a00",
"cn c #c68b00",
"db c #c6c4c5",
"ak c #c6c5c5",
"aB c #c7c6c7",
"fy c #c8c7c7",
"b7 c #c99100",
"aZ c #c9af34",
"a4 c #c9c8c8",
"al c #cac9c9",
"bA c #cac9ca",
"fm c #cacaca",
"dw c #cbcaca",
"co c #cc9600",
"b5 c #cc9700",
"#w c #ccc5a9",
"bd c #cccbcb",
"bM c #cda000",
".Y c #cea301",
"#k c #cf9f00",
"bO c #d0a000",
"b6 c #d1a200",
"eN c #d1d0d1",
"au c #d2c276",
"be c #d4d3d4",
"fB c #d5d5d5",
"bN c #d7ad00",
"#j c #d7ae00",
"bu c #d7b009",
"fz c #d8d8d8",
"fA c #d9d8d8",
"eq c #d9d8d9",
"er c #d9d9d9",
"aX c #dabf3c",
"es c #dad9d9",
".X c #dbb70a",
"df c #dbdada",
"bt c #dcb80a",
"#i c #dcb90c",
"eZ c #dfdfdf",
"#h c #e0c026",
"ba c #e0c124",
".Q c #e0d8b5",
"bb c #e1c22d",
"bU c #e1e1e1",
".W c #e2c52f",
"ag c #e3d8a1",
"a3 c #e3e3e3",
"#g c #e4c73d",
"bz c #e4e3e3",
"#W c #e6deb8",
".V c #e7cf55",
"aY c #e7d058",
"aK c #e7d472",
"aN c #e8e8e8",
"ah c #e9dfb5",
"aJ c #ead775",
"#f c #ebd771",
".U c #ecd976",
"fa c #ececec",
"#a c #ede6c6",
"ca c #eeeded",
"d9 c #eeeeee",
"#e c #efe091",
".T c #efe093",
"dQ c #efefef",
"cQ c #f0eff0",
"dP c #f0f0f0",
"av c #f1e49f",
".R c #f1e7b9",
".S c #f2e6aa",
"bT c #f3f3f3",
"#d c #f4e8b0",
"et c #f5f4f5",
"#c c #f7efc7",
"#b c #f7f0ce",
"by c #f8f8f8",
"aP c #f9f9f9",
"cA c #fafafa",
"cb c #fbfafb",
"a2 c #fbfbfb",
"cc c #fcfbfc",
"e0 c #fcfcfc",
"aA c #fdfdfd",
"az c #fefefe",
"aO c #ffffff",
"QtQtQtQtQtQtQt.#.a.b.c.d.e.f.g.h.i.j.k.l.m.n.o.pQtQtQtQtQtQtQtQt",
"QtQtQtQtQtQt.q.r.s.t.u.v.w.x.y.z.A.B.C.D.E.F.G.H.I.JQtQtQtQtQtQt",
"QtQtQtQtQt.K.L.M.N.O.P.Q.R.S.T.U.V.W.X.Y.Z.0.1.2.3.4.5QtQtQtQtQt",
"QtQtQt.6.7.8.9#.###a#b#c#d#e#f.V#g#h#i#j#k#l#m#n#o#p#q#rQtQtQtQt",
"QtQtQt#s#t#u#v#w#x#y#z#A#B#C#D#E#F#G#H#I#J#K#L#M#N#O#P#Q#RQtQtQt",
"QtQt#S#T#U#V#W#X#Y#Z#0#1#2#3#4#5#5#5#4#4#4#4#6#7#8#9a.a#aaabQtQt",
"QtacadaeafagahaiajakalalalalalalalalalalalalalalalalamanaoapaqQt",
"QtarasatauavawaxayazazazazazazazazazazazazazazazazazaAaBaCaDaEQt",
"aFaGaHaIaJaKaLaMaNazaOaOaOaOaOaOaOaOaOaOaOaOaOaOaOaOazaPaQaRaSaT",
"aUaVaWaXaYaZa0a1a2aOaOaAa3ala4a4a4a4a4a4a4a4a4a4a4a4a4a4a5a6a7a8",
"a9b.b#babbbc#1bdazaOaOazbebfbgbhbhbhbhbhbhbhbhbhbibjbkblbmbnbobp",
"bqbrbsbtbubvbwbxbyazaOaOaAbzbAalalalalalalalalbBbCbDbEbFbGbHbIbJ",
"bKbLbMbNbObPbQbRbSbTazaOaOaOaOaOaOaOaOaOaOaOazbUbVbWbXbYbZb0b1b2",
"b3b4b5b6b7b8b9c.#8c#caazaOazaAcbcbcbccazaOaOazcdcecfcgchbZcicjck",
"clcmcncocpcqcrcsctcucvazaOaAcwcxcycyczcAaOaObTcBcCcDcgchcEcFcGcH",
"cIcJcKcLcMcNcrcOctcPbUazaOcQcRcScScTcUaAaOazbdcVcWcXcYcZc0c1c2c3",
"c4c5c6c7c8c9crd.d#dacAaOazdbdcdddddedfazaOa2dgdhdidjcYdkdldmdndo",
"dpdqdrdsdsdrdtdudvakazaOazdwa1dxdxdyaPaOaOaNdzdAdBdCcgdDdEdFdGdH",
"dIdJdKdLdMdLdNdOcRdPaOaOazazaAaAaAazazaOaOdQdRdSdTdUdVdWdXdYdZd0",
"d1d2d3d4cNd5d6d7d8aAaOaOaOaOaOaOaOaOaOaOaOazd9e.e#eaebecedeeefeg",
"eheiejekelemeneoepeqerererererereresd9azaOaOazeteuevewexeyezeAeB",
"eCeDeEeFeGeGeHeIeJeKeKeKeKeKeKeKeKeLeMbUazaOaOazeNeOePdmeQeReSeT",
"eUeVeWeXeYeYeYeYeYeYeYeYeYeYeYeYeYeYepeZazaOaOe0e1e2e3e4e5e6e7e8",
"e9f.f#bSa2azazazazazazazazazazazazazazazazaOaOfafbfcfdfefffgfhfi",
"QtfjfkflfmaAaOaOaOaOaOaOaOaOaOaOaOaOaOaOaOaOazfnblfofpfqfrfsftQt",
"QtfufvfwfxfyfzfAfAfAfAfAfAfAfAfAfAfAfAfAfAfAfBfCfDfEfFfGfHfIQtQt",
"QtQtfJfKfLfMfNfOfPfOfOfOfOfOfOfOfOfOfOfOfPfPfQfRfSfTfUfVfWfXQtQt",
"QtQtQtfYfZf0f1f2f3f4f5f6f7f8f9f9g.f7f6g#gagbgcfqgdfGgegfggQtQtQt",
"QtQtQtQtghgigjgkglgmgngoeddmgpgpdmgqgrgsgtgugvgwgxgygzgAQtQtQtQt",
"QtQtQtQtQtgBgCgDgEgFgGgHgIgue4gtgtgJdYgKgLffgMgNgOgPgQQtQtQtQtQt",
"QtQtQtQtQtQtgRgSgTgUgVgWgXgYgZg0g1g2g3g4g5g6g7g8g9h.QtQtQtQtQtQt",
"QtQtQtQtQtQtQtQth#hahbhchdhehfhghhhihjhkhlhmhnhoQtQtQtQtQtQtQtQt"};
