/* XPM */
static char * soulfu_xpm[] = {
"32 32 31 1",
" 	c None",
".	c #000000",
"+	c #402040",
"@	c #402000",
"#	c #404040",
"$	c #806000",
"%	c #C0A000",
"&	c #808000",
"*	c #404000",
"=	c #604040",
"-	c #606040",
";	c #604000",
">	c #A08000",
",	c #806040",
"'	c #A08040",
")	c #808040",
"!	c #202040",
"~	c #606000",
"{	c #A0A040",
"]	c #E0C000",
"^	c #A0A000",
"/	c #E0E000",
"(	c #A06040",
"_	c #C0C000",
":	c #602000",
"<	c #804000",
"[	c #FFFF00",
"}	c #C0A040",
"|	c #E0C040",
"1	c #C0C040",
"2	c #C08000",
"                  ........      ",
"              ....+@..@@.#.     ",
"          ....#@...@@@$%&@@.    ",
"      ....#@@@@*=---;@@;>>*..   ",
"    ..#@@.@+=,'');@@..@@@$>*!.  ",
"  ..**~$$@=,,,=*@..@@@@;=;{&@.  ",
" .@*~>]]]>*@@@@@@@@;-,)',;$>~!. ",
"..@@@$^]/]>@@@@;;,''''',==*>%*. ",
".@;@@,$>/]%$@=,('('',;;@@@@$]$@.",
".*~@@',;^/%'@;(,,,;@@@@..@@;]>@.",
".*$@*',@@]_>$;=;@@@...@@@@@:%^@.",
".*,@@',@@>/%%&@@..@@@@;;;;;;^_*.",
".@,;@'(@@)]/]%;@@@;;$''(',-@$%;!",
".@<;@''@@'%[/]$@;$('}}',,-;@*&*!",
"..;$@''*.,>//]>;,'}})~*@@@@@*{@.",
".@;$@,'*.='%/]%;-,;*@@@...@@@>@.",
" !@,@,';.*''/]]$@@@@...@*,~-*$@.",
" ..,@='-.*{$_]%$@....@-}|^;=&&@.",
" ...@*',.@{,^]_&@.@*${'~>>@@;@. ",
"  .@@@,,@@',>]1$@;,'}$..;$@.@.. ",
"  .@;@@@.@',>]>$;,'}>@..;$@@$@. ",
"  .@@;=@..,,>/>><,,}$..@>$:$$+. ",
"   .@;-,@.@;$/]%;@@{$..;%$@$*.  ",
"   ..@=,*.@@@^>;@@*1^@.&%;@$@.  ",
"    ..@-=@#=@@*@@,'|%$~&>-~~..  ",
"     ..@-@@,*$>>$,$_%$$,~@@@+.  ",
"      ..@.@,;_]2;@;'',;@@....   ",
"       ....-=_]%;;,,=@..!.      ",
"         ..@@^_>$=*@....        ",
"          ...;_&@....           ",
"            ..@..!              ",
"             ...                "};
