/* XPM */
static char * jbrickshooter_xpm[] = {
"32 32 354 2",
"  	c None",
". 	c #6464B9",
"+ 	c #6666F1",
"@ 	c #5D5DEF",
"# 	c #5D5DEE",
"$ 	c #5D5DF0",
"% 	c #5D5DF2",
"& 	c #5D5DF3",
"* 	c #5D5DF5",
"= 	c #5D5DF6",
"- 	c #5D5DF7",
"; 	c #5C5CF8",
"> 	c #5454F3",
", 	c #3737BB",
"' 	c #B06565",
") 	c #DF6767",
"! 	c #DE5C5C",
"~ 	c #DD5D5D",
"{ 	c #DE5D5D",
"] 	c #DF5D5D",
"^ 	c #E05D5D",
"/ 	c #E25D5D",
"( 	c #E35D5D",
"_ 	c #E45D5D",
": 	c #E55C5C",
"< 	c #E15454",
"[ 	c #A93535",
"} 	c #5353BB",
"| 	c #3535F3",
"1 	c #0909EC",
"2 	c #0505E8",
"3 	c #0505E6",
"4 	c #0505E5",
"5 	c #0505EA",
"6 	c #0505EC",
"7 	c #0505ED",
"8 	c #0505F0",
"9 	c #0505F2",
"0 	c #0505F3",
"a 	c #0606F5",
"b 	c #0908F9",
"c 	c #010AA7",
"d 	c #BF5A4E",
"e 	c #DF3535",
"f 	c #D10909",
"g 	c #CE0505",
"h 	c #CC0505",
"i 	c #CA0505",
"j 	c #CF0505",
"k 	c #D20505",
"l 	c #D30505",
"m 	c #D60505",
"n 	c #D70505",
"o 	c #D90606",
"p 	c #DC0909",
"q 	c #900F0F",
"r 	c #3737F5",
"s 	c #0606EE",
"t 	c #0000EC",
"u 	c #0000EA",
"v 	c #0000E7",
"w 	c #0000E4",
"x 	c #0000E6",
"y 	c #0000E9",
"z 	c #0000EB",
"A 	c #0000ED",
"B 	c #0000F0",
"C 	c #0000F2",
"D 	c #0000F5",
"E 	c #0000F4",
"F 	c #0000CA",
"G 	c #F83D29",
"H 	c #D20506",
"I 	c #D00000",
"J 	c #CE0000",
"K 	c #CC0000",
"L 	c #C90000",
"M 	c #CB0000",
"N 	c #CF0000",
"O 	c #D10000",
"P 	c #D40000",
"Q 	c #D50000",
"R 	c #D80000",
"S 	c #A30000",
"T 	c #2727F4",
"U 	c #0303F0",
"V 	c #0000E5",
"W 	c #0000E8",
"X 	c #0000EE",
"Y 	c #0000F1",
"Z 	c #0000F3",
"` 	c #0000C0",
" .	c #F42D1A",
"..	c #D40303",
"+.	c #CA0000",
"@.	c #CD0000",
"#.	c #D20000",
"$.	c #D60000",
"%.	c #9D0000",
"&.	c #2828F3",
"*.	c #0000EF",
"=.	c #D30000",
"-.	c #D70000",
";.	c #2828F5",
">.	c #0303F1",
",.	c #F52D1A",
"'.	c #D50303",
").	c #2828F6",
"!.	c #0000BF",
"~.	c #F62D1A",
"{.	c #0303F2",
"].	c #F72D1A",
"^.	c #D60303",
"/.	c #0303F3",
"(.	c #0000BE",
"_.	c #9C0000",
":.	c #0303F4",
"<.	c #F82D1A",
"[.	c #2828F7",
"}.	c #0000BD",
"|.	c #D70303",
"1.	c #9B0000",
"2.	c #0303F5",
"3.	c #0000BC",
"4.	c #D80303",
"5.	c #9A0000",
"6.	c #0303F6",
"7.	c #D90303",
"8.	c #1818F8",
"9.	c #0101F5",
"0.	c #0000AD",
"a.	c #F61B0B",
"b.	c #D80102",
"c.	c #8D0000",
"d.	c #0B0BB1",
"e.	c #0000E2",
"f.	c #0000E3",
"g.	c #0000C3",
"h.	c #071473",
"i.	c #9D0C04",
"j.	c #C80000",
"k.	c #AA0000",
"l.	c #641212",
"m.	c #01017E",
"n.	c #0000A0",
"o.	c #0000A6",
"p.	c #0000A5",
"q.	c #0000A4",
"r.	c #0000A3",
"s.	c #00009D",
"t.	c #00009C",
"u.	c #00009E",
"v.	c #000095",
"w.	c #060769",
"x.	c #23232C",
"y.	c #332929",
"z.	c #6B070D",
"A.	c #8A0000",
"B.	c #940000",
"C.	c #920000",
"D.	c #910000",
"E.	c #8F0000",
"F.	c #8E0000",
"G.	c #8C0000",
"H.	c #8B0000",
"I.	c #870000",
"J.	c #68050E",
"K.	c #C6C170",
"L.	c #FFFF7A",
"M.	c #FFFF70",
"N.	c #FFFD6F",
"O.	c #FFFE6F",
"P.	c #FFFF6F",
"Q.	c #FFFF71",
"R.	c #FFFF72",
"S.	c #FFFF6A",
"T.	c #B6B142",
"U.	c #2E2E21",
"V.	c #333A34",
"W.	c #5FA766",
"X.	c #68EA77",
"Y.	c #59E569",
"Z.	c #5AE569",
"`.	c #5AE769",
" +	c #5AE869",
".+	c #5AE969",
"++	c #5BEC69",
"@+	c #5AEC68",
"#+	c #51E65F",
"$+	c #31A738",
"%+	c #BCB765",
"&+	c #EFE651",
"*+	c #E6DB28",
"=+	c #E3D824",
"-+	c #E1D724",
";+	c #E0D423",
">+	c #E2D724",
",+	c #E5DB24",
"'+	c #E7DC25",
")+	c #E9DE25",
"!+	c #ECE125",
"~+	c #EDE225",
"{+	c #EEE528",
"]+	c #F5EA2C",
"^+	c #998B20",
"/+	c #4C9D56",
"(+	c #35CB35",
"_+	c #08B708",
":+	c #05B405",
"<+	c #05B205",
"[+	c #05B105",
"}+	c #05B305",
"|+	c #05B505",
"1+	c #05B605",
"2+	c #05B805",
"3+	c #05B905",
"4+	c #05BB05",
"5+	c #05BD05",
"6+	c #06BE06",
"7+	c #09C109",
"8+	c #118011",
"9+	c #F0E751",
"0+	c #E8DD28",
"a+	c #E6DB21",
"b+	c #E4D921",
"c+	c #E2D721",
"d+	c #DFD421",
"e+	c #E1D621",
"f+	c #E3D822",
"g+	c #E5DA21",
"h+	c #E7DC22",
"i+	c #EADF22",
"j+	c #ECE122",
"k+	c #EFE423",
"l+	c #C1A818",
"m+	c #2ACD3B",
"n+	c #06BA06",
"o+	c #00B600",
"p+	c #00B500",
"q+	c #00B200",
"r+	c #00B000",
"s+	c #00B100",
"t+	c #00B400",
"u+	c #00B800",
"v+	c #00B900",
"w+	c #00BB00",
"x+	c #00BD00",
"y+	c #009000",
"z+	c #EEE545",
"A+	c #EADF24",
"B+	c #E0D520",
"C+	c #E4D922",
"D+	c #E8DD22",
"E+	c #EBE022",
"F+	c #EDE222",
"G+	c #BCA117",
"H+	c #1ACA29",
"I+	c #03B903",
"J+	c #00B700",
"K+	c #00B300",
"L+	c #00BC00",
"M+	c #008A00",
"N+	c #EAE024",
"O+	c #DFD41F",
"P+	c #E7DC21",
"Q+	c #E9DE23",
"R+	c #EFE323",
"S+	c #BBA017",
"T+	c #1ACB2A",
"U+	c #03BA03",
"V+	c #008900",
"W+	c #F0E746",
"X+	c #EBE124",
"Y+	c #E3D821",
"Z+	c #DFD420",
"`+	c #EEE323",
" @	c #1ACC2A",
".@	c #03BB03",
"+@	c #00BA00",
"@@	c #F1E845",
"#@	c #EADF21",
"$@	c #EDE223",
"%@	c #ECE124",
"&@	c #E9DE22",
"*@	c #E2D722",
"=@	c #BA9F17",
"-@	c #1ACD2A",
";@	c #F2E846",
">@	c #EDE224",
",@	c #ECE022",
"'@	c #1ACE2A",
")@	c #03BC03",
"!@	c #008800",
"~@	c #F2E946",
"{@	c #EEE324",
"]@	c #B99E17",
"^@	c #03BD03",
"/@	c #EEE425",
"(@	c #B99E16",
"_@	c #03BE03",
":@	c #EFE425",
"<@	c #E9DF22",
"[@	c #B89C16",
"}@	c #1ACF2A",
"|@	c #008700",
"1@	c #F0E524",
"2@	c #B79B16",
"3@	c #1BCF2A",
"4@	c #03BF03",
"5@	c #008600",
"6@	c #F2E83A",
"7@	c #EFE424",
"8@	c #E6DB22",
"9@	c #A98D16",
"0@	c #0BCC19",
"a@	c #02BE01",
"b@	c #007B00",
"c@	c #ACA523",
"d@	c #E1D720",
"e@	c #EAE022",
"f@	c #E5D922",
"g@	c #E0D521",
"h@	c #DDD220",
"i@	c #DDD320",
"j@	c #BCB31A",
"k@	c #776721",
"l@	c #028E09",
"m@	c #00AE00",
"n@	c #00AF00",
"o@	c #009500",
"p@	c #125B12",
"q@	c #7C7720",
"r@	c #9B9417",
"s@	c #A09916",
"t@	c #9F9816",
"u@	c #9F9716",
"v@	c #9D9616",
"w@	c #9B9516",
"x@	c #9A9316",
"y@	c #9A9216",
"z@	c #979116",
"A@	c #978F15",
"B@	c #989116",
"C@	c #908917",
"D@	c #6B661F",
"E@	c #116511",
"F@	c #017B01",
"G@	c #007F00",
"H@	c #007D00",
"I@	c #007C00",
"J@	c #007A00",
"K@	c #007800",
"L@	c #007700",
"M@	c #027102",
"  . + @ # @ $ % & * = - ; > ,     ' ) ! ~ { ] ^ / ( _ _ : < [   ",
"} | 1 2 3 4 2 5 6 7 8 9 0 a b c d e f g h i h g j k l m n o p q ",
"r s t u v w x v y z A B C D E F G H I J K L M K J N O P Q R R S ",
"T U A u v V V x W y z X Y Z D `  ...O J K +.+.M @.J N #.Q $.R %.",
"&.U X u W x w V v y u A *.Z D `  ...#.J K M L +.K @.N O =.$.-.%.",
";.>.X z W x w V x v y z X Y E ` ,.'.#.N @.M L +.M K @.N #.Q -.%.",
").>.X z W x V w V x W u t B Z !.~.'.#.N @.M +.L +.M @.J I P $.%.",
").{.*.z y v V w V x v y t *.C !.].^.=.N @.K +.L +.M K @.I =.Q %.",
")./.*.t y v x V w V v y z *.C (.].^.=.I @.K M +.L +.K @.N =.Q _.",
").:.B t u W x V w V x W z X Y (.<.^.P I J @.M +.L +.M @.N #.P _.",
"[.:.Y X z y v x V w x W z X Y }.<.|.Q #.N @.K M +.L M @.N #.P 1.",
"[.2.Z *.A u y v V w x W u X *.3.<.4.$.=.O N @.K +.L M K J #.=.5.",
"[.6.Z Y X z y W x V V v u A *.}.<.7.$.Q #.N J @.M +.+.K J O =.5.",
"8.9.D C B A z y v V w v u t u 0.a.b.R Q P O N @.K +.L K J I J c.",
"d.x B B *.A z y v V e.f.x e.g.h.i.@.P P =.O N @.M +.j.L +.j.k.l.",
"  m.n.o.p.p.q.r.n.s.s.t.u.v.w.x.y.z.A.B.C.D.D.E.F.G.H.A.H.I.J.  ",
"  K.L.M.N.O.P.P.Q.R.Q.Q.Q.S.T.U.V.W.X.Y.Z.Z.`. +.+.+++++@+#+$+  ",
"%+&+*+=+-+;+>+=+,+'+)+!+~+{+]+^+/+(+_+:+<+[+}+|+1+2+3+4+5+6+7+8+",
"9+0+a+b+c+d+e+c+f+g+h+i+j+k+k+l+m+n+o+p+q+r+s+q+t+p+u+v+w+x+x+y+",
"z+A+h+b+c+B+B+e+f+C+g+D+E+F+k+G+H+I+J+p+q+s+r+s+K+t+p+u+v+L+x+M+",
"z+N+D+b+c+e+O+B+c+f+g+P+Q+F+R+S+T+U+u+p+K+s+r+s+q+t+p+J+v+L+L+V+",
"W+X+D+g+Y+e+Z+B+e+c+f+g+D+E+`+S+ @.@u+p+K+s+s+s+s+q+t+p+u++@x+V+",
"@@X+D+g+f+e+B+Z+B+e+f+b+a+#@$@S+ @.@u+p+K+s+s+r+s+s+K+p+o+v+w+V+",
"@@%@&@g+f+*@B+Z+B+e+c+f+a+&@j+=@-@.@u+p+t+q+s+r+s+s+q+t+o+u+w+V+",
";@>@&@a+f+c+e+B+Z+B+*@f+g+&@,@=@'@)@u+o+t+q+s+s+r+s+q+t+p+u+w+!@",
"~@{@#@a+b+f+e+B+Z+B+e+f+g+D+E+]@'@^@v+o+p+K+s+s+r+s+s+K+p+u++@!@",
"~@/@E+D+g+f+c+e+B+Z+e+Y+g+D+E+(@'@_@+@u+p+t+q+s+s+s+s+K+p+u++@!@",
"~@:@$@Q+P+g+f+c+B+O+e+c+b+D+<@[@}@^@L+v+J+p+t+q+s+r+s+K+p+u+v+|@",
"~@1@$@E+D+g+C+f+e+B+B+c+b+h+&@2@3@4@L+v+u+p+t+K+s+r+s+q+p+J+u+5@",
"6@7@k+j+i+P+g+Y+c+B+Z+c+b+8@b+9@0@a@x+w+v+J+p+t+q+s+r+q+p+o+t+b@",
"c@d@e@e@&@h+f@Y+e+g@h@Z+g@i@j@k@l@s+v++@v+J+p+K+q+r+m@r+s+n@o@p@",
"  q@r@s@t@u@v@w@x@y@z@A@B@C@D@    E@F@G@G@H@I@b@J@K@K@L@K@M@p@  "};
