/* XPM */
static char * 8kingdoms_xpm[] = {
"40 40 997 2",
"  	c #EEEEEE",
". 	c #F2EFE8",
"+ 	c #E9E8E4",
"@ 	c #F4F6F5",
"# 	c #E0E5E8",
"$ 	c #F4F9FC",
"% 	c #E1E5E8",
"& 	c #F2F4F3",
"* 	c #EBEBE9",
"= 	c #E5EAF0",
"- 	c #E6E9EE",
"; 	c #F1F1F3",
"> 	c #F1EFF0",
", 	c #E5E3E4",
"' 	c #E8E9ED",
") 	c #EAEDF2",
"! 	c #F1EDEA",
"~ 	c #EFEFED",
"{ 	c #F1F2F4",
"] 	c #EBF0F3",
"^ 	c #E5EBEB",
"/ 	c #F1F3F2",
"( 	c #F2F3EE",
"_ 	c #FAF7F0",
": 	c #F3F4F8",
"< 	c #ECEDF1",
"[ 	c #EBEBED",
"} 	c #EFEDEE",
"| 	c #EAE8E9",
"1 	c #F3F3F5",
"2 	c #EFF0F4",
"3 	c #F4F2F5",
"4 	c #ECEBF0",
"5 	c #E4E5E9",
"6 	c #E9EDF0",
"7 	c #F0F2F1",
"8 	c #FFFFFA",
"9 	c #DBD7CC",
"0 	c #F4EEE0",
"a 	c #EBE9EA",
"b 	c #EFEFF1",
"c 	c #EDEDEF",
"d 	c #EEEDF5",
"e 	c #F1F0F8",
"f 	c #F3F4F9",
"g 	c #EDEEF2",
"h 	c #FCFBF7",
"i 	c #CCC8BD",
"j 	c #A49B8A",
"k 	c #E0D3C0",
"l 	c #E0D7D2",
"m 	c #F0EBE7",
"n 	c #F3EFEE",
"o 	c #ECECEE",
"p 	c #EAEAEC",
"q 	c #EEECED",
"r 	c #EBEBF3",
"s 	c #EFEFF7",
"t 	c #EEEFF4",
"u 	c #F0F0F2",
"v 	c #8E847A",
"w 	c #D0C1AE",
"x 	c #FFFCE6",
"y 	c #D3C5BC",
"z 	c #EBE0DA",
"A 	c #FCF7F4",
"B 	c #E8E8EA",
"C 	c #F0F1F5",
"D 	c #EBECF0",
"E 	c #EDEBEC",
"F 	c #F6F2F1",
"G 	c #E7E8EA",
"H 	c #FFFEFF",
"I 	c #E8E0DD",
"J 	c #493B30",
"K 	c #D7C2B1",
"L 	c #F0D5C2",
"M 	c #C9B6A8",
"N 	c #D4C6BD",
"O 	c #FFFCF9",
"P 	c #E9E9EB",
"Q 	c #E9ECF1",
"R 	c #EBEAE8",
"S 	c #F4EFEC",
"T 	c #EAEFEB",
"U 	c #ECEEEB",
"V 	c #FFFCFB",
"W 	c #9C918D",
"X 	c #2C1912",
"Y 	c #AE9287",
"Z 	c #BD9C8D",
"` 	c #997F6E",
" .	c #948276",
"..	c #FDF6F0",
"+.	c #F4F4F6",
"@.	c #ECE8E7",
"#.	c #F1E9E6",
"$.	c #EDF2EB",
"%.	c #E2E7E1",
"&.	c #F5F7F2",
"*.	c #FFFDFA",
"=.	c #786D69",
"-.	c #3E2A23",
";.	c #55372F",
">.	c #4F2A21",
",.	c #533825",
"'.	c #4D3A2C",
").	c #EFE6E1",
"!.	c #FEFFFF",
"~.	c #E6EBF1",
"{.	c #F1EDEC",
"].	c #F6EDE8",
"^.	c #EAEAE8",
"/.	c #EDEDED",
"(.	c #F4F2F3",
"_.	c #ECF1ED",
":.	c #E7EDED",
"<.	c #F5FFFF",
"[.	c #FFFAFF",
"}.	c #F7F2F9",
"|.	c #FEFFFD",
"1.	c #DFE6DF",
"2.	c #E5EEEB",
"3.	c #ECF0F1",
"4.	c #F3F2F0",
"5.	c #F1ECE6",
"6.	c #E9EEDA",
"7.	c #E7EBDA",
"8.	c #FFFFFF",
"9.	c #D1CED7",
"0.	c #080307",
"a.	c #474721",
"b.	c #AAAD66",
"c.	c #E0E788",
"d.	c #FFF1BD",
"e.	c #CDC68F",
"f.	c #C0BCA1",
"g.	c #F6EFF7",
"h.	c #F3EDEF",
"i.	c #E9E6F1",
"j.	c #E7FAC2",
"k.	c #E0F4F3",
"l.	c #EBEDEA",
"m.	c #E6F1E9",
"n.	c #E1EEE4",
"o.	c #F1F2EC",
"p.	c #FBE9E9",
"q.	c #F8E4E6",
"r.	c #F5F1F2",
"s.	c #E0EFEC",
"t.	c #EEEEEC",
"u.	c #F0EEEF",
"v.	c #F6F6F6",
"w.	c #E4E5E7",
"x.	c #E9EDEE",
"y.	c #FBFFFF",
"z.	c #62543A",
"A.	c #786C5C",
"B.	c #EDE4DD",
"C.	c #FFFEFB",
"D.	c #F5F4F2",
"E.	c #E8E8E6",
"F.	c #E7E7E9",
"G.	c #EAE1FF",
"H.	c #FFFEED",
"I.	c #FBF2F3",
"J.	c #5C44A6",
"K.	c #2A1363",
"L.	c #110700",
"M.	c #9F9A62",
"N.	c #B7A9A6",
"O.	c #9D5CD2",
"P.	c #623391",
"Q.	c #8A846A",
"R.	c #F5FFFA",
"S.	c #E8F6DF",
"T.	c #FDFDFD",
"U.	c #F7E9FF",
"V.	c #ECE1E9",
"W.	c #FEF3F9",
"X.	c #FCF3F6",
"Y.	c #ECEBE9",
"Z.	c #E9EFEB",
"`.	c #E9F4EE",
" +	c #E9EFED",
".+	c #EBEFEE",
"++	c #ECECEA",
"@+	c #E6E3EA",
"#+	c #F7F5FA",
"$+	c #FEFDFB",
"%+	c #C4C4BC",
"&+	c #301800",
"*+	c #4E3B00",
"=+	c #76651F",
"-+	c #C5B68B",
";+	c #FFF7F7",
">+	c #FFF9FF",
",+	c #F3F3FD",
"'+	c #E2EADB",
")+	c #EFDFF9",
"!+	c #FFFBFB",
"~+	c #B1A3B0",
"{+	c #522EB6",
"]+	c #9477D4",
"^+	c #100017",
"/+	c #5C502A",
"(+	c #725D70",
"_+	c #AC4DFF",
":+	c #7336CF",
"<+	c #A5A67C",
"[+	c #F2FCE4",
"}+	c #858678",
"|+	c #615A3D",
"1+	c #E9DBE8",
"2+	c #FFF6FF",
"3+	c #F9FFFF",
"4+	c #F2E8F1",
"5+	c #F2DCE9",
"6+	c #F2E7EF",
"7+	c #EEF7F6",
"8+	c #E0F3ED",
"9+	c #E2EBE8",
"0+	c #FBF5F5",
"a+	c #E9E8E6",
"b+	c #EDEDEB",
"c+	c #EAE9EE",
"d+	c #F0EDF6",
"e+	c #F8F1F8",
"f+	c #FFF7EE",
"g+	c #413922",
"h+	c #694A00",
"i+	c #997E13",
"j+	c #AE951F",
"k+	c #897215",
"l+	c #937D54",
"m+	c #EEE1DB",
"n+	c #F5FDEE",
"o+	c #FCF5ED",
"p+	c #F9EEF6",
"q+	c #291D27",
"r+	c #31148A",
"s+	c #443360",
"t+	c #0F0214",
"u+	c #5D5D1F",
"v+	c #7D765A",
"w+	c #C271FC",
"x+	c #9464DC",
"y+	c #6D6D49",
"z+	c #423A0B",
"A+	c #411B00",
"B+	c #461B00",
"C+	c #524500",
"D+	c #A3B47D",
"E+	c #E9FEF5",
"F+	c #F5F9F8",
"G+	c #F9ECF3",
"H+	c #F8E8F2",
"I+	c #F2EBF2",
"J+	c #ECE6E6",
"K+	c #F2F0F3",
"L+	c #EEF0ED",
"M+	c #EFEEF3",
"N+	c #EBE8F1",
"O+	c #FFFCFD",
"P+	c #8D7E67",
"Q+	c #302200",
"R+	c #957A00",
"S+	c #CCAC33",
"T+	c #CDAD40",
"U+	c #D5BA47",
"V+	c #A08D15",
"W+	c #7D7513",
"X+	c #B4AF87",
"Y+	c #9D97A5",
"Z+	c #06000A",
"`+	c #4C3A9D",
" @	c #A39FB0",
".@	c #010100",
"+@	c #55620A",
"@@	c #787F49",
"#@	c #A770E7",
"$@	c #9E69FF",
"%@	c #6C564B",
"&@	c #75600F",
"*@	c #8F6F08",
"=@	c #997308",
"-@	c #8A6C00",
";@	c #685000",
">@	c #967360",
",@	c #FAE9D7",
"'@	c #FFFFF1",
")@	c #E9F1E6",
"!@	c #EDEFEC",
"~@	c #ECE8E9",
"{@	c #F4EFF6",
"]@	c #E7E5E6",
"^@	c #EBEDE8",
"/@	c #F5F6F8",
"(@	c #DDD0C8",
"_@	c #281700",
":@	c #826F23",
"<@	c #C9AE21",
"[@	c #D8BA3E",
"}@	c #CDAF3D",
"|@	c #C3AA2B",
"1@	c #C7B628",
"2@	c #B3A626",
"3@	c #827225",
"4@	c #9D8A6C",
"5@	c #FEFDE1",
"6@	c #6E6286",
"7@	c #090023",
"8@	c #584C7A",
"9@	c #E3E5D0",
"0@	c #0B090A",
"a@	c #41491A",
"b@	c #7A8447",
"c@	c #5C39A1",
"d@	c #7F3FFF",
"e@	c #765043",
"f@	c #8C7F00",
"g@	c #868100",
"h@	c #937713",
"i@	c #A4533E",
"j@	c #C04851",
"k@	c #A43E18",
"l@	c #9E643C",
"m@	c #BEBB90",
"n@	c #F0FFE8",
"o@	c #ECFFF0",
"p@	c #E1EEE5",
"q@	c #F3F9F7",
"r@	c #E6EFEC",
"s@	c #EAE4F2",
"t@	c #EDEFEA",
"u@	c #F9FBFA",
"v@	c #453825",
"w@	c #554200",
"x@	c #A18B25",
"y@	c #CCB244",
"z@	c #BBA130",
"A@	c #9B8410",
"B@	c #917C09",
"C@	c #9E881B",
"D@	c #C5AC45",
"E@	c #C8AB43",
"F@	c #917208",
"G@	c #959032",
"H@	c #C4B2B0",
"I@	c #1E0918",
"J@	c #1D1400",
"K@	c #86833E",
"L@	c #6B6157",
"M@	c #2A2313",
"N@	c #858547",
"O@	c #3D2B55",
"P@	c #461BC0",
"Q@	c #382612",
"R@	c #A6A201",
"S@	c #997D00",
"T@	c #994B49",
"U@	c #D05581",
"V@	c #DF4A74",
"W@	c #BE771D",
"X@	c #8F5C0B",
"Y@	c #735C19",
"Z@	c #A2A475",
"`@	c #F7FFE6",
" #	c #F9FFF8",
".#	c #DAE0DC",
"+#	c #EEF2F3",
"@#	c #F2E9FA",
"##	c #EEECEF",
"$#	c #E8EBE4",
"%#	c #868281",
"&#	c #170900",
"*#	c #8C762A",
"=#	c #BAA42C",
"-#	c #947F0C",
";#	c #765F00",
">#	c #715C0D",
",#	c #6C560B",
"'#	c #7A620A",
")#	c #987C0F",
"!#	c #B79416",
"~#	c #CFA723",
"{#	c #ACA415",
"]#	c #91811F",
"^#	c #5D4A06",
"/#	c #544700",
"(#	c #675C00",
"_#	c #B7AB63",
":#	c #BFB085",
"<#	c #A6996D",
"[#	c #4E433D",
"}#	c #00005F",
"|#	c #3B464A",
"1#	c #E2DD43",
"2#	c #A75202",
"3#	c #BA217B",
"4#	c #E35F5B",
"5#	c #CC6837",
"6#	c #839201",
"7#	c #8C810B",
"8#	c #977021",
"9#	c #6B3C10",
"0#	c #866752",
"a#	c #F1E7DE",
"b#	c #FFFEFD",
"c#	c #EBE5E9",
"d#	c #EDF2EC",
"e#	c #E5EAE6",
"f#	c #FCFEFF",
"g#	c #E0DCED",
"h#	c #120B00",
"i#	c #605500",
"j#	c #998316",
"k#	c #88660F",
"l#	c #524403",
"m#	c #615614",
"n#	c #564D08",
"o#	c #564C04",
"p#	c #544900",
"q#	c #72620A",
"r#	c #7D6B09",
"s#	c #947F16",
"t#	c #AE922F",
"u#	c #CBA239",
"v#	c #BBA327",
"w#	c #8D9106",
"x#	c #857E00",
"y#	c #9C720C",
"z#	c #AF903D",
"A#	c #FAFFB3",
"B#	c #F2EEE2",
"C#	c #000300",
"D#	c #1C0309",
"E#	c #F496A4",
"F#	c #B83D35",
"G#	c #C36E37",
"H#	c #9D781D",
"I#	c #86780B",
"J#	c #907009",
"K#	c #957A0F",
"L#	c #826D02",
"M#	c #74640C",
"N#	c #372B00",
"O#	c #DCD2C8",
"P#	c #FFFDFD",
"Q#	c #E2E2DA",
"R#	c #EDF1F4",
"S#	c #F6F7FC",
"T#	c #F2F1F6",
"U#	c #3A362A",
"V#	c #251F00",
"W#	c #877C2A",
"X#	c #756213",
"Y#	c #4D3300",
"Z#	c #493C0F",
"`#	c #43380B",
" $	c #322900",
".$	c #2E2600",
"+$	c #4B400A",
"@$	c #544701",
"#$	c #5F4E00",
"$$	c #715E02",
"%$	c #7C7200",
"&$	c #7E8E12",
"*$	c #908B16",
"=$	c #AD7514",
"-$	c #B1791C",
";$	c #89851A",
">$	c #777E14",
",$	c #D0B75A",
"'$	c #DFCAB9",
")$	c #160800",
"!$	c #280000",
"~$	c #C05B5F",
"{$	c #D55A48",
"]$	c #A95819",
"^$	c #907210",
"/$	c #7A7404",
"($	c #85660C",
"_$	c #705600",
":$	c #8E7D09",
"<$	c #958C17",
"[$	c #665C21",
"}$	c #F5ECFF",
"|$	c #F9FAE8",
"1$	c #E0E0E8",
"2$	c #FFFDFF",
"3$	c #928D8A",
"4$	c #080400",
"5$	c #6E6A23",
"6$	c #6B6324",
"7$	c #352700",
"8$	c #261700",
"9$	c #120A00",
"0$	c #0A0100",
"a$	c #221A0F",
"b$	c #241C0F",
"c$	c #130B00",
"d$	c #3E3208",
"e$	c #57490A",
"f$	c #645409",
"g$	c #713711",
"h$	c #AA523E",
"i$	c #DB5057",
"j$	c #EE405B",
"k$	c #F6546B",
"l$	c #E05F63",
"m$	c #A53426",
"n$	c #B53A28",
"o$	c #D02A3E",
"p$	c #D26970",
"q$	c #FFD8CD",
"r$	c #FAEAC8",
"s$	c #D2CE8E",
"t$	c #414A00",
"u$	c #6B720A",
"v$	c #726F08",
"w$	c #6F500F",
"x$	c #665000",
"y$	c #D1C741",
"z$	c #827B09",
"A$	c #5A4F22",
"B$	c #FFF5FF",
"C$	c #F5EEFF",
"D$	c #E4E6DB",
"E$	c #FEFFFB",
"F$	c #E8E2EE",
"G$	c #110705",
"H$	c #383000",
"I$	c #6E6927",
"J$	c #1E1800",
"K$	c #060000",
"L$	c #0D0A03",
"M$	c #130F06",
"N$	c #797572",
"O$	c #F5F3F8",
"P$	c #D1CED5",
"Q$	c #080300",
"R$	c #2B2408",
"S$	c #4F4814",
"T$	c #514803",
"U$	c #532D06",
"V$	c #BC5245",
"W$	c #F56268",
"X$	c #DC5A5A",
"Y$	c #DA5B55",
"Z$	c #EE5B54",
"`$	c #CD4934",
" %	c #CF764C",
".%	c #FFF0D1",
"+%	c #FFFFE4",
"@%	c #F8F3CB",
"#%	c #FFEDB7",
"$%	c #604500",
"%%	c #634900",
"&%	c #624C03",
"*%	c #4D3200",
"=%	c #8A7B04",
"-%	c #C3BC38",
";%	c #423700",
">%	c #2F221A",
",%	c #FFFCF2",
"'%	c #F8F8EE",
")%	c #EEECF7",
"!%	c #F6F9E4",
"~%	c #FDF8FC",
"{%	c #362C2D",
"]%	c #0A0000",
"^%	c #080200",
"/%	c #090200",
"(%	c #111113",
"_%	c #828780",
":%	c #F5F6EE",
"<%	c #FEFEFC",
"[%	c #FEFEFF",
"}%	c #EEEEF6",
"|%	c #2A2927",
"1%	c #070500",
"2%	c #363203",
"3%	c #443E00",
"4%	c #5B4C09",
"5%	c #645D0F",
"6%	c #6F660B",
"7%	c #856D0B",
"8%	c #A07D19",
"9%	c #9E7C1A",
"0%	c #766200",
"a%	c #928A27",
"b%	c #FFF5DD",
"c%	c #FFFBE2",
"d%	c #F9FFE4",
"e%	c #F4FFDD",
"f%	c #F6FFCA",
"g%	c #746E34",
"h%	c #291100",
"i%	c #5D411A",
"j%	c #564400",
"k%	c #978C22",
"l%	c #867F27",
"m%	c #120500",
"n%	c #AA9FA7",
"o%	c #FFFFED",
"p%	c #EEF1DC",
"q%	c #EAEAF6",
"r%	c #E4E5D3",
"s%	c #F2ECF0",
"t%	c #3F3A37",
"u%	c #140F0B",
"v%	c #9C9A9B",
"w%	c #FEFEFE",
"x%	c #FDFFF7",
"y%	c #FEFFF6",
"z%	c #EAECE7",
"A%	c #D5D9DC",
"B%	c #FCFFFF",
"C%	c #CACBC6",
"D%	c #131200",
"E%	c #1A1600",
"F%	c #3C3604",
"G%	c #5A2A06",
"H%	c #504B07",
"I%	c #5A6806",
"J%	c #7A7205",
"K%	c #91790B",
"L%	c #80730A",
"M%	c #5B5800",
"N%	c #867B2C",
"O%	c #FDFDDB",
"P%	c #FFF7DD",
"Q%	c #FFFDE3",
"R%	c #FDFBD4",
"S%	c #FFFFD0",
"T%	c #E0C99F",
"U%	c #220800",
"V%	c #241704",
"W%	c #72680F",
"X%	c #7B6F33",
"Y%	c #201300",
"Z%	c #130A00",
"`%	c #EAE3DB",
" &	c #E0E2E1",
".&	c #F0F6EC",
"+&	c #F2EDF1",
"@&	c #DFDEDA",
"#&	c #FFFFFD",
"$&	c #F6F6FF",
"%&	c #FDFDFF",
"&&	c #FBFBF9",
"*&	c #E7E3E4",
"=&	c #E4E7E0",
"-&	c #F1F3F0",
";&	c #EAEEEF",
">&	c #F5F9FA",
",&	c #39372A",
"'&	c #110B00",
")&	c #2E2506",
"!&	c #483000",
"~&	c #573F01",
"{&	c #5F4D00",
"]&	c #665A00",
"^&	c #7E7007",
"/&	c #897214",
"(&	c #624B00",
"_&	c #6D5F16",
":&	c #F8FFD8",
"<&	c #FFFBD7",
"[&	c #FEFACA",
"}&	c #FFFDC6",
"|&	c #FFE9BF",
"1&	c #46351B",
"2&	c #020400",
"3&	c #221400",
"4&	c #0E0300",
"5&	c #151100",
"6&	c #FFFFEC",
"7&	c #F6F3FF",
"8&	c #EFEEFE",
"9&	c #E8EEE2",
"0&	c #F3EAFF",
"a&	c #F0F0EE",
"b&	c #E6EBE4",
"c&	c #EEF5FF",
"d&	c #E5E9F4",
"e&	c #EFF2E9",
"f&	c #ECE8DF",
"g&	c #FBEFFD",
"h&	c #F5F5F5",
"i&	c #EFF3F6",
"j&	c #E8ECEF",
"k&	c #FAFAFA",
"l&	c #64615C",
"m&	c #070000",
"n&	c #1C1002",
"o&	c #293200",
"p&	c #443400",
"q&	c #603D03",
"r&	c #6F4E09",
"s&	c #776418",
"t&	c #6F6116",
"u&	c #4C3900",
"v&	c #664E12",
"w&	c #ECFFC3",
"x&	c #FFFFCD",
"y&	c #FDFCC6",
"z&	c #F1FFC4",
"A&	c #F1FFC2",
"B&	c #FFFFC8",
"C&	c #918B6B",
"D&	c #000500",
"E&	c #100005",
"F&	c #180B00",
"G&	c #343003",
"H&	c #343307",
"I&	c #FAF8FF",
"J&	c #E5E6F8",
"K&	c #E7ECEF",
"L&	c #F4F4E8",
"M&	c #EEEFE7",
"N&	c #F7F3F0",
"O&	c #FFFBEF",
"P&	c #514628",
"Q&	c #534514",
"R&	c #180600",
"S&	c #160E0C",
"T&	c #323115",
"U&	c #373700",
"V&	c #574C00",
"W&	c #6A4D13",
"X&	c #533115",
"Y&	c #332502",
"Z&	c #353B00",
"`&	c #FFFEBD",
" *	c #FFFCCD",
".*	c #FFFFDB",
"+*	c #FFFFCC",
"@*	c #FAFBAD",
"#*	c #FFFFB2",
"$*	c #D3CEA4",
"%*	c #8A7F7B",
"&*	c #7B776E",
"**	c #38342B",
"=*	c #4F4C45",
"-*	c #FFFFF8",
";*	c #F3F2ED",
">*	c #ECEBE6",
",*	c #F0EFEA",
"'*	c #EEEDF2",
")*	c #F7F5F6",
"!*	c #FEF8EA",
"~*	c #39300F",
"{*	c #6A5D26",
"]*	c #675813",
"^*	c #090300",
"/*	c #252200",
"(*	c #231D00",
"_*	c #3A240C",
":*	c #452B00",
"<*	c #736100",
"[*	c #514B00",
"}*	c #24241A",
"|*	c #FFFFCA",
"1*	c #FDF8CE",
"2*	c #FFFFCE",
"3*	c #FFFFBE",
"4*	c #E9E9A1",
"5*	c #EFECB7",
"6*	c #FBF5D5",
"7*	c #2F2B22",
"8*	c #0E0A01",
"9*	c #19150C",
"0*	c #8F8C85",
"a*	c #FFFDF6",
"b*	c #DBDAD5",
"c*	c #F4F3EE",
"d*	c #E7E6E1",
"e*	c #ECE9F2",
"f*	c #F2F0FB",
"g*	c #EBEAF2",
"h*	c #FAF8FB",
"i*	c #FFFCF0",
"j*	c #1C1600",
"k*	c #605720",
"l*	c #746A25",
"m*	c #191700",
"n*	c #160A00",
"o*	c #867A24",
"p*	c #E1D744",
"q*	c #BDB431",
"r*	c #585218",
"s*	c #010004",
"t*	c #F7FAAD",
"u*	c #FFFFB9",
"v*	c #FFFFBF",
"w*	c #FFFEC8",
"x*	c #F4F1C8",
"y*	c #D8D3B6",
"z*	c #EBE4D1",
"A*	c #CFC8B8",
"B*	c #0B0600",
"C*	c #1E1913",
"D*	c #070400",
"E*	c #C7C4BF",
"F*	c #EFEEEA",
"G*	c #ECEBE7",
"H*	c #F6F7F2",
"I*	c #EFEEF4",
"J*	c #E8E7ED",
"K*	c #FCFCFC",
"L*	c #FFFFF6",
"M*	c #0C0600",
"N*	c #453C13",
"O*	c #3C3200",
"P*	c #A3A39B",
"Q*	c #63576F",
"R*	c #150500",
"S*	c #E4DD6B",
"T*	c #C6BE35",
"U*	c #2F2400",
"V*	c #080000",
"W*	c #010000",
"X*	c #D9DE9E",
"Y*	c #E2E7A4",
"Z*	c #F0F4B7",
"`*	c #E2E2BC",
" =	c #D5D1C8",
".=	c #EFE8F0",
"+=	c #FFFCFF",
"@=	c #635F56",
"#=	c #030000",
"$=	c #090601",
"%=	c #14110C",
"&=	c #FBFAF6",
"*=	c #F9F8F4",
"==	c #F1F2ED",
"-=	c #E9EAE5",
";=	c #FEFDF9",
">=	c #090500",
",=	c #352D1A",
"'=	c #E9E6FB",
")=	c #9B9386",
"!=	c #140500",
"~=	c #2B1200",
"{=	c #160000",
"]=	c #0B0000",
"^=	c #595355",
"/=	c #E0DDF0",
"(=	c #FDF9FA",
"_=	c #C6C4B8",
":=	c #D4D3C1",
"<=	c #F1EBF7",
"[=	c #FFFBFF",
"}=	c #EDEAE1",
"|=	c #0F1000",
"1=	c #040000",
"2=	c #0C0805",
"3=	c #23221E",
"4=	c #F8F8F6",
"5=	c #E9E9E7",
"6=	c #EFEFEF",
"7=	c #F3F3E9",
"8=	c #E7E8E0",
"9=	c #FBFBFB",
"0=	c #090502",
"a=	c #1F1714",
"b=	c #474512",
"c=	c #615410",
"d=	c #200700",
"e=	c #0E0000",
"f=	c #7C795A",
"g=	c #FAFCE7",
"h=	c #FBF7FF",
"i=	c #EEECF1",
"j=	c #F7F6F4",
"k=	c #F1EEF5",
"l=	c #EAE5F9",
"m=	c #F1EFF2",
"n=	c #313222",
"o=	c #676664",
"p=	c #F9F9F7",
"q=	c #F1F1F1",
"r=	c #EAECEB",
"s=	c #ECECEC",
"t=	c #EBEDEC",
"u=	c #030301",
"v=	c #29221C",
"w=	c #F4FAF6",
"x=	c #272300",
"y=	c #625507",
"z=	c #988B2F",
"A=	c #423E00",
"B=	c #B3B590",
"C=	c #FEFFF8",
"D=	c #E1E1E1",
"E=	c #EDEFE2",
"F=	c #E8EADF",
"G=	c #EEEFE9",
"H=	c #F7F7F9",
"I=	c #E9E7F4",
"J=	c #E7E4F5",
"K=	c #F7F5FF",
"L=	c #2D2C2A",
"M=	c #181715",
"N=	c #CAC8C9",
"O=	c #E0E0E2",
"P=	c #EEEFF1",
"Q=	c #F3F4F6",
"R=	c #EEE8F4",
"S=	c #F0EFF7",
"T=	c #ECEDF2",
"U=	c #FAFEFF",
"V=	c #FCFFFD",
"W=	c #000100",
"X=	c #040100",
"Y=	c #6A665B",
"Z=	c #F9FCFF",
"`=	c #5E4A17",
" -	c #746417",
".-	c #211900",
"+-	c #E2E0EE",
"@-	c #F6F8FF",
"#-	c #EAEED7",
"$-	c #EAECE9",
"%-	c #F0F1F3",
"&-	c #E7E8EC",
"*-	c #E9EBEA",
"=-	c #EFF2EB",
"--	c #EAEDE4",
";-	c #FDFCFA",
">-	c #F2F0F1",
",-	c #E7E7E7",
"'-	c #F2F3F5",
")-	c #EDEEF0",
"!-	c #E6E7EB",
"~-	c #F0F0F0",
"{-	c #F8F8F8",
"]-	c #646464",
"^-	c #131313",
"/-	c #FFF8FF",
"(-	c #040200",
"_-	c #535523",
":-	c #333705",
"<-	c #262510",
"[-	c #F1EFF4",
"}-	c #F1F0EE",
"|-	c #E8E8E8",
"1-	c #EAEAEA",
"2-	c #F9F9F9",
"3-	c #F9F2F9",
"4-	c #3E3F15",
"5-	c #0E1000",
"6-	c #7C7A6B",
"7-	c #E0DEE3",
"8-	c #F0EFEB",
"9-	c #F2F2F2",
"0-	c #E4DEE2",
"a-	c #060300",
"b-	c #39391D",
"c-	c #030200",
"d-	c #C5C4C0",
"e-	c #FDFAFF",
"f-	c #F4F2F7",
"g-	c #E9EAE4",
"h-	c #E2E2E2",
"i-	c #E4E4E4",
"j-	c #C4C0BF",
"k-	c #0F0D00",
"l-	c #050500",
"m-	c #E7E6EB",
"n-	c #ECEDE7",
"o-	c #F3F3F3",
"p-	c #B5B1B0",
"q-	c #4B494A",
"r-	c #F9F7FF",
"s-	c #F0EEF9",
"t-	c #E9E8ED",
"u-	c #EDF0E9",
"v-	c #F4F4F4",
"w-	c #EBEBEB",
"x-	c #F9F8F6",
"y-	c #151412",
"z-	c #12110F",
"A-	c #BCBCBE",
"B-	c #E6E7EC",
"C-	c #EAEBED",
"D-	c #E9E9E9",
"E-	c #DFDDDE",
"F-	c #D8D7D5",
"G-	c #EDEFEE",
"H-	c #E8E6E9",
"I-	c #E6E9E0",
"J-	c #EBEEE7",
"K-	c #F2F4F1",
"L-	c #E8ECED",
"                                . + @ # $ % & * = - ; > , ; ' )                 ",
"                                ! ~ { ] ^ / ( _ : < [ } | 1 2 2                 ",
"                                3 4 5 6 7 8 9 0 > > a   b b b c                 ",
"                                d e f g h i j k l m n o 1 p o q                 ",
"                                r s t u 8 v w x y z A B C D E F                 ",
"                                ' g G H I J K L M N O P Q < R S                 ",
"                                T T U V W X Y Z `  ...+.- g @.#.                ",
"                                $.%.&.*.=.-.;.>.,.'.).!.~.2 {.].                ",
"^./.(.R ^._.:.<.[.}.|.1.2.3.4.5.6.7.8.9.0.a.b.c.d.e.f.g.h.i.j.k.l.m.n.o.p.q.r.s.",
"t.~ > u.v.w.x.y.z.A.B.C.D.E.F.4 G.H.I.J.K.L.M.N.O.P.Q.y.R.S.T.U.V.W.X.Y.Z.`. +.+",
"++^.E.b @+#+$+%+&+*+=+-+;+>+,+'+)+!+~+{+]+^+/+(+_+:+<+[+}+|+1+2+3+4+5+6+7+8+9+0+",
"a+( b+c+d+e+f+g+h+i+j+k+l+m+$+n+o+p+q+r+s+t+u+v+w+x+y+z+A+B+C+D+E+F+G+H+I+u > J+",
"K+t.L+M+N+O+P+Q+R+S+T+U+V+W+X+>+8 Y+Z+`+ @.@+@@@#@$@%@&@*@=@-@;@>@,@'@)@!@~@a L+",
"{@]@^@/@}.(@_@:@<@[@}@|@1@2@3@4@5@6@7@8@9@0@a@b@c@d@e@f@g@h@i@j@k@l@m@n@o@p@q@r@",
"s@K+t@u@r.v@w@x@y@z@A@B@C@D@E@F@G@H@I@J@K@L@M@N@O@P@Q@R@S@T@U@V@W@X@Y@Z@`@ #.#+#",
"@###$#|.%#&#*#=#-#;#>#,#'#)#!#~#{#]#^#/#(#_#:#<#[#}#|#1#2#3#4#5#6#7#8#9#0#a#b#c#",
"d#e#f#g#h#i#j#k#l#m#n#o#p#q#r#s#t#u#v#w#x#y#z#A#B#C#D#E#F#G#H#I#J#K#L#M#N#O#P#Q#",
"R#S#T#U#V#W#X#Y#Z#`# $.$+$@$#$$$%$&$*$=$-$;$>$,$'$)$!$~${$]$^$/$($_$:$<$[$>+}$|$",
"1$2$3$4$5$6$7$8$9$0$a$b$c$d$e$f$g$h$i$j$k$l$m$n$o$p$q$r$s$t$u$v$w$x$y$z$A$B$C$D$",
"E$F$G$H$I$J$K$L$M$N$O$P$Q$R$S$T$U$V$W$X$Y$Z$`$ %.%+%+%@%#%$%%%&%*%=%-%;%>%,%'%)%",
"!%~%{%]%^%/%(%_%:%<%[%}%|%1%2%3%4%5%6%7%8%9%0%a%b%c%d%e%f%g%h%i%j%k%l%m%n%o%p%q%",
"r%C.s%t%u%v%w%x%y%z%A%B%C%D%E%F%G%H%I%J%K%L%M%N%O%P%Q%R%S%T%U%V%W%X%Y%Z%`%H  &.&",
"+&@&#&$&%&&&8 *&=&-&;&>&#&,&'&)&!&~&{&]&^&/&(&_&:&<&<&[&}&|&1&2&N#3&4&5&6&7&8&9&",
"0&a&b&c&d&e&f&g&h&G i&j&k&l&m&n&o&p&q&r&s&t&u&v&w&x&y&z&A&B&C&D&E&F&G&H&'@I&J&K&",
"                L&M&^.N&O&P&Q&R&S&T&U&V&W&X&Y&Z&`& *.*+*@*#*$*%*&*4$**=*-*;*>*,*",
"                a+u '*)*!*~*{*]*^*/*(*_*:*<*[*}*|*1*@%2*3*4*5*6*7*8*9*0*a*b*c*d*",
"                e*f*g*h*i*j*k*l*m*K$n*o*p*q*r*s*t*u*v*w*x*y*z*A*B*C*D*E*8 F*G*H*",
"                O$I*J*K*L*M*N*O*P*Q*R*S*T*U*V*W*X*Y*Z*`* =.=+=@=#=$=%=&=*===E.++",
"                c*-=++!.;=>=,=L.'=)=!=~={=]=^=/=(=_=:=. <=[=}=|=1=2=3=h 4=5=6=/ ",
"                7=8=t@|.9=0=a=m&B%b=c=d=e=f=g=[.h=i=j=k=l=[=m=n=W*W*o=p=q=r=G { ",
"                4.s=t=B%!.u=D*v=w=x=y=z=A=B=C=D=E=F=G=H=I=J=+=K=L=M=N=8.O=P=Q=D ",
"                R=S=T=U=V=W=X=Y=Z=V*`= -.-+-@-#-$-%-&-*-=---$#|.;->-8.,-'-)-!-R#",
"                ~-  s=~-{-]-^-6=/-(-_-:-<-H [-}-                                ",
"                /.|-h&1-2-8.~-8.3-D*4-5-6-2$7-8-                                ",
"                9-|-6=  ,-h&8.w%0-a-b-c-d-e-f-g-                                ",
"                /.h&/./.9-h-i-8.j-D*k-l-2$2$m-n-                                ",
"                s=6=/.|-q=o-s=2-p-#=W*q-r-s-t-u-                                ",
"                v-,-~-9-q=6=w-T.x-y-z-A-H B-C-l.                                ",
"                ~-q=  |-/.6=D-s=H E-F-p=a&L+& G-                                ",
"                w-    q=/./.9-D-H-H #&o.I-J-K-L-                                "};
