/* XPM */
static char * cube_escape_xpm[] = {
"48 48 139 2",
"  	c None",
". 	c #002300",
"+ 	c #004100",
"@ 	c #004000",
"# 	c #002100",
"$ 	c #003300",
"% 	c #004700",
"& 	c #004800",
"* 	c #004900",
"= 	c #004A00",
"- 	c #003B00",
"; 	c #003A00",
"> 	c #004600",
", 	c #004D00",
"' 	c #004E00",
") 	c #004F00",
"! 	c #005100",
"~ 	c #005200",
"{ 	c #005400",
"] 	c #005600",
"^ 	c #005700",
"/ 	c #005900",
"( 	c #005A00",
"_ 	c #003500",
": 	c #004C00",
"< 	c #005C00",
"[ 	c #005E00",
"} 	c #005F00",
"| 	c #006100",
"1 	c #006200",
"2 	c #002F00",
"3 	c #003C00",
"4 	c #004B00",
"5 	c #005000",
"6 	c #005B00",
"7 	c #006400",
"8 	c #006600",
"9 	c #006700",
"0 	c #006900",
"a 	c #006A00",
"b 	c #002500",
"c 	c #004400",
"d 	c #006300",
"e 	c #006500",
"f 	c #006B00",
"g 	c #006E00",
"h 	c #006F00",
"i 	c #007100",
"j 	c #007200",
"k 	c #005300",
"l 	c #005800",
"m 	c #005D00",
"n 	c #006D00",
"o 	c #007000",
"p 	c #007300",
"q 	c #007500",
"r 	c #007700",
"s 	c #007900",
"t 	c #007A00",
"u 	c #006800",
"v 	c #006C00",
"w 	c #007400",
"x 	c #007B00",
"y 	c #007C00",
"z 	c #007F00",
"A 	c #008100",
"B 	c #008200",
"C 	c #007800",
"D 	c #008500",
"E 	c #008600",
"F 	c #008900",
"G 	c #008A00",
"H 	c #008300",
"I 	c #008C00",
"J 	c #008E00",
"K 	c #009000",
"L 	c #009100",
"M 	c #009200",
"N 	c #007600",
"O 	c #008000",
"P 	c #008D00",
"Q 	c #009300",
"R 	c #009600",
"S 	c #009800",
"T 	c #009900",
"U 	c #009A00",
"V 	c #008700",
"W 	c #009400",
"X 	c #009B00",
"Y 	c #009E00",
"Z 	c #00A000",
"` 	c #00A100",
" .	c #00A200",
"..	c #009700",
"+.	c #00A500",
"@.	c #00A800",
"#.	c #00A900",
"$.	c #00AA00",
"%.	c #009D00",
"&.	c #00A600",
"*.	c #00AD00",
"=.	c #00B000",
"-.	c #00B100",
";.	c #00B200",
">.	c #00A300",
",.	c #00B400",
"'.	c #00B700",
").	c #00B900",
"!.	c #00BA00",
"~.	c #00AE00",
"{.	c #00B800",
"].	c #00BC00",
"^.	c #00BF00",
"/.	c #00C100",
"(.	c #00C200",
"_.	c #00C300",
":.	c #00C600",
"<.	c #00C900",
"[.	c #00CA00",
"}.	c #00C000",
"|.	c #00C500",
"1.	c #00CE00",
"2.	c #00D100",
"3.	c #00D200",
"4.	c #00CB00",
"5.	c #00D000",
"6.	c #00D500",
"7.	c #00D800",
"8.	c #00D900",
"9.	c #00D600",
"0.	c #00DB00",
"a.	c #00E000",
"b.	c #00E100",
"c.	c #00E200",
"d.	c #00E700",
"e.	c #00E900",
"f.	c #00ED00",
"g.	c #00F100",
"h.	c #00F800",
"                                      . + @ + + + + @ + .                                       ",
"                              # $ % & & & * = = = = * & & & % $ #                               ",
"                          - ; > & = , ' ) ! ~ ~ ~ ~ ! ) ' , = & > ; -                           ",
"                        & > * , ) ~ { ] ^ / ( ( ( ( / ^ ] { ~ ) , * > &                         ",
"                    _ * & : ! { ^ ( < [ } | 1 1 1 1 | } [ < ( ^ { ! : & * _                     ",
"                2 3 & 4 5 { ^ 6 } | 7 8 9 0 a a a a 0 9 8 7 | } 6 ^ { 5 4 & 3 2                 ",
"              b c & , ~ ^ 6 } d e 0 f g h i j j j j i h g f 0 e d } 6 ^ ~ , & c b               ",
"            b & * ' k l m 1 8 a n o p q r s t t t t s r q p o n a 8 1 m l k ' * & b             ",
"          2 c * ) { ( } d u v o w r x y z A B B B B A z y x r w o v u d } ( { ) * c 2           ",
"          3 & ' { ( } e a h w C x z B D E F F G G F F E D B z x C w h a e } ( { ' & 3           ",
"        _ & , k ( } 8 f o q t z H E F I J K L M M L K J I F E H z t q o f 8 } ( k , & _         ",
"        * 4 ~ l } e f o N y O D F P L Q R S T U U T S R Q L P F D O y N o f e } l ~ 4 *         ",
"      & & 5 ^ m d a o N y A V I K W S X Y Z `  . .` Z Y X S W K I V A y N o a d m ^ 5 & &       ",
"    - > : { 6 1 u h q y A V P M ..X Z  .+.@.#.$.$.#.@.+. .Z X ..M P V A y q h u 1 6 { : > -     ",
"    ; * ! ^ } 8 v w t O V P M S %. .&.$.*.=.-.;.;.-.=.*.$.&. .%.S M P V O t w v 8 } ^ ! * ;     ",
"  # > , { 6 d a o C z D I M S Y >.#.*.-.,.'.).!.!.).'.,.-.*.#.>.Y S M I D z C o a d 6 { , > #   ",
"  $ & ) ^ } e n w x H F K ..%.>.#.~.,.{.].^./.(.(./.^.].{.,.~.#.>.%...K F H x w n e } ^ ) & $   ",
"  % = ~ ( | 0 o r z E P W X  .#.~.,.).^._.:.<.[.[.<.:._.^.).,.~.#. .X W P E z r o 0 | ( ~ = %   ",
"  & , { < 7 f p x B F L S Z &.*.,.).}.|.[.1.2.3.3.2.1.[.|.}.).,.*.&.Z S L F B x p f 7 < { , &   ",
". & ' ] [ 8 g q y D I Q X  .$.-.{.^.|.4.5.6.7.8.8.7.6.5.4.|.^.{.-.$. .X Q I D y q g 8 [ ] ' & . ",
"+ & ) ^ } 9 h r z E J R Y +.*.,.]._.[.5.9.0.a.b.b.a.0.9.5.[._.].,.*.+.Y R J E z r h 9 } ^ ) & + ",
"@ * ! / | 0 i s A F K S Z @.=.'.^.:.1.6.0.c.d.e.e.d.c.0.6.1.:.^.'.=.@.Z S K F A s i 0 | / ! * @ ",
"+ = ~ ( 1 a j t B F L T ` #.-.)./.<.2.7.a.d.f.g.g.f.d.a.7.2.<./.).-.#.` T L F B t j a 1 ( ~ = + ",
"+ = ~ ( 1 a j t B G M U  .$.;.!.(.[.3.8.b.e.g.h.h.g.e.b.8.3.[.(.!.;.$. .U M G B t j a 1 ( ~ = + ",
"+ = ~ ( 1 a j t B G M U  .$.;.!.(.[.3.8.b.e.g.h.h.g.e.b.8.3.[.(.!.;.$. .U M G B t j a 1 ( ~ = + ",
"+ = ~ ( 1 a j t B F L T ` #.-.)./.<.2.7.a.d.f.g.g.f.d.a.7.2.<./.).-.#.` T L F B t j a 1 ( ~ = + ",
"@ * ! / | 0 i s A F K S Z @.=.'.^.:.1.6.0.c.d.e.e.d.c.0.6.1.:.^.'.=.@.Z S K F A s i 0 | / ! * @ ",
"+ & ) ^ } 9 h r z E J R Y +.*.,.]._.[.5.9.0.a.b.b.a.0.9.5.[._.].,.*.+.Y R J E z r h 9 } ^ ) & + ",
". & ' ] [ 8 g q y D I Q X  .$.-.{.^.|.4.5.6.7.8.8.7.6.5.4.|.^.{.-.$. .X Q I D y q g 8 [ ] ' & . ",
"  & , { < 7 f p x B F L S Z &.*.,.).}.|.[.1.2.3.3.2.1.[.|.}.).,.*.&.Z S L F B x p f 7 < { , &   ",
"  % = ~ ( | 0 o r z E P W X  .#.~.,.).^._.:.<.[.[.<.:._.^.).,.~.#. .X W P E z r o 0 | ( ~ = %   ",
"  $ & ) ^ } e n w x H F K ..%.>.#.~.,.{.].^./.(.(./.^.].{.,.~.#.>.%...K F H x w n e } ^ ) & $   ",
"  # > , { 6 d a o C z D I M S Y >.#.*.-.,.'.).!.!.).'.,.-.*.#.>.Y S M I D z C o a d 6 { , > #   ",
"    ; * ! ^ } 8 v w t O V P M S %. .&.$.*.=.-.;.;.-.=.*.$.&. .%.S M P V O t w v 8 } ^ ! * ;     ",
"    - > : { 6 1 u h q y A V P M ..X Z  .+.@.#.$.$.#.@.+. .Z X ..M P V A y q h u 1 6 { : > -     ",
"      & & 5 ^ m d a o N y A V I K W S X Y Z `  . .` Z Y X S W K I V A y N o a d m ^ 5 & &       ",
"        * 4 ~ l } e f o N y O D F P L Q R S T U U T S R Q L P F D O y N o f e } l ~ 4 *         ",
"        _ & , k ( } 8 f o q t z H E F I J K L M M L K J I F E H z t q o f 8 } ( k , & _         ",
"          3 & ' { ( } e a h w C x z B D E F F G G F F E D B z x C w h a e } ( { ' & 3           ",
"          2 c * ) { ( } d u v o w r x y z A B B B B A z y x r w o v u d } ( { ) * c 2           ",
"            b & * ' k l m 1 8 a n o p q r s t t t t s r q p o n a 8 1 m l k ' * & b             ",
"              b c & , ~ ^ 6 } d e 0 f g h i j j j j i h g f 0 e d } 6 ^ ~ , & c b               ",
"                2 3 & 4 5 { ^ 6 } | 7 8 9 0 a a a a 0 9 8 7 | } 6 ^ { 5 4 & 3 2                 ",
"                    _ * & : ! { ^ ( < [ } | 1 1 1 1 | } [ < ( ^ { ! : & * _                     ",
"                        & > * , ) ~ { ] ^ / ( ( ( ( / ^ ] { ~ ) , * > &                         ",
"                          - ; > & = , ' ) ! ~ ~ ~ ~ ! ) ' , = & > ; -                           ",
"                              # $ % & & & * = = = = * & & & % $ #                               ",
"                                      . + @ + + + + @ + .                                       "};
