/* XPM */
static char *warzone______[] = {
/* columns rows colors chars-per-pixel */
"32 32 189 2",
"   c #000000",
".  c #000008",
"X  c #000810",
"o  c #080810",
"O  c #000018",
"+  c #000818",
"@  c #080818",
"#  c #081018",
"$  c #101018",
"%  c #181818",
"&  c #081020",
"*  c #001028",
"=  c #101820",
"-  c #101828",
";  c #181828",
":  c #081830",
">  c #101830",
",  c #182028",
"<  c #182030",
"1  c #102038",
"2  c #182038",
"3  c #182838",
"4  c #202830",
"5  c #282830",
"6  c #202838",
"7  c #282838",
"8  c #283030",
"9  c #283038",
"0  c #182840",
"q  c #182848",
"w  c #202840",
"e  c #283040",
"r  c #203048",
"t  c #283048",
"y  c #203848",
"u  c #283848",
"i  c #303840",
"p  c #303848",
"a  c #283850",
"s  c #283858",
"d  c #303850",
"f  c #303858",
"g  c #303860",
"h  c #304048",
"j  c #384050",
"k  c #304058",
"l  c #384058",
"z  c #384858",
"x  c #384060",
"c  c #384860",
"v  c #304868",
"b  c #384868",
"n  c #404850",
"m  c #404858",
"M  c #485058",
"N  c #585050",
"B  c #505058",
"V  c #404860",
"C  c #485060",
"Z  c #485860",
"A  c #405068",
"S  c #485068",
"D  c #485868",
"F  c #505860",
"G  c #505868",
"H  c #485070",
"J  c #405870",
"K  c #485870",
"L  c #485878",
"P  c #586068",
"I  c #486078",
"U  c #406878",
"Y  c #586070",
"T  c #586870",
"R  c #506078",
"E  c #506878",
"W  c #586878",
"Q  c #606068",
"!  c #606870",
"~  c #606878",
"^  c #687070",
"/  c #687078",
"(  c #486080",
")  c #506880",
"_  c #586880",
"`  c #506888",
"'  c #586888",
"]  c #587080",
"[  c #587088",
"{  c #587890",
"}  c #687080",
"|  c #687880",
" . c #607088",
".. c #687888",
"X. c #707880",
"o. c #707888",
"O. c #607890",
"+. c #708088",
"@. c #688090",
"#. c #608098",
"$. c #788090",
"%. c #708098",
"&. c #708898",
"*. c #5880A0",
"=. c #6080A0",
"-. c #6088A8",
";. c #7088A0",
":. c #6890A8",
">. c #7890A8",
",. c #6898B8",
"<. c #78A0B0",
"1. c #60A0C0",
"2. c #808080",
"3. c #808088",
"4. c #888890",
"5. c #808898",
"6. c #888898",
"7. c #889098",
"8. c #909098",
"9. c #8890A0",
"0. c #9098A8",
"q. c #98A0A0",
"w. c #98A0A8",
"e. c #80A0B8",
"r. c #88A0B8",
"t. c #90A8B8",
"y. c #98A8B8",
"u. c #98B0B8",
"i. c #A0A0A0",
"p. c #A0A0A8",
"a. c #A0A8A8",
"s. c #A8A8A8",
"d. c #A0A8B0",
"f. c #A8A8B0",
"g. c #A8B0B0",
"h. c #80A0C0",
"j. c #80A8C0",
"k. c #88B0C8",
"l. c #98B0C0",
"z. c #90B8C8",
"x. c #98B8C8",
"c. c #88B8D0",
"v. c #80B8D8",
"b. c #88B8D8",
"n. c #90B8D0",
"m. c #A8B8C0",
"M. c #A8B8C8",
"N. c #B0B8C0",
"B. c #A0B8D0",
"V. c #A8B8D0",
"C. c #B8C0C8",
"Z. c #A8C0D0",
"A. c #B8C0D0",
"S. c #B0C8D0",
"D. c #B8C8D0",
"F. c #A0C0E0",
"G. c #A8C8E0",
"H. c #B8D0E8",
"J. c #B8D8E8",
"K. c #B8D8F0",
"L. c #80E0FF",
"P. c #A0E0FF",
"I. c #C8D0D0",
"U. c #C8D8D8",
"Y. c #C8E0E8",
"T. c #D0E0E8",
"R. c #D8E0E8",
"E. c #D8E8E8",
"W. c #C8E0F0",
"Q. c #C0E0F8",
"!. c #C0E0FF",
"~. c #C8E8FF",
"^. c #D0E8F0",
"/. c #D8E8F0",
"(. c #D0E8F8",
"). c #C8F8FF",
"_. c #D0F0F8",
"`. c #D8F0F8",
"'. c #E0E8F0",
"]. c #E0F0F8",
"[. c #E8F0FF",
"{. c #E0F8FF",
"}. c #E0FFFF",
"|. c #E8F8F8",
" X c #E8F8FF",
".X c #F0F8FF",
"XX c #F8FFFF",
"oX c #FFFFFF",
"OX c None",
/* pixels */
"OXOXOXOXOXOXOXOXOXOXOXOXOXOXOXOXOXOXOXOXOXOXOXOXOXOXOXOXOXOXOXOX",
"OXOXOXOXw.w.a.a.a.a.a.a.a.a.f.f.f.f.f.f.f.f.a.a.w.w.w.w.OXOXOXOX",
"OXOXw.m.{.]. X X X].]. X X.XXX.X.X X[.[.[.].`.(.(.(.(.{.m.w.OXOX",
"OXw.|.XXq.8.i.g.g.p.q.i.i.s.s.f.w.8.a.d.q.8.q.q.i.q.4.4.J.).w.OX",
"w.Q.T.N Q C.C.4.3.7.C.I.C.6.5.9.m.D.d.3.w.U.D.Z.B.l.z.P 8 u.}.w.",
"w.F.] 8 9.XX X0.9.m. XXXXXd.9.7.'.oXN.2.A.{.W.^.^.`.XX$.% F T.w.",
"w.G.} 7 0.{./.6.$.7.].XX|.7.X.3.R.oXg.X.3.2.3.2.N.oX.X} @ G Z.w.",
"w.Y./ & W  X/.P j F /..X].Y i m T.oX9.m Y Y Y Y D.{.B.3 2 D B.w.",
"w.Y.Y   G {.H.p 0 u G.K.H.z a k V.{.%.a K t & R Q.!.R > 6 z h.w.",
"w.G.G . ] _.Z.p x ) F.H.F.K c z ,.P.` - w r # *.L.,.e t 6 j ,.w.",
"w.Y.F > %._.S.S ` _ G.Q.G.c t k ,.P.J X w e a v.P.=.t H c M A.w.",
"w.T.F a ;._.Z.6 0 k J.~.Y.z r r Z.XX+.2 z > 5.oXoX5.g c A n M.w.",
"w.E.B * O.`.S.= 1 A /. X/.A s V U.oXm.,.` q M..XZ.e 6 < < p j.w.",
"w.H.j O o..XI.p v C .XXXU.@.>.' B.!.e._ t A G.~.O.. 6 6 < i z.w.",
"w.c.p < %.(.l.c e.;.F.F.v.A c A b.!.] > : 9.{.Q.h @ - 6 w i x.w.",
"w.F.i K <.v.v.c K &.G.!.W.S . C {.{.W * c W._.k.a L _ A g j k.w.",
"w.n.j l z G.{.!   V. XM.~.:.. O.!.b.J H #.F.F.#.f x K l k p h.w.",
"w.z.9 - @ r._.l.@.).O.+ -.P.>.F.~.>.R r.B.~.K.H.Z.x.x.E X 9 Z.w.",
"w.A., 2 r p <.c.P.:.) ;.R S.{.K.x.K L c >.W.S.H.G.x.B.@.X , l.w.",
"w.B.= a I d m D Z A [ @.( c z y - r z e 6 4 6 - 6 6 4 4 6 5 j.w.",
"w.c.O.= K [ I k { v.v.j.b.F.F.G.H.G.B.b.j.k.c.;.r c b c j [ 1.w.",
"OXw.I.+.& 1 < >.Z.>.O.;.<.r.>.e.:.*.,.j.r.r.>.x.k.K t ; U c.w.OX",
"OXOXw.I.^ 4 u.I.n + i M w S X.K W ~  .R K E 3 , <.k.c T D.w.OXOX",
"OXOXOXw.I.I.y.p a m U.U.:.f E.*.:.E.:.) :.E.:.& > ..S.I./ OXOXOX",
"OXOXOXOXw.w.N., R %.l %.U.. U.R U.j U...U.< U.w < 9.B.w.OXOXOXOX",
"OXOXOXOXOXOXZ.&.. a G D.= . D.z D.j D.T D.< D.- Y I.w.OXOXOXOXOX",
"OXOXOXOXOXOX/ I.h @ N.N.N.X D.l :.D.:.j :.D.:.4 S./ OXOXOXOXOXOX",
"OXOXOXOXOXOXOX/ C.$ i M m - 9 o $ 5 $ @ 4 9 . @.S./ OXOXOXOXOXOX",
"OXOXOXOXOXOXOX/ I.t.~ ..+.5...+.+.| o.+.} ] %.D./ OXOXOXOXOXOXOX",
"OXOXOXOXOXOXOXOX/ m.l.y.y.y.t.t.t.t.t.r.r.r.t./ OXOXOXOXOXOXOXOX",
"OXOXOXOXOXOXOXOXOX/ / / / / / / / / / / / / / OXOXOXOXOXOXOXOXOX",
"OXOXOXOXOXOXOXOXOXOXOXOXOXOXOXOXOXOXOXOXOXOXOXOXOXOXOXOXOXOXOXOX"
};
