/* XPM */
static char *warzone______[] = {
/* columns rows colors chars-per-pixel */
"16 16 122 2",
"   c #000000",
".  c #172035",
"X  c #182135",
"o  c #182136",
"O  c #182236",
"+  c #192237",
"@  c #1B253A",
"#  c #1C263B",
"$  c #1B253C",
"%  c #1B253D",
"&  c #1B253E",
"*  c #1D273C",
"=  c #1C263D",
"-  c #1C263E",
";  c #1E283C",
":  c #1E293D",
">  c #1D2740",
",  c #1E2941",
"<  c #1F2942",
"1  c #1F2A43",
"2  c #202B42",
"3  c #212C40",
"4  c #222D41",
"5  c #212C43",
"6  c #242F43",
"7  c #202B44",
"8  c #222D44",
"9  c #232F46",
"0  c #242F45",
"q  c #253044",
"w  c #253145",
"e  c #273346",
"r  c #243048",
"t  c #273348",
"y  c #27344C",
"u  c #293548",
"i  c #28354D",
"p  c #28354E",
"a  c #29354E",
"s  c #29364E",
"d  c #2A374F",
"f  c #2C394C",
"g  c #2D3A4F",
"h  c #2E3A4E",
"j  c #2A3750",
"k  c #2B3851",
"l  c #2F3D52",
"z  c #303D50",
"x  c #313F52",
"c  c #313F54",
"v  c #313F55",
"b  c #334154",
"n  c #344256",
"m  c #344357",
"M  c #364457",
"N  c #37465A",
"B  c #384759",
"V  c #38475B",
"C  c #39485B",
"Z  c #3A495B",
"A  c #3A495C",
"S  c #3A4A5D",
"D  c #3E4D5F",
"F  c #3B4B60",
"G  c #3F4E61",
"H  c #3F4F61",
"J  c #3F4F62",
"K  c #3E4E63",
"L  c #3F4F63",
"P  c #415163",
"I  c #425264",
"U  c #435366",
"Y  c #445567",
"T  c #465768",
"R  c #47586A",
"E  c #47596B",
"W  c #495A6C",
"Q  c #495B6C",
"!  c #4A5B6D",
"~  c #4B5D6E",
"^  c #4B5E6F",
"/  c #4C5E6F",
"(  c #4C5E70",
")  c #5F798F",
"_  c #7D8798",
"`  c #7694A9",
"'  c #8E9BAD",
"]  c #84A2B7",
"[  c #88A7BC",
"{  c #95A3B2",
"}  c #9AA5B7",
"|  c #8DADC3",
" . c #93B2C6",
".. c #97B7CC",
"X. c #9BBDD4",
"o. c #B4BED0",
"O. c #9EC1D8",
"+. c #9FC2D9",
"@. c #99C6E0",
"#. c #9DC7E1",
"$. c #A0C9E0",
"%. c #A7CCE3",
"&. c #ADD1E6",
"*. c #B0D0E6",
"=. c #B6D5E7",
"-. c #C7D2E1",
";. c #CAD4E3",
":. c #CBD6E4",
">. c #CCD8E6",
",. c #C5DAED",
"<. c #CFD8E9",
"1. c #D0D9EA",
"2. c #D2DAEB",
"3. c #D2DBEC",
"4. c #CEE1EF",
"5. c #DAE6F3",
"6. c #DAE6F4",
"7. c #DBE6F4",
"8. c #DCE4F5",
"9. c #DCE6F4",
"0. c #E7EDF8",
"q. c None",
/* pixels */
"  0.0.0.0.0.0.0.0.0.0.0.0.0.0.  ",
"4.$ $ , r y p k y r 1 $ $ $ t 4.",
"=.5 =.p =.=.y =., =.=.=.=.=.E =.",
"5.p 7.p 5.5.> 5.$ 8 l L 5.>.R 6.",
"5.p 7.1 7.7.$ 7.m L ^ 6.7.V f 5.",
"&.2 &.$ &.&.V &.^ ^ ..&. .: . &.",
"@.$ @.g @.@.( @.L b +.@.. . # @.",
"9.c 7.~ 7.7.Z 7.1 -.7.O : q g 6.",
"9./ { 9.:.;.9._ O 7.7.7.7.7.H 7.",
"q.G M e @ o o @ 3 u b S H E ^ q.",
"$.6 ) $.$.$.$.$.+.+.$.#.$.` S $.",
"q.q.,.: w h M G R ^ ( ^ m ,.q.q.",
"  9.8.z } 1.o.' 3.1.1.1.: 7.8.  ",
"q.q.%.I | X.[ ] +.O.O.+.F %.q.q.",
"    #.( W V 9 $ 8 b K K A #.    ",
"q.q.q.*.*.*.*.*.*.*.*.*.*.q.q.q."
};
