/* XPM */
static char * performous_32x32_xpm[] = {
"32 32 697 2",
"  	c None",
". 	c #34565E",
"+ 	c #33535B",
"@ 	c #315159",
"# 	c #2F4E56",
"$ 	c #2D4B53",
"% 	c #2B484F",
"& 	c #29444C",
"* 	c #274147",
"= 	c #243D43",
"- 	c #22393F",
"; 	c #1F353A",
"> 	c #1C3035",
", 	c #1A2C30",
"' 	c #1A2B2E",
") 	c #223033",
"! 	c #374144",
"~ 	c #444C4E",
"{ 	c #303637",
"] 	c #131718",
"^ 	c #040707",
"/ 	c #010101",
"( 	c #000000",
"_ 	c #3C616A",
": 	c #3B5F68",
"< 	c #395C65",
"[ 	c #375A63",
"} 	c #355760",
"| 	c #33545C",
"1 	c #315058",
"2 	c #2F4D55",
"3 	c #2C4951",
"4 	c #2A454C",
"5 	c #274148",
"6 	c #274046",
"7 	c #31474C",
"8 	c #4C5D61",
"9 	c #768285",
"0 	c #A7ADAF",
"a 	c #A6A9AA",
"b 	c #959A9B",
"c 	c #495153",
"d 	c #141C1E",
"e 	c #080E0F",
"f 	c #040708",
"g 	c #010202",
"h 	c #446C76",
"i 	c #426A73",
"j 	c #416771",
"k 	c #3F656E",
"l 	c #3D626B",
"m 	c #375962",
"n 	c #34555E",
"o 	c #32525A",
"p 	c #325057",
"q 	c #455F65",
"r 	c #78898E",
"s 	c #AEB8BA",
"t 	c #B7BABC",
"u 	c #878888",
"v 	c #232323",
"w 	c #646666",
"x 	c #828A8C",
"y 	c #2A3739",
"z 	c #101C1E",
"A 	c #0C1417",
"B 	c #040808",
"C 	c #010203",
"D 	c #4C7681",
"E 	c #4A747F",
"F 	c #49727D",
"G 	c #47707A",
"H 	c #456D78",
"I 	c #436B74",
"J 	c #3F646E",
"K 	c #3A5E67",
"L 	c #43646C",
"M 	c #7B9096",
"N 	c #B2BABC",
"O 	c #616263",
"P 	c #353535",
"Q 	c #4B4C4C",
"R 	c #737373",
"S 	c #454646",
"T 	c #A0A8AA",
"U 	c #445458",
"V 	c #1E2E32",
"W 	c #19272B",
"X 	c #142023",
"Y 	c #0D1619",
"Z 	c #080F11",
"` 	c #050809",
" .	c #010303",
"..	c #537F8B",
"+.	c #527E89",
"@.	c #507C88",
"#.	c #4F7A85",
"$.	c #4D7882",
"%.	c #4B7580",
"&.	c #476F7A",
"*.	c #436973",
"=.	c #54767E",
"-.	c #A1B3B7",
";.	c #7C7F7F",
">.	c #050505",
",.	c #696A6A",
"'.	c #DFE1E2",
").	c #E9EBEB",
"!.	c #7F8080",
"~.	c #BFC4C6",
"{.	c #78878A",
"].	c #4F6064",
"^.	c #4F5E62",
"/.	c #38474B",
"(.	c #19282B",
"_.	c #101C1F",
":.	c #0C1518",
"<.	c #040809",
"[.	c #5A8995",
"}.	c #598793",
"|.	c #588692",
"1.	c #56848F",
"2.	c #54818D",
"3.	c #517C88",
"4.	c #4C7781",
"5.	c #597E88",
"6.	c #A0B5BA",
"7.	c #9C9FA1",
"8.	c #060606",
"9.	c #6D6E6E",
"0.	c #E5E8EA",
"a.	c #E4E8E9",
"b.	c #F7F8F9",
"c.	c #E6E8E9",
"d.	c #BFC5C7",
"e.	c #B8C0C2",
"f.	c #B4BCBE",
"g.	c #768487",
"h.	c #2B3E42",
"i.	c #192A2E",
"j.	c #142327",
"k.	c #080E10",
"l.	c #62929E",
"m.	c #61909C",
"n.	c #5F8F9B",
"o.	c #5E8D99",
"p.	c #5C8B97",
"q.	c #5B8995",
"r.	c #598692",
"s.	c #58818C",
"t.	c #8AA6AD",
"u.	c #C4CCCF",
"v.	c #323232",
"w.	c #212121",
"x.	c #7B7C7C",
"y.	c #E5E6E7",
"z.	c #A8A8A9",
"A.	c #555555",
"B.	c #343535",
"C.	c #A0A1A1",
"D.	c #BDBFC0",
"E.	c #A6B1B3",
"F.	c #43585E",
"G.	c #21373D",
"H.	c #182A2E",
"I.	c #142226",
"J.	c #101B1F",
"K.	c #0B1516",
"L.	c #070D0F",
"M.	c #030606",
"N.	c #699AA7",
"O.	c #6899A6",
"P.	c #6798A4",
"Q.	c #6696A3",
"R.	c #6495A1",
"S.	c #62939F",
"T.	c #60909C",
"U.	c #5F8E9A",
"V.	c #5A8894",
"W.	c #5A8692",
"X.	c #7499A2",
"Y.	c #BECFD3",
"Z.	c #A1A3A4",
"`.	c #1F1F1F",
" +	c #2B2B2B",
".+	c #3E3E3E",
"++	c #4A4A4A",
"@+	c #C3CBCD",
"#+	c #60767B",
"$+	c #2C464E",
"%+	c #243C43",
"&+	c #20363B",
"*+	c #1C3034",
"=+	c #17282D",
"-+	c #132225",
";+	c #0F1A1D",
">+	c #0B1315",
",+	c #71A3B0",
"'+	c #70A2AF",
")+	c #6FA1AD",
"!+	c #6EA0AC",
"~+	c #6C9EAA",
"{+	c #6A9CA8",
"]+	c #699AA6",
"^+	c #6697A4",
"/+	c #759DA7",
"(+	c #BACED3",
"_+	c #BDC0C1",
":+	c #272727",
"<+	c #333434",
"[+	c #CCD3D5",
"}+	c #72898F",
"|+	c #36545C",
"1+	c #284349",
"2+	c #243C42",
"3+	c #20353B",
"4+	c #1B2F34",
"5+	c #17272C",
"6+	c #132124",
"7+	c #78ABB8",
"8+	c #77AAB7",
"9+	c #76A9B6",
"0+	c #75A8B5",
"a+	c #74A6B3",
"b+	c #73A5B1",
"c+	c #6FA0AD",
"d+	c #6C9EAB",
"e+	c #6A9BA8",
"f+	c #6E9CA8",
"g+	c #92B4BD",
"h+	c #CAD6D9",
"i+	c #4C4D4D",
"j+	c #181818",
"k+	c #373838",
"l+	c #CED6D8",
"m+	c #728D94",
"n+	c #3D5E67",
"o+	c #34555D",
"p+	c #304F57",
"q+	c #274248",
"r+	c #233B41",
"s+	c #1F3439",
"t+	c #1A2D32",
"u+	c #7FB2BF",
"v+	c #7FB1BF",
"w+	c #7EB0BE",
"x+	c #7DAFBD",
"y+	c #7CAFBB",
"z+	c #7AADBA",
"A+	c #74A7B4",
"B+	c #73A5B2",
"C+	c #83AEB9",
"D+	c #B9D1D7",
"E+	c #ADB2B3",
"F+	c #202020",
"G+	c #0C0C0C",
"H+	c #D2DBDD",
"I+	c #79959C",
"J+	c #466B75",
"K+	c #385A63",
"L+	c #34545D",
"M+	c #2B474E",
"N+	c #264047",
"O+	c #86B9C6",
"P+	c #86B8C5",
"Q+	c #85B8C5",
"R+	c #84B7C4",
"S+	c #83B6C3",
"T+	c #82B5C2",
"U+	c #80B3C0",
"V+	c #7CAFBC",
"W+	c #82B1BE",
"X+	c #A4C6CF",
"Y+	c #D5E2E5",
"Z+	c #636464",
"`+	c #080808",
" @	c #161616",
".@	c #919191",
"+@	c #DDE3E4",
"@@	c #A5BAC0",
"#@	c #6A8C94",
"$@	c #4F747D",
"%@	c #476B74",
"&@	c #43666E",
"*@	c #3A5C64",
"=@	c #2E4C53",
"-@	c #29454C",
";@	c #8DC0CC",
">@	c #8DBFCC",
",@	c #8CBFCB",
"'@	c #8BBECB",
")@	c #8BBDCA",
"!@	c #89BCC9",
"~@	c #88BAC7",
"{@	c #87B9C5",
"]@	c #9CC4CE",
"^@	c #CCE0E6",
"/@	c #A1A5A6",
"(@	c #0E0E0E",
"_@	c #040404",
":@	c #3C3D3D",
"<@	c #2A2A2A",
"[@	c #070707",
"}@	c #090909",
"|@	c #575858",
"1@	c #A8AFB1",
"2@	c #B0C2C6",
"3@	c #8AA5AC",
"4@	c #829EA5",
"5@	c #7D989E",
"6@	c #5A7A82",
"7@	c #3E616A",
"8@	c #94C5D2",
"9@	c #93C5D2",
"0@	c #93C5D1",
"a@	c #92C4D0",
"b@	c #91C3CF",
"c@	c #90C2CE",
"d@	c #8EC0CD",
"e@	c #97C4D0",
"f@	c #C0DBE2",
"g@	c #C1C9CB",
"h@	c #252626",
"i@	c #4C4E4E",
"j@	c #DAE2E3",
"k@	c #C9D2D4",
"l@	c #9B9FA0",
"m@	c #3B3B3B",
"n@	c #0D0D0D",
"o@	c #898C8D",
"p@	c #BFC8CA",
"q@	c #ADB7B9",
"r@	c #98AEB4",
"s@	c #5A7C84",
"t@	c #3F646D",
"u@	c #385B64",
"v@	c #9ACBD7",
"w@	c #9BCBD8",
"x@	c #99CAD7",
"y@	c #99C9D6",
"z@	c #97C8D4",
"A@	c #ABD2DC",
"B@	c #DCEBEF",
"C@	c #696B6B",
"D@	c #191919",
"E@	c #AFB8BA",
"F@	c #B9D3DA",
"G@	c #A9C8D0",
"H@	c #C3D8DD",
"I@	c #CDD7D9",
"J@	c #383939",
"K@	c #101010",
"L@	c #4F5050",
"M@	c #8D8F8F",
"N@	c #CBD4D7",
"O@	c #4F757E",
"P@	c #406670",
"Q@	c #A1D0DC",
"R@	c #A1D1DD",
"S@	c #A1D0DD",
"T@	c #A0CFDB",
"U@	c #9FCEDB",
"V@	c #B4D9E2",
"W@	c #DDEAED",
"X@	c #636465",
"Y@	c #030303",
"Z@	c #949798",
"`@	c #C8DEE4",
" #	c #95BFCA",
".#	c #84B3BF",
"+#	c #8DB8C2",
"@#	c #A7C7CF",
"##	c #C2D7DD",
"$#	c #D8E5E8",
"%#	c #ACB2B3",
"&#	c #555656",
"*#	c #0F0F0F",
"=#	c #595C5D",
"-#	c #ABC0C6",
";#	c #5F848F",
">#	c #48717B",
",#	c #A7D5E0",
"'#	c #A8D5E1",
")#	c #A8D6E2",
"!#	c #A7D5E1",
"~#	c #A6D4E0",
"{#	c #B1D9E3",
"]#	c #D9ECF2",
"^#	c #9C9F9F",
"/#	c #020202",
"(#	c #D3DDE0",
"_#	c #AFD2DA",
":#	c #8DBDC9",
"<#	c #84B6C4",
"[#	c #81B3C0",
"}#	c #82B2BF",
"|#	c #89B5C0",
"1#	c #96BCC5",
"2#	c #B0CBD2",
"3#	c #CDDEE2",
"4#	c #CFD6D8",
"5#	c #7B7D7E",
"6#	c #AEB7B9",
"7#	c #9DB7BE",
"8#	c #618A94",
"9#	c #ACD9E4",
"0#	c #ADDAE5",
"a#	c #AEDAE6",
"b#	c #AEDAE5",
"c#	c #ADD9E5",
"d#	c #B4DCE6",
"e#	c #D7EDF2",
"f#	c #CEDCE0",
"g#	c #A9D0DA",
"h#	c #91C2CE",
"i#	c #87BAC7",
"j#	c #84B6C3",
"k#	c #80B2C0",
"l#	c #7FB0BD",
"m#	c #82B0BC",
"n#	c #90B7C2",
"o#	c #ABC8CF",
"p#	c #B9CFD4",
"q#	c #A5C1C8",
"r#	c #78A0AB",
"s#	c #5E8B97",
"t#	c #56838F",
"u#	c #B1DCE7",
"v#	c #B3DDE8",
"w#	c #B4DEE9",
"x#	c #B5DEE9",
"y#	c #B5DFEA",
"z#	c #B5DFE9",
"A#	c #BAE0EA",
"B#	c #D8EEF4",
"C#	c #A6AAAB",
"D#	c #737677",
"E#	c #D2E8EE",
"F#	c #A7D2DD",
"G#	c #98C8D5",
"H#	c #8FC1CE",
"I#	c #87B9C6",
"J#	c #7FB1BE",
"K#	c #7DAEBB",
"L#	c #80AFBA",
"M#	c #83AFBA",
"N#	c #79A6B1",
"O#	c #6A9AA6",
"P#	c #5D8B98",
"Q#	c #B6DFEA",
"R#	c #B8E1EB",
"S#	c #B9E2EC",
"T#	c #BBE3ED",
"U#	c #BCE3ED",
"V#	c #BFE4EE",
"W#	c #D7EEF4",
"X#	c #BABFC0",
"Y#	c #0E0F0F",
"Z#	c #AFB6B7",
"`#	c #C6E4EB",
" $	c #A8D4DF",
".$	c #9FCFDB",
"+$	c #97C8D5",
"@$	c #93C4D1",
"#$	c #8EC1CD",
"$$	c #8ABCC9",
"%$	c #81B4C1",
"&$	c #7DAFBC",
"*$	c #79ABB7",
"=$	c #6494A0",
"-$	c #B3D9E3",
";$	c #B9DFE9",
">$	c #BEE4ED",
",$	c #C0E6EF",
"'$	c #C2E7F0",
")$	c #C3E7F1",
"!$	c #C4E8F0",
"~$	c #D7EFF5",
"{$	c #CFD5D7",
"]$	c #1C1C1C",
"^$	c #191A1A",
"/$	c #D7E1E4",
"($	c #C2E3EC",
"_$	c #ADD9E4",
":$	c #A3D2DE",
"<$	c #96C7D4",
"[$	c #92C3D0",
"}$	c #88BAC8",
"|$	c #7EB1BE",
"1$	c #7AADB9",
"2$	c #75A7B4",
"3$	c #70A2AE",
"4$	c #6B9CA9",
"5$	c #ADD0D9",
"6$	c #B5D7E0",
"7$	c #C0E3EC",
"8$	c #C5E8F1",
"9$	c #C8EAF3",
"0$	c #C9EBF4",
"a$	c #CAEBF4",
"b$	c #D7F0F7",
"c$	c #E6EEF0",
"d$	c #303030",
"e$	c #414242",
"f$	c #EAF6F9",
"g$	c #C5E6EE",
"h$	c #B4DEE8",
"i$	c #AFDBE6",
"j$	c #ABD7E3",
"k$	c #A2D1DD",
"l$	c #9DCDDA",
"m$	c #8ABDC9",
"n$	c #7CAEBB",
"o$	c #72A4B0",
"p$	c #AED0D9",
"q$	c #B0D0D9",
"r$	c #B5D5DD",
"s$	c #BCDBE4",
"t$	c #BDDCE4",
"u$	c #C0DEE5",
"v$	c #C4E1E9",
"w$	c #C7E5EC",
"x$	c #CBE9F0",
"y$	c #D7EFF6",
"z$	c #EEF8FB",
"A$	c #585A5A",
"B$	c #393A3A",
"C$	c #E0E7E9",
"D$	c #C1E5EE",
"E$	c #B7E0EA",
"F$	c #B2DDE8",
"G$	c #A9D6E2",
"H$	c #A5D3DF",
"I$	c #A0D0DC",
"J$	c #97C7D4",
"K$	c #91C3D0",
"L$	c #7DB0BD",
"M$	c #ADD0D8",
"N$	c #B0CFD8",
"O$	c #B7D6DE",
"P$	c #CAEAF2",
"Q$	c #CFEEF6",
"R$	c #D2EFF7",
"S$	c #D1ECF3",
"T$	c #CCE6ED",
"U$	c #C9E2E9",
"V$	c #CDE4E9",
"W$	c #DCE9ED",
"X$	c #A7AAAA",
"Y$	c #353636",
"Z$	c #D4EEF5",
"`$	c #C2E6EF",
" %	c #BAE2EC",
".%	c #98C9D6",
"+%	c #89BBC8",
"@%	c #ADCFD8",
"#%	c #AFCED7",
"$%	c #B1CFD6",
"%%	c #B6D2DA",
"&%	c #C4E0E7",
"*%	c #D4F0F7",
"=%	c #D8F2F9",
"-%	c #DBF3FA",
";%	c #DDF4FA",
">%	c #DFF5FA",
",%	c #E7F8FC",
"'%	c #EFF5F7",
")%	c #545555",
"!%	c #6F7172",
"~%	c #E9F5F8",
"{%	c #D7F0F6",
"]%	c #C6E8F1",
"^%	c #BDE4EE",
"/%	c #B3DEE8",
"(%	c #A9D7E2",
"_%	c #A4D3DF",
":%	c #9ACAD7",
"<%	c #95C6D3",
"[%	c #90C2CF",
"}%	c #BEE3EC",
"|%	c #BBDDE6",
"1%	c #B7D5DD",
"2%	c #B3CFD6",
"3%	c #B5CDD4",
"4%	c #BFD7DD",
"5%	c #D2EAF0",
"6%	c #DEF5FB",
"7%	c #E1F6FB",
"8%	c #E4F7FC",
"9%	c #E7F8FD",
"0%	c #F2FBFE",
"a%	c #CDCFD0",
"b%	c #1B1C1C",
"c%	c #ADAFB0",
"d%	c #D4EFF6",
"e%	c #C5E8F2",
"f%	c #BFE5EF",
"g%	c #B0DBE6",
"h%	c #ABD8E3",
"i%	c #8BBECA",
"j%	c #BEE5EE",
"k%	c #C3E8F1",
"l%	c #C7E9F2",
"m%	c #C9E8F0",
"n%	c #C4DFE5",
"o%	c #BED6DC",
"p%	c #BDD2D7",
"q%	c #C7DADF",
"r%	c #D4E6EB",
"s%	c #DDEDF1",
"t%	c #E5F3F7",
"u%	c #F1FBFD",
"v%	c #F8FBFC",
"w%	c #707070",
"x%	c #3B3C3C",
"y%	c #E1E9EB",
"z%	c #DCF2F8",
"A%	c #CDECF5",
"B%	c #C6E9F2",
"C%	c #C1E6F0",
"D%	c #9CCCD9",
"E%	c #CBECF5",
"F%	c #D1EFF7",
"G%	c #D5F0F7",
"H%	c #D6EEF4",
"I%	c #D3E8ED",
"J%	c #CCDCE0",
"K%	c #C8D5D8",
"L%	c #C7D1D4",
"M%	c #CED5D6",
"N%	c #E0E2E3",
"O%	c #929292",
"P%	c #838485",
"Q%	c #E9F4F7",
"R%	c #D2F0F7",
"S%	c #CCEDF5",
"T%	c #C7EAF3",
"U%	c #B7E0EB",
"V%	c #CEEDF6",
"W%	c #D3F0F8",
"X%	c #D8F3F9",
"Y%	c #E3F7FC",
"Z%	c #E7F7FA",
"`%	c #E9F2F4",
" &	c #D5D8D8",
".&	c #909090",
"+&	c #343434",
"@&	c #EAEFF1",
"#&	c #EAF9FD",
"$&	c #DEF5FA",
"%&	c #CDEDF5",
"&&	c #BCE4EE",
"*&	c #B1DDE8",
"=&	c #C4E8F1",
"-&	c #D4F0F8",
";&	c #DAF3FA",
">&	c #E0F6FB",
",&	c #F3FCFE",
"'&	c #D1D4D4",
")&	c #7E7E7F",
"!&	c #6F6F6F",
"~&	c #0B0B0B",
"{&	c #868787",
"]&	c #F4FBFD",
"^&	c #E2F7FC",
"/&	c #D7F2F9",
"(&	c #C7EAF2",
"_&	c #D5F1F8",
":&	c #EBF9FD",
"<&	c #F4FCFE",
"[&	c #F9FDFF",
"}&	c #E8EAEB",
"|&	c #757676",
"1&	c #777777",
"2&	c #EFF2F2",
"3&	c #EBFAFD",
"4&	c #E6F8FD",
"5&	c #DBF4FA",
"6&	c #D0EFF7",
"7&	c #CBECF4",
"8&	c #C5E9F2",
"9&	c #C0E5EF",
"0&	c #AAD7E3",
"a&	c #C4E8F2",
"b&	c #E0F5FB",
"c&	c #E6F7FC",
"d&	c #ECFAFD",
"e&	c #F7FDFE",
"f&	c #F8FDFE",
"g&	c #F5FCFE",
"h&	c #F0FBFE",
"i&	c #E2F6FC",
"j&	c #D9F3F9",
"k&	c #D3F0F7",
"l&	c #C9EBF3",
"m&	c #BEE4EE",
"n&	c #A8D6E1",
". + @ # $ % & * = - ; > , ' ) ! ~ { ] ^ / ( ( ( ( ( ( ( ( ( ( ( ",
"_ : < [ } | 1 2 3 4 5 6 7 8 9 0 a b c d e f g ( ( ( ( ( ( ( ( ( ",
"h i j k l : < m n o p q r s t u v w x y z A e B C ( ( ( ( ( ( ( ",
"D E F G H I j J _ K L M N O P Q R S T U V W X Y Z `  .( ( ( ( ( ",
"..+.@.#.$.%.F &.h *.=.-.;.>.,.'.).!.~.{.].^./.(._.:.Z <.g ( ( ( ",
"[.}.|.1.2...3.#.4.E 5.6.7.8.9.0.a.b.c.d.e.f.g.h.i.j._.:.k.^ g ( ",
"l.m.n.o.p.q.r.1.2.+.s.t.u.v.w.x.y.z.A.B.C.D.E.F.G.> H.I.J.K.L.M.",
"N.O.P.Q.R.S.T.U.p.V.W.X.Y.Z.`.(  +.+( ( >.++@+#+$+%+&+*+=+-+;+>+",
",+'+)+!+~+{+]+^+R.l.m./+(+_+:+( ( ( ( ( ( <+[+}+|+3 1+2+3+4+5+6+",
"7+8+9+0+a+b+,+c+d+e+f+g+h+i+j+( ( ( ( ( ( k+l+m+n+o+p+% q+r+s+t+",
"u+v+w+x+y+z+7+9+A+B+C+D+E+F+G+( ( ( ( ( j+!.H+I+J+_ K+L+2 M+N+- ",
"O+P+Q+R+S+T+U+v+V+W+X+Y+Z+`+( ( ( ( ( (  @.@+@@@#@$@%@&@*@+ =@-@",
";@>@,@'@)@!@~@O+{@]@^@/@(@( ( ( ( _@:@<@[@}@|@1@2@3@4@5@6@7@} 1 ",
"8@8@9@0@a@b@c@d@e@f@g@h@( ( ( ( ( i@j@k@l@m@/ n@o@H+p@q@r@s@t@u@",
"v@w@w@v@x@y@z@z@A@B@C@( ( ( ( ( D@E@F@G@H@I@;.J@K@L@ +M@N@3@O@P@",
"Q@R@R@S@Q@T@U@U@V@W@X@Y@( ( ( ( Z@`@ #.#+#@###$#%#&#*#Y@=#-#;#>#",
",#'#)#)#'#!#,#~#{#]#^#/#( ( ( / (#_#:#<#[#}#|#1#2#3#4#5#6#7#8##.",
"9#0#a#a#a#a#b#c#d#e#Z@( ( ( ( (@f#g#h#)@i#j#k#l#m#n#o#p#q#r#s#t#",
"u#v#w#x#y#y#z#w#A#B#C#Y@( ( / D#E#F#G#9@H#)@I#T+J#K#L#M#N#O#l.P#",
"Q#R#S#T#U#U#U#T#V#W#X#Y#( ( [@Z#`# $.$w@+$@$#$$$Q+%$&$*$B+!+N.=$",
"-$;$>$,$'$'$)$)$!$~${$]$( ( ^$/$($_$!#:$U@v@<$[$>@}$S+|$1$2$3$4$",
"5$_#6$7$8$9$0$a$a$b$c$d$( ( e$f$g$h$i$j$~#k$l$y@8@H#m$Q+U+n$9+o$",
"p$q$r$s$t$u$v$w$x$y$z$A$( ( B$C$~$D$E$F$b#G$H$I$w@J$K$>@~@T+L$7+",
"M$N$O$P$Q$R$S$T$U$V$W$X$G+( / Y$/$Z$`$ %y#u#9#!#k$l$.%0@d@+%R+v+",
"@%#%$%%%&%*%=%-%;%>%,%'%)%( ( ( !%~%{%]%^%R#/%b#(%_%.$:%<%[%$$Q+",
"}%|%1%2%3%4%5%6%7%8%9%0%a%b%( ( n@c%f$d%e%f% %y#g%h%~#Q@w@<$b@i%",
"j%k%l%m%n%o%p%q%r%s%t%u%v%w%( ( / x%y%z%A%B%C%U#Q#u#9#~#S@D%z@b@",
"T#C%B%E%F%G%H%I%J%K%L%M%N%O%( ( /#P%Q%;%R%S%T%'$U#U%F$9#!#k$D%z@",
"R#^%)$9$V%W%X%6%Y%Z%`% &.&:+( ( +&@&#&$&=%R$%&T%'$&&U%*&9#,#R@D%",
"w#S#f%=&a$Q$-&;&>&,%,&'&)&!&~&/#{&]&#&^&;%/&R$S%(&C%U#Q#u#h%~#Q@",
"i$w# %f%e%a$Q$_&;&7%:&<&[&}&|&1&2&,&3&4&>&5&_&6&7&8&9& %z#g%0&H$",
"0&i$w# %f%a&a$Q$-&;&b&c&d&,&e&f&g&h&3&9%i&;%j&k&V%l&)$m&R#/%b#n&"};
