/* XPM */
static char * worldofpadman32_xpm[] = {
"32 32 430 2",
"  	c None",
". 	c #F67B22",
"+ 	c #F77E23",
"@ 	c #F78026",
"# 	c #F88027",
"$ 	c #F88022",
"% 	c #F89024",
"& 	c #FAA228",
"* 	c #FAAE22",
"= 	c #FBBC1D",
"- 	c #FBC51E",
"; 	c #FBC31B",
"> 	c #FCC219",
", 	c #FCC118",
"' 	c #FBB919",
") 	c #F8A215",
"! 	c #F88C11",
"~ 	c #F67810",
"{ 	c #F8801D",
"] 	c #F9A125",
"^ 	c #FBC230",
"/ 	c #FDD62F",
"( 	c #FEDC1F",
"_ 	c #FEDA0A",
": 	c #FED901",
"< 	c #FED800",
"[ 	c #FED700",
"} 	c #FED600",
"| 	c #FED501",
"1 	c #FED502",
"2 	c #FDCE01",
"3 	c #FBB901",
"4 	c #F99C03",
"5 	c #F37906",
"6 	c #F97A1B",
"7 	c #F99B23",
"8 	c #FBC12F",
"9 	c #FEE034",
"0 	c #FEDD1F",
"a 	c #FED400",
"b 	c #FED100",
"c 	c #FECF00",
"d 	c #FECD00",
"e 	c #FECC00",
"f 	c #FBB300",
"g 	c #F98B03",
"h 	c #F76905",
"i 	c #F77D1D",
"j 	c #FBB027",
"k 	c #FEDF3D",
"l 	c #F3D62B",
"m 	c #EECD15",
"n 	c #D0B40F",
"o 	c #E6C102",
"p 	c #F9CD01",
"q 	c #FFCB00",
"r 	c #FFCC00",
"s 	c #FEC300",
"t 	c #FD9B00",
"u 	c #F97D04",
"v 	c #F66E18",
"w 	c #FAA927",
"x 	c #FCE03B",
"y 	c #BFAA32",
"z 	c #A5901B",
"A 	c #DAB70B",
"B 	c #A18818",
"C 	c #554918",
"D 	c #67550A",
"E 	c #BB9705",
"F 	c #FECB00",
"G 	c #F6C603",
"H 	c #C29F13",
"I 	c #DCB20B",
"J 	c #F9C802",
"K 	c #FECA00",
"L 	c #FEC200",
"M 	c #FEA801",
"N 	c #F27D06",
"O 	c #F9A129",
"P 	c #FEDE35",
"Q 	c #9E8E31",
"R 	c #474223",
"S 	c #B2930A",
"T 	c #FDCC00",
"U 	c #FCCA00",
"V 	c #B19110",
"W 	c #2E2915",
"X 	c #271F04",
"Y 	c #927402",
"Z 	c #6D5E21",
"` 	c #3B351F",
" .	c #66571A",
"..	c #907815",
"+.	c #B7910F",
"@.	c #EDB405",
"#.	c #FEA102",
"$.	c #EB710C",
"%.	c #F89927",
"&.	c #FBD337",
"*.	c #D6BC2A",
"=.	c #443F22",
"-.	c #574A0E",
";.	c #ECBF01",
">.	c #DDB30D",
",.	c #8F7819",
"'.	c #121212",
").	c #100C01",
"!.	c #B69202",
"~.	c #E7BB07",
"{.	c #F2C305",
"].	c #FDC900",
"^.	c #7E6A1C",
"/.	c #101010",
"(.	c #040404",
"_.	c #070707",
":.	c #12110D",
"<.	c #5E4A0B",
"[.	c #DDA704",
"}.	c #FD9507",
"|.	c #EE6A10",
"1.	c #F57B21",
"2.	c #F9BB2E",
"3.	c #FDDE2C",
"4.	c #8A7A20",
"5.	c #131210",
"6.	c #826A02",
"7.	c #BB9A14",
"8.	c #534A25",
"9.	c #A28308",
"0.	c #DAB20D",
"a.	c #3E3820",
"b.	c #030303",
"c.	c #786102",
"d.	c #FAC903",
"e.	c #967C16",
"f.	c #453E1F",
"g.	c #5D511F",
"h.	c #B29114",
"i.	c #FDC300",
"j.	c #856B1B",
"k.	c #020100",
"l.	c #080808",
"m.	c #000000",
"n.	c #886602",
"o.	c #FEB802",
"p.	c #E67E0D",
"q.	c #F58523",
"r.	c #FCD234",
"s.	c #DBBF1F",
"t.	c #3A361F",
"u.	c #040403",
"v.	c #8E7202",
"w.	c #E9BC08",
"x.	c #5E5323",
"y.	c #141415",
"z.	c #292102",
"A.	c #BE9908",
"B.	c #514825",
"C.	c #443602",
"D.	c #9B7F17",
"E.	c #1E1E1C",
"F.	c #060606",
"G.	c #050505",
"H.	c #2E260D",
"I.	c #BE9004",
"J.	c #896E1B",
"K.	c #131313",
"L.	c #2E2407",
"M.	c #524622",
"N.	c #0C0C0C",
"O.	c #4A3802",
"P.	c #F2B101",
"Q.	c #F09109",
"R.	c #F69528",
"S.	c #FDDB31",
"T.	c #BDA519",
"U.	c #1B1A16",
"V.	c #604D02",
"W.	c #C3A014",
"X.	c #363326",
"Y.	c #524409",
"Z.	c #36311E",
"`.	c #2D2203",
" +	c #5E4E1F",
".+	c #0E0E0D",
"++	c #6A5002",
"@+	c #8C701B",
"#+	c #423202",
"$+	c #91751F",
"%+	c #191818",
"&+	c #362802",
"*+	c #EDAE01",
"=+	c #FCA408",
"-+	c #B0510A",
";+	c #F8A82C",
">+	c #FEDF2D",
",+	c #9C891A",
"'+	c #0D0D0D",
")+	c #030302",
"!+	c #362F13",
"~+	c #161616",
"{+	c #040304",
"]+	c #342805",
"^+	c #4D411E",
"/+	c #191302",
"(+	c #3E310A",
"_+	c #0A0A0A",
":+	c #322601",
"<+	c #80671A",
"[+	c #281E02",
"}+	c #6F5A1B",
"|+	c #151514",
"1+	c #3A2B02",
"2+	c #EBAC01",
"3+	c #FEAF05",
"4+	c #B95C0C",
"5+	c #F8AF2F",
"6+	c #FCDD27",
"7+	c #7D6E1A",
"8+	c #010101",
"9+	c #403208",
"0+	c #443B1F",
"a+	c #503C02",
"b+	c #AF8912",
"c+	c #23221C",
"d+	c #2D2204",
"e+	c #7E6519",
"f+	c #0F0D09",
"g+	c #020202",
"h+	c #725602",
"i+	c #F7B500",
"j+	c #FEAE05",
"k+	c #A64F09",
"l+	c #F9A32B",
"m+	c #FDDD26",
"n+	c #847417",
"o+	c #050401",
"p+	c #0A0A08",
"q+	c #594508",
"r+	c #483E20",
"s+	c #574202",
"t+	c #C79A11",
"u+	c #2D2A23",
"v+	c #2B2105",
"w+	c #7B6319",
"x+	c #030200",
"y+	c #473502",
"z+	c #CB9802",
"A+	c #FEB800",
"B+	c #FCA407",
"C+	c #904008",
"D+	c #F78A25",
"E+	c #FCCD2A",
"F+	c #A79216",
"G+	c #2F280E",
"H+	c #4C4115",
"I+	c #343124",
"J+	c #090909",
"K+	c #282209",
"L+	c #131211",
"M+	c #040300",
"N+	c #876808",
"O+	c #534722",
"P+	c #050506",
"Q+	c #433304",
"R+	c #B28C17",
"S+	c #272622",
"T+	c #372A04",
"U+	c #876C19",
"V+	c #0A0701",
"W+	c #513D02",
"X+	c #836302",
"Y+	c #DBA601",
"Z+	c #FEBC00",
"`+	c #FFB700",
" @	c #F49409",
".@	c #773006",
"+@	c #FAB22B",
"@@	c #E0C31A",
"#@	c #AD930D",
"$@	c #665821",
"%@	c #1B1B1B",
"&@	c #392D02",
"*@	c #BE9A06",
"=@	c #8C751B",
"-@	c #271D01",
";@	c #C99803",
">@	c #7E661D",
",@	c #0D0C0C",
"'@	c #110E04",
")@	c #504216",
"!@	c #463503",
"~@	c #937518",
"{@	c #171101",
"]@	c #C79602",
"^@	c #F8BB00",
"/@	c #FEBD00",
"(@	c #FEB502",
"_@	c #DE780B",
":@	c #F89A28",
"<@	c #FDDB27",
"[@	c #E1C20F",
"}@	c #635923",
"|@	c #0F0F0F",
"1@	c #896D02",
"2@	c #E8BC09",
"3@	c #655820",
"4@	c #201B09",
"5@	c #896701",
"6@	c #F6B900",
"7@	c #BB9213",
"8@	c #22211B",
"9@	c #594302",
"0@	c #92741A",
"a@	c #0A0800",
"b@	c #B98B02",
"c@	c #FEBB00",
"d@	c #FEB700",
"e@	c #FC970A",
"f@	c #98420B",
"g@	c #F57A20",
"h@	c #FBAB24",
"i@	c #D8B709",
"j@	c #574807",
"k@	c #181301",
"l@	c #C49D02",
"m@	c #C3A013",
"n@	c #9C7E0C",
"o@	c #EFB600",
"p@	c #FFC000",
"q@	c #F1B706",
"r@	c #6E5A1C",
"s@	c #7B5D03",
"t@	c #7F6720",
"u@	c #9E7302",
"v@	c #FEA409",
"w@	c #A7520B",
"x@	c #F1680A",
"y@	c #FCA31C",
"z@	c #FEDA17",
"A@	c #C1A307",
"B@	c #6B5706",
"C@	c #ECBD01",
"D@	c #F6C500",
"E@	c #FEC700",
"F@	c #FEC000",
"G@	c #D5A40C",
"H@	c #6C5715",
"I@	c #32280A",
"J@	c #5E4702",
"K@	c #C89805",
"L@	c #876D1C",
"M@	c #43350E",
"N@	c #291E01",
"O@	c #926902",
"P@	c #FEB600",
"Q@	c #FEAE09",
"R@	c #C1660B",
"S@	c #5E2001",
"T@	c #EE6106",
"U@	c #FC9E14",
"V@	c #FED410",
"W@	c #D9B202",
"X@	c #FBC800",
"Y@	c #FEC900",
"Z@	c #FEC600",
"`@	c #FEC500",
" #	c #F0B603",
".#	c #DDA703",
"+#	c #EFB400",
"@#	c #E8B004",
"##	c #E8AC01",
"$#	c #DFA001",
"%#	c #E5A401",
"&#	c #FCA30B",
"*#	c #BD660B",
"=#	c #712803",
"-#	c #F25E04",
";#	c #EE8F11",
">#	c #FDBC09",
",#	c #FEC301",
"'#	c #FEBF00",
")#	c #FEBE00",
"!#	c #FEBA00",
"~#	c #FEB601",
"{#	c #FA9106",
"]#	c #A64D0B",
"^#	c #642201",
"/#	c #DD6509",
"(#	c #F08308",
"_#	c #FEA406",
":#	c #FEBA03",
"<#	c #FFBF00",
"[#	c #FEAB04",
"}#	c #CD5B08",
"|#	c #481901",
"1#	c #CA5507",
"2#	c #E27308",
"3#	c #F59207",
"4#	c #FBA506",
"5#	c #FCA805",
"6#	c #FDAB05",
"7#	c #FDAC05",
"8#	c #FDAC04",
"9#	c #FDA906",
"0#	c #FB9D07",
"a#	c #F38B07",
"b#	c #F18905",
"c#	c #FBA300",
"d#	c #E77B07",
"e#	c #994007",
"f#	c #A44407",
"g#	c #A94808",
"h#	c #AF4C08",
"i#	c #B04E08",
"j#	c #A04708",
"k#	c #8C3906",
"l#	c #772D03",
"m#	c #A6470B",
"n#	c #E57410",
"o#	c #F89207",
"p#	c #FDAF00",
"q#	c #FB9E06",
"r#	c #BD4E09",
"s#	c #E97E0B",
"t#	c #FA9704",
"u#	c #D76F0B",
"v#	c #E2690C",
"w#	c #DD620E",
"                                                                ",
"                                                                ",
"                                                                ",
"                          . + + @ # @                           ",
"                  $ % & * = - ; > , ' ) ! ~                     ",
"              { ] ^ / ( _ : : < [ } | 1 2 3 4 5                 ",
"          6 7 8 9 0 _ < } a b c d e e e e e e f g h             ",
"        i j k l m n o p d e q r r r r r r r r e s t u           ",
"      v w x y z A B C D E F e r r r r r G H I J K L M N         ",
"      O P Q R S T U V W X Y e r r r r r J Z `  ...+.@.#.$.      ",
"    %.&.*.=.-.;.e >.F ,.'.).!.e e ~.{.e ].^./.(._.:.<.[.}.|.    ",
"  1.2.3.4.5.6.U 7.8.9.0.a.b.c.d.e.f.g.h.i.j.'.k.l.m.m.n.o.p.    ",
"  q.r.s.t.u.v.w.x.y.z.A.B._.C.D.E.F.G.H.I.J.K.L.M.N.m.O.P.Q.    ",
"  R.S.T.U.m.V.W.X./.m.Y.Z.F.`. +.+m.m.m.++@+K.#+$+%+m.&+*+=+-+  ",
"  ;+>+,+'+m.)+!+~+F.m.m.{+m.]+^+_./+(+_+:+<+K.[+}+|+m.1+2+3+4+  ",
"  5+6+7+_.m.m.m.8+m.m.m.m.m.9+0+G.a+b+c+d+e+K.m.f+g+m.h+i+j+k+  ",
"  l+m+n+l.o+p+m.m.m.m.m.m.m.q+r+G.s+t+u+v+w+K.m.m.x+y+z+A+B+C+  ",
"  D+E+F+G+H+I+J+m.K+L+8+m.M+N+O+P+Q+R+S+T+U+K.V+W+X+Y+Z+`+ @.@  ",
"    +@@@#@$@%@(.&@*@=@~+m.-@;@>@,@'@)@K.!@~@K.{@]@^@/@A+(@_@    ",
"    :@<@[@}@|@x+1@U 2@3@4@5@6@7@8@8+b.m.9@0@K.a@b@c@d@`+e@f@    ",
"    g@h@0 i@j@k@l@e e m@n@o@p@q@r@N.m.m.s@t@K.x+u@d@d@v@w@      ",
"      x@y@z@A@B@C@r F e D@E@F@p@G@H@I@J@K@L@M@N@O@P@Q@R@S@      ",
"        T@U@V@W@X@Y@Z@`@Z@E@L p@F@ #.#+#F@@###$#%#&#*#=#        ",
"          -#;#>#,#F@F@p@p@F@F@p@p@'#)#/@/@/@!#~#{#]#^#          ",
"              /#(#_#:#F@p@p@<#'#/@!#A+d@P@d@d@[#}#|#            ",
"                  1#2#3#4#5#6#7#8#9#0#a#b#c#d@~#d#              ",
"                        e#f#g#h#i#j#k#l#m#n#o#p#q#r#            ",
"                                              s#t#u#            ",
"                                                v#w#            ",
"                                                                ",
"                                                                ",
"                                                                "};
