/* XPM */
static char * stone_soup_xpm[] = {
"32 32 42 1",
" 	c None",
".	c #000000",
"+	c #FF4000",
"@	c #E03800",
"#	c #802000",
"$	c #B0B0B0",
"%	c #707070",
"&	c #D0D0D0",
"*	c #303030",
"=	c #101010",
"-	c #202020",
";	c #C03000",
">	c #806A2A",
",	c #E0BA4A",
"'	c #C0A040",
")	c #F8E060",
"!	c #FFFFFF",
"~	c #FFFFA0",
"{	c #505050",
"]	c #606060",
"^	c #404040",
"/	c #A08535",
"(	c #E0E0E0",
"_	c #909090",
":	c #808080",
"<	c #A05000",
"[	c #C06000",
"}	c #804000",
"|	c #200000",
"1	c #300000",
"2	c #E00000",
"3	c #C00000",
"4	c #E07000",
"5	c #400000",
"6	c #600000",
"7	c #A00000",
"8	c #FFC000",
"9	c #FFFF00",
"0	c #FF8000",
"a	c #FF0000",
"b	c #180000",
"c	c #800000",
"                            ..  ",
"                           .+@. ",
"                          .+#.  ",
"                          .+#.  ",
"                         .+#.   ",
"           ..........    .@#.   ",
"       ....$$$$$$$$%%....@#.    ",
"     ..$&&&*========*%%%%@#.    ",
"    .$$*===-*******--==*;#%.    ",
"   .$*=-->>,')'),',',>>-;#=%.   ",
"   .$>>,',!),~),!~),~',;#>>%.   ",
"   .*&&',',,),)~),,)')',>%%-.   ",
"   .*{{&&&&',',),)',>%%%%---.   ",
"    .*{]{{{&&&$$$'>%%*^**-*.    ",
"    .*]]]]]{{{^^,)>^^^*^-*-.    ",
"   .-*%]%]%]]]{{/)^{]{]{^---.   ",
"   .$*]%]%]%]%]]]'^]{]{^*^-(.   ",
"  .(-${]_:%:%]%]]/{{]{^{**(=_.  ",
" .(-*_*%]%_%:%:%:]{]{]{^^-_-=_. ",
" .$**_*]%]%]%:%:%{]{]{{{*-_--$. ",
" ._*<]*{]%]%]%]%]%{]{]{^^-][-_. ",
"  .<]*{]{]]{]]%]%]]{]{{^*^-]<.  ",
"   .-^{{]]{]]]]]]{]{{{^{^*^-.   ",
"   .-^^{{{]]{]{]{]{{^^^^*^*-.   ",
"    .*^^^{{{]{]{]{{^^{^^^*-.    ",
"     .*{{^{{{]{]{]{{^^{{^-.     ",
"    .{}|}}}{%%]%]%%]{}}}|}^.    ",
"    .{}|123<<[4444[[<331|}^.    ",
"   .{}|5667+2++8980@3a661|}^.   ",
"    ..bb|5563a@+0+@37c5|bb..    ",
"      ...||||55565555||...      ",
"         ..............         "};
