/* XPM */
static char *brikx[] = {
/* columns rows colors chars-per-pixel */
"32 32 4 1",
"  c black",
". c #808000",
"X c yellow",
"o c None",
/* pixels */
"oooooooooooooooooooooooooooooooo",
"oooooooooooooooooooooooooooooooo",
"oooooooooooooooooooooooooooooooo",
"ooooooooooooXXXXXXXXXooooooooooo",
"oooooooooooXXXXXXXXXXXXooooooooo",
"oooooooo..XXXXXXXXXXXXXXXooooooo",
"ooooooo..XX   XXXXX   XXXXoooooo",
"oooooo...X    XXXXX    XXXXooooo",
"ooooo...X.    XXXXX    XXXXooooo",
"ooooo...X.  XXXXXXX    XXXXooooo",
"oooo.....X.XXXXXXXXXXXXXXXXXoooo",
"oooo.....X.XXXXXXXXXXXXXXXXXoooo",
"ooo.......XXXXXXXXXXXXXXXXXXXooo",
"ooo.......XXXXXXXXXXXXXXXXXXXooo",
"ooo......X.XXXXXXXXXXXXXXXXXXooo",
"ooo........X.XXXXXXXXXXXXXXXXooo",
"ooo...  ..X.X.XXXXXXXXXXX XXXooo",
"ooo..... ..X.XXXXXXXXXXXX XXXooo",
"ooo.....  ...XXXXXXXXXX  XXXXooo",
"ooo......  .X..X.XXXXX .XXXXXooo",
"oooo....... X..X.XX   XXXXXXoooo",
"oooo........    .   XXXXXXXXoooo",
"oooooo.........   ..XX.XXXXooooo",
"oooooo.............XX.X.XX.ooooo",
"ooooooo............XX.X..Xoooooo",
"ooooooo...................oooooo",
"oooooooooo.............ooooooooo",
"ooooooooooo..........ooooooooooo",
"oooooooooooooo....oooooooooooooo",
"oooooooooooooooooooooooooooooooo",
"oooooooooooooooooooooooooooooooo",
"oooooooooooooooooooooooooooooooo"
};
