/* XPM */
static char * icon_xpm[] = {
"32 32 65 1",
" 	c None",
".	c #020501",
"+	c #0E1409",
"@	c #271426",
"#	c #212500",
"$	c #22242B",
"%	c #073D00",
"&	c #2A2F27",
"*	c #323304",
"=	c #005B00",
"-	c #4B3127",
";	c #47380F",
">	c #23550E",
",	c #294F2E",
"'	c #5B3061",
")	c #007200",
"!	c #384A49",
"~	c #583961",
"{	c #643849",
"]	c #4F4C2A",
"^	c #0B702B",
"/	c #4A4B49",
"(	c #216C08",
"_	c #BE1438",
":	c #505218",
"<	c #494A69",
"[	c #665033",
"}	c #306F23",
"|	c #773E77",
"1	c #009103",
"2	c #2C7141",
"3	c #7E4167",
"4	c #87397D",
"5	c #4E6E24",
"6	c #864278",
"7	c #884386",
"8	c #2F8A05",
"9	c #238D28",
"0	c #9A427A",
"a	c #686A2D",
"b	c #646D4D",
"c	c #9B4D88",
"d	c #7B607C",
"e	c #964F92",
"f	c #696D70",
"g	c #876667",
"h	c #A75088",
"i	c #7D629B",
"j	c #1AAD1A",
"k	c #4F8F4E",
"l	c #588F39",
"m	c #AC5399",
"n	c #3DAD07",
"o	c #8868B0",
"p	c #B65F9B",
"q	c #4CAB25",
"r	c #88894A",
"s	c #64A333",
"t	c #6293AB",
"u	c #5D9BA5",
"v	c #42E044",
"w	c #A5B26E",
"x	c #AAA8AC",
"y	c #6CDB53",
"z	c #91E46A",
"''3hcc0hhmpmmphhch40h0cc0006667|",
"'''hhhhhhcppmmmmchchcc00c006c667",
"'''|mhhpphpememmcmc,]67600000ee7",
"'~~'phppppmmmcecchhl)..006600ccc",
"''~~6cphpepemhcecch81(+.6606000c",
"'''''cpcmphhhecichh(qn((.3466c6c",
"~'''~epehmppmhmppmknsnnn(/4666ce",
"'''''~mcdecimeeeem8qqsq86|6d66c|",
"''~''~|cpimcppmoc98sqql46||06667",
"~'''''~hcppcecmcelqnq8k666|00d|6",
"t''~'~'hppiccpcchnsnng466|6cc666",
"tt~''''|pppipcp0kn8n7dcc0606o6|3",
"tt''~'~~mpmomeh00qk0666660|66||6",
"ttt'''''omppe/,}j0ccccccc|c6|d64",
"tttt~~''~mp>^}5l8:&b0ccmccc6|6||",
"ttttti~''o!99^}(1(l>-ceccpeed7||",
"utttttt'~&syyvyzzzzzj]],]>cee|||",
"ttttttttb>1yvvyzyysvj#:::r*ecc66",
"tttttttu#;jjqvjjjj18^#*]]:#e|d|6",
"ttttttt*a#b981))j198(*:]::>0cc60",
"ttttttt]a*.2s9^9}9b}.:a]r+ccce|6",
"tttttt*::::+.#%++###:::ra0o|6c66",
"ttttt#:]:::::*:#;*r::*rxae7e7e66",
"tttt;:g[5][[a[;:[;b:;:wr*de7e7cc",
"tttt=,)}=)f2))$i>jq11{rr.ututttt",
"ttttt,@(%8k%f$)/)#,>%j<$uttttttt",
"tttttttt(&')%%1d=%!&%1$rttuttttt",
"ttttttttuttk(=~|1=%%=j+ttttttutt",
"tttt____________)8=11@x____ttttt",
"tttt______________f]$______ttttu",
"tttttttttttttuttuutttttttttttttt",
"tttttttttttttttttttttttttttttttt"};
