/* XPM */
static char *dftd_icon[] = {
/* columns rows colors chars-per-pixel */
"32 32 177 2",
"   c #000000",
".  c #080705",
"X  c #080806",
"o  c #0C0D0B",
"O  c #0E100F",
"+  c #13110D",
"@  c #1F150F",
"#  c #151412",
"$  c #14191B",
"%  c #181712",
"&  c #1B1915",
"*  c #1E1D1A",
"=  c #1E201E",
"-  c #1E2323",
";  c #29190E",
":  c #221B14",
">  c #211E19",
",  c #291D14",
"<  c #262117",
"1  c #24221C",
"2  c #2A241D",
"3  c #342315",
"4  c #312B1E",
"5  c #392516",
"6  c #38271E",
"7  c #3A2817",
"8  c #3C2A1A",
"9  c #222522",
"0  c #262924",
"q  c #262C29",
"w  c #292621",
"e  c #2C2922",
"r  c #2B2D2A",
"t  c #2C302D",
"y  c #2B3330",
"u  c #352621",
"i  c #312D25",
"p  c #322E2A",
"a  c #392E23",
"s  c #323027",
"d  c #35312A",
"f  c #39352D",
"g  c #343532",
"h  c #343A35",
"j  c #363E3B",
"k  c #3A3632",
"l  c #3E3A32",
"z  c #3A3C39",
"x  c #3D4037",
"c  c #3D443C",
"v  c #3F4A45",
"b  c #3A4C49",
"n  c #3E514E",
"m  c #432E1C",
"M  c #44311D",
"N  c #512C1A",
"B  c #50331F",
"V  c #402C26",
"C  c #443323",
"Z  c #463B2C",
"A  c #4B3624",
"S  c #4E3A24",
"D  c #4C3B2D",
"F  c #423D33",
"G  c #423E3B",
"H  c #533521",
"J  c #523B25",
"K  c #583D28",
"L  c #623F34",
"P  c #454136",
"I  c #43453B",
"U  c #43483F",
"Y  c #4B4335",
"T  c #4A443A",
"R  c #4C4A3E",
"E  c #55462F",
"W  c #58462D",
"Q  c #5E492F",
"!  c #574431",
"~  c #55463C",
"^  c #584631",
"/  c #5B4837",
"(  c #5B4A3A",
")  c #62422B",
"_  c #634C32",
"`  c #64543C",
"'  c #695234",
"]  c #424442",
"[  c #434B43",
"{  c #414C49",
"}  c #4C4540",
"|  c #494B44",
" . c #4B4D49",
".. c #445147",
"X. c #44524B",
"o. c #4B534E",
"O. c #455553",
"+. c #475A56",
"@. c #475A59",
"#. c #4A5653",
"$. c #4C5955",
"%. c #4B5B59",
"&. c #534B42",
"*. c #504C49",
"=. c #5B4E44",
"-. c #555045",
";. c #54504D",
":. c #59544B",
">. c #555754",
",. c #545854",
"<. c #515D5A",
"1. c #5B5551",
"2. c #5A5B56",
"3. c #4E615C",
"4. c #53615D",
"5. c #5B625C",
"6. c #556460",
"7. c #596561",
"8. c #5C6963",
"9. c #665746",
"0. c #635348",
"q. c #6B5C40",
"w. c #635C55",
"e. c #655E5A",
"r. c #6B5D54",
"t. c #695F5A",
"y. c #705E52",
"u. c #7C5E53",
"i. c #63645C",
"p. c #6C6255",
"a. c #6D625C",
"s. c #776044",
"d. c #7A674B",
"f. c #736354",
"g. c #73655C",
"h. c #78665C",
"j. c #606763",
"k. c #626B65",
"l. c #666E68",
"z. c #6D6660",
"x. c #6C6964",
"c. c #686E69",
"v. c #6B716B",
"b. c #726B64",
"n. c #7D6F66",
"m. c #7B6E68",
"M. c #7C7065",
"N. c #7C716A",
"B. c #727670",
"V. c #777973",
"C. c #7E7672",
"Z. c #7B7A75",
"A. c #7E7E78",
"S. c #875E52",
"D. c #82756D",
"F. c #847973",
"G. c #867E79",
"H. c #897B73",
"J. c #8D7F78",
"K. c #907E70",
"L. c #85807B",
"P. c #8D817B",
"I. c #92837B",
"U. c #96887E",
"Y. c #9C8674",
"T. c #99877D",
"R. c #8B8580",
"E. c #928780",
"W. c #948A83",
"Q. c #978E88",
"!. c #9B8C84",
"~. c #9A8E88",
"^. c #9E9087",
"/. c #9C918A",
"(. c #A08F87",
"). c #A1948C",
"_. c None",
/* pixels */
"_._._._._._._._._._.9 F F F p e e i i p i - _._._._._._._._._._.",
"_._._._._._._._.l F d 1 # + # % # # + % > e p w _._._._._._._._.",
"_._._._._._._.F p & # r z  .1.2.1.1.*.G e # % e i _._._._._._._.",
"_._._._._.T l > # g *.x.C.G.P.R.L.R.G.C.x.1.h & > i 2 _._._._._.",
"_._._._.F f # 1  .b.L.R.W.Q.Q.Q.W.Q.Q.Q.W.L.N.1.-.1 i e _._._._.",
"_._._.T f & r :.F.R.Q.Q.Q./././.W./././.~.~.W.G.a.b.w i 2 _._._.",
"_._._.F 1 g e.F.W.Q.~.~.Q./././.W./././././.!.~.P.m.w.> i _._._.",
"_._.F 1 p e.C.G.).)././.~.Q././.W./././././.)././.P.b.d w i _._.",
"_.P d & ;.H.J.J.).).).).~.W.).)./.).).).).).).).).).P.e.1 i * _.",
"_.F * l m.E.E.E.~.!.~.~.P.~.^.)./.).).).).).).).).).^.D.I w i _.",
"_.f & 1.K.W.J.J.(.!.(.!.g.D.!.!.E.(.(.(.).).^.)./.).^.I.t.w d _.",
"F 1 p m.I.(.W.J.(.(.!.W.M.I.T.(.U.I.(.(.H.).(.K.).a.D.!.N.l i w ",
"F * } F.W.(.I.I.I.T.!.!.n.I.I.!.F.!.M.Y.K.(.(.D.!.6 u.!.H.*.i i ",
"F * 1.J.!.!.D.H.D.H.!.!.N.H.(.J.T.g.i < d.T.I.F.I.V S.!.H.*.f i ",
"F > t.I.y.u.z.b.D.J.F.D.Y 0.J.!.H.: + ; q.^ y.D.g.6 L r.g.F u s ",
"d 1 a.P.A 5 8 H L D / / , ) r.~ =., : , s.` ` f.~ , 6 2 Z Z 4 e ",
"f e a.P.D 3 3 3 8 8 8 3 8 7 8 5 ; 5 3 3 8 S E W Q ` _ ' _ E 2 e ",
"l k x.E.=.8 , m 8 S C 8 M 3 S 5 3 3 5 3 7 M 7 m M D M M 7 3 : i ",
"P i [ l.v.8.2.i.c.i.i.-.Z C A H K H N N B Q Y p.b.M.p.q.~ a 2 2 ",
"F w k 5.i.| | U R &.-.T P F P P P U P Y Y P R R R [ ..[ I e 0 2 ",
"d 0 q { U c c c U U U U ] [ U c x ] U c c U c [ c U ..c c = s = ",
"_.f * | 2.o.c h | ..[ [ X.{ X.X...#.%.%.%.n b b +.3.X.n c 0 s _.",
"_.f 1 q ] O.o.o.%.%.%.4.%.%.O.O.+.%.%.%.@.@.%.O.n 3.n b t e 2 _.",
"_.> d * { <.<.%.<.6.<.6.6.@.%.6.%.#.%.%.%.O.<.O.#.+.b c 0 s % _.",
"_._.p 0 r o.2.,.l.c.l.c.8.8.8.8.4.4.5.8.4.<.%.$.#.3.n q s 1 _._.",
"_._._.s 1 y X.<.8.c.c.c.c.c.l.8.4.8.6.6.4.3.3.+.+...h 0 2 _._._.",
"_._._.> e 1 y { <.7.8.c.V.A.V.B.l.8.4.7.5.4.5.4.#.x e e % _._._.",
"_._._._.1 i w r o.2.k.B.A.G.A.V.v.v.B.B.B.v.5.o.g e 2 & _._._._.",
"_._._._._.& e e 9 r ] ]  .] >.>.| ,.[ >.v | g r e 2 + _._._._._.",
"_._._._._._._.2 e * # . . o = .   1 O   . % & e = _._._._._._._.",
"_._._._._._._._.% 1 e > % % # . . # % & 1 2 1 + _._._._._._._._.",
"_._._._._._._._._._.$ & > > e 2 1 e 1 > % $ _._._._._._._._._._."
};
