/* XPM */
static char *wesnoth_editor-icon[] = {
/* columns rows colors chars-per-pixel */
"32 32 187 2",
"   c black",
".  c #080706",
"X  c #0A0907",
"o  c #0D0C0B",
"O  c #110C06",
"+  c #110F0C",
"@  c #13110E",
"#  c #18140D",
"$  c #141311",
"%  c #181713",
"&  c #1D1A15",
"*  c #1C1C1B",
"=  c #1F201F",
"-  c #251D14",
";  c #25221C",
":  c #2B2214",
">  c #29241C",
",  c #342D1E",
"<  c #392F1F",
"1  c #232221",
"2  c #292725",
"3  c #2C2821",
"4  c #2F2E2B",
"5  c #312B22",
"6  c #302F2D",
"7  c #34302A",
"8  c #3F3625",
"9  c #3A342B",
"0  c #3F392E",
"q  c #333330",
"w  c #3C3A34",
"e  c #47371F",
"r  c #433623",
"t  c #41362A",
"y  c #423924",
"u  c #433B2A",
"i  c #423F36",
"p  c #45423C",
"a  c #4C4435",
"s  c #48443C",
"d  c #4C483D",
"f  c #5B472E",
"g  c #524B39",
"h  c #5D4E33",
"j  c #5F533F",
"k  c #665339",
"l  c #69543B",
"z  c #705D3A",
"x  c #4C4B44",
"c  c #524D43",
"v  c #545047",
"b  c #575349",
"n  c #5E5544",
"m  c #5A564B",
"M  c #615744",
"N  c #655C44",
"B  c #60594C",
"V  c #625E53",
"C  c #775F4A",
"Z  c #6A614E",
"A  c #656155",
"S  c #6B6454",
"D  c #6A655A",
"F  c #6F695D",
"G  c #73654D",
"H  c #7B6643",
"J  c #716750",
"K  c #756C56",
"L  c #716B5D",
"P  c #7A6D5C",
"I  c #7B7254",
"U  c #736D61",
"Y  c #767062",
"T  c #77736C",
"R  c #7B7364",
"E  c #7F7869",
"W  c #8A6C4C",
"Q  c #816750",
"!  c #81755E",
"~  c #86795F",
"^  c #887356",
"/  c #8B7953",
"(  c #967358",
")  c #947B56",
"_  c #937A5B",
"`  c #9A7F56",
"'  c #9F7D5D",
"]  c #847662",
"[  c #827B64",
"{  c #847D6D",
"}  c #8E7F63",
"|  c #897F6C",
" . c #877F71",
".. c #927C61",
"X. c #9B865C",
"o. c #8F8267",
"O. c #89816F",
"+. c #878171",
"@. c #8C8474",
"#. c #8F8977",
"$. c #928264",
"%. c #908569",
"&. c #9C8462",
"*. c #9E8A63",
"=. c #9C8C6C",
"-. c #938B7B",
";. c #9A8D71",
":. c #988E7D",
">. c #97907E",
",. c #9A927D",
"<. c #A28A5E",
"1. c #A78E6B",
"2. c #A79267",
"3. c #AF9763",
"4. c #AB956B",
"5. c #A69677",
"6. c #A0977E",
"7. c #AB9773",
"8. c #AA9975",
"9. c #B18F6D",
"0. c #B0916C",
"q. c #B69B67",
"w. c #B59C6E",
"e. c #BA9E6E",
"r. c #B59573",
"t. c #B09E73",
"y. c #B29E79",
"u. c #B99772",
"i. c #BB9C74",
"p. c #BDA26C",
"a. c #B1A175",
"s. c #B6A47B",
"d. c #BFA477",
"f. c #BCA47C",
"g. c #C1A66E",
"h. c #C2A86F",
"j. c #C0A570",
"k. c #C0A37B",
"l. c #C5AC74",
"z. c #C5AB7C",
"x. c #C8AD7A",
"c. c #C7B074",
"v. c #C8B075",
"b. c #CCB47D",
"n. c #CEB87D",
"m. c #D0B97E",
"M. c #9C9483",
"N. c #A09787",
"B. c #A19884",
"V. c #A49C8B",
"C. c #A89F8D",
"Z. c #A9A18F",
"A. c #ACA392",
"S. c #B9A786",
"D. c #BDAD86",
"F. c #BCAD8C",
"G. c #B1A796",
"H. c #B1A897",
"J. c #B5AC9B",
"K. c #C4AB82",
"L. c #C7B181",
"P. c #C2B38D",
"I. c #CCB580",
"U. c #CBB68B",
"Y. c #CFB983",
"T. c #CEBB93",
"R. c #D0B583",
"E. c #D2BC85",
"W. c #D4BD8B",
"Q. c #D3BD91",
"!. c #D6C18C",
"~. c #D9C38E",
"^. c #DBC692",
"/. c #DAC599",
"(. c #DDC996",
"). c #DFCA99",
"_. c #DFCCA5",
"`. c #E0CB97",
"'. c #E2CD9C",
"]. c #E5D09D",
"[. c #E0CCA2",
"{. c #E6D2A3",
"}. c #E7D3A8",
"|. c #E9D5A5",
" X c #EAD6AA",
".X c #EEDAAB",
"XX c None",
/* pixels */
"XXXXXXXXXXXXXXXXXXXXXXXXXXXXXXXXXXXXXXXX. O # n i XXXXXXXXXXXXXX",
"XXXXXXXXXXXXXXXXXXXXXXXXXXXXXXXXXX. + # i ..1.k.^ . XXXXXXXXXXXX",
"XXXXXXXXXXXXXXXXXXXXXXXX  # > @ 3 ] y.7.r.r.K.9.W # XXXXXXXXXXXX",
"XXXXXXXXXXXXXXXXXX  . @ g 8.K.s.T. X XW.u.u.W.K.u.r XXXXXXXXXXXX",
"XXXXXXXXXX. o 5 g M %.8.!.'.^.~.'..X}.K.i.i.K.u.z.l   XXXXXXXXXX",
"XXXXX o 3 ! 7.U./.^.'.^.!.!.E.W.^.|.'.d.0.K.W.k.Q.` : XXXXXXXXXX",
"$ p U -.:.K.Y.~.~.~.^.E.E.W.E.W.W.^.^.' ( k.Q.^.'.w.r XX  . XXXX",
"p V.H.A.M.5.x.x.!.!.^.(.~.!.~.W.E.E.E.r.i.K.Q.{.{.f.< XX& i O XX",
"$  .G.V.-.O.=.x.b.b.b.Y.E.E.^.!.E.E.E.^.).'.].].^.[.X.5 6 - - . ",
"X U Z.M.-.-.#.=.4.X.*.e.b.E.~.^.!.m.n.W.`.^.~.^.(.}.U.J M # * . ",
". D M.C.-.M.V.:.{ P R $.d.n.~.E.b.l.v.E.E.W.~.(.'.Q.F.v > - o XX",
"XXp M.A.M.V.M.M.-.-.M.#.1.g.E.E.m.E.v.v.E.!.~.(.{.L.R 2 X %   XX",
"XX2 -.V.C.C.M.-.-.>.V.M.! <.b.E.E.W.x.v.Y.!.(.'.|.S.i + @ X   XX",
"XXX V -.M.M.>.-.#.>.M.M.@.~ z.2.Q l.b.g.b.!.'.{.{.{ 1 + &   XXXX",
"XXXX7 E R { +.@.#.@.{ @.M.@.$.G _ I.b.l.Y.!.'.|.P.x o ; 8 O XXXX",
"XXXX% F @.{ U L Y { +.O.-.#.! 4.b.Y.l.l.b.^.^.'.[ * + 0 k : XXXX",
"XXXXXX4 M.M.-.@.@.-.M.>.#.#.@.o.w.p.j.l.b.~.'.P.s o ; n &.f   XX",
"XXXXXX+ >.A.M.-.-.-.M.M.+.@.>.#.| } 2.x.g.m.^.! ; @ 0 o./.X.o XX",
"XXXXXX+ #.Z.M.-.#.+.{ Y R >.M.M.M.:.{ *.p.j.a.p + ; Z P. XL.: XX",
"XXXXXX+ #.V.-.+.U b b d A >.M.V.C.V.B.{ X.q.J * + w ;._.{.a.y   ",
"XXXXXXo E A.M.A d Y M.R v -.M.N.V.M.-.@.R G w o ; N D.{.[.] 5 . ",
"XXXXXXXXw M.V.E x O.Z.@.v +.O.M.M.:. .R L i * # u $.Q.{.T.P 9 . ",
"XXXXXXXX$ +.A.M.V A M.#.v { [ M.M.N.M.R B 6 + > M t.U./.f.G t   ",
"XXXXXXXX  m H.H.E b U U b L D M.M.V.M.-.V * % u / 3.` ) H r #   ",
"XXXXXXXXXX$ { J.M.F m p D m > m +.C.C.@.w $ > h z e - + .   XXXX",
"XXXXXXXXXXX K Z.M.@.#.D E 9   X 8 o.M.D = $ - , #     XXXXXXXXXX",
"XXXXXXXXXX  g ,.M.V.>.:.D o XX    u n p * X .     XXXXXXXXXXXXXX",
"XXXXXXXXXXXX% Y M.M.M.O.3 XXXXXXXX  w V $ .   XXXXXXXXXXXXXXXXXX",
"XXXXXXXXXXXX. B ,.6.,.S X XXXXXXXXX U c X   XXXXXXXXXXXXXXXXXXXX",
"XXXXXXXXXXXX  a [ I g &   XXXXXXXXq T 2   XXXXXXXXXXXXXXXXXXXXXX",
"XXXXXXXXXXXXXXX - o   XXXXXXXXXXXXo + .   XXXXXXXXXXXXXXXXXXXXXX",
"XXXXXXXXXXXXXXXXXXXXXXXXXXXXXXXXXXXXXXXXXXXXXXXXXXXXXXXXXXXXXXXX"
};
