/* XPM */
static char * bitfighter_xpm[] = {
"16 16 18 1",
" 	c None",
".	c #555555",
"+	c #666666",
"@	c #FFFFFF",
"#	c #00FF00",
"$	c #337A00",
"%	c #161616",
"&	c #393939",
"*	c #222222",
"=	c #330000",
"-	c #1C1C1C",
";	c #424242",
">	c #868686",
",	c #FF0000",
"'	c #333333",
")	c #FF9900",
"!	c #FFFF00",
"~	c #000000",
"                ",
"       .+   @@@ ",
"      .+.@@@##@ ",
"     @@@@$##%#@ ",
"  @@@&$###%%#@  ",
" @*%=##-%%%-#@  ",
" @=##-%-#-%#@.  ",
"  @#%%=##%-#@;> ",
"   @#=##%%#=@.  ",
"   ,@##%%-#'@   ",
"  ,)!@#=%#=@    ",
"  ,!!)@#$#~@    ",
"  )!),,@#='@    ",
" ,),,   @'@     ",
" ,,      @      ",
"                "};
