/* XPM */
static char * cuby_xpm[] = {
"48 48 772 2",
"  	c None",
". 	c #C03133",
"+ 	c #D03536",
"@ 	c #E53A3A",
"# 	c #E53939",
"$ 	c #CF3436",
"% 	c #BD3133",
"& 	c #AE2E32",
"* 	c #CB3335",
"= 	c #D33335",
"- 	c #E83A3A",
"; 	c #E63A3A",
"> 	c #D73436",
", 	c #CE3235",
"' 	c #AA2D31",
") 	c #CF3537",
"! 	c #E93A3A",
"~ 	c #E73A3A",
"{ 	c #E33839",
"] 	c #DF3838",
"^ 	c #E03839",
"/ 	c #D73435",
"( 	c #E43839",
"_ 	c #CF3536",
": 	c #BD3134",
"< 	c #C53235",
"[ 	c #D83536",
"} 	c #EE3C3B",
"| 	c #C93232",
"1 	c #5C181A",
"2 	c #5B181A",
"3 	c #C63132",
"4 	c #EE3C3C",
"5 	c #E83B3A",
"6 	c #DB3536",
"7 	c #C63335",
"8 	c #BA3134",
"9 	c #B22F32",
"0 	c #DE3838",
"a 	c #E33939",
"b 	c #E43939",
"c 	c #CF3234",
"d 	c #E23838",
"e 	c #E6393A",
"f 	c #691A1C",
"g 	c #0F0405",
"h 	c #000000",
"i 	c #0E0404",
"j 	c #65191B",
"k 	c #E5393A",
"l 	c #E43838",
"m 	c #DD3838",
"n 	c #AF2E32",
"o 	c #A13035",
"p 	c #BE3133",
"q 	c #D83636",
"r 	c #872528",
"s 	c #080407",
"t 	c #010100",
"u 	c #010000",
"v 	c #010101",
"w 	c #060407",
"x 	c #852528",
"y 	c #D73636",
"z 	c #E53A39",
"A 	c #C13033",
"B 	c #9D3034",
"C 	c #BF3234",
"D 	c #D23637",
"E 	c #E33838",
"F 	c #D43435",
"G 	c #ED3B3B",
"H 	c #DC3637",
"I 	c #872223",
"J 	c #2D0B0C",
"K 	c #000001",
"L 	c #010203",
"M 	c #2A0B0C",
"N 	c #842123",
"O 	c #DA3637",
"P 	c #EE3B3B",
"Q 	c #D13637",
"R 	c #BC3234",
"S 	c #A02D33",
"T 	c #DE3839",
"U 	c #EF3A3B",
"V 	c #822529",
"W 	c #220A0B",
"X 	c #020101",
"Y 	c #05070A",
"Z 	c #06070B",
"` 	c #1F090A",
" .	c #81242A",
"..	c #DD3839",
"+.	c #A82E32",
"@.	c #D63737",
"#.	c #C73033",
"$.	c #E23939",
"%.	c #B22D2E",
"&.	c #290A0C",
"*.	c #000204",
"=.	c #020304",
"-.	c #010204",
";.	c #010202",
">.	c #25090B",
",.	c #B02B2D",
"'.	c #CB3133",
").	c #E33535",
"!.	c #D63233",
"~.	c #A52D30",
"{.	c #C43335",
"].	c #D33638",
"^.	c #D23435",
"/.	c #CF3638",
"(.	c #982728",
"_.	c #471213",
":.	c #010102",
"<.	c #040607",
"[.	c #020204",
"}.	c #000101",
"|.	c #020203",
"1.	c #040508",
"2.	c #441113",
"3.	c #9F292A",
"4.	c #DA383A",
"5.	c #D83637",
"6.	c #E72928",
"7.	c #E60909",
"8.	c #E70707",
"9.	c #E71C1C",
"0.	c #D22D2E",
"a.	c #C23335",
"b.	c #545368",
"c.	c #C6383B",
"d.	c #EC3939",
"e.	c #D63435",
"f.	c #DA3537",
"g.	c #8C2326",
"h.	c #020305",
"i.	c #020406",
"j.	c #000102",
"k.	c #320D0F",
"l.	c #BF2F31",
"m.	c #EF3131",
"n.	c #E50000",
"o.	c #E60505",
"p.	c #EC3131",
"q.	c #C9383A",
"r.	c #555266",
"s.	c #507357",
"t.	c #4E5D71",
"u.	c #A74049",
"v.	c #E2393A",
"w.	c #DE3738",
"x.	c #D23234",
"y.	c #EB3B3B",
"z.	c #C93233",
"A.	c #2E0C0D",
"B.	c #531516",
"C.	c #C83334",
"D.	c #E42626",
"E.	c #AA4148",
"F.	c #4E5C74",
"G.	c #3E6685",
"H.	c #7DE527",
"I.	c #65A842",
"J.	c #4C646C",
"K.	c #824D5E",
"L.	c #C0363B",
"M.	c #E33536",
"N.	c #6E1D20",
"O.	c #14090B",
"P.	c #040609",
"Q.	c #050609",
"R.	c #040608",
"S.	c #090000",
"T.	c #6C2429",
"U.	c #884E5C",
"V.	c #475F7A",
"W.	c #3489B1",
"X.	c #29B1E6",
"Y.	c #75D128",
"Z.	c #4DE609",
"`.	c #70CD2E",
" +	c #4E6965",
".+	c #605D74",
"++	c #B43E45",
"@+	c #E83938",
"#+	c #CE3133",
"$+	c #CA3334",
"%+	c #3B1012",
"&+	c #010305",
"*+	c #13171D",
"=+	c #495569",
"-+	c #45607B",
";+	c #2EA3D2",
">+	c #2DB7E7",
",+	c #279FD1",
"'+	c #6DC028",
")+	c #4FE709",
"!+	c #54EF0B",
"~+	c #376D0F",
"{+	c #282E3F",
"]+	c #4C6077",
"^+	c #9C4550",
"/+	c #E03A3B",
"(+	c #D23334",
"_+	c #D13334",
":+	c #EC3B3B",
"<+	c #741E21",
"[+	c #0B0304",
"}+	c #000100",
"|+	c #030304",
"1+	c #212731",
"2+	c #53637B",
"3+	c #3D7598",
"4+	c #249ED6",
"5+	c #2DB8E8",
"6+	c #2392C3",
"7+	c #69E11E",
"8+	c #49EB05",
"9+	c #57AA1C",
"0+	c #171C24",
"a+	c #41576E",
"b+	c #765769",
"c+	c #B63A3F",
"d+	c #E63737",
"e+	c #F33D3D",
"f+	c #AE2B2E",
"g+	c #401518",
"h+	c #010001",
"i+	c #06080B",
"j+	c #030407",
"k+	c #0F1319",
"l+	c #3E4757",
"m+	c #506884",
"n+	c #358FB9",
"o+	c #2CB9E9",
"p+	c #27A1D7",
"q+	c #2DB8E7",
"r+	c #2BB1E3",
"s+	c #6CCC26",
"t+	c #6ADE1E",
"u+	c #7AE329",
"v+	c #394557",
"w+	c #5E667E",
"x+	c #A5414B",
"y+	c #EE3837",
"z+	c #C83032",
"A+	c #E13939",
"B+	c #962628",
"C+	c #1B2029",
"D+	c #535D72",
"E+	c #426383",
"F+	c #2DABDA",
"G+	c #2CB6E6",
"H+	c #2AB0E2",
"I+	c #2AAADD",
"J+	c #2AAEE1",
"K+	c #2498D0",
"L+	c #71CD26",
"M+	c #78DA2A",
"N+	c #82E92D",
"O+	c #0C1A06",
"P+	c #282F3A",
"Q+	c #4E667D",
"R+	c #815160",
"S+	c #DB3A3B",
"T+	c #E43938",
"U+	c #EA3B3A",
"V+	c #D43436",
"W+	c #390F11",
"X+	c #030101",
"Y+	c #040506",
"Z+	c #353D4C",
"`+	c #5A6E87",
" @	c #3C7EA4",
".@	c #259CD4",
"+@	c #27A0D7",
"@@	c #29A7DD",
"#@	c #269ECE",
"$@	c #85E92D",
"%@	c #7DE32B",
"&@	c #2A5012",
"*@	c #161A20",
"=@	c #435468",
"-@	c #726277",
";@	c #A73F48",
">@	c #DD3231",
",@	c #731F22",
"'@	c #1D0C10",
")@	c #1A1E26",
"!@	c #4B5366",
"~@	c #4F6D8B",
"{@	c #3493BE",
"]@	c #2BB6E8",
"^@	c #26A1D5",
"/@	c #2CB4E5",
"(@	c #2182B3",
"_@	c #2AACE1",
":@	c #2DB9E8",
"<@	c #7FE22B",
"[@	c #4E8F1C",
"}@	c #060709",
"|@	c #364251",
"1@	c #626D85",
"2@	c #90515F",
"3@	c #E53635",
"4@	c #E63939",
"5@	c #C62F32",
"6@	c #DE393A",
"7@	c #CE3636",
"8@	c #4A1316",
"9@	c #313B48",
"0@	c #5C687E",
"a@	c #447394",
"b@	c #2EAAD9",
"c@	c #2CB6E7",
"d@	c #29ABDC",
"e@	c #2BAFE2",
"f@	c #2CB5E6",
"g@	c #0D394E",
"h@	c #1A6D90",
"i@	c #2DB9E9",
"j@	c #2CB3E4",
"k@	c #6FCE27",
"l@	c #82E52C",
"m@	c #6CC425",
"n@	c #262D39",
"o@	c #576981",
"p@	c #7D5E71",
"q@	c #D43E41",
"r@	c #E63938",
"s@	c #DB3637",
"t@	c #C22E31",
"u@	c #E62121",
"v@	c #E42121",
"w@	c #EE3B3A",
"x@	c #852324",
"y@	c #0E0406",
"z@	c #0A0C0E",
"A@	c #454F60",
"B@	c #5D6F89",
"C@	c #3979A1",
"D@	c #25A4D9",
"E@	c #2DB6E6",
"F@	c #29A8DC",
"G@	c #27A0D0",
"H@	c #082231",
"I@	c #2495C2",
"J@	c #1D799F",
"K@	c #73D328",
"L@	c #78DC2A",
"M@	c #72CE27",
"N@	c #091403",
"O@	c #11141A",
"P@	c #44576B",
"Q@	c #6F6E84",
"R@	c #AF4D56",
"S@	c #CE3234",
"T@	c #E83131",
"U@	c #E60E0E",
"V@	c #E40D0D",
"W@	c #EE3232",
"X@	c #C83234",
"Y@	c #4F1416",
"Z@	c #292D36",
"`@	c #5A6579",
" #	c #547796",
".#	c #3298C5",
"+#	c #29B6E8",
"@#	c #28A5D8",
"##	c #2EBAEB",
"$#	c #1D7399",
"%#	c #030C14",
"&#	c #020D14",
"*#	c #28A3D2",
"=#	c #14516B",
"-#	c #000002",
";#	c #75D528",
">#	c #81E52C",
",#	c #73D128",
"'#	c #172F0B",
")#	c #333D4B",
"!#	c #697791",
"~#	c #8E6172",
"{#	c #E63535",
"]#	c #E30A0A",
"^#	c #E60000",
"/#	c #E50909",
"(#	c #8D5F70",
"_#	c #677288",
":#	c #42769A",
"<#	c #2DADDD",
"[#	c #2BB2E2",
"}#	c #28A6D9",
"|#	c #2FBEF2",
"1#	c #13506D",
"2#	c #000203",
"3#	c #061620",
"4#	c #071E2A",
"5#	c #80E32C",
"6#	c #305912",
"7#	c #3F633B",
"8#	c #66818C",
"9#	c #7A758A",
"0#	c #CD4044",
"a#	c #E31414",
"b#	c #E51414",
"c#	c #CF3F43",
"d#	c #7C7488",
"e#	c #617B95",
"f#	c #316F99",
"g#	c #2BBCEE",
"h#	c #2CB5E5",
"i#	c #2497C9",
"j#	c #0A2B3E",
"k#	c #05151E",
"l#	c #0E3B54",
"m#	c #77DA2A",
"n#	c #83E72D",
"o#	c #447B17",
"p#	c #010103",
"q#	c #468417",
"r#	c #78CC3A",
"s#	c #638872",
"t#	c #767EA0",
"u#	c #B05F6A",
"v#	c #B25E69",
"w#	c #7A8096",
"x#	c #537C9B",
"y#	c #32A0CC",
"z#	c #2397CB",
"A#	c #2FBEF0",
"B#	c #2083AC",
"C#	c #05141F",
"D#	c #0C3547",
"E#	c #269DCC",
"F#	c #14546D",
"G#	c #0B3043",
"H#	c #7FE32C",
"I#	c #77DD2A",
"J#	c #559B1D",
"K#	c #030701",
"L#	c #3A6E15",
"M#	c #70EC1F",
"N#	c #79DE2A",
"O#	c #659E53",
"P#	c #7480A0",
"Q#	c #9B8294",
"R#	c #9B8093",
"S#	c #79829A",
"T#	c #4084AB",
"U#	c #28AAE0",
"V#	c #1DA3E6",
"W#	c #2495C8",
"X#	c #2EBCEF",
"Y#	c #165A7A",
"Z#	c #010508",
"`#	c #144F69",
" $	c #2AAEDD",
".$	c #2BAFDE",
"+$	c #0A2A3A",
"@$	c #155775",
"#$	c #2BAEDF",
"$$	c #72CF27",
"%$	c #84E72D",
"&$	c #60B523",
"*$	c #070E03",
"=$	c #66EE19",
"-$	c #3EE300",
";$	c #71E61F",
">$	c #67AD40",
",$	c #8A9BA8",
"'$	c #899AAF",
")$	c #338BB6",
"!$	c #20A7E6",
"~$	c #0083E4",
"{$	c #169EE6",
"]$	c #2599CC",
"^$	c #2AACDA",
"/$	c #10455E",
"($	c #010406",
"_$	c #155B7B",
":$	c #2BAFE6",
"<$	c #28A5D4",
"[$	c #1C769F",
"}$	c #26A0D2",
"|$	c #82E62C",
"1$	c #80E32D",
"2$	c #0C1705",
"3$	c #254413",
"4$	c #6EEF1D",
"5$	c #3DE500",
"6$	c #40E501",
"7$	c #76EB1D",
"8$	c #526C66",
"9$	c #48657F",
"0$	c #20ACE9",
"a$	c #0188E6",
"b$	c #0086E5",
"c$	c #1CA5E9",
"d$	c #1E77A2",
"e$	c #092A39",
"f$	c #05161F",
"g$	c #1F82AB",
"h$	c #2EBBEE",
"i$	c #2BAFE3",
"j$	c #279ECD",
"k$	c #10435A",
"l$	c #2BAFE1",
"m$	c #2189BE",
"n$	c #7BE02B",
"o$	c #87EF2E",
"p$	c #1D380A",
"q$	c #17300A",
"r$	c #78DF2A",
"s$	c #65E419",
"t$	c #3EE400",
"u$	c #71EA1C",
"v$	c #536E66",
"w$	c #496681",
"x$	c #1EA8E8",
"y$	c #0085E5",
"z$	c #179CE5",
"A$	c #29A9E3",
"B$	c #09263A",
"C$	c #08202D",
"D$	c #27A0CF",
"E$	c #29A9DF",
"F$	c #228BB9",
"G$	c #04131B",
"H$	c #082433",
"I$	c #2EBBF0",
"J$	c #29AAE2",
"K$	c #79DA29",
"L$	c #7FE82C",
"M$	c #112207",
"N$	c #84ED2D",
"O$	c #71D028",
"P$	c #74E224",
"Q$	c #76EB1F",
"R$	c #526D64",
"S$	c #47657F",
"T$	c #21ACEA",
"U$	c #22A5E3",
"V$	c #28A0D5",
"W$	c #2DB9EF",
"X$	c #061B26",
"Y$	c #0D384D",
"Z$	c #28A0D9",
"`$	c #1E79A4",
" %	c #02090E",
".%	c #134D6B",
"+%	c #2BB1EA",
"@%	c #29A9DC",
"#%	c #70CD25",
"$%	c #86EA2E",
"%%	c #60B524",
"&%	c #0A1503",
"*%	c #0E1A05",
"=%	c #84EB2E",
"-%	c #82E42C",
";%	c #74D429",
">%	c #7CE326",
",%	c #506C61",
"'%	c #45637E",
")%	c #27AEE5",
"!%	c #28A4D8",
"~%	c #2DB9ED",
"{%	c #04131A",
"]%	c #17607E",
"^%	c #2DB7EA",
"/%	c #269FD4",
"(%	c #2DB7E9",
"_%	c #186382",
":%	c #010205",
"<%	c #030D14",
"[%	c #2185B6",
"}%	c #259BCC",
"|%	c #7BDB29",
"1%	c #6BC425",
"2%	c #122306",
"3%	c #0C1605",
"4%	c #7DDF2C",
"5%	c #83E62D",
"6%	c #82E62D",
"7%	c #7AE026",
"8%	c #4E6862",
"9%	c #45617C",
"0%	c #27AAE1",
"a%	c #2DB5E6",
"b%	c #2AAFE1",
"c%	c #04131C",
"d%	c #2189B3",
"e%	c #29ABE0",
"f%	c #114861",
"g%	c #051822",
"h%	c #2494C4",
"i%	c #2AABE0",
"j%	c #29AADB",
"k%	c #7CDF2A",
"l%	c #77DB2A",
"m%	c #152908",
"n%	c #091305",
"o%	c #6EC92A",
"p%	c #83E62C",
"q%	c #86F029",
"r%	c #506D5E",
"s%	c #436380",
"t%	c #2BBBEE",
"u%	c #2799CD",
"v%	c #29A7DB",
"w%	c #269ACE",
"x%	c #0C374E",
"y%	c #071D28",
"z%	c #27A1CF",
"A%	c #28A5DD",
"B%	c #2BADDF",
"C%	c #6ECD26",
"D%	c #7ADB2A",
"E%	c #23460F",
"F%	c #091103",
"G%	c #68C025",
"H%	c #76D929",
"I%	c #81E32C",
"J%	c #4F6D5B",
"K%	c #426380",
"L%	c #2CB4E4",
"M%	c #28A5DC",
"N%	c #269CD4",
"O%	c #2DB8E9",
"P%	c #2495C0",
"Q%	c #092230",
"R%	c #0B2F47",
"S%	c #2AA9DA",
"T%	c #2EB9EA",
"U%	c #2498CF",
"V%	c #74D527",
"W%	c #70D127",
"X%	c #386814",
"Y%	c #070E02",
"Z%	c #69BD25",
"`%	c #73D528",
" &	c #81EA28",
".&	c #4E6E59",
"+&	c #426482",
"@&	c #2AB5E9",
"#&	c #27A1D8",
"$&	c #28A5D9",
"%&	c #2DB6E7",
"&&	c #228DBA",
"*&	c #030D13",
"=&	c #124D66",
"-&	c #259BD2",
";&	c #27A2D4",
">&	c #75D427",
",&	c #74D729",
"'&	c #88F02E",
")&	c #396B14",
"!&	c #010301",
"~&	c #060B03",
"{&	c #62B122",
"]&	c #77DF25",
"^&	c #4B6C57",
"/&	c #406080",
"(&	c #26A8E1",
"_&	c #2DB5E5",
":&	c #1C739C",
"<&	c #124E69",
"[&	c #2EBDF0",
"}&	c #27A1DA",
"|&	c #26A2D5",
"1&	c #80E32B",
"2&	c #89F12F",
"3&	c #48871C",
"4&	c #040802",
"5&	c #549C20",
"6&	c #85ED29",
"7&	c #4D6E57",
"8&	c #406382",
"9&	c #2BBAEC",
"0&	c #2CB4E6",
"a&	c #1E7BA9",
"b&	c #000103",
"c&	c #01090D",
"d&	c #196388",
"e&	c #2FBFF1",
"f&	c #2BB2E3",
"g&	c #78DB2A",
"h&	c #5EAC21",
"i&	c #030801",
"j&	c #020501",
"k&	c #54981E",
"l&	c #75D929",
"m&	c #7EE12B",
"n&	c #87EF2A",
"o&	c #4E7254",
"p&	c #3E6384",
"q&	c #2BBCED",
"r&	c #2BB0E2",
"s&	c #27A4DD",
"t&	c #1D789C",
"u&	c #1F82AD",
"v&	c #28A7DD",
"w&	c #7DE12B",
"x&	c #6EC827",
"y&	c #0D1A05",
"z&	c #4D8C1B",
"A&	c #76D92A",
"B&	c #80E728",
"C&	c #4E7452",
"D&	c #3D6487",
"E&	c #29B3E8",
"F&	c #2EB9E9",
"G&	c #1A6E90",
"H&	c #04111A",
"I&	c #2498C7",
"J&	c #2BB0E4",
"K&	c #77D729",
"L&	c #85EA2D",
"M&	c #74CF28",
"N&	c #5CAA22",
"O&	c #4C7052",
"P&	c #3B6183",
"Q&	c #28AFE6",
"R&	c #1F80AD",
"S&	c #2EBAEA",
"T&	c #7BDD29",
"U&	c #81E42C",
"V&	c #75D629",
"W&	c #75DA29",
"X&	c #86ED2A",
"Y&	c #4E754F",
"Z&	c #3A6387",
"`&	c #2BBBEC",
" *	c #28A4DD",
".*	c #27A2D9",
"+*	c #29ACDD",
"@*	c #78D929",
"#*	c #77D92A",
"$*	c #80E42C",
"%*	c #74D829",
"&*	c #4E774C",
"**	c #396488",
"=*	c #2CBBEC",
"-*	c #26A0DD",
";*	c #1CA0E4",
">*	c #2AA9DC",
",*	c #28A7DA",
"'*	c #6CCA26",
")*	c #7CE428",
"!*	c #4B734B",
"~*	c #376184",
"{*	c #23A8E6",
"]*	c #0B92E5",
"^*	c #0B8EE4",
"/*	c #289CCE",
"(*	c #70D026",
"_*	c #85EC2A",
":*	c #4D7649",
"<*	c #376387",
"[*	c #14A0EB",
"}*	c #068EE7",
"|*	c #1F96D0",
"1*	c #6DCA24",
"2*	c #4E7A47",
"3*	c #356488",
"4*	c #1CA8EB",
"5*	c #1F92CA",
"6*	c #4B7446",
"7*	c #335E82",
"                                                                                                ",
"                                          . + @ # $ %                                           ",
"                                      & * = - ; ; - > , '                                       ",
"                                    ) ! ~ { = ] ^ / ( ~ ! _                                     ",
"                              : < [ ! ; ; } | 1 2 3 4 ; ; 5 6 7 8                               ",
"                          9 0 a # b c d e f g h h i j k l = b # a m n                           ",
"                      o p ~ ; @ ; ~ q r s h t u u v h w x y ~ ; z ; - A B                       ",
"                  C D ~ E F F G H I J h K L L K K L L K h M N O P [ > E ~ Q R                   ",
"              S T a ; ; ; ; U V W X h h u h h Y Z h t h h h X `  .U ~ ; ; ; a ..S               ",
"          +.@.d #.$.# - ] %.&.h *.L v h v v =.K K -.v v h v ;.-.h >.,.0 - # a '.).!.~.          ",
"      {.].~ ~ ; - ^./.(._.K h v h :.L <.[.L }.h h }.L |.1.L :.h v h h 2.3.4.5.6.7.8.9.0.a.      ",
"    b.c.d.; # ; - e.f.g.h h v v h h h.h.i.}.h v v h }.i.=.=.h h v v h j.s k.l.m.7.n.o.p.q.r.    ",
"    s.t.u.v.# w.x.d ; y.z.A.X h ;.=.h h h [.L v v L [.h h h =.;.v v L -.h h h B.C.D.$.E.F.G.    ",
"    H.I.J.K.L.M.; ; # # ! ] N.O.h h v v v h j.P.Q.j.h v v v h j.R.Q.}.h v v t h S.T.U.V.W.X.    ",
"    Y.Z.`. +.+++@+@ # ~ d #+^ $+%+h v v h v h.;.L &+v h v t }.&+L ;.&+v h v v h *+=+-+;+>+,+    ",
"    '+)+!+~+{+]+^+/+# (+_+- ; ; :+<+[+K :.&+}+h h }+h.;.v :.h.v h h h -.-.h |+1+2+3+4+5+>+6+    ",
"      7+8+9+h 0+a+b+c+d+~ # ; # ; e+f+g+K h v v v h+h L i+j+h h v v v t h k+l+m+n+o+p+q+r+      ",
"      s+t+u+h h <.v+w+x+y+; # ; a z+w.A+B+j.h v u h -.&+:.;.h.v h v v h C+D+E+F+G+H+I+J+K+      ",
"      L+M+N+O+h h h P+Q+R+S+T+H '.# ; # U+V+W+X+}.=.|.h v u }.h.:.h Y+Z+`+ @.@>+>++@J+@@#@      ",
"        $@%@&@h h h h *@=@-@;@>@! ; ; ; # - b ,@'@h h v v v h h h )@!@~@{@]@^@q+/@(@_@:@        ",
"        <@$@[@h h h h h }@|@1@2@3@4@; # ; # 5@6@7@8@h t v v h h 9@0@a@b@c@d@e@f@g@h@i@j@        ",
"        k@l@m@h h h h h h h n@o@p@q@r@# s@t@l u@v@w@x@y@h h z@A@B@C@D@E@E@F@G@H@h I@/@J@        ",
"        K@L@M@N@h K L h h K h O@P@Q@R@S@F T@U@n.n.V@W@X@Y@Z@`@ #.#+#@#E@##$#%#h &#*#=#-#        ",
"        ;#>#,#'#h h h h h K h h |+)#!#~#d {#]#^#^#/#{#E (#_#:#<#G+[#}#|#1#2#h h 3#4#h h         ",
"          5#5#6#h h h h h K h h h h 7#8#9#0#b a#b## c#d#e#f#g#E@h#j@i#j#h h h k#l#j.h           ",
"          m#n#o#h h h h h p#j.h h h q#r#s#t#u#$.d v#w#x#y#z#>+h#A#B#C#h h h D#E#F#h G#          ",
"          H#I#J#K#h [.h h h j.h h h L#M#N#O#P#Q#R#S#T#U#V#W#5+X#Y#Z#h h h `# $.$+$@$#$          ",
"          $$%$&$*$h h K h h K h K h 6#=$-$;$>$,$'$)$!$~${$]$^$/$h K h ($_$:$>+<$[$5+}$          ",
"            |$1$2$h h h h h h h h h 3$4$5$6$7$8$9$0$a$b$c$d$e$h h h f$g$h$i$j$k$l$f@m$          ",
"            n$o$p$h h h h h i.h h h q$r$s$t$u$v$w$x$y$z$A$B$h h h C$D$>+E$F$G$H$I$J$            ",
"            K$L$L#h h [.h h L h h h M$N$O$P$Q$R$S$T$U$V$W$X$h h Y$Z$:@>+`$ %h .%+%@%            ",
"            #%$%%%&%h j.h h h h h h *%=%-%;%>%,%'%)%!%/@~%{%-#]%^%/%(%_%:%h <%[%##}%            ",
"              |%n$1%2%h h h h h h h 3%4%5%6%7%8%9%0%a%E@b%c%d%>+@%e%f%j.h g%h%i%j%              ",
"                k%l%Y.m%h h h :.h h n%o%p%5%q%r%s%t%E@f@u%v%5+5+w%x%h h y%z%A%B%                ",
"                  C%$@D%E%h h -.h h F%G%H%I%q%J%K%t%L%M%N%j@O%P%Q%h h R%S%T%U%                  ",
"                    V%%$W%X%h h h h Y%Z%l@`% &.&+&@&#&/@$&%&&&*&h h =&-&>+;&                    ",
"                      >&,&'&)&!&h h ~&{&n#l@]&^&/&(&_&E@$&:&h h *.<&[&}&|&                      ",
"                          1&2&3&Y%h 4&5&>#5%6&7&8&9&E@0&a&b&h c&d&e&f&                          ",
"                            l@g&h&i&j&k&l&m&n&o&p&q&r&s&t&($Z#u&v&h#                            ",
"                              w&w&x&y&z&$@A&B&C&D&E&A%F&G&H&I&J&J+                              ",
"                                K&L&M&N&n#p%H.O&P&Q&E@%&R&D$S&@#                                ",
"                                  T&U&V&W&%$X&Y&Z&`&q+ *.*L%+*                                  ",
"                                    @*#*$*%*X&&***=*-*;*>*,*                                    ",
"                                      '*I%l@)*!*~*{*]*^*/*                                      ",
"                                        (*%$_*:*<*[*}*|*                                        ",
"                                          1*X&2*3*4*5*                                          ",
"                                              6*7*                                              ",
"                                                                                                "};
