/* XPM */
static char * naev_xpm[] = {
"32 32 170 2",
"  	c None",
". 	c #161515",
"+ 	c #242222",
"@ 	c #222121",
"# 	c #1F1C1C",
"$ 	c #302E2E",
"% 	c #242323",
"& 	c #2C2929",
"* 	c #342E2E",
"= 	c #363233",
"- 	c #2C2A2A",
"; 	c #1B1717",
"> 	c #252323",
", 	c #332E2E",
"' 	c #3A3434",
") 	c #3F3E3E",
"! 	c #353636",
"~ 	c #4E0000",
"{ 	c #5C0505",
"] 	c #3B1F1F",
"^ 	c #2E2A2A",
"/ 	c #312D2D",
"( 	c #3A3333",
"_ 	c #3D3A3B",
": 	c #3E3C3C",
"< 	c #2B2A29",
"[ 	c #2E1515",
"} 	c #520000",
"| 	c #6E0000",
"1 	c #860000",
"2 	c #8A0505",
"3 	c #562121",
"4 	c #342F2F",
"5 	c #352E2E",
"6 	c #3A3031",
"7 	c #3C3333",
"8 	c #3D3737",
"9 	c #3D3939",
"0 	c #552424",
"a 	c #561E1E",
"b 	c #5A0D0D",
"c 	c #610606",
"d 	c #7A0404",
"e 	c #950101",
"f 	c #7F0A0A",
"g 	c #681414",
"h 	c #492626",
"i 	c #333232",
"j 	c #393131",
"k 	c #3B3434",
"l 	c #3A3030",
"m 	c #383535",
"n 	c #371E1E",
"o 	c #511616",
"p 	c #6C0404",
"q 	c #460F0F",
"r 	c #520909",
"s 	c #5D0404",
"t 	c #291515",
"u 	c #272525",
"v 	c #393232",
"w 	c #3B3939",
"x 	c #3A3A3A",
"y 	c #3A3535",
"z 	c #3A3737",
"A 	c #492E2E",
"B 	c #141414",
"C 	c #393333",
"D 	c #3B3838",
"E 	c #3B3A3A",
"F 	c #393A3A",
"G 	c #4C2D2D",
"H 	c #8F0C0C",
"I 	c #700101",
"J 	c #2B2929",
"K 	c #383232",
"L 	c #3A3B3B",
"M 	c #393939",
"N 	c #383838",
"O 	c #4A2B2B",
"P 	c #8F0B0B",
"Q 	c #B10101",
"R 	c #800101",
"S 	c #2A2828",
"T 	c #323232",
"U 	c #212020",
"V 	c #512222",
"W 	c #A10404",
"X 	c #AE0202",
"Y 	c #8E0202",
"Z 	c #272727",
"` 	c #383333",
" .	c #2C2B2B",
"..	c #1E1B1B",
"+.	c #392E2E",
"@.	c #860E0E",
"#.	c #AD0202",
"$.	c #9D0202",
"%.	c #3B0F0F",
"&.	c #5C2020",
"*.	c #3F3737",
"=.	c #363536",
"-.	c #252424",
";.	c #371A1A",
">.	c #8F0A0A",
",.	c #AC0202",
"'.	c #A60202",
").	c #610101",
"!.	c #900101",
"~.	c #930404",
"{.	c #3A1B1B",
"].	c #1B1B1B",
"^.	c #920202",
"/.	c #A80303",
"(.	c #720202",
"_.	c #890000",
":.	c #920000",
"<.	c #510101",
"[.	c #4C0808",
"}.	c #611616",
"|.	c #A00505",
"1.	c #860202",
"2.	c #7F0000",
"3.	c #8B0000",
"4.	c #2E2525",
"5.	c #820F0F",
"6.	c #990101",
"7.	c #760101",
"8.	c #820000",
"9.	c #261212",
"0.	c #880808",
"a.	c #A50101",
"b.	c #580101",
"c.	c #6F0101",
"d.	c #7C0000",
"e.	c #5E0707",
"f.	c #880B0B",
"g.	c #660A0A",
"h.	c #0D0E0E",
"i.	c #600808",
"j.	c #770000",
"k.	c #412121",
"l.	c #441817",
"m.	c #2C2626",
"n.	c #3C1E1E",
"o.	c #0B0808",
"p.	c #1B1615",
"q.	c #302829",
"r.	c #2E292A",
"s.	c #322A2B",
"t.	c #302B2B",
"u.	c #1E1A1A",
"v.	c #362F2F",
"w.	c #322E2E",
"x.	c #171515",
"y.	c #252121",
"z.	c #373333",
"A.	c #1E1D1D",
"B.	c #272424",
"C.	c #383434",
"D.	c #1C1C1C",
"E.	c #322D2D",
"F.	c #363030",
"G.	c #302C2C",
"H.	c #1D1919",
"I.	c #262626",
"J.	c #2B2A2A",
"K.	c #282525",
"L.	c #1B1919",
"M.	c #181818",
"                                                                ",
"                                                    .           ",
"                                                  + @           ",
"                                                # $ %           ",
"                                                & * = -         ",
"                                            ; > , ' ) !         ",
"                                      ~ { ] ^ / ( _ : <         ",
"                      [         } | 1 2 3 4 5 6 7 8 9 +         ",
"                      0 a b c d e f g h i j 8 k l l m           ",
"                      n o p q r s t u i v w x w y z A           ",
"                      B             - C D E x x F G H I         ",
"                                  J K w L M N x O P Q R         ",
"                                S v D x T % U / V W X Y         ",
"                              Z ` w M  .      ..+.@.#.$.        ",
"                            %.&.*.=.-.          ;.>.,.'.).      ",
"                            !.~.{.].              ^.'./.(.      ",
"                          _.:.<.                  [.}.|.1.      ",
"                        2.3.                        4.5.6.      ",
"                      7.8.                          9.0.a.b.    ",
"                    c.d.                              e.f.g.h.  ",
"                  i.j.                                  k.l.    ",
"                m.n.                                  o.p.      ",
"              q.r.                                              ",
"            s.t.                                                ",
"        u.v.w.x.                                                ",
"      y.K z.A.                                                  ",
"    B.' C.S                                                     ",
"  D.E.F.G.H.                                                    ",
"  I.J.K.L.                                                      ",
"  A.M.                                                          ",
"                                                                ",
"                                                                "};
