/* XPM */
static char * atomic01_xpm[] = {
"19 19 5 1",
" 	c None",
".	c #FFC000",
"+	c #000000",
"@	c #404040",
"#	c #808080",
"      .......      ",
"    ..+++++++..    ",
"   ...@+++++@...   ",
"  ....#@+++@#....  ",
" ......#+++#...... ",
" .......@+@....... ",
"........#@#........",
"...................",
"........#+#........",
"........+++........",
".++++++.#+#.++++++.",
".++++++.....++++++.",
".+++++@#...#@+++++.",
" .+++@#.....#@+++. ",
" .++@#.......#@++. ",
"  .@#.........#@.  ",
"   .............   ",
"    ...........    ",
"      .......      "};
