/* XPM */
static char * higan_xpm[] = {
"32 32 139 2",
"  	c None",
". 	c #FFBEBE",
"+ 	c #F79A9A",
"@ 	c #EF7575",
"# 	c #FAA9A9",
"$ 	c #FFC7C7",
"% 	c #FFBFBF",
"& 	c #FEBCBC",
"* 	c #FFBCBC",
"= 	c #FFBDBD",
"- 	c #E95B5B",
"; 	c #D91111",
"> 	c #D80E0E",
", 	c #DF2D2D",
"' 	c #EF7676",
") 	c #F28787",
"! 	c #D91212",
"~ 	c #DB1919",
"{ 	c #DA1818",
"] 	c #DA1515",
"^ 	c #E23C3C",
"/ 	c #FFC3C3",
"( 	c #DA1616",
"_ 	c #E95858",
": 	c #FFC0C0",
"< 	c #FFC4C4",
"[ 	c #E44343",
"} 	c #DA1717",
"| 	c #F38A8A",
"1 	c #FFC1C1",
"2 	c #EB6666",
"3 	c #D91010",
"4 	c #FEBABA",
"5 	c #F9A1A1",
"6 	c #F07C7C",
"7 	c #FDB6B6",
"8 	c #F28686",
"9 	c #F18080",
"0 	c #F07B7B",
"a 	c #DF2F2F",
"b 	c #FFC6C6",
"c 	c #FFC2C2",
"d 	c #E13737",
"e 	c #FCB1B1",
"f 	c #FEBDBD",
"g 	c #FFBBBB",
"h 	c #D91414",
"i 	c #DB1E1E",
"j 	c #F28383",
"k 	c #FDB7B7",
"l 	c #F18181",
"m 	c #E44242",
"n 	c #FCB3B3",
"o 	c #DB1B1B",
"p 	c #F79C9C",
"q 	c #EC6868",
"r 	c #E34141",
"s 	c #FEB8B8",
"t 	c #F38888",
"u 	c #E75050",
"v 	c #E23939",
"w 	c #D80F0F",
"x 	c #FBACAC",
"y 	c #DD2222",
"z 	c #F58F8F",
"A 	c #EA5E5E",
"B 	c #FEBBBB",
"C 	c #E64C4C",
"D 	c #DC2121",
"E 	c #E54848",
"F 	c #D91313",
"G 	c #DB1D1D",
"H 	c #F48D8D",
"I 	c #ED6D6D",
"J 	c #E54646",
"K 	c #EA6161",
"L 	c #FAA8A8",
"M 	c #E54545",
"N 	c #E44646",
"O 	c #F28181",
"P 	c #E95E5E",
"Q 	c #DE2727",
"R 	c #E74F4F",
"S 	c #FCB0B0",
"T 	c #FDB8B8",
"U 	c #EE6F6F",
"V 	c #F89E9E",
"W 	c #EE7474",
"X 	c #F38989",
"Y 	c #F59393",
"Z 	c #F79999",
"` 	c #FCB2B2",
" .	c #FFC5C5",
"..	c #EB6464",
"+.	c #F59191",
"@.	c #E44141",
"#.	c #DF2E2E",
"$.	c #DB1C1C",
"%.	c #E54747",
"&.	c #FCAFAF",
"*.	c #EF7777",
"=.	c #ED6E6E",
"-.	c #DA1414",
";.	c #F59494",
">.	c #E13838",
",.	c #E13535",
"'.	c #FBAAAA",
").	c #FAA7A7",
"!.	c #DC2222",
"~.	c #FDB3B3",
"{.	c #E02F2F",
"].	c #EA5D5D",
"^.	c #F38787",
"/.	c #E34040",
"(.	c #F9A3A3",
"_.	c #EB6565",
":.	c #E75252",
"<.	c #FEB9B9",
"[.	c #FDB5B5",
"}.	c #E03232",
"|.	c #E23A3A",
"1.	c #FDB4B4",
"2.	c #E03030",
"3.	c #E64D4D",
"4.	c #F48C8C",
"5.	c #DF2C2C",
"6.	c #E33C3C",
"7.	c #F8A0A0",
"8.	c #E85555",
"9.	c #F28484",
"0.	c #DE2929",
"a.	c #E95959",
"b.	c #DB1818",
"c.	c #DC1A1A",
"d.	c #F9A7A7",
"e.	c #D91515",
"f.	c #DA1919",
"g.	c #DB1A1A",
"h.	c #DA1A1A",
"                                                                ",
"                    . + @ # $ % & * = = =                       ",
"                  = % - ; > , ' # = = = = = *                   ",
"              = * = . ) ! ~ { ] ^ % = = = * = * =               ",
"          = * = = = = / ( { ~ ( _ : = = = = = = =               ",
"        = * = = = = & < [ } ~ ! | . = = = = . % & = =           ",
"      & . . = & = = = 1 2 ( { 3 4 = = = = = 5 6 7 = &           ",
"      : 8 9 % % & = = % 0 ( { a b & = = & c - ! d e = f g       ",
"    = $ h ! i j k = = % l ] } m < = = = = n ] { } o p * =       ",
"  = = 1 q ] { ] r s & . t ] } u / = = & s v } ~ } w d 7 =       ",
"  = = & x y ~ ~ ] _ c = z ] ( A 1 = = B C ] ( D E + $ = = =     ",
"  = = = . A F ~ { G $ . H ] ( I : & B J F 3 K L % . & * = = =   ",
"  = = = & $ M ( ( N / % O ] ( 0 % B P Q R S c = = = = = = = =   ",
"* = = = & = T U a V = : W ( ] X % Y Z ` : = & = = = = = = = =   ",
"= * = = = = & :  .. & 1 ..( ] +.. % = & = = = = = = = = = = =   ",
"* = = = = = = = = = = < @.} { #.: = = = = = = = = = = = = = =   ",
"* = = = = = = = = = = b $.{ ~ ( %.& & = = = = = = = = = = = =   ",
"= * = = = = = = = = = &.w ~ ~ ~ { *.c & = = = = = = = = = = =   ",
"* = = = = = = = = = % =.-.~ } ~ ~ w ;.. & = = = = = = = = = =   ",
"  = = = = = = = = = & >.{ ] ,.} ~ { y '.& = = = = = = = = = =   ",
"  = = = = = = = = = ).!.{ #.~.D ~ ~ } {.4 = = = = = = = = = =   ",
"  = = = = = = = & / ].( ( q c ^.> ~ ~ ( /.& & = = = = = = =     ",
"  = = = = = = = . ).w ~ $.(.& < _.} ~ ~ ] :.<.= & = = = =       ",
"    = = = = = & [.}.{ { d & & & 4 >.} ~ ~ ] |.1.. & = * =       ",
"      * = = = = A ] { ~ ).. = = = * 2.} ~ ~ } $.;.* . f g       ",
"      * = & = 3.( ~ { 4.% & = = & = e 5.{ ~ ~ { ~ 6.7.          ",
"        = ` 8.] } y 9.: & = = = = = = [.5.} ~ ~ ~ { !           ",
"          0.F w a.x % & = = = = = = & = 7 =.w ( ~ ~ { { b.{ b.  ",
"      c.{ } @.7 c = = = = = = = = = = = & c d.a.e.b.~ ~ f.g.h.~ ",
"                  = * = = = = = = = = = = f =                   ",
"                    = * = = = = * * = = =                       ",
"                                                                "};
