/* XPM */
static char *higan_2[] = {
/* columns rows colors chars-per-pixel */
"32 32 152 2 ",
"   c #DADA18181818",
".  c #DBDB18181818",
"X  c #DADA19191919",
"o  c #DBDB19191919",
"O  c #DBDB1A1A1A1A",
"+  c #DBDB1B1B1B1B",
"@  c #DCDC1B1B1B1B",
"#  c #DADA1C1C1C1C",
"$  c #DCDC1C1C1C1C",
"%  c #DCDC1D1D1D1D",
"&  c #DCDC1E1E1E1E",
"*  c #DCDC1F1F1F1F",
"=  c #DDDD20202020",
"-  c #DDDD21212121",
";  c #DDDD22222222",
":  c #DDDD23232323",
">  c #DDDD25252525",
",  c #DEDE25252525",
"<  c #DEDE26262626",
"1  c #DEDE27272727",
"2  c #DEDE28282828",
"3  c #DEDE29292929",
"4  c #DFDF2A2A2A2A",
"5  c #DFDF2B2B2B2B",
"6  c #DFDF2C2C2C2C",
"7  c #DFDF2D2D2D2D",
"8  c #E0E02D2D2D2D",
"9  c #E0E02F2F2F2F",
"0  c #E0E030303030",
"q  c #E0E032323232",
"w  c #E1E132323232",
"e  c #E1E133333333",
"r  c #E0E035353535",
"t  c #E1E135353535",
"y  c #E1E136363636",
"u  c #E2E237373737",
"i  c #E2E23A3A3A3A",
"p  c #E2E23B3B3B3B",
"a  c #E3E33C3C3C3C",
"s  c #E3E33E3E3E3E",
"d  c #E3E33F3F3F3F",
"f  c #E3E340404040",
"g  c #E3E342424242",
"h  c #E4E441414141",
"j  c #E5E545454545",
"k  c #E5E546464646",
"l  c #E5E548484848",
"z  c #E6E649494949",
"x  c #E6E64A4A4A4A",
"c  c #E6E64B4B4B4B",
"v  c #E6E64C4C4C4C",
"b  c #E7E74D4D4D4D",
"n  c #E6E64F4F4F4F",
"m  c #E7E74F4F4F4F",
"M  c #E7E751515151",
"N  c #E7E752525252",
"B  c #E8E852525252",
"V  c #E8E853535353",
"C  c #E8E854545454",
"Z  c #E8E856565656",
"A  c #E9E956565656",
"S  c #E8E857575757",
"D  c #E9E957575757",
"F  c #E9E958585858",
"G  c #E9E959595959",
"H  c #EAEA5C5C5C5C",
"J  c #EAEA5D5D5D5D",
"K  c #EAEA5E5E5E5E",
"L  c #EAEA60606060",
"P  c #EBEB60606060",
"I  c #EBEB61616161",
"U  c #ECEC65656565",
"Y  c #ECEC67676767",
"T  c #EDED6A6A6A6A",
"R  c #EDED6B6B6B6B",
"E  c #EDED6C6C6C6C",
"W  c #EDED6D6D6D6D",
"Q  c #EEEE6D6D6D6D",
"!  c #EEEE6E6E6E6E",
"~  c #EEEE6F6F6F6F",
"^  c #EEEE73737373",
"/  c #EFEF77777777",
"(  c #F0F077777777",
")  c #F0F079797979",
"_  c #F0F07A7A7A7A",
"`  c #F0F07B7B7B7B",
"'  c #F1F17C7C7C7C",
"]  c #F1F17D7D7D7D",
"[  c #F1F17E7E7E7E",
"{  c #F1F17F7F7F7F",
"}  c #F2F27F7F7F7F",
"|  c #F2F280808080",
" . c #F2F281818181",
".. c #F2F282828282",
"X. c #F3F385858585",
"o. c #F3F389898989",
"O. c #F4F488888888",
"+. c #F4F489898989",
"@. c #F4F48A8A8A8A",
"#. c #F4F48C8C8C8C",
"$. c #F4F48D8D8D8D",
"%. c #F5F590909090",
"&. c #F5F591919191",
"*. c #F5F593939393",
"=. c #F6F694949494",
"-. c #F6F695959595",
";. c #F5F596969696",
":. c #F6F696969696",
">. c #F6F697979797",
",. c #F7F798989898",
"<. c #F7F799999999",
"1. c #F8F89B9B9B9B",
"2. c #F8F89C9C9C9C",
"3. c #F8F89D9D9D9D",
"4. c #F8F89F9F9F9F",
"5. c #F9F9A1A1A1A1",
"6. c #F9F9A2A2A2A2",
"7. c #FAFAA5A5A5A5",
"8. c #F9F9A6A6A6A6",
"9. c #FAFAA6A6A6A6",
"0. c #FAFAA7A7A7A7",
"q. c #FBFBA9A9A9A9",
"w. c #FBFBAAAAAAAA",
"e. c #FBFBABABABAB",
"r. c #FBFBACACACAC",
"t. c #FBFBADADADAD",
"y. c #FCFCAEAEAEAE",
"u. c #FCFCAFAFAFAF",
"i. c #FCFCB1B1B1B1",
"p. c #FCFCB2B2B2B2",
"a. c #FDFDB2B2B2B2",
"s. c #FDFDB3B3B3B3",
"d. c #FDFDB4B4B4B4",
"f. c #FDFDB5B5B5B5",
"g. c #FDFDB6B6B6B6",
"h. c #FDFDB7B7B7B7",
"j. c #FEFEB6B6B6B6",
"k. c #FEFEB7B7B7B7",
"l. c #FDFDB8B8B8B8",
"z. c #FEFEB8B8B8B8",
"x. c #FEFEB9B9B9B9",
"c. c #FEFEBABABABA",
"v. c #FEFEBBBBBBBB",
"b. c #FFFFBBBBBBBB",
"n. c #FDFDBCBCBCBC",
"m. c #FDFDBDBDBDBD",
"M. c #FEFEBCBCBCBC",
"N. c #FFFFBCBCBCBC",
"B. c #FEFEBDBDBDBD",
"V. c #FFFFBDBDBDBD",
"C. c #FEFEBEBEBEBE",
"Z. c None",
/* pixels */
"Z.Z.Z.Z.Z.Z.Z.Z.Z.Z.Z.Z.Z.Z.Z.Z.Z.Z.Z.Z.Z.Z.Z.Z.Z.Z.Z.Z.Z.Z.Z.Z.",
"Z.Z.Z.Z.Z.Z.Z.Z.Z.Z.B.*./ =.i.B.B.B.B.B.b.Z.Z.Z.Z.Z.Z.Z.Z.Z.Z.Z.",
"Z.Z.Z.Z.Z.Z.Z.Z.B.B.b.U + 1 s I ,.b.B.B.B.b.B.Z.Z.Z.Z.Z.Z.Z.Z.Z.",
"Z.Z.Z.Z.Z.Z.Z.B.B.B.B.O.$ + + . l k.B.B.B.B.B.b.Z.Z.Z.Z.Z.Z.Z.Z.",
"Z.Z.Z.Z.Z.B.B.B.B.B.B.e.0 + + + Q B.B.B.B.B.B.B.B.b.Z.Z.Z.Z.Z.Z.",
"Z.Z.Z.Z.B.B.B.B.B.B.B.b.l . + $ *.B.B.B.B.B.B.b.B.B.B.Z.Z.Z.Z.Z.",
"Z.Z.Z.B.B.B.B.B.B.B.B.b.I @ + 5 7.B.B.B.B.B.#.T r.B.B.B.Z.Z.Z.Z.",
"Z.Z.Z.b.| ] 7.b.B.B.B.B.Q @ + s i.B.B.B.B.b.A @ k 2.b.B.Z.Z.Z.Z.",
"Z.Z.B.y.t @ 0 Q y.B.B.B.' + . M b.B.B.B.B.5.8 + @ 0 +.b.B.Z.Z.Z.",
"Z.B.b.b.V + + @ l 7.B.B.] + . P b.B.B.B.q.l + + + 1 V i.b.B.Z.Z.",
"Z.B.B.B.=.1 . + + A b.b.] + + Q B.B.B.y.l $ $ 5 G *.i.B.B.b.Z.Z.",
"Z.B.B.B.b.U @ + + t y.B.' + + ( B.B.r.b @ 8 H 2.b.B.B.B.B.B.Z.Z.",
"B.B.B.B.B.y.b + . d k.b./ + + ] B.i.G 0 H 2.b.B.B.B.B.B.B.B.B.Z.",
"b.B.B.B.B.B.e.P d | b.B.T + $ ] b.=.| 7.b.B.B.B.B.B.B.B.B.B.B.Z.",
"B.B.B.B.B.B.B.b.i.b.B.B.H + + ' B.B.B.B.B.B.B.B.B.B.B.B.B.B.B.Z.",
"b.B.B.B.B.B.B.B.B.B.B.k.l + . s e.B.B.B.B.B.B.B.B.B.B.B.B.B.B.Z.",
"b.B.B.B.B.B.B.B.B.B.B.y.t . . + V i.B.B.B.B.B.B.B.B.B.B.B.B.B.Z.",
"b.B.B.B.B.B.B.B.B.B.B.2.1 . + . @ Q b.B.B.B.B.B.B.B.B.B.B.B.B.Z.",
"B.B.B.B.B.B.B.B.B.B.B.' + + + . + 1 O.b.B.B.B.B.B.B.B.B.B.B.B.Z.",
"b.B.B.B.B.B.B.B.B.B.k.b @ $ 5 . . + t 2.B.B.B.B.B.B.B.B.B.B.B.Z.",
"Z.B.B.B.B.B.B.B.B.B.1.1 + i O.5 + . + k e.b.B.B.B.B.B.B.B.B.Z.Z.",
"Z.B.B.B.B.B.B.B.B.b.H @ + P b.' = . . + V r.B.B.B.B.B.B.B.B.Z.Z.",
"Z.B.B.B.B.B.B.B.B.*.5 + = *.B.k.P $ + + $ A r.B.B.B.B.B.b.B.Z.Z.",
"Z.Z.b.B.B.B.B.B.y.j . + b i.B.B.y.b + . + @ b 5.B.B.B.B.B.Z.Z.Z.",
"Z.Z.Z.B.B.B.B.i.H $ + 5 =.B.B.B.B.7.s @ . + + t O.k.B.B.Z.Z.Z.Z.",
"Z.Z.Z.B.B.B.i.I $ + 1 ' b.B.B.B.B.B.2.i + . . + $ V =.i.Z.Z.Z.Z.",
"Z.Z.Z.Z.B.7.A $ + 8 ] b.B.B.B.B.B.B.B.2.s + + + + + = 1 Z.Z.Z.Z.",
"Z.Z.Z.Z.Z.t $ 5 A 1.b.B.B.B.B.B.B.B.B.B.7.A = + + . + + + + @ Z.",
"Z.Z.Z.+ + + f ,.k.B.B.B.B.B.B.B.B.B.B.B.B.k.#.b + + . + . + + Z.",
"Z.Z.Z.Z.Z.Z.Z.Z.B.B.B.B.B.B.B.B.B.B.B.B.b.B.B.Z.Z.Z.Z.Z.Z.Z.Z.Z.",
"Z.Z.Z.Z.Z.Z.Z.Z.Z.Z.B.B.B.b.B.B.B.B.B.B.b.Z.Z.Z.Z.Z.Z.Z.Z.Z.Z.Z.",
"Z.Z.Z.Z.Z.Z.Z.Z.Z.Z.Z.Z.Z.Z.Z.Z.Z.Z.Z.Z.Z.Z.Z.Z.Z.Z.Z.Z.Z.Z.Z.Z."
};
