/* XPM */
static char *springlobby[] = {
/* columns rows colors chars-per-pixel */
"32 32 256 2 ",
"   c #030200",
".  c #080700",
"X  c #0C0A02",
"o  c #100C08",
"O  c #161400",
"+  c #191601",
"@  c #1C1900",
"#  c #1B120E",
"$  c #1B1909",
"%  c #141210",
"&  c #1F1E13",
"*  c #1E1E1E",
"=  c #1C1612",
"-  c #211711",
";  c #241814",
":  c #2C1E17",
">  c #211C19",
",  c #262200",
"<  c #2B2603",
"1  c #2D2800",
"2  c #322D00",
"3  c #373100",
"4  c #3B3501",
"5  c #3F320E",
"6  c #262415",
"7  c #2F241E",
"8  c #2C2915",
"9  c #37261C",
"0  c #3B381D",
"q  c #212121",
"w  c #3B3824",
"e  c #3D312A",
"r  c #433C00",
"t  c #453B0F",
"y  c #412D22",
"u  c #413321",
"i  c #4A3425",
"p  c #43362D",
"a  c #4D372A",
"s  c #53392A",
"d  c #5A3D2E",
"f  c #403B36",
"g  c #4A3C33",
"h  c #484000",
"j  c #524705",
"k  c #574D04",
"l  c #584F00",
"z  c #5C5200",
"x  c #4B461F",
"c  c #564F11",
"v  c #584F1E",
"b  c #5A5318",
"n  c #605500",
"m  c #665B00",
"M  c #695E00",
"N  c #675F1A",
"B  c #6F6300",
"V  c #716400",
"C  c #776A00",
"Z  c #7A6D00",
"A  c #6F661A",
"S  c #4B4229",
"D  c #494234",
"F  c #44413C",
"G  c #4D4038",
"H  c #5F4232",
"J  c #524B34",
"K  c #50423B",
"L  c #524D3E",
"P  c #5C5837",
"I  c #674735",
"U  c #6F4C3A",
"Y  c #714D3A",
"T  c #7A533F",
"R  c #6C6423",
"E  c #756F3D",
"W  c #78723A",
"Q  c #484540",
"!  c #484848",
"~  c #5B5552",
"^  c #5B5B5B",
"/  c #6B5448",
"(  c #7C5641",
")  c #7C5844",
"_  c #785D4E",
"`  c #635650",
"'  c #6A5E57",
"]  c #78755A",
"[  c #656565",
"{  c #6F6E61",
"}  c #837500",
"|  c #8C7D00",
" . c #80793A",
".. c #835A43",
"X. c #806658",
"o. c #896C5D",
"O. c #976750",
"+. c #9C6B50",
"@. c #A16E53",
"#. c #A97457",
"$. c #A97358",
"%. c #B37A5B",
"&. c #917567",
"*. c #8F8000",
"=. c #948400",
"-. c #9C8A00",
";. c #9F8F09",
":. c #A29101",
">. c #A99700",
",. c #AB9800",
"<. c #B19E00",
"1. c #AA9A18",
"2. c #B6A200",
"3. c #BAA600",
"4. c #BEA900",
"5. c #BAA814",
"6. c #AE9F23",
"7. c #C4AE00",
"8. c #C7B100",
"9. c #CBB500",
"0. c #D4BD00",
"q. c #C9BA3C",
"w. c #D6C002",
"e. c #DBC300",
"r. c #DEC911",
"t. c #E4CB00",
"y. c #E8CF00",
"u. c #E7CF0B",
"i. c #EDD300",
"p. c #EFD70F",
"a. c #F0D600",
"s. c #F5DB00",
"d. c #F9DE00",
"f. c #F7DF18",
"g. c #FEE201",
"h. c #FFE50D",
"j. c #FFE80C",
"k. c #FFE511",
"l. c #FEE61B",
"z. c #FFE81A",
"x. c #E3CE23",
"c. c #ECD732",
"v. c #FFE726",
"b. c #FFE826",
"n. c #FCE62B",
"m. c #FFE82B",
"M. c #FFE935",
"N. c #FFEA38",
"B. c #958E53",
"V. c #A39840",
"C. c #A69C4C",
"Z. c #BCB157",
"A. c #979267",
"S. c #97957E",
"D. c #A7826E",
"F. c #BC866A",
"G. c #A09A63",
"H. c #BE8D74",
"J. c #B78E78",
"K. c #B7B17A",
"L. c #C08363",
"P. c #CD8D6B",
"I. c #D18F6B",
"U. c #D1906C",
"Y. c #D8946F",
"T. c #DC9771",
"R. c #DD9872",
"E. c #E09B75",
"W. c #E89F77",
"Q. c #EEA37B",
"!. c #F2A67C",
"~. c #F6A97F",
"^. c #DACA45",
"/. c #DCCE52",
"(. c #DDD05B",
"). c #E8D749",
"_. c #FCE741",
"`. c #FFEB43",
"'. c #FFEC4E",
"]. c #F6E343",
"[. c #FFEC52",
"{. c #F3E359",
"}. c #FFED5D",
"|. c #FFF054",
" X c #FFF05E",
".X c #D5C962",
"XX c #DCD067",
"oX c #FFEE60",
"OX c #FFEF6A",
"+X c #FFF26C",
"@X c #EDE17C",
"#X c #FEEF79",
"$X c #FFF076",
"%X c #FFF279",
"&X c #8A8481",
"*X c #998A82",
"=X c #9A8F89",
"-X c #9D9C8C",
";X c #BE9E8D",
":X c #B39A8C",
">X c #B3A298",
",X c #AFAFAF",
"<X c #B2ABA7",
"1X c #BAB9A6",
"2X c #D29E82",
"3X c #CFA087",
"4X c #DEB49D",
"5X c #E8A986",
"6X c #EDAD8A",
"7X c #F9AB80",
"8X c #F0B18F",
"9X c #FBB28B",
"0X c #E0B39B",
"qX c #FBBF9D",
"wX c #C8C182",
"eX c #E6DB84",
"rX c #F6E980",
"tX c #F2E78E",
"yX c #FFF385",
"uX c #F6EB90",
"iX c #F6EC9F",
"pX c #FFF595",
"aX c #C8C6A5",
"sX c #CFCBA1",
"dX c #D0CEBA",
"fX c #D5D4BF",
"gX c #FBC6A9",
"hX c #E6C4B1",
"jX c #F5CCB5",
"kX c #FCCBB0",
"lX c #FFD0B7",
"zX c #F1D0BE",
"xX c #FAD1BA",
"cX c #EBE4A7",
"vX c #F1EAA5",
"bX c #FFF8A7",
"nX c #FFF8AA",
"mX c #FBF1A3",
"MX c #F5EFB7",
"NX c #FFFBB3",
"BX c #C8C3C0",
"VX c #F9D5C1",
"CX c #F0D7C9",
"ZX c #FCDCCB",
"AX c #F1DFD5",
"SX c #F1EEC9",
"DX c #FFFCC1",
"FX c #FEFCCC",
"GX c #FFE1D1",
"HX c #FFE7DA",
"JX c #FFFED1",
"KX c #ECECEB",
"LX c #FFECE1",
"PX c #F3F0EF",
"IX c #FFF4EE",
"UX c None",
/* pixels */
"UXUXUXUXUXUXUXUXUXUXUXUXUXUXUXUXUXUXUXUXUXUXUXUXUXUXUXUXUXUXUXUX",
"UXUXUXUXUXUXUXUXUXUXUXUXUXUXUX% UXUXUXUXUXUXUXUXUXUXUXUXUXUXUXUX",
"UXUXUXUXUXUXUXUXUXUXUXUXUXUXUX&XQ UXUXUXUXUXUXUXUXUXUXUXUXUXUXUX",
"UXUXUXUXUXUXUXUXUXUXUXUXUXUX~ AX*XUXUXUXUXUXUXUXUXUXUXUXUXUXUXUX",
"UXUXUXUXUXUXUXUXUXUXUXUXUXUX>XGXhXg UXUXUXUXUXUXUXUXUXUXUXUXUXUX",
"UXUXUXUX* UXUXUXUXUXUXUXUX` zXxXkXD.UXUXUXUXUXUXUXUX: ; UXUXUXUX",
"UXUXUXUX[ ,X^ UXUXUXUXUX> ;XlXgXqX6XH UXUXUXUXUXy ..L.s UXUXUXUX",
"UXUXUXUX! KXPX<X~ UXUXUX/ 4X3XH.F.P.@.% UX; d @.R.7XU.: UXUXUXUX",
"UXUXUXUXq BXIXLXCX:XK . e g D J J S u o : #.Q.7X7X7X+.UXUXUXUXUX",
"UXUXUXUXUX=XHXZXVX;Xg F S.sXcXiXuXeX.XV.v i $.!.~.!.I UXUXUXUXUX",
"UXUXUXUXUX' VXjX&.f -XSXDXbXpXyX+XOX X|.].6.t ( Q.Y.9 UXUXUXUXUX",
"UXUXUXUXUXp 4Xo.Q dXJXvXtXyX#XOX X|.`.N.m.b.r.k U +.UXUXUXUXUXUX",
"UXUXUXUXUX= / f fXFXK.w E $XOXoX[.`.N.m.v.k.g.t.j ; UXUXUXUXUXUX",
"UXUXUX7 g a > 1XFXwX> w Z.OX X[.`.N.m.l.k.g.g.g.9.< U T a : UXUX",
"% X.J.2X5X..{ FXmXP 8 XX+X X[.`.N.m.l.k.g.g.g.d.s.} I !.W.I.( o ",
"UX_ 8X9XE.p aXNXeX6  .+X/.^.`.N.v.v.p.e.e.s.d.s.a.0.5 P.7XU.i UX",
"UXUX( Q.%.L MXpXrXC.(.{.R N c.m.l.k.:.z m 7.s.a.a.t.z O.T.a UXUX",
"UXUXUX..( ] nXyX#XOX X).b c x.l.h.g.a.e.e.a.s.a.y.t.} s H UXUXUX",
"UXUXUXUX= A.pX#XOX X[._.6.1.l.h.g.g.g.g.g.s.a.i.y.t.=.o UXUXUXUX",
"UXUXUXUX  G.yXOX}.'.N.N.b.l.h.g.g.g.g.a.4.e.i.t.t.0.=.X UXUXUXUX",
"UXUXUXUX  B.%X|.'._.N.v.z.h.g.g.g.d.g.8.O C i.t.e.0.| . UXUXUXUX",
"UXUXUXUXUXW +X'.N.N.m.k.h.g.g.g.g.d.d.,.  V t.e.0.8.V   UXUXUXUX",
"UXUXUXUXUXx {.`.M.b.f.u.g.g.g.g.d.d.s.V   =.t.0.9.3.h UXUXUXUXUX",
"UXUXUXUXUX$ q.M.b.z.;., :.g.g.g.g.s.<.O , 8.e.0.7.-.@ UXUXUXUXUX",
"UXUXUXUXUXUXA v.z.j.3.@ X l :.3.<.C @ X *.e.0.8.<.n   UXUXUXUXUX",
"UXUXUXUXUXUX$ 5.j.g.g.4.h           , *.e.0.8.3.| @ UXUXUXUXUXUX",
"UXUXUXUXUXUXUX3 0.g.g.g.a.2.} M B *.8.e.0.9.4.-.2 UXUXUXUXUXUXUX",
"UXUXUXUXUXUXUXUXr 0.g.g.g.d.d.a.i.y.t.0.9.4.-.3   UXUXUXUXUXUXUX",
"UXUXUXUXUXUXUXUXUX1 :.a.d.s.a.i.t.e.e.9.2.Z ,   UXUXUXUXUXUXUXUX",
"UXUXUXUXUXUXUXUXUXUXX r *.7.e.e.0.7.>.C 4 X UXUXUXUXUXUXUXUXUXUX",
"UXUXUXUXUXUXUXUXUXUXUXUX  @ 3 4 4 2 @   UXUXUXUXUXUXUXUXUXUXUXUX",
"UXUXUXUXUXUXUXUXUXUXUXUXUXUXUXUXUXUXUXUXUXUXUXUXUXUXUXUXUXUXUXUX"
};
