/* XPM */
static char * tux_b2f_xpm[] = {
"48 48 931 2",
"  	c None",
". 	c #A98D73",
"+ 	c #B09077",
"@ 	c #AF8D77",
"# 	c #AF8F79",
"$ 	c #AC9883",
"% 	c #94806B",
"& 	c #9C8065",
"* 	c #AA8665",
"= 	c #B18964",
"- 	c #C0946E",
"; 	c #BD8F6C",
"> 	c #B28A6A",
", 	c #A6876C",
"' 	c #A6937E",
") 	c #806C5D",
"! 	c #856C54",
"~ 	c #8C7156",
"{ 	c #84694D",
"] 	c #9B7E62",
"^ 	c #937859",
"/ 	c #A07F60",
"( 	c #BB9373",
"_ 	c #B38A6C",
": 	c #9B775A",
"< 	c #8A7054",
"[ 	c #998773",
"} 	c #ABACA5",
"| 	c #81827B",
"1 	c #76766F",
"2 	c #C6C3BF",
"3 	c #5B4D41",
"4 	c #59432D",
"5 	c #6A563E",
"6 	c #5A462E",
"7 	c #5B422B",
"8 	c #A68567",
"9 	c #73563D",
"0 	c #664B37",
"a 	c #7E6046",
"b 	c #7A6046",
"c 	c #786248",
"d 	c #6D4F31",
"e 	c #846B54",
"f 	c #A7A7A1",
"g 	c #86867E",
"h 	c #45453D",
"i 	c #9B9B93",
"j 	c #7F7F76",
"k 	c #7A7B72",
"l 	c #C2C3BB",
"m 	c #615447",
"n 	c #56412B",
"o 	c #66523D",
"p 	c #635342",
"q 	c #766452",
"r 	c #957B64",
"s 	c #997F69",
"t 	c #725D4B",
"u 	c #7F6955",
"v 	c #836D57",
"w 	c #816950",
"x 	c #886D4E",
"y 	c #5B442A",
"z 	c #6E6050",
"A 	c #A1A09B",
"B 	c #91918A",
"C 	c #93938B",
"D 	c #97978F",
"E 	c #8E8E86",
"F 	c #5F5F56",
"G 	c #ACAEA1",
"H 	c #BABCAF",
"I 	c #C5C6BB",
"J 	c #CCCDC2",
"K 	c #705F53",
"L 	c #412D1C",
"M 	c #302116",
"N 	c #100704",
"O 	c #0A0503",
"P 	c #0B0503",
"Q 	c #100804",
"R 	c #090604",
"S 	c #1C120B",
"T 	c #4D3A26",
"U 	c #856E51",
"V 	c #665137",
"W 	c #6E6153",
"X 	c #91918B",
"Y 	c #7B7B72",
"Z 	c #C6C6BE",
"` 	c #65655D",
" .	c #BBBBB2",
"..	c #C1C2B4",
"+.	c #BFC0B2",
"@.	c #C8C9BB",
"#.	c #C0C1B3",
"$.	c #C6C6BB",
"%.	c #C9C9C0",
"&.	c #524032",
"*.	c #362414",
"=.	c #1E1816",
"-.	c #AAA8A8",
";.	c #515151",
">.	c #060809",
",.	c #040609",
"'.	c #6E7175",
").	c #C9CDCF",
"!.	c #656666",
"~.	c #150C05",
"{.	c #50341E",
"].	c #634B33",
"^.	c #635447",
"/.	c #979890",
"(.	c #AAAAA0",
"_.	c #B6B5AD",
":.	c #73726A",
"<.	c #7C7B73",
"[.	c #AAA9A0",
"}.	c #B9B7AA",
"|.	c #BEBEB2",
"1.	c #C6C8B7",
"2.	c #C7C7B7",
"3.	c #C6C4B6",
"4.	c #C0BDB1",
"5.	c #C7C4BA",
"6.	c #CFCCC2",
"7.	c #D4D2CC",
"8.	c #877461",
"9.	c #534332",
"0.	c #413F42",
"a.	c #A1A2A5",
"b.	c #ACADAC",
"c.	c #030201",
"d.	c #030303",
"e.	c #DEDCDB",
"f.	c #D6D1CE",
"g.	c #E3E1DE",
"h.	c #322A24",
"i.	c #A7866A",
"j.	c #7C6141",
"k.	c #65563E",
"l.	c #73736F",
"m.	c #707169",
"n.	c #9FA095",
"o.	c #D9D8CD",
"p.	c #A1A096",
"q.	c #8B8A82",
"r.	c #999791",
"s.	c #A3A199",
"t.	c #ABAC9D",
"u.	c #BFBBAE",
"v.	c #C9C198",
"w.	c #C7C17B",
"x.	c #C7C36E",
"y.	c #C9C572",
"z.	c #CCC48A",
"A.	c #D2CAA4",
"B.	c #C9C2AB",
"C.	c #D0B6C3",
"D.	c #987B5F",
"E.	c #5C4B36",
"F.	c #252421",
"G.	c #2A2D2A",
"H.	c #696C6A",
"I.	c #050303",
"J.	c #070603",
"K.	c #81807F",
"L.	c #3F3F44",
"M.	c #9FA1A3",
"N.	c #483B34",
"O.	c #A18061",
"P.	c #876A4D",
"Q.	c #6B5640",
"R.	c #696A65",
"S.	c #2E2F29",
"T.	c #505049",
"U.	c #96978E",
"V.	c #B4B4AD",
"W.	c #6A6A64",
"X.	c #7C7B76",
"Y.	c #8E8D8A",
"Z.	c #9B9483",
"`.	c #A39F41",
" +	c #B3A944",
".+	c #BAAF69",
"++	c #C1B67B",
"@+	c #CFC489",
"#+	c #D1C87E",
"$+	c #D0C876",
"%+	c #C5BE69",
"&+	c #BFBA7E",
"*+	c #C3BEA9",
"=+	c #CDC7BE",
"-+	c #A4856A",
";+	c #95745B",
">+	c #24201A",
",+	c #281B0D",
"'+	c #846F43",
")+	c #9D9149",
"!+	c #7F7A31",
"~+	c #7F784B",
"{+	c #141507",
"]+	c #57574B",
"^+	c #64503F",
"/+	c #A98564",
"(+	c #826344",
"_+	c #6F5943",
":+	c #757573",
"<+	c #272723",
"[+	c #23231F",
"}+	c #2A2B26",
"|+	c #34352F",
"1+	c #353630",
"2+	c #4F5047",
"3+	c #66635E",
"4+	c #6E6C3E",
"5+	c #8E8E51",
"6+	c #979689",
"7+	c #9C9A8C",
"8+	c #6D6A62",
"9+	c #78746E",
"0+	c #BCB9AE",
"a+	c #CDC8BB",
"b+	c #C6BEB0",
"c+	c #BEB591",
"d+	c #BEB576",
"e+	c #C3BB85",
"f+	c #C2C0AE",
"g+	c #C3C0B8",
"h+	c #9F846D",
"i+	c #A98669",
"j+	c #826938",
"k+	c #C19A42",
"l+	c #F6C64D",
"m+	c #FFE363",
"n+	c #FEEE67",
"o+	c #FBE762",
"p+	c #DBCA65",
"q+	c #917B49",
"r+	c #A6816C",
"s+	c #8A6C4E",
"t+	c #6B4F32",
"u+	c #6A543D",
"v+	c #525251",
"w+	c #1C1C1A",
"x+	c #1C1C1B",
"y+	c #1F1F1D",
"z+	c #191A15",
"A+	c #242520",
"B+	c #333436",
"C+	c #454121",
"D+	c #756F52",
"E+	c #474542",
"F+	c #676661",
"G+	c #605E5B",
"H+	c #585653",
"I+	c #6D6A69",
"J+	c #9E9A96",
"K+	c #C1BDB7",
"L+	c #C1BCB3",
"M+	c #C2BBAD",
"N+	c #BBB69D",
"O+	c #C0BA96",
"P+	c #C1BCAA",
"Q+	c #B3ACA8",
"R+	c #B7B3AF",
"S+	c #4A3D2B",
"T+	c #644C2F",
"U+	c #543D1A",
"V+	c #7D5D28",
"W+	c #B59446",
"X+	c #C1B256",
"Y+	c #BAB555",
"Z+	c #AB943B",
"`+	c #967830",
" @	c #765A2E",
".@	c #72553D",
"+@	c #513B25",
"@@	c #584128",
"#@	c #68523D",
"$@	c #353535",
"%@	c #212121",
"&@	c #2C2C2A",
"*@	c #1E1E1A",
"=@	c #20211D",
"-@	c #1E1D1D",
";@	c #24221D",
">@	c #363429",
",@	c #3B3A2F",
"'@	c #3F3E3A",
")@	c #4D4C49",
"!@	c #565653",
"~@	c #626160",
"{@	c #4B4A48",
"]@	c #73716C",
"^@	c #83827A",
"/@	c #B9B7AD",
"(@	c #C6C4B9",
"_@	c #C6BCAF",
":@	c #AAAD9D",
"<@	c #BBB0AC",
"[@	c #B8B3AA",
"}@	c #AEABA1",
"|@	c #AC8F8D",
"1@	c #664840",
"2@	c #4B3325",
"3@	c #2D2311",
"4@	c #2C240E",
"5@	c #37260D",
"6@	c #3B2D0E",
"7@	c #392F0B",
"8@	c #4C3F15",
"9@	c #4B3B16",
"0@	c #3F2915",
"a@	c #6E553D",
"b@	c #6D543B",
"c@	c #685642",
"d@	c #665B4A",
"e@	c #5D5D5C",
"f@	c #383835",
"g@	c #545551",
"h@	c #5B5C56",
"i@	c #3F3F3A",
"j@	c #22211E",
"k@	c #1D1C19",
"l@	c #24231E",
"m@	c #292825",
"n@	c #2D2C2A",
"o@	c #2F2E2C",
"p@	c #403F3D",
"q@	c #50504E",
"r@	c #4F4E4B",
"s@	c #5C5B56",
"t@	c #605D57",
"u@	c #83817A",
"v@	c #C4BDB4",
"w@	c #CBC9BF",
"x@	c #C1BBB9",
"y@	c #AEACA4",
"z@	c #A66E6B",
"A@	c #A54138",
"B@	c #9F5E4E",
"C@	c #896E6C",
"D@	c #747A78",
"E@	c #6F6868",
"F@	c #6D6763",
"G@	c #5F5952",
"H@	c #42342D",
"I@	c #625A4F",
"J@	c #92968A",
"K@	c #322D27",
"L@	c #36271E",
"M@	c #291D18",
"N@	c #39312E",
"O@	c #73746F",
"P@	c #53544E",
"Q@	c #555650",
"R@	c #605F5B",
"S@	c #444340",
"T@	c #242320",
"U@	c #1A1818",
"V@	c #282725",
"W@	c #1E1D1B",
"X@	c #232220",
"Y@	c #2E2D2B",
"Z@	c #353432",
"`@	c #434240",
" #	c #5F5B58",
".#	c #5B5854",
"+#	c #9C9990",
"@#	c #ADA6A0",
"##	c #B2AFAD",
"$#	c #C3A9A3",
"%#	c #A52F2C",
"&#	c #A1281F",
"*#	c #B32521",
"=#	c #B42F2D",
"-#	c #9F5451",
";#	c #866A66",
">#	c #727371",
",#	c #5D6065",
"'#	c #A5A5A7",
")#	c #F6F7FA",
"!#	c #FBF9FD",
"~#	c #7C7B7D",
"{#	c #020203",
"]#	c #0C0D0E",
"^#	c #70706C",
"/#	c #575651",
"(#	c #53524E",
"_#	c #64635E",
":#	c #494843",
"<#	c #282724",
"[#	c #252422",
"}#	c #171614",
"|#	c #1A1A18",
"1#	c #393737",
"2#	c #413D3E",
"3#	c #5A5454",
"4#	c #7A7972",
"5#	c #8E8884",
"6#	c #918A84",
"7#	c #9E5D58",
"8#	c #A3221D",
"9#	c #942E21",
"0#	c #9F2A21",
"a#	c #AD221B",
"b#	c #AB2E21",
"c#	c #BC3B3A",
"d#	c #923F39",
"e#	c #823B34",
"f#	c #C3776E",
"g#	c #F1D2CF",
"h#	c #FDF9F9",
"i#	c #60645F",
"j#	c #030205",
"k#	c #010102",
"l#	c #060707",
"m#	c #111111",
"n#	c #6F556C",
"o#	c #52524F",
"p#	c #636262",
"q#	c #1E1E1D",
"r#	c #0F0E0E",
"s#	c #292928",
"t#	c #161615",
"u#	c #1F1F1F",
"v#	c #1B1A1B",
"w#	c #252424",
"x#	c #352E30",
"y#	c #726C6A",
"z#	c #857770",
"A#	c #8F2F27",
"B#	c #9B241D",
"C#	c #9D2521",
"D#	c #902E1F",
"E#	c #BB463F",
"F#	c #D6624A",
"G#	c #E29A8D",
"H#	c #D66556",
"I#	c #BC2F29",
"J#	c #BD2B22",
"K#	c #A73131",
"L#	c #C9A6A4",
"M#	c #B6B9B3",
"N#	c #0B0808",
"O#	c #020202",
"P#	c #0F0F0F",
"Q#	c #080809",
"R#	c #121212",
"S#	c #535353",
"T#	c #151515",
"U#	c #040404",
"V#	c #1C1C1C",
"W#	c #090909",
"X#	c #222222",
"Y#	c #262626",
"Z#	c #313130",
"`#	c #4A4141",
" $	c #693C3A",
".$	c #9E241D",
"+$	c #A8221D",
"@$	c #A1201C",
"#$	c #A7342C",
"$$	c #DD9E94",
"%$	c #E2A89D",
"&$	c #D7A38F",
"*$	c #D1AFA3",
"=$	c #B94C42",
"-$	c #81342A",
";$	c #6C3731",
">$	c #D1C7C5",
",$	c #F9FCFD",
"'$	c #737577",
")$	c #010101",
"!$	c #1B1B1B",
"~$	c #242424",
"{$	c #414141",
"]$	c #1E2120",
"^$	c #2C262A",
"/$	c #241A17",
"($	c #5D1B16",
"_$	c #80140B",
":$	c #871C11",
"<$	c #A1241C",
"[$	c #B4453F",
"}$	c #DEC8C3",
"|$	c #C8A8A1",
"1$	c #A2512F",
"2$	c #82744F",
"3$	c #BF5443",
"4$	c #71281F",
"5$	c #9C8E88",
"6$	c #A4A1A1",
"7$	c #FFF8FD",
"8$	c #F5F5F4",
"9$	c #101010",
"0$	c #161616",
"a$	c #070707",
"b$	c #181818",
"c$	c #131313",
"d$	c #272222",
"e$	c #2D1916",
"f$	c #691A12",
"g$	c #751810",
"h$	c #77170F",
"i$	c #721A0E",
"j$	c #932F29",
"k$	c #D0A09F",
"l$	c #B6A6A7",
"m$	c #BA674B",
"n$	c #AF7E6A",
"o$	c #B1423C",
"p$	c #6E4A49",
"q$	c #8F9189",
"r$	c #848B85",
"s$	c #E0E7E2",
"t$	c #F8FDF9",
"u$	c #8B8B8B",
"v$	c #333333",
"w$	c #070606",
"x$	c #1B1917",
"y$	c #4D211C",
"z$	c #7C1410",
"A$	c #7B1513",
"B$	c #771614",
"C$	c #741814",
"D$	c #741A13",
"E$	c #8D3E3A",
"F$	c #B3877D",
"G$	c #CD5853",
"H$	c #BA5B47",
"I$	c #752323",
"J$	c #7F7E74",
"K$	c #96918E",
"L$	c #746D6F",
"M$	c #797677",
"N$	c #9B9797",
"O$	c #B1B0B1",
"P$	c #121113",
"Q$	c #32312F",
"R$	c #050406",
"S$	c #0A0706",
"T$	c #434343",
"U$	c #2B2B2B",
"V$	c #090A0B",
"W$	c #181615",
"X$	c #66322F",
"Y$	c #761A1A",
"Z$	c #691D17",
"`$	c #6A1D14",
" %	c #6D1B14",
".%	c #701915",
"+%	c #771615",
"@%	c #7C2119",
"#%	c #81221A",
"$%	c #66291B",
"%%	c #723835",
"&%	c #8D877E",
"*%	c #92908E",
"=%	c #797A7B",
"-%	c #636767",
";%	c #6B696A",
">%	c #757778",
",%	c #636861",
"'%	c #3E423C",
")%	c #2D2628",
"!%	c #4C2622",
"~%	c #652322",
"{%	c #7B4B48",
"]%	c #6B1E18",
"^%	c #741716",
"/%	c #602015",
"(%	c #621F14",
"_%	c #771712",
":%	c #721817",
"<%	c #5E1713",
"[%	c #862021",
"}%	c #9F4746",
"|%	c #A47371",
"1%	c #8C807A",
"2%	c #727471",
"3%	c #7E8280",
"4%	c #7A7C77",
"5%	c #616063",
"6%	c #735D5A",
"7%	c #8B3F37",
"8%	c #A72D26",
"9%	c #A52F27",
"0%	c #AE312F",
"a%	c #321714",
"b%	c #5B1E20",
"c%	c #5D1F1C",
"d%	c #602018",
"e%	c #631F16",
"f%	c #621A14",
"g%	c #671613",
"h%	c #791711",
"i%	c #801A0D",
"j%	c #912419",
"k%	c #9D3A36",
"l%	c #935652",
"m%	c #896D69",
"n%	c #997170",
"o%	c #9C4040",
"p%	c #9D332A",
"q%	c #B2312A",
"r%	c #A52D23",
"s%	c #923425",
"t%	c #9D301D",
"u%	c #9D322D",
"v%	c #1D191C",
"w%	c #2A2B25",
"x%	c #371B17",
"y%	c #4D1512",
"z%	c #631B19",
"A%	c #611710",
"B%	c #721911",
"C%	c #7F1613",
"D%	c #851716",
"E%	c #801B14",
"F%	c #7E1D11",
"G%	c #922117",
"H%	c #A72B24",
"I%	c #A82922",
"J%	c #AB251D",
"K%	c #A73528",
"L%	c #A52924",
"M%	c #A92920",
"N%	c #A22C29",
"O%	c #8A3D38",
"P%	c #5E5C5E",
"Q%	c #21211E",
"R%	c #2A2C25",
"S%	c #240B0F",
"T%	c #260404",
"U%	c #320705",
"V%	c #550F0C",
"W%	c #6C150E",
"X%	c #791915",
"Y%	c #801917",
"Z%	c #7F1A16",
"`%	c #781F18",
" &	c #761D15",
".&	c #791611",
"+&	c #6B1A16",
"@&	c #6B1C16",
"#&	c #6D1E17",
"$&	c #69221B",
"%&	c #75251D",
"&&	c #99251D",
"*&	c #912B25",
"=&	c #93855E",
"-&	c #473D1F",
";&	c #28201D",
">&	c #281010",
",&	c #320A0C",
"'&	c #541213",
")&	c #62110D",
"!&	c #6A120B",
"~&	c #6E1511",
"{&	c #711C15",
"]&	c #6C2316",
"^&	c #64261B",
"/&	c #5E1B17",
"(&	c #5B1C15",
"_&	c #551F15",
":&	c #592215",
"<&	c #4D1816",
"[&	c #5A1D19",
"}&	c #5E1D1B",
"|&	c #96854C",
"1&	c #B89C4B",
"2&	c #BCA97B",
"3&	c #A28636",
"4&	c #B8963F",
"5&	c #503D24",
"6&	c #272931",
"7&	c #282A2B",
"8&	c #2E2724",
"9&	c #3B1D1C",
"0&	c #481917",
"a&	c #551614",
"b&	c #5A1711",
"c&	c #5F1314",
"d&	c #631313",
"e&	c #793E18",
"f&	c #C29953",
"g&	c #513516",
"h&	c #291212",
"i&	c #330E09",
"j&	c #471713",
"k&	c #4B201C",
"l&	c #41231F",
"m&	c #C6BD94",
"n&	c #D9C699",
"o&	c #7E623A",
"p&	c #A78A33",
"q&	c #907126",
"r&	c #897025",
"s&	c #B0892F",
"t&	c #B2944A",
"u&	c #302B20",
"v&	c #282B2D",
"w&	c #262D29",
"x&	c #2B292A",
"y&	c #2D2827",
"z&	c #2E2523",
"A&	c #32221E",
"B&	c #441B1B",
"C&	c #591D0C",
"D&	c #A77937",
"E&	c #BE9A33",
"F&	c #BD994F",
"G&	c #51391E",
"H&	c #8F7633",
"I&	c #D7B75A",
"J&	c #352416",
"K&	c #110A08",
"L&	c #736549",
"M&	c #8F7936",
"N&	c #7F6623",
"O&	c #6C5616",
"P&	c #6D5717",
"Q&	c #725C19",
"R&	c #8F7529",
"S&	c #BE9C3C",
"T&	c #4B3E26",
"U&	c #292C2D",
"V&	c #2D2B2C",
"W&	c #2B2A2B",
"X&	c #2A2A2B",
"Y&	c #2A2A2A",
"Z&	c #2A2A29",
"`&	c #2E2929",
" *	c #55421F",
".*	c #A98A38",
"+*	c #AA892E",
"@*	c #B48F31",
"#*	c #E8C55C",
"$*	c #D6AC40",
"%*	c #CB9F40",
"&*	c #574522",
"**	c #6D696E",
"=*	c #42443F",
"-*	c #2F3132",
";*	c #2E271E",
">*	c #453509",
",*	c #685115",
"'*	c #675318",
")*	c #675218",
"!*	c #6A5418",
"~*	c #7D661E",
"{*	c #AC8B2E",
"]*	c #6E5D39",
"^*	c #333534",
"/*	c #373636",
"(*	c #323232",
"_*	c #303030",
":*	c #2D2D2D",
"<*	c #292A29",
"[*	c #2A2929",
"}*	c #5C4E27",
"|*	c #9E812C",
"1*	c #A2832E",
"2*	c #9C7D29",
"3*	c #AF8B36",
"4*	c #A9842D",
"5*	c #AB882F",
"6*	c #BFA249",
"7*	c #D4BD6D",
"8*	c #F2DC9F",
"9*	c #383838",
"0*	c #474747",
"a*	c #4E4E4E",
"b*	c #676767",
"c*	c #373736",
"d*	c #272B2E",
"e*	c #2C2C2D",
"f*	c #2C2612",
"g*	c #564717",
"h*	c #665316",
"i*	c #685312",
"j*	c #675314",
"k*	c #725D18",
"l*	c #9F812B",
"m*	c #856E36",
"n*	c #343331",
"o*	c #383738",
"p*	c #373737",
"q*	c #2C2E2D",
"r*	c #2B2A27",
"s*	c #615126",
"t*	c #987D27",
"u*	c #9B7F2B",
"v*	c #997F2A",
"w*	c #997E2E",
"x*	c #9B7F2D",
"y*	c #A3862E",
"z*	c #BC9A3D",
"A*	c #B28E31",
"B*	c #A88B3E",
"C*	c #3E3E3E",
"D*	c #3A3A3A",
"E*	c #343434",
"F*	c #363636",
"G*	c #404040",
"H*	c #4B4B4B",
"I*	c #5E5E5E",
"J*	c #717171",
"K*	c #767676",
"L*	c #787778",
"M*	c #757677",
"N*	c #616460",
"O*	c #31332F",
"P*	c #262421",
"Q*	c #332910",
"R*	c #634E1A",
"S*	c #685210",
"T*	c #665314",
"U*	c #6A5715",
"V*	c #947729",
"W*	c #977D36",
"X*	c #1D1918",
"Y*	c #29292A",
"Z*	c #2C2C2C",
"`*	c #2A2B2B",
" =	c #2C2A26",
".=	c #655524",
"+=	c #977D25",
"@=	c #9A7F2E",
"#=	c #9B7E29",
"$=	c #998028",
"%=	c #997F29",
"&=	c #997F28",
"*=	c #987B2B",
"==	c #8F7F3E",
"-=	c #646464",
";=	c #505050",
">=	c #4D4D4D",
",=	c #464646",
"'=	c #424242",
")=	c #3D3D3D",
"!=	c #313131",
"~=	c #242425",
"{=	c #242523",
"]=	c #242522",
"^=	c #232424",
"/=	c #262222",
"(=	c #3D2B14",
"_=	c #675119",
":=	c #685214",
"<=	c #655212",
"[=	c #856D23",
"}=	c #B5933B",
"|=	c #170E07",
"1=	c #060709",
"2=	c #282929",
"3=	c #292720",
"4=	c #695A21",
"5=	c #977D2A",
"6=	c #9A7F2D",
"7=	c #9C7D2C",
"8=	c #997F26",
"9=	c #997D2F",
"0=	c #9A7E2D",
"a=	c #937B24",
"b=	c #837037",
"c=	c #444444",
"d=	c #3D3E3F",
"e=	c #353537",
"f=	c #433D35",
"g=	c #4B3B1A",
"h=	c #6B5418",
"i=	c #695317",
"j=	c #776119",
"k=	c #C09C3E",
"l=	c #493C1E",
"m=	c #040504",
"n=	c #040307",
"o=	c #080504",
"p=	c #6F6020",
"q=	c #9A7B2D",
"r=	c #997E29",
"s=	c #9A7E27",
"t=	c #997D2E",
"u=	c #997F2F",
"v=	c #937B28",
"w=	c #7D6C34",
"x=	c #838383",
"y=	c #737373",
"z=	c #565558",
"A=	c #434442",
"B=	c #353A37",
"C=	c #322C28",
"D=	c #4D3C11",
"E=	c #645019",
"F=	c #655312",
"G=	c #8B6F2A",
"H=	c #53452B",
"I=	c #272624",
"J=	c #1D1D1D",
"K=	c #0E0E0F",
"L=	c #1A160C",
"M=	c #817128",
"N=	c #9D7E2B",
"O=	c #9A7F2C",
"P=	c #9A802C",
"Q=	c #8F7B24",
"R=	c #7C6934",
"S=	c #413924",
"T=	c #423716",
"U=	c #3A330C",
"V=	c #483B1D",
"W=	c #4F4F4F",
"X=	c #4A4B47",
"Y=	c #484538",
"Z=	c #796A2A",
"`=	c #997A2C",
" -	c #9C812E",
".-	c #9B8131",
"+-	c #927C2B",
"@-	c #6D5F2A",
"#-	c #787774",
"$-	c #5D512D",
"%-	c #765F29",
"&-	c #89752E",
"*-	c #8A762D",
"=-	c #766432",
"--	c #423529",
"                                                                                                ",
"                                                                                                ",
"                                                                                                ",
"                                                                                                ",
"                                                                                                ",
"                                                                    . + @ # $                   ",
"                                                                % & * = - ; > , '               ",
"                                                            ) ! ~ { ] ^ / ( _ : < [             ",
"            } | 1 2                                       3 4 5 6 7 8 9 0 a b c d e             ",
"          f g h i j k l                                   m n o p q r s t u v w x y z           ",
"        A B C D E F G H I J                               K L M N O P Q P R S T U V W           ",
"        X Y Z E `  ...+.@.#.$.%.                          &.*.=.-.;.>.,.'.).!.~.{.].^.          ",
"        /.(._.:.<.[.}.|.1.2.3.4.5.6.7.                    8.9.0.a.b.c.d.e.f.g.h.i.j.k.          ",
"      l.m.n.o.p.q.r.s.t.u.v.w.x.y.z.A.B.C.                D.E.F.G.H.I.J.K.L.M.N.O.P.Q.          ",
"      R.S.T.U.V.W.X.Y.Z.`. +.+++@+#+$+%+&+*+=+            -+;+>+,+'+)+!+~+{+]+^+/+(+_+          ",
"      :+<+[+}+|+1+2+3+4+5+6+7+8+9+0+a+b+c+d+e+f+g+        h+i+j+k+l+m+n+o+p+q+r+s+t+u+          ",
"      v+w+x+y+y+z+A+B+C+D+E+F+G+H+I+J+K+L+M+N+O+P+Q+R+    S+T+U+V+W+X+Y+Z+`+ @.@+@@@#@          ",
"        $@%@x+&@*@=@-@;@>@,@'@)@!@~@{@]@^@/@(@_@:@<@[@}@|@1@2@3@4@5@6@7@8@9@0@a@b@c@d@          ",
"          e@f@g@h@i@j@k@l@l@m@n@o@p@q@r@s@t@u@v@w@x@y@z@A@B@C@D@E@F@G@H@I@J@K@L@M@N@            ",
"              O@P@Q@R@S@T@U@V@W@X@Y@Z@`@r@ #.#+#@###$#%#&#*#=#-#;#>#,#'#)#!#~#d.{#]#            ",
"                  ^#/#(#_#:#<#W@[#}#|#[#1#2#3#4#5#6#7#8#9#0#a#b#c#d#e#f#g#h#i#j#k#l#m#          ",
"                      n#o#o#p#q#r#s#t#u#v#w#x#P@y#z#A#B#C#D#E#F#G#H#I#J#K#L#M#N#O#P#Q#R#        ",
"                            S#T#U#V#W#X#T#Y#V#Z#`# $.$+$@$#$$$%$&$*$=$-$;$>$,$'$)$O#!$d.~$      ",
"                              {$d.O#)$U#m#~$]$^$/$($_$:$<$[$}$|$1$2$3$4$5$6$7$8$%@)$9$0$a$      ",
"                                b$O#)$)$)$c$y+d$e$f$g$h$i$j$k$l$m$n$o$p$q$r$s$t$u$O#O#v$O#c$    ",
"                                  0$O#)$)$)$w$x$y$z$A$B$C$D$E$F$G$H$I$J$K$L$M$N$O$P${#Q$R$S$    ",
"                                    T$U$m#a$V$W$X$Y$Z$`$ %.%+%@%#%$%%%&%*%=%-%;%>%,%'%)%!%~%    ",
"                                                    {%]%^%/%(%_%:%<%[%}%|%1%2%3%4%5%6%7%8%9%0%  ",
"                                                      a%b%c%d%e%f%g%h%i%j%k%l%m%n%o%p%q%r%s%t%u%",
"                                                      v%w%x%y%z%A%B%C%D%E%F%G%H%I%J%K%L%M%N%s%O%",
"                                                    P%Q%R%S%T%U%V%W%X%Y%Z%`% &.&+&@&#&$&%&&&*&  ",
"                                                    =&-&w%;&>&,&'&)&!&~&{&]&^&/&(&_&:&<&[&d%}&  ",
"                                              |&1&2&3&4&5&6&7&8&9&0&a&b&c&d&e&f&g&h&i&j&k&l&    ",
"                                          m&n&o&p&q&r&s&t&u&v&w&x&y&z&A&B&C&D&E&F&G&H&I&J&K&    ",
"                                          L&M&N&O&P&Q&R&S&T&U&V&W&X&Y&Z&`& *.*+*@*#*$*%*&*      ",
"                                    **=*-*;*>*,*'*)*!*~*{*]*^*/*(*_*:*<*[*}*|*1*2*3*4*5*6*7*8*  ",
"    9*0*a*b*                          c*d*e*f*g*h*i*j*k*l*m*n*o*p*$@v$q*r*s*t*u*v*w*x*y*z*A*B*  ",
"    C*9*C*D*$@$@E*F*D*G*H*a*I*J*J*K*L*M*N*O*P*Q*R*S*T*U*V*W*X*Y*:*Z*Z*`* =.=+=@=#=$=%=#=&=*===  ",
"                  -=;=>=,='=)=$@!=U$Y#~={=]=^=/=(=_=:=<=[=}=|=1=T#%@Y#2=3=4=5=6=7=8=9=0=a=b=    ",
"                                    a*0*c=T$d=e=f=g=h=i=j=k=l=m=)$)$d.n=o=p=q=r=s=t=u=v=w=      ",
"                                        x=y=z=A=B=C=D=E=F=G=H=I=J=T#P#K=L=M=N=u*O=P=Q=R=        ",
"                                                    S=T=U=V=      W=;.X=Y=Z=`= -.-+-@-          ",
"                                                                        #-$-%-&-*-=---          ",
"                                                                                                ",
"                                                                                                ",
"                                                                                                ",
"                                                                                                ",
"                                                                                                "};
