/* XPM */
static char *irrlamb[] = {
/* columns rows colors chars-per-pixel */
"64 64 235 2",
"   c black",
".  c #010101",
"X  c #020202",
"o  c gray1",
"O  c #040404",
"+  c gray2",
"@  c #060606",
"#  c #070707",
"$  c gray3",
"%  c #090909",
"&  c gray4",
"*  c #0B0B0B",
"=  c #0C0C0C",
"-  c gray5",
";  c #0E0E0E",
":  c gray6",
">  c #101010",
",  c #111111",
"<  c gray7",
"1  c #131313",
"2  c gray8",
"3  c #151515",
"4  c #161616",
"5  c gray9",
"6  c #181818",
"7  c #191919",
"8  c gray10",
"9  c #1B1B1B",
"0  c gray11",
"q  c #1D1D1D",
"w  c #1E1E1E",
"e  c gray12",
"r  c #202020",
"t  c gray13",
"y  c #222222",
"u  c #232323",
"i  c gray14",
"p  c #252525",
"a  c gray15",
"s  c #272727",
"d  c #282828",
"f  c gray16",
"g  c #2A2A2A",
"h  c gray17",
"j  c #2C2C2C",
"k  c #2D2D2D",
"l  c gray18",
"z  c #2F2F2F",
"x  c gray19",
"c  c #313131",
"v  c #323232",
"b  c gray20",
"n  c #343434",
"m  c #353535",
"M  c gray21",
"N  c #373737",
"B  c gray22",
"V  c #393939",
"C  c #3A3A3A",
"Z  c gray23",
"A  c #3C3C3C",
"S  c gray24",
"D  c #3E3E3E",
"F  c #3F3F3F",
"G  c gray25",
"H  c #414141",
"J  c gray26",
"K  c #434343",
"L  c #444444",
"P  c gray27",
"I  c #464646",
"U  c gray28",
"Y  c #484848",
"T  c #494949",
"R  c gray29",
"E  c #4B4B4B",
"W  c #4C4C4C",
"Q  c gray30",
"!  c #4E4E4E",
"~  c gray31",
"^  c #505050",
"/  c #515151",
"(  c gray32",
")  c #535353",
"_  c gray33",
"`  c #555555",
"'  c #565656",
"]  c gray34",
"[  c #585858",
"{  c gray35",
"}  c #5A5A5A",
"|  c #5B5B5B",
" . c gray36",
".. c #5D5D5D",
"X. c gray37",
"o. c #5F5F5F",
"O. c #606060",
"+. c gray38",
"@. c #626262",
"#. c gray39",
"$. c #646464",
"%. c #656565",
"&. c gray40",
"*. c #676767",
"=. c #686868",
"-. c DimGray",
";. c #6A6A6A",
":. c gray42",
">. c #6C6C6C",
",. c #6D6D6D",
"<. c gray43",
"1. c #6F6F6F",
"2. c gray44",
"3. c #717171",
"4. c #727272",
"5. c gray45",
"6. c #747474",
"7. c gray46",
"8. c #767676",
"9. c #777777",
"0. c gray47",
"q. c #797979",
"w. c gray48",
"e. c #7B7B7B",
"r. c #7C7C7C",
"t. c gray49",
"y. c #7E7E7E",
"u. c gray50",
"i. c #808080",
"p. c #818181",
"a. c gray51",
"s. c #838383",
"d. c #848484",
"f. c gray52",
"g. c #868686",
"h. c gray53",
"j. c #888888",
"k. c #898989",
"l. c gray54",
"z. c #8B8B8B",
"x. c gray55",
"c. c #8D8D8D",
"v. c #8E8E8E",
"b. c gray56",
"n. c #909090",
"m. c gray57",
"M. c #929292",
"N. c #939393",
"B. c gray58",
"V. c #959595",
"C. c gray59",
"Z. c #979797",
"A. c #989898",
"S. c gray60",
"D. c #9B9B9B",
"F. c gray61",
"G. c #9D9D9D",
"H. c gray62",
"J. c #9F9F9F",
"K. c #A0A0A0",
"L. c gray63",
"P. c #A2A2A2",
"I. c gray64",
"U. c #A4A4A4",
"Y. c #A5A5A5",
"T. c gray65",
"R. c #A7A7A7",
"E. c gray66",
"W. c #A9A9A9",
"Q. c #AAAAAA",
"!. c gray67",
"~. c #ACACAC",
"^. c gray68",
"/. c #AEAEAE",
"(. c #AFAFAF",
"). c gray69",
"_. c #B1B1B1",
"`. c #B2B2B2",
"'. c gray70",
"]. c #B4B4B4",
"[. c gray71",
"{. c #B7B7B7",
"}. c #B9B9B9",
"|. c gray73",
" X c #BBBBBB",
".X c #BCBCBC",
"XX c gray74",
"oX c gray",
"OX c gray75",
"+X c #C0C0C0",
"@X c #C1C1C1",
"#X c gray76",
"$X c #C3C3C3",
"%X c gray77",
"&X c #C5C5C5",
"*X c #C6C6C6",
"=X c gray78",
"-X c #C8C8C8",
";X c gray79",
":X c #CACACA",
">X c #CBCBCB",
",X c gray80",
"<X c #CDCDCD",
"1X c #CECECE",
"2X c gray81",
"3X c #D0D0D0",
"4X c gray82",
"5X c #D2D2D2",
"6X c LightGray",
"7X c gray83",
"8X c #D5D5D5",
"9X c gray84",
"0X c #D7D7D7",
"qX c #D8D8D8",
"wX c gray85",
"eX c #DADADA",
"rX c gray86",
"tX c gainsboro",
"yX c #DDDDDD",
"uX c gray87",
"iX c #DFDFDF",
"pX c gray88",
"aX c #E1E1E1",
"sX c #E2E2E2",
"dX c gray89",
"fX c #E4E4E4",
"gX c gray90",
"hX c #E6E6E6",
"jX c #E7E7E7",
"kX c gray91",
"lX c #E9E9E9",
"zX c #EAEAEA",
"xX c gray92",
"cX c #ECECEC",
"vX c gray93",
/* pixels */
"                                                                                                                                ",
"                                                                                                                                ",
"                                                                                                                                ",
"                                                                                                                                ",
"                                                                                                                                ",
"                                                                                                                                ",
"                                                                                                                                ",
"                                                                                                                                ",
"                                                                      @                                                         ",
"                                      @   @ @ @ @ @ @       @ @ $ @ @ @ @ @ $ @                                                 ",
"                                        @ $ $ $ ; $ @ @ @ $ $ $ $ ; ; $ $ ; $ $ @                                               ",
"                                    @ @ $ ; 1 1 1 1 ; ; $ 1 5 5 7 7 5 5 5 5 1 ; ; @ @ @                                         ",
"                                  @ @ $ $ 1 5 7 7 7 7 7 7 q y p p p p p y q 7 7 1 $ $ @                                         ",
"                              @ @ @ @ ; 1 5 q y p h p h h l x m m m x l h h p q 7 1 ; @ @ @ @                                   ",
"                          @ @ $ $ ; ; 1 5 y h l m m C C C S K P P K S S m x l p q 7 1 ; $ $ @                                   ",
"                          @ $ $ ; 1 5 7 q h x C K P P R R ~ ~ / / ~ ~ P P K C x h y 7 5 1 $ @                                   ",
"                        @ @ $ ; 5 7 y p l m S P / ' [ | | | | | | | [ ' / ~ K S x h y q 1 ; $   @                               ",
"                      @ @ $ ; 5 7 y l x C K R ' | +.:.-.-.:.:.-.:.-.%.%.| ' ~ P S m l y 7 5 $ @                                 ",
"                        @ $ 1 7 y h m S P / [ +.-.5.8.w.w.w.w.w.w.w.5.:.-.+.[ ' R K m h y 5 $ @                                 ",
"                      @ @ ; 5 7 p x S P ' [ +.:.8.t.s.s.j.j.s.j.s.s.p.t.w.:.-.| / P S x h 7 1 $ @ @ @ @   @                     ",
"                    @ @ $ ; 5 q l C P / | %.:.w.p.j.m.Z.m.Z.Z.Z.Z.m.m.j.p.t.5.-.| / R S l p 5 ; $ $ $ $ @                       ",
"                      @ $ ; 7 y x S ~ [ %.:.w.s.z.Z.H.J.J.R.J.J.J.R.H.Z.m.s.w.:.-.| / P C l y 7 5 1 ; $ @ @                     ",
"                    @ @ ; 1 q h m P ' +.:.8.p.z.Z.J.W.!.'.'.'.'.'.'.'.W.H.m.s.w.5.%.[ / K m l p 7 1 ; $   @                     ",
"                      @ $ 5 y l S ~ [ %.5.p.z.Z.J.W.{.}.oXoXoX+XoXoX}.{.R.H.m.p.8.:.+.[ ~ K m h y 5 ; $ @                       ",
"                      $ $ 5 p m K / +.:.t.j.Z.J.W.{.oX&X2X=X2X=X=X2X=X+X'.R.Z.j.p.8.-.| ' R S x y 5 1 $ @                       ",
"                      $ ; 5 p C R [ -.w.s.m.H.R.{.oX&X2X2X6X6X6X6X6X2X2X}.!.J.m.s.w.5.%.[ / K x y 5 ; @                         ",
"                    @ @ ; 7 l S / | :.p.j.Z.R.'.oX=X2XrXwXrXrXrXaXrXwX2X+X{.R.Z.z.p.8.-.+./ K x y 5 $ @                         ",
"                    @ $ 5 y m P ' %.8.s.m.H.!.}.&X2XwXrXaXaXgXaXaXgXrX6X=XoX!.J.z.p.8.-.| ~ S l q 1 @ @                         ",
"                    $ ; 7 h C R [ -.8.s.Z.R.'.+X2X6XrXaXgXgXgXlXgXlXaXrX2X+X'.H.m.s.w.-.[ ~ S l q ; @                           ",
"                  @ $ 5 y x S ~ | :.w.j.Z.W.}.&X2XwXrXaXgXlXlXvXlXlXgXaXwX&X{.J.m.s.8.%.[ ~ C l q ;                             ",
"                @ @ ; 5 y x K / +.:.t.j.Z.R.{.&X2XrXaXgXlXlXvXvXvXvXlXaX6X&X'.J.m.p.8.%.[ ~ S l q ; @                           ",
"                @ @ ; 7 p x K ~ | :.w.j.Z.R.{.+X2XrXaXaXlXvXvXvXvXlXlXaX6X&X{.J.m.p.8.-.[ ~ S l q 1 $                           ",
"                @ $ ; 7 y x S ~ [ -.w.s.Z.J.'.oX2XwXrXaXlXvXvXvXvXlXlXaX2X&X{.J.m.p.8.-.| ~ S l y 5 $ @                         ",
"                @ $ ; 5 y l S R [ %.8.p.m.H.W.}.=X6XrXaXgXgXlXvXlXlXgXrX6X+X{.J.Z.s.8.-.[ ~ K x p 5 ; @ @                       ",
"              @ @ @ ; 5 y h C P ' +.5.t.j.Z.W.{.+X2XwXrXrXgXgXgXgXgXaXrX2X+X'.J.m.s.w.-.| ~ K m p q 1 $ @                       ",
"              @ @ @ $ 1 7 p m K / +.:.w.s.Z.J.!.}.=X2X6XwXwXrXaXrXaXrXwX2X+X'.J.Z.s.w.-.| / S x p 7 1 ; @ @                     ",
"                  @ $ ; 5 y x K ~ [ -.8.p.z.Z.R.{.}.&X2X2X6XwXwXwXwXwX2X=XoX'.J.m.s.w.-.[ ~ K x h 7 1 ; @                       ",
"                  @ @ ; 5 q l S R ' +.:.w.s.m.H.R.'.{.oX+X+X=X2X2X2X=X&X+X}.!.H.m.p.5.%.[ R S x p q 1 ; @ @                     ",
"                    @ $ 1 q h C P / | %.5.t.j.m.H.J.R.!.'.{.oX+X+XoX}.}.'.W.J.Z.j.t.:.+.' R C l y 7 1 ; @                       ",
"                @   @ $ 1 7 h m S R ' +.-.8.t.j.m.Z.H.J.R.W.W.!.!.'.!.W.R.H.Z.z.t.5.-.[ ~ S m h y 5 1 $ $ @ @                   ",
"                    $ ; 1 7 p x C P ~ ' | -.8.t.s.j.m.Z.Z.Z.H.H.J.H.H.H.Z.m.j.t.8.-.| / P m l y 7 5 ; $ $   @                   ",
"                    @ $ 1 7 q h x m K R [ +.-.5.w.t.p.s.j.j.z.m.Z.Z.m.z.j.s.t.5.-.| / R C x p q 5 ; ; @ @ @                     ",
"                    @ $ 1 5 q y h l m K ~ ' +.-.:.8.w.w.t.w.p.s.j.j.j.s.t.8.:.%.| ' P S l p q 5 ; $ $ @   @                     ",
"                  @ @ ; ; 1 5 5 7 y h m K ~ [ +.-.:.:.5.5.5.8.w.t.t.w.w.5.-.+.[ / P S x h q 5 $ $ @ @                           ",
"                @ @ @ $ ; ; ; 1 1 5 q h m P ~ [ +.+.%.-.-.-.:.5.5.5.8.-.%.| ' R K C x h y 7 1 @ @ @                             ",
"                    @ $ $ $ $ $ @ $ 5 y l C P ~ ' [ | | +.+.+.-.-.-.-.| [ / R S m l p y 7 1 ; $                                 ",
"                  @ @ $ $ @ @ @   @ ; 7 p x C K ~ / ' ' ' ' ' | +.+.| ' ~ K C x h p q 7 1 ; $ @ @                               ",
"                  @     @         @ $ 5 q p l m S R R R P R ~ / / ' / R S C l y 7 7 5 1 ; $ $ @                                 ",
"                  @                 $ ; 5 q p l m C S C C S S K P R P S x l p 7 1 ; 1 $ $ @ @ @                                 ",
"                                    @ $ ; 5 7 q h l x l h l x m m C m l h y 7 1 ; $ @ $ @ @                                     ",
"                                      @ $ ; 1 5 q y y y 7 7 q p h h h y q 7 5 ; $ @ @                                           ",
"                                      @   @ $ ; 1 5 5 1 1 ; 1 5 q 7 7 7 5 5 1 $ $   @                                           ",
"                                            @ @ $ ; ; $ $ $ $ ; 1 1 1 1 ; ; $ @ @                                               ",
"                                              @   @ $ $   @ @ $ @ $ $ $ $ @ @ @                                                 ",
"                                                                  @ @ @ @ @ @ @                                                 ",
"                                                                                                                                ",
"                                                                                                                                ",
"                                                                                                                                ",
"                                                                                                                                ",
"                                                                                                                                ",
"                                                                                                                                ",
"                                                                                                                                ",
"                                                                                                                                ",
"                                                                                                                                "
};
