/* XPM */
static char * unvanquished_xpm[] = {
"32 32 713 2",
"  	c None",
". 	c #353435",
"+ 	c #7C7E7A",
"@ 	c #818276",
"# 	c #777E70",
"$ 	c #77827C",
"% 	c #8E9E99",
"& 	c #89948F",
"* 	c #989E94",
"= 	c #999A94",
"- 	c #909693",
"; 	c #899392",
"> 	c #849192",
", 	c #7E8F90",
"' 	c #547476",
") 	c #404F50",
"! 	c #537174",
"~ 	c #52696C",
"{ 	c #516F73",
"] 	c #506D70",
"^ 	c #516E6D",
"/ 	c #4A6462",
"( 	c #233C3D",
"_ 	c #253A3B",
": 	c #3C4844",
"< 	c #5C655B",
"[ 	c #7E897B",
"} 	c #818984",
"| 	c #26292A",
"1 	c #1E1E20",
"2 	c #C9CCB8",
"3 	c #BDD1B1",
"4 	c #AFC0A2",
"5 	c #A2C0A4",
"6 	c #99C5B7",
"7 	c #91C8C5",
"8 	c #A0C1B8",
"9 	c #ADCABF",
"0 	c #A2C8C1",
"a 	c #91BCB9",
"b 	c #96C0C1",
"c 	c #8CBEC4",
"d 	c #749CA1",
"e 	c #418C94",
"f 	c #4D4A4A",
"g 	c #456567",
"h 	c #658C8F",
"i 	c #6CA6AD",
"j 	c #70B9C3",
"k 	c #72CBD7",
"l 	c #79C3C4",
"m 	c #49B3BB",
"n 	c #1B545A",
"o 	c #2F5F62",
"p 	c #3A6766",
"q 	c #596C61",
"r 	c #8BA792",
"s 	c #9CA796",
"t 	c #161818",
"u 	c #1E1D20",
"v 	c #C4CFB4",
"w 	c #B7C4A7",
"x 	c #ADD2B5",
"y 	c #9BCFB5",
"z 	c #95DBD3",
"A 	c #93D5CE",
"B 	c #93D1CC",
"C 	c #7DCCCE",
"D 	c #55B5BF",
"E 	c #5BB7C0",
"F 	c #52ADB9",
"G 	c #53A5B3",
"H 	c #3F858F",
"I 	c #1F636E",
"J 	c #403F3E",
"K 	c #375355",
"L 	c #4B7A80",
"M 	c #5BB1BE",
"N 	c #66BBC8",
"O 	c #6CC6D1",
"P 	c #60C9D0",
"Q 	c #3CBBC5",
"R 	c #165258",
"S 	c #277984",
"T 	c #35666B",
"U 	c #3B7979",
"V 	c #263530",
"W 	c #0B1212",
"X 	c #18191A",
"Y 	c #1B1A1C",
"Z 	c #C9D6BF",
"` 	c #C2E5CD",
" .	c #B3EFDA",
"..	c #AEEEDC",
"+.	c #A9E1DE",
"@.	c #9AD2CE",
"#.	c #8ACACE",
"$.	c #52C4CE",
"%.	c #57B9C3",
"&.	c #4DB8C7",
"*.	c #45B1C2",
"=.	c #2C98AA",
"-.	c #1E808E",
";.	c #0B5A65",
">.	c #292A2A",
",.	c #254E51",
"'.	c #39828C",
").	c #4DACBA",
"!.	c #5EC9D9",
"~.	c #6ECDDA",
"{.	c #61D5DF",
"].	c #5AB6BE",
"^.	c #163235",
"/.	c #3D7F89",
"(.	c #3A848E",
"_.	c #0F3236",
":.	c #31595A",
"<.	c #1C2526",
"[.	c #181919",
"}.	c #19181B",
"|.	c #C9CFBA",
"1.	c #C0EAD6",
"2.	c #B0E8D1",
"3.	c #B3F5EE",
"4.	c #C1EAE3",
"5.	c #A3D9DA",
"6.	c #78C0C1",
"7.	c #5EC1C6",
"8.	c #5EC5D0",
"9.	c #53C2CF",
"0.	c #46C2D2",
"a.	c #2DAFBF",
"b.	c #1A8E9D",
"c.	c #1D5F66",
"d.	c #151818",
"e.	c #1B535A",
"f.	c #216E77",
"g.	c #27737D",
"h.	c #427F88",
"i.	c #3F7C88",
"j.	c #4D7F87",
"k.	c #2B4C51",
"l.	c #001719",
"m.	c #001618",
"n.	c #022123",
"o.	c #2E8287",
"p.	c #25646A",
"q.	c #345E63",
"r.	c #110F0F",
"s.	c #171719",
"t.	c #CDD8C3",
"u.	c #BEE5D0",
"v.	c #B0F1E0",
"w.	c #B4EEDF",
"x.	c #B2E4DF",
"y.	c #99DCDB",
"z.	c #99D8DD",
"A.	c #7ACFD5",
"B.	c #6BCCD3",
"C.	c #58BFC9",
"D.	c #4EC0D0",
"E.	c #39ADBF",
"F.	c #3697A5",
"G.	c #306F78",
"H.	c #101312",
"I.	c #195B62",
"J.	c #2A8B9B",
"K.	c #38B0C3",
"L.	c #60BECE",
"M.	c #63C5D5",
"N.	c #91D8E3",
"O.	c #96E6EF",
"P.	c #1E4346",
"Q.	c #001B1E",
"R.	c #001B1D",
"S.	c #08373B",
"T.	c #1C6067",
"U.	c #235C68",
"V.	c #0D0B09",
"W.	c #171718",
"X.	c #C8D4C9",
"Y.	c #BCD8CB",
"Z.	c #A7DDD1",
"`.	c #97DBD3",
" +	c #76DDDE",
".+	c #ADE7EB",
"++	c #A0E1E6",
"@+	c #8CDBDF",
"#+	c #57C4CB",
"$+	c #43AEB8",
"%+	c #3DA2AD",
"&+	c #2F9FAE",
"*+	c #4E9EAA",
"=+	c #2F666F",
"-+	c #0F1212",
";+	c #1A545C",
">+	c #2D8794",
",+	c #338B98",
"'+	c #40B5C7",
")+	c #57CDDD",
"!+	c #62D3DE",
"~+	c #72D9E2",
"{+	c #458A90",
"]+	c #27595C",
"^+	c #083133",
"/+	c #001A1D",
"(+	c #000C0D",
"_+	c #0E0E0F",
":+	c #161718",
"<+	c #C9D2C8",
"[+	c #B7D3D0",
"}+	c #A6D8D1",
"|+	c #4CC8C9",
"1+	c #62D4D3",
"2+	c #94E1E4",
"3+	c #9EDFE2",
"4+	c #92DBDF",
"5+	c #61BCC1",
"6+	c #4DAEB8",
"7+	c #45B9CB",
"8+	c #54A6B3",
"9+	c #4998A4",
"0+	c #2F646C",
"a+	c #0F0F0F",
"b+	c #1A4349",
"c+	c #2D7B87",
"d+	c #1A8494",
"e+	c #24A3B6",
"f+	c #2DB5C9",
"g+	c #36B5C8",
"h+	c #4ECFDF",
"i+	c #287981",
"j+	c #52DEEC",
"k+	c #1A6971",
"l+	c #0D545D",
"m+	c #00272A",
"n+	c #002427",
"o+	c #0E1617",
"p+	c #151516",
"q+	c #C0C9C5",
"r+	c #C5DCDA",
"s+	c #82C9C8",
"t+	c #61C2C6",
"u+	c #4DBCC2",
"v+	c #6BD0D3",
"w+	c #76C8C7",
"x+	c #81C8CB",
"y+	c #78C6CB",
"z+	c #59A4AD",
"A+	c #5AADB9",
"B+	c #51A1AE",
"C+	c #45B0C2",
"D+	c #2F6A73",
"E+	c #0F0C0C",
"F+	c #1B3C41",
"G+	c #2A6570",
"H+	c #116675",
"I+	c #1892A9",
"J+	c #2090AC",
"K+	c #319FBE",
"L+	c #43B4D3",
"M+	c #307E91",
"N+	c #45B9D6",
"O+	c #259ABB",
"P+	c #0F667B",
"Q+	c #002326",
"R+	c #002628",
"S+	c #0C1718",
"T+	c #181717",
"U+	c #738C8D",
"V+	c #0E393D",
"W+	c #002A2E",
"X+	c #2F686E",
"Y+	c #63C1CE",
"Z+	c #4EB9C9",
"`+	c #45A8B6",
" @	c #55B4BC",
".@	c #5DA6AD",
"+@	c #5EAAB4",
"@@	c #6FBAC5",
"#@	c #51A0AD",
"$@	c #4499A9",
"%@	c #306C78",
"&@	c #0D0B0A",
"*@	c #1F3E44",
"=@	c #0E5A6B",
"-@	c #0A4E60",
";@	c #1D6F88",
">@	c #1781A4",
",@	c #1F92B7",
"'@	c #2DA4CA",
")@	c #22839D",
"!@	c #2A9EC2",
"~@	c #1E9EC4",
"{@	c #0A6880",
"]@	c #1B809C",
"^@	c #184851",
"/@	c #0B1313",
"(@	c #292F2F",
"_@	c #001619",
":@	c #001F22",
"<@	c #012023",
"[@	c #00272B",
"}@	c #32717D",
"|@	c #5BC5DE",
"1@	c #45B3CA",
"2@	c #40AFC6",
"3@	c #4AAABD",
"4@	c #71AEBB",
"5@	c #63A1AF",
"6@	c #4FA6BD",
"7@	c #45A3C1",
"8@	c #316D81",
"9@	c #0C0909",
"0@	c #0C323B",
"a@	c #0B343E",
"b@	c #0A404F",
"c@	c #0B7998",
"d@	c #148BAF",
"e@	c #1489AD",
"f@	c #0F8AAB",
"g@	c #1795B6",
"h@	c #11A0C7",
"i@	c #0794BC",
"j@	c #04647B",
"k@	c #3596AE",
"l@	c #558E9B",
"m@	c #070505",
"n@	c #2A2F31",
"o@	c #000C0E",
"p@	c #001012",
"q@	c #002124",
"r@	c #012528",
"s@	c #78CADF",
"t@	c #5DBBD5",
"u@	c #43B5D3",
"v@	c #5DB0C4",
"w@	c #60A8B9",
"x@	c #55A4B8",
"y@	c #4F9DB3",
"z@	c #488CA0",
"A@	c #34707E",
"B@	c #090807",
"C@	c #093B43",
"D@	c #0A4952",
"E@	c #0B6471",
"F@	c #0C8295",
"G@	c #0A7F92",
"H@	c #0A879A",
"I@	c #0E9BAB",
"J@	c #14ADBF",
"K@	c #0D97A7",
"L@	c #068DA4",
"M@	c #136D80",
"N@	c #37A4BB",
"O@	c #5A868E",
"P@	c #060606",
"Q@	c #2D3333",
"R@	c #000B0E",
"S@	c #000709",
"T@	c #000E0F",
"U@	c #00191B",
"V@	c #6EB7CC",
"W@	c #6CC4DA",
"X@	c #6BC8DE",
"Y@	c #89CEDA",
"Z@	c #65BCCA",
"`@	c #59BBCA",
" #	c #55B5C5",
".#	c #4EACBC",
"+#	c #38757D",
"@#	c #050000",
"##	c #073A3D",
"$#	c #0B6D75",
"%#	c #084248",
"&#	c #0E838E",
"*#	c #10818C",
"=#	c #10A2AF",
"-#	c #13959F",
";#	c #0B9EAA",
">#	c #0A7B87",
",#	c #06859D",
"'#	c #207C91",
")#	c #36889A",
"!#	c #5F888E",
"~#	c #050708",
"{#	c #2A2A2B",
"]#	c #152527",
"^#	c #00090B",
"/#	c #000507",
"(#	c #001114",
"_#	c #001E20",
":#	c #11383D",
"<#	c #23545E",
"[#	c #8DB7BF",
"}#	c #A1DCE6",
"|#	c #7DCCD7",
"1#	c #6ECBD7",
"2#	c #65C8D3",
"3#	c #63CBD3",
"4#	c #4AB8C0",
"5#	c #287580",
"6#	c #235960",
"7#	c #13777C",
"8#	c #1BB7C1",
"9#	c #17A0AB",
"0#	c #169AA6",
"a#	c #139BA9",
"b#	c #1394A2",
"c#	c #098799",
"d#	c #077C99",
"e#	c #127694",
"f#	c #2287A2",
"g#	c #3F7A89",
"h#	c #69888C",
"i#	c #050808",
"j#	c #1E1B1B",
"k#	c #9FBABE",
"l#	c #000000",
"m#	c #000506",
"n#	c #001A1C",
"o#	c #001C1E",
"p#	c #07282B",
"q#	c #1F4E52",
"r#	c #407075",
"s#	c #A3DEE5",
"t#	c #9CDEE3",
"u#	c #9BE5E9",
"v#	c #47939B",
"w#	c #144953",
"x#	c #1F4D55",
"y#	c #13363B",
"z#	c #0C464C",
"A#	c #22AEB8",
"B#	c #21B7C6",
"C#	c #1FA9BA",
"D#	c #11A0B5",
"E#	c #0BA7C1",
"F#	c #0D8DAC",
"G#	c #0B7FAB",
"H#	c #217D9B",
"I#	c #23748F",
"J#	c #437381",
"K#	c #658B8E",
"L#	c #090606",
"M#	c #2C2A2A",
"N#	c #121A1C",
"O#	c #000B0D",
"P#	c #001316",
"Q#	c #021F22",
"R#	c #153E42",
"S#	c #1F4B50",
"T#	c #3A686C",
"U#	c #9BD1D4",
"V#	c #47787C",
"W#	c #032B31",
"X#	c #052D32",
"Y#	c #062C32",
"Z#	c #062B33",
"`#	c #0D505A",
" $	c #1EA2B1",
".$	c #1FA3B7",
"+$	c #1BA0B8",
"@$	c #0EA7C3",
"#$	c #089CBC",
"$$	c #0B98C6",
"%$	c #1779A0",
"&$	c #277D9D",
"*$	c #297894",
"=$	c #4690A0",
"-$	c #709293",
";$	c #302F2F",
">$	c #000304",
",$	c #000A0C",
"'$	c #001416",
")$	c #001C1F",
"!$	c #052023",
"~$	c #092427",
"{$	c #012126",
"]$	c #022428",
"^$	c #042C30",
"/$	c #04292E",
"($	c #114E57",
"_$	c #2192A4",
":$	c #1E869A",
"<$	c #1AA1BE",
"[$	c #0F91AD",
"}$	c #0CA5C7",
"|$	c #0993B7",
"1$	c #0D82AD",
"2$	c #338EB0",
"3$	c #2E94B8",
"4$	c #3788A4",
"5$	c #4F92A0",
"6$	c #718E92",
"7$	c #2F2F2F",
"8$	c #000405",
"9$	c #000608",
"0$	c #000F11",
"a$	c #001113",
"b$	c #001315",
"c$	c #001214",
"d$	c #021C20",
"e$	c #022227",
"f$	c #0B3941",
"g$	c #208090",
"h$	c #269AB1",
"i$	c #20889F",
"j$	c #1E849C",
"k$	c #127F98",
"l$	c #0C8BA8",
"m$	c #0A8AA9",
"n$	c #0E8FB6",
"o$	c #2297C9",
"p$	c #40B0DA",
"q$	c #3DA5C8",
"r$	c #4795B1",
"s$	c #5493A3",
"t$	c #6D8383",
"u$	c #090808",
"v$	c #2E2D2D",
"w$	c #000203",
"x$	c #000B0C",
"y$	c #01171B",
"z$	c #01191D",
"A$	c #2C707F",
"B$	c #2F96AB",
"C$	c #1F9BB5",
"D$	c #117288",
"E$	c #118DAD",
"F$	c #116E85",
"G$	c #0C7E9C",
"H$	c #0A7EA2",
"I$	c #1086B3",
"J$	c #38A5D0",
"K$	c #48A4C1",
"L$	c #4AB0D2",
"M$	c #53AAC0",
"N$	c #5D9599",
"O$	c #648581",
"P$	c #090708",
"Q$	c #000001",
"R$	c #000707",
"S$	c #000406",
"T$	c #000305",
"U$	c #001011",
"V$	c #000E10",
"W$	c #000F10",
"X$	c #081B1D",
"Y$	c #122B2E",
"Z$	c #081F22",
"`$	c #072328",
" %	c #2D96AB",
".%	c #13829B",
"+%	c #0B7693",
"@%	c #116881",
"#%	c #177090",
"$%	c #0C7096",
"%%	c #0878A0",
"&%	c #2987A6",
"*%	c #38AACB",
"=%	c #50A9BF",
"-%	c #45AFC6",
";%	c #44AFC2",
">%	c #689691",
",%	c #62817C",
"'%	c #080707",
")%	c #2D2D2D",
"!%	c #00080A",
"~%	c #021619",
"{%	c #1A383C",
"]%	c #32575E",
"^%	c #2C4E55",
"/%	c #2E727F",
"(%	c #219BB0",
"_%	c #0E7486",
":%	c #0C768C",
"<%	c #1182A0",
"[%	c #1787A8",
"}%	c #0A718E",
"|%	c #077EA2",
"1%	c #3695AD",
"2%	c #3892A8",
"3%	c #459DB0",
"4%	c #43A0B0",
"5%	c #49A5AF",
"6%	c #739D98",
"7%	c #7B938B",
"8%	c #070506",
"9%	c #2D2C2D",
"0%	c #000809",
"a%	c #000D0E",
"b%	c #011518",
"c%	c #112B30",
"d%	c #173336",
"e%	c #376169",
"f%	c #4F98A4",
"g%	c #27808A",
"h%	c #1F6B73",
"i%	c #0B94A9",
"j%	c #0B7C90",
"k%	c #0D7898",
"l%	c #0F7FA3",
"m%	c #2394BB",
"n%	c #319FC1",
"o%	c #34A2C6",
"p%	c #4799AC",
"q%	c #469EA9",
"r%	c #55ADB2",
"s%	c #7EAEAB",
"t%	c #8BA69F",
"u%	c #070707",
"v%	c #2E2E2E",
"w%	c #040708",
"x%	c #05090A",
"y%	c #000606",
"z%	c #001213",
"A%	c #021519",
"B%	c #02181B",
"C%	c #001216",
"D%	c #13383F",
"E%	c #28808F",
"F%	c #23727F",
"G%	c #0A6881",
"H%	c #0C6E87",
"I%	c #0E7291",
"J%	c #0E6788",
"K%	c #358AAA",
"L%	c #339DC4",
"M%	c #3593B2",
"N%	c #51838A",
"O%	c #669697",
"P%	c #768C86",
"Q%	c #97AAA2",
"R%	c #939D94",
"S%	c #0A0B0B",
"T%	c #181A1A",
"U%	c #E9F1DD",
"V%	c #CFDFD2",
"W%	c #B4C2B3",
"X%	c #0B0E0F",
"Y%	c #000404",
"Z%	c #000204",
"`%	c #021214",
" &	c #021416",
".&	c #16424D",
"+&	c #1B6B7D",
"@&	c #115161",
"#&	c #0A6179",
"$&	c #0C5B6E",
"%&	c #116985",
"&&	c #2C738D",
"*&	c #3F7384",
"=&	c #47737F",
"-&	c #427380",
";&	c #5A8181",
">&	c #6E8782",
",&	c #82958E",
"'&	c #9CA89F",
")&	c #96A095",
"!&	c #0C0C0C",
"~&	c #303132",
"{&	c #D6DCD2",
"]&	c #D2E1D3",
"^&	c #BBC9B9",
"/&	c #737E76",
"(&	c #00090A",
"_&	c #40656A",
":&	c #1D5155",
"<&	c #1D646D",
"[&	c #176774",
"}&	c #155360",
"|&	c #157A95",
"1&	c #0F6576",
"2&	c #1C606E",
"3&	c #526D70",
"4&	c #4E6B72",
"5&	c #465D5B",
"6&	c #476161",
"7&	c #5F7570",
"8&	c #799795",
"9&	c #8A9B91",
"0&	c #9FA799",
"a&	c #9BA798",
"b&	c #181818",
"c&	c #6D6E6A",
"d&	c #9AA094",
"e&	c #8D958A",
"f&	c #606B66",
"g&	c #010203",
"h&	c #040606",
"i&	c #040607",
"j&	c #060C0D",
"k&	c #071213",
"l&	c #081214",
"m&	c #1A2A2D",
"n&	c #26515B",
"o&	c #14454F",
"p&	c #134854",
"q&	c #1A2C31",
"r&	c #21373C",
"s&	c #173034",
"t&	c #274143",
"u&	c #334E52",
"v&	c #2B3A39",
"w&	c #2C3936",
"x&	c #254342",
"y&	c #38413E",
"z&	c #49504D",
"A&	c #565B55",
"B&	c #646D60",
"C&	c #444945",
"D&	c #0D0C0C",
"                                                                ",
"                                                                ",
"                                                                ",
"  . + @ # # $ % & * = - ; > , '   ) ! ~ { ] ^ / ( _ : < [ } |   ",
"  1 2 3 4 5 6 7 8 9 0 a b c d e f g h i j k l m n o p q r s t   ",
"  u v w x y z A B C D E F G H I J K L M N O P Q R S T U V W X   ",
"  Y Z `  ...+.@.#.$.%.&.*.=.-.;.>.,.'.).!.~.{.].^./.(._.:.<.[.  ",
"  }.|.1.2.3.4.5.6.7.8.9.0.a.b.c.d.e.f.g.h.i.j.k.l.m.n.o.p.q.r.  ",
"  s.t.u.v.w.x.y.z.A.B.C.D.E.F.G.H.I.J.K.L.M.N.O.P.Q.R.S.T.U.V.  ",
"  W.X.Y.Z.`. +.+++@+#+$+%+&+*+=+-+;+>+,+'+)+!+~+{+]+^+R./+(+_+  ",
"  :+<+[+}+|+1+2+3+4+5+6+7+8+9+0+a+b+c+d+e+f+g+h+i+j+k+l+m+n+o+  ",
"  p+q+r+s+t+u+v+w+x+y+z+A+B+C+D+E+F+G+H+I+J+K+L+M+N+O+P+Q+R+S+  ",
"  T+U+V+W+X+Y+Z+`+ @.@+@@@#@$@%@&@*@=@-@;@>@,@'@)@!@~@{@]@^@/@  ",
"  (@_@:@<@[@}@|@1@2@3@4@5@6@7@8@9@0@a@b@c@d@e@f@g@h@i@j@k@l@m@  ",
"  n@o@p@/+q@r@s@t@u@v@w@x@y@z@A@B@C@D@E@F@G@H@I@J@K@L@M@N@O@P@  ",
"  Q@R@S@T@/+U@V@W@X@Y@Z@`@ #.#+#@###$#%#&#*#=#-#;#>#,#'#)#!#~#  ",
"  {#]#^#/#(#_#:#<#[#}#|#1#2#3#4#5#6#7#8#9#0#a#b#c#d#e#f#g#h#i#  ",
"  j#k#l#m#(+n#o#p#q#r#s#t#u#v#w#x#y#z#A#B#C#D#E#F#G#H#I#J#K#L#  ",
"  M#N#m#m#O#P#U@Q#R#S#T#U#V#W#X#Y#Z#`# $.$+$@$#$$$%$&$*$=$-$L#  ",
"  ;$>$m#m#,$p@'$n#)$!$~$Q+{$]$^$/$($_$:$<$[$}$|$1$2$3$4$5$6$B@  ",
"  7$>$m#8$9$0$a$b$b$a$c$)$d$e$f$g$h$i$j$k$l$m$n$o$p$q$r$s$t$u$  ",
"  v$w$9$8$8$x$p@c$p@p@p@P#y$z$A$B$C$D$E$F$G$H$I$J$K$L$M$N$O$P$  ",
"  v$Q$R$S$T$m#o@(#U$V$W$X$Y$Z$`$ %.%+%@%#%$%%%&%*%=%-%;%>%,%'%  ",
"  )%Q$>$8$>$>$!%W$a$0$~%{%]%^%/%(%_%:%<%[%}%|%1%2%3%4%5%6%7%8%  ",
"  9%Q$w$8$8$8$8$0%a%c$b%c%d%e%f%g%h%i%j%k%l%m%n%o%p%q%r%s%t%u%  ",
"  v%l#w%x%y%>$T$>$0%V$z%A%B%C%D%E%F%G%H%I%J%K%L%M%N%O%P%Q%R%S%  ",
"  T%U%V%W%X%Y%w$Z%8$o@V$`% &b%.&+&@&#&$&%&&&*&=&-&;&>&,&'&)&!&  ",
"  ~&{&]&^&/&l#>$>$>$x$V$(&_&:&<&[&}&|&1&2&3&4&5&6&7&8&9&0&a&b&  ",
"    c&d&e&f&g&h&i&~#j&k&l&m&n&o&p&q&r&s&t&u&v&w&x&y&z&A&B&C&D&  ",
"                                                                ",
"                                                                ",
"                                                                "};
