/* XPM */
static char * megamek_xpm[] = {
"32 32 7 1",
" 	c None",
".	c #000000",
"+	c #5A5A42",
"@	c #848484",
"#	c #C6C6C6",
"$	c #FF00FF",
"%	c #FFFFFF",
"                  @..@          ",
"                @.#%%#++        ",
"                @.#%%%#+        ",
"         .     @##@.#%%#@+      ",
"          .   @.#%%%..#%.%++    ",
"           . ..#%%%%%#.@.@%%@   ",
"           @..#@#%%%%%%#.@.##@  ",
"           @#..#.@#%%%%#.@%@.@. ",
"          @#.......@#%#.%#@#%.@ ",
"         .@.##@##..@.#.#..#.@@  ",
"        @.@#%%%%%#..#..   @@.@  ",
"        .##%%%%%%%#..%@@        ",
"       .@#%%%%%%%%%@.@.         ",
"       ..#%%%%%%%%#...@         ",
"      +#.#%%%%%%%#@..@          ",
" @.@+ @%.%%%%%%%#@@..           ",
"   +@....#%%%%%#%#@.@           ",
"      ....%%%%#@#@...           ",
"      .@%.#%%#@@@..@            ",
"      .#...@#@.....             ",
"     @#%%#........              ",
"     +%%%%#@.@.@.@              ",
"    .##%%%%%#@@..               ",
"    @@.#%%%%%#.#@               ",
"    .##..#%%%.#.                ",
"    .#%%#.@##...                ",
"     @#%%##.@.%#.               ",
"     ++#%#@..%.%..              ",
"       +.@@%@.%@..@             ",
"           @%%.@%.@             ",
"            +#..@.              ",
"              #@.@              "};
