/* XPM */
static char *Icon___x__x__[] = {
/* columns rows colors chars-per-pixel */
"16 16 144 2",
"   c #393839",
".  c #7C147E",
"X  c #667169",
"o  c #717F75",
"O  c #9F0068",
"+  c #99096E",
"@  c #A91C7D",
"#  c #5D359B",
"$  c #6A238C",
"%  c #7C3192",
"&  c #763898",
"*  c #733E9D",
"=  c #773E9D",
"-  c #793A9B",
";  c #395FBB",
":  c #5E47A9",
">  c #5850AD",
",  c #4A5DB9",
"<  c #3C6ECA",
"1  c #2F71CB",
"2  c #5C67C4",
"3  c #4175D0",
"4  c #5779D4",
"5  c #7165C1",
"6  c #AB1B80",
"7  c #AC1E83",
"8  c #9C2E8F",
"9  c #803090",
"0  c #833696",
"q  c #B82B8F",
"w  c #B73193",
"e  c #BC379B",
"r  c #BD379C",
"t  c #BD399C",
"y  c #BE3C9D",
"u  c #A34293",
"i  c #B74192",
"p  c #9044A7",
"a  c #8D53AE",
"s  c #825AB8",
"d  c #BE43A7",
"f  c #A751B2",
"g  c #B651B0",
"h  c #BF61A3",
"j  c #C242A3",
"k  c #C549A7",
"l  c #CC4DA6",
"z  c #C143A8",
"x  c #D14CA9",
"c  c #C950AC",
"v  c #C951AC",
"b  c #CA50AE",
"n  c #CF5BB6",
"m  c #CC5CB4",
"M  c #CF5FB4",
"N  c #D05DB5",
"B  c #D35FBA",
"V  c #D258BE",
"C  c #E05EB9",
"Z  c #D162B8",
"A  c #D365BA",
"S  c #D464BB",
"D  c #D568BD",
"F  c #D66BBF",
"G  c #D864C6",
"H  c #DB6FC6",
"J  c #DD76C8",
"K  c #DE79C9",
"L  c #E367CA",
"P  c #E079CD",
"I  c #E17FCD",
"U  c #E77DCD",
"Y  c #E376D5",
"T  c #E376D7",
"R  c #3584DE",
"E  c #3AA4F7",
"W  c #31B0FF",
"Q  c #408FE4",
"!  c #5F8EE8",
"~  c #4A98ED",
"^  c #5790E6",
"/  c #6293E8",
"(  c #52AFFF",
")  c #A2A1A1",
"_  c #A7A9A7",
"`  c #D489C1",
"'  c #E483D3",
"]  c #E880D0",
"[  c #E88AD7",
"{  c #E887D9",
"}  c #EA87DF",
"|  c #E88BDB",
" . c #EB8CD9",
".. c #F489DE",
"X. c #ED87E0",
"o. c #EB88E0",
"O. c #EE8DE2",
"+. c #ED91E0",
"@. c #EE9FE1",
"#. c #F09AE5",
"$. c #F298E7",
"%. c #F299E7",
"&. c #F29AE7",
"*. c #F29BE7",
"=. c #F29CE6",
"-. c #F29CE7",
";. c #F29DE7",
":. c #F39AE9",
">. c #F499EB",
",. c #F39DE8",
"<. c #F29EE8",
"1. c #F39EE8",
"2. c #F39FE8",
"3. c #F39EE9",
"4. c #F49DE9",
"5. c #F59FEB",
"6. c #F2A0E9",
"7. c #F4A0EA",
"8. c #F5A0EB",
"9. c #F5A2EB",
"0. c #F5A1EC",
"q. c #F6A2EC",
"w. c #F6A3EC",
"e. c #F5A4EE",
"r. c #F7A5EE",
"t. c #F7A7EF",
"y. c #FBA5EE",
"u. c #F4B0EC",
"i. c #F5B6EE",
"p. c #F8A2F0",
"a. c #F9AAF2",
"s. c #FAADF3",
"d. c #FBABF4",
"f. c #C5C4C4",
"g. c #FAD5F5",
"h. c #F7DAF0",
"j. c #FFD6FE",
"k. c #FAE1F6",
"l. c #FDEDFC",
"z. c #FAFFFA",
"x. c #FEFBFE",
"c. c #FFFCFF",
"v. c #FFFFFF",
"b. c None",
/* pixels */
"b.b.b.b.b.b.b.b.b.b.b.b.b.b.b.b.",
"b.b.b.b.b.b.# b.b.b.b.b.b.b.b.b.",
"b.b.b.b.b.b.Q ~ & b.b.b.b.b.b.b.",
"b.b.b.b.b.+ 2 ! 4 9 O b.b.b.b.b.",
"b.b.* R 3 < % l U  .' M i b.b.b.",
"b.b.b./ ( s ] d.e.9.9.t.{ @ b.b.",
"b.b.b.0 - C a.#.#.3.k.c.c.h.b.b.",
"b.. > 1 p ..6.<.:.i.c._ f.X h b.",
"b.$ E ^ z O.9.<.#.u.c.  ) o ` b.",
"b.b.8 = j } 9.=.3.:.g.z.l.j.] @ ",
"b.b.b.; f L | e.=.#.3.#.Z H J Z ",
"b.b., W a x m F q.3.9.+.[ 9.k w ",
"b.u : 5 g y.s.A P 5.#.q.p.c b.b.",
"b.b.b.b.q o.:.c V T T G r b.b.b.",
"b.b.b.b.b.7 7 r N b j D K b.b.b.",
"b.b.b.b.b.b.b.r o.N y :.S b.b.b."
};
