/* XPM */
static char * scourge_xpm[] = {
"48 48 413 2",
"  	c None",
". 	c #262831",
"+ 	c #2B2E36",
"@ 	c #2B2F37",
"# 	c #2A2E36",
"$ 	c #292C33",
"% 	c #2B2E34",
"& 	c #191B21",
"* 	c #151822",
"= 	c #21252E",
"- 	c #2D313A",
"; 	c #3F434C",
"> 	c #4E5259",
", 	c #54585F",
"' 	c #55585F",
") 	c #32353C",
"! 	c #1A1C22",
"~ 	c #0D121A",
"{ 	c #161B24",
"] 	c #1D222B",
"^ 	c #3E424A",
"/ 	c #585C63",
"( 	c #61646A",
"_ 	c #696C72",
": 	c #63676D",
"< 	c #494B51",
"[ 	c #171B22",
"} 	c #171C26",
"| 	c #191E27",
"1 	c #10151F",
"2 	c #171C25",
"3 	c #484C53",
"4 	c #565A60",
"5 	c #5E6168",
"6 	c #676A70",
"7 	c #707379",
"8 	c #787B80",
"9 	c #77797E",
"0 	c #707277",
"a 	c #1C1E24",
"b 	c #151A23",
"c 	c #20252D",
"d 	c #292D36",
"e 	c #2F343C",
"f 	c #2B2F38",
"g 	c #31353D",
"h 	c #4E5158",
"i 	c #575B61",
"j 	c #6A6D73",
"k 	c #72757B",
"l 	c #7C7E84",
"m 	c #85878C",
"n 	c #898C90",
"o 	c #818489",
"p 	c #54565B",
"q 	c #13161D",
"r 	c #0C111B",
"s 	c #1F242C",
"t 	c #262A33",
"u 	c #2A2F37",
"v 	c #42464D",
"w 	c #4C5057",
"x 	c #6F7278",
"y 	c #7F8187",
"z 	c #85888D",
"A 	c #8B8D92",
"B 	c #8A8C91",
"C 	c #6E7176",
"D 	c #3B3E44",
"E 	c #21242B",
"F 	c #080D17",
"G 	c #0A0F19",
"H 	c #0E131D",
"I 	c #121620",
"J 	c #131822",
"K 	c #0E131C",
"L 	c #3D4048",
"M 	c #474A52",
"N 	c #4F535A",
"O 	c #575A61",
"P 	c #5F6269",
"Q 	c #66696F",
"R 	c #6D7076",
"S 	c #777A80",
"T 	c #7A7D82",
"U 	c #7A7D83",
"V 	c #797C81",
"W 	c #71747A",
"X 	c #52555C",
"Y 	c #35383F",
"Z 	c #060A14",
"` 	c #080D18",
" .	c #090E18",
"..	c #0D121B",
"+.	c #2E333B",
"@.	c #3F434B",
"#.	c #53575E",
"$.	c #5A5E65",
"%.	c #606369",
"&.	c #64676E",
"*.	c #676B71",
"=.	c #686C71",
"-.	c #575B62",
";.	c #3C4048",
">.	c #181A22",
",.	c #1B1E24",
"'.	c #070C17",
").	c #121720",
"!.	c #232831",
"~.	c #33363E",
"{.	c #454950",
"].	c #50545B",
"^.	c #595C63",
"/.	c #585B62",
"(.	c #555960",
"_.	c #52565C",
":.	c #494C54",
"<.	c #2D3139",
"[.	c #040811",
"}.	c #090E17",
"|.	c #1A1F27",
"1.	c #3E4149",
"2.	c #444850",
"3.	c #464A52",
"4.	c #484C54",
"5.	c #474B53",
"6.	c #454951",
"7.	c #43474E",
"8.	c #40434B",
"9.	c #3B3F47",
"0.	c #33373F",
"a.	c #15171E",
"b.	c #4A4C51",
"c.	c #060B16",
"d.	c #242931",
"e.	c #343941",
"f.	c #363A42",
"g.	c #373C43",
"h.	c #373C44",
"i.	c #373B43",
"j.	c #353941",
"k.	c #2E323B",
"l.	c #151920",
"m.	c #171A21",
"n.	c #080E18",
"o.	c #22262F",
"p.	c #252932",
"q.	c #272B34",
"r.	c #1F232C",
"s.	c #0F151F",
"t.	c #ADADAF",
"u.	c #0F141D",
"v.	c #0B101A",
"w.	c #0D121C",
"x.	c #141922",
"y.	c #151923",
"z.	c #0C101A",
"A.	c #616267",
"B.	c #0A0F18",
"C.	c #141822",
"D.	c #161B25",
"E.	c #181D26",
"F.	c #1A1F28",
"G.	c #1B2029",
"H.	c #04060D",
"I.	c #282B33",
"J.	c #11151F",
"K.	c #1C202A",
"L.	c #1F242D",
"M.	c #242932",
"N.	c #252A33",
"O.	c #272C34",
"P.	c #282C35",
"Q.	c #282D35",
"R.	c #1E232C",
"S.	c #0F141E",
"T.	c #04070F",
"U.	c #78787C",
"V.	c #050A13",
"W.	c #292E36",
"X.	c #333840",
"Y.	c #292D35",
"Z.	c #10151E",
"`.	c #CBCBCC",
" +	c #11141C",
".+	c #181C26",
"++	c #111620",
"@+	c #30343C",
"#+	c #393D45",
"$+	c #272B32",
"%+	c #12151A",
"&+	c #1C1F25",
"*+	c #43474F",
"=+	c #43464E",
"-+	c #3C3F48",
";+	c #1D212A",
">+	c #32343A",
",+	c #3C4148",
"'+	c #30343D",
")+	c #171B25",
"!+	c #383C44",
"~+	c #2A2D34",
"{+	c #020304",
"]+	c #010103",
"^+	c #000002",
"/+	c #1A1D22",
"(+	c #40434A",
"_+	c #4B4F55",
":+	c #464A51",
"<+	c #41454D",
"[+	c #1E232D",
"}+	c #070B12",
"|+	c #6A6C70",
"1+	c #3A3E46",
"2+	c #5A5C63",
"3+	c #4F5259",
"4+	c #1C2129",
"5+	c #242831",
"6+	c #353942",
"7+	c #3D4149",
"8+	c #131519",
"9+	c #000204",
"0+	c #010203",
"a+	c #000102",
"b+	c #000000",
"c+	c #030506",
"d+	c #1B1E22",
"e+	c #2F3238",
"f+	c #383B44",
"g+	c #3C4049",
"h+	c #3D4148",
"i+	c #343840",
"j+	c #DEDEDF",
"k+	c #2B2E35",
"l+	c #4C4F57",
"m+	c #74777D",
"n+	c #83858B",
"o+	c #10141E",
"p+	c #232730",
"q+	c #40444C",
"r+	c #373B42",
"s+	c #010204",
"t+	c #010104",
"u+	c #010304",
"v+	c #040508",
"w+	c #06070A",
"x+	c #07090C",
"y+	c #282C34",
"z+	c #6F7174",
"A+	c #1B1F29",
"B+	c #797B81",
"C+	c #3C3F47",
"D+	c #2F333C",
"E+	c #22272F",
"F+	c #1D2127",
"G+	c #000001",
"H+	c #000103",
"I+	c #010102",
"J+	c #010001",
"K+	c #010202",
"L+	c #020306",
"M+	c #080C15",
"N+	c #080D16",
"O+	c #373A3F",
"P+	c #050A15",
"Q+	c #242A32",
"R+	c #32363E",
"S+	c #000203",
"T+	c #070B14",
"U+	c #11141A",
"V+	c #161A21",
"W+	c #070C16",
"X+	c #292E37",
"Y+	c #31353E",
"Z+	c #2B3038",
"`+	c #010101",
" @	c #000101",
".@	c #070B15",
"+@	c #1D222A",
"@@	c #1E222B",
"#@	c #1F2329",
"$@	c #04060A",
"%@	c #040710",
"&@	c #20252E",
"*@	c #171A20",
"=@	c #030508",
"-@	c #20242D",
";@	c #2E3037",
">@	c #77787A",
",@	c #11161F",
"'@	c #13171F",
")@	c #040609",
"!@	c #1B1F27",
"~@	c #35393F",
"{@	c #272A31",
"]@	c #0C121B",
"^@	c #2E3139",
"/@	c #35373D",
"(@	c #04050A",
"_@	c #000100",
":@	c #04070B",
"<@	c #272B35",
"[@	c #2F3239",
"}@	c #161920",
"|@	c #070B13",
"1@	c #070C13",
"2@	c #080C14",
"3@	c #171B24",
"4@	c #1C212A",
"5@	c #090D17",
"6@	c #020305",
"7@	c #090F19",
"8@	c #1B1F26",
"9@	c #0A0E19",
"0@	c #04060B",
"a@	c #090E15",
"b@	c #0C111A",
"c@	c #262B33",
"d@	c #34373D",
"e@	c #0A0F17",
"f@	c #131721",
"g@	c #0F131D",
"h@	c #0B1019",
"i@	c #06080F",
"j@	c #161A24",
"k@	c #2D3038",
"l@	c #1B212A",
"m@	c #1C222A",
"n@	c #060A12",
"o@	c #020204",
"p@	c #2C3037",
"q@	c #2D3035",
"r@	c #03050C",
"s@	c #0A0E18",
"t@	c #1A1E28",
"u@	c #2A2E37",
"v@	c #2C3139",
"w@	c #191D27",
"x@	c #0F131B",
"y@	c #060911",
"z@	c #21262F",
"A@	c #2C3039",
"B@	c #32373F",
"C@	c #2F333B",
"D@	c #06090F",
"E@	c #262B34",
"F@	c #161A23",
"G@	c #0A0E17",
"H@	c #0B0F15",
"I@	c #32363F",
"J@	c #04070C",
"K@	c #020408",
"L@	c #262A32",
"M@	c #0C111C",
"N@	c #030509",
"O@	c #010205",
"P@	c #060910",
"Q@	c #232830",
"R@	c #0A1019",
"S@	c #20242E",
"T@	c #1A1C24",
"U@	c #1A1F29",
"V@	c #1B202A",
"W@	c #020407",
"X@	c #040509",
"Y@	c #151A24",
"Z@	c #20242B",
"`@	c #040810",
" #	c #0B0F19",
".#	c #010305",
"+#	c #010306",
"@#	c #131720",
"##	c #252830",
"$#	c #050811",
"%#	c #05080E",
"&#	c #0D111B",
"*#	c #282B32",
"=#	c #060B14",
"-#	c #06080C",
";#	c #070A12",
">#	c #2C2F37",
",#	c #070C15",
"'#	c #1D2026",
")#	c #1D2129",
"!#	c #252A32",
"~#	c #2F333A",
"{#	c #080C16",
"]#	c #1F232D",
"^#	c #3E4249",
"/#	c #3B4047",
"(#	c #21262E",
"_#	c #363B43",
":#	c #33373E",
"<#	c #333740",
"[#	c #131821",
"}#	c #2C2F39",
"|#	c #1A1E27",
"1#	c #2F343B",
"2#	c #3D4047",
"3#	c #42464E",
"4#	c #42464C",
"5#	c #050810",
"6#	c #050911",
"7#	c #090D16",
"8#	c #0E1119",
"9#	c #080B13",
"0#	c #15181F",
"a#	c #22252D",
"b#	c #292C32",
"c#	c #2E3138",
"d#	c #35383E",
"e#	c #3A3E44",
"f#	c #3C3E44",
"                                                                                                ",
"                                                      . + @ # $ %                               ",
"                                                  & * = - ; > , ' )                             ",
"                                                ! ~ { ] ^ > / ( _ : <                           ",
"                                              [ } | 1 2 3 4 5 6 7 8 9 0                         ",
"                                          a b c d e f g h i ( j k l m n o p                     ",
"                                        q r { s t u - v w ' 5 6 x 8 y z A B C D                 ",
"                                      E F G H I J K 2 L M N O P Q R k S T U V W X Y             ",
"                                      Z ` F  . . .F ..+.@.M h #.$.%.&.*._ _ =.Q ( -.;.>.        ",
"                                    ,.'.F  . . . .F  .).!.d f ~.{.].' O ^.^./.(._.h :.<.        ",
"                                    [. . . . . . . .F F  . .}. .|.1.2.3.3 4.5.6.7.8.9.0.a.      ",
"                                  b.c. . . . . . . . .F F F F F G d.e.f.g.h.i.j.g k.<.d l.      ",
"                                  m.n. . . . . . . . . . .F F F F 1 o.p.q.q.t r.s.H } | I       ",
"                                t.u. . . . . . . . . . .F  .G v.r w.).x.y.b J r F F  .z.G       ",
"                                A.F F  . . . . . . . .F B.1 C.D.E.| F.G.2 H  .F F F F  . .H.    ",
"                                I.F  . . .` }. . .F  . .J.K.L.o.M.N.O.P.d Q.R.b S.v.F F  .T.    ",
"                              U.V.F F  . .F }.w.H F F  .F.q.W.- g X.f.j.j.f.Y.R.R.Z.F  .F       ",
"                            `. +.+Z. .F  .F F ++2 v.F G p.@+X.#+$+%+&+#+*+=+-+;+G F F F F       ",
"                            >+i.,+'+)+F F  .F K R.C.F w.k.!+;.~+{+]+^+^+/+(+_+w :+<+^ [+r }+    ",
"                          |+1+2+( 3+k.w.F  .F F 4+5+r H 6+7+@.8+]+9+0+a+b+c+d+e+f+g+h+7+i+L.    ",
"                        j+k+l+m+n+&.9.o+F  . .F u.d p+H !+q+r+s+t+]+0+0+0+a+a+u+v+w+x+S.C.y+    ",
"                        z+A+*+^.B+&.C+++F  . . . .G.D+E+h.<+F+G+H+I+I+J+J+J+I+K+H+0+L+M+G N+    ",
"                        O+H v.P+)+2.e H F  . . .F v.Q+R+f.g+x+H+H+I+J+a+I+a+J+0+S+]+L+T+).U+    ",
"                        V+W+F F '.b |  .F  . . .F F K X+Y+Z+^+H+S+I+G+`+ @`+G+]+S+]+L+.@+@      ",
"                        }+F F  . .F  .F  . . . . .F F @@X+#@H+H+0+J+ @G+G+b+ @I+S+H+$@v.O.      ",
"                        %@B. .F F  .F  . . . . . . .F y.&@*@H+H+0+J+ @G+b+b+ @I+a+=@u.-@;@      ",
"                      >@o+{ ,@v. .F  . . . . . . . .F v.b '@H+H+0+J+ @G+b+G+ @G+)@!@d ~@        ",
"                      {@5+R..+).r  .F  . . . . . . . .F G ]@s+H+0+J+ @b+G+b+G+s+'@t ^@          ",
"                    /@d @ 5+] .+I r  .F  . . . . . . .F F n.(@a+0+G+`+_@b+ @G+:@v.<@[@          ",
"                  }@w.'+@+d !.R..+I r  .F  . . . . . . . . .|@H+S+I+J+G+ @ @b+1@ .W.e+          ",
"                2@` G 3@++r r { 4@.+).r  .F  . . . . . . .5@N+L+H+I+J+J+G+G+6@7@] 0.            ",
"            8@.@ .B.F W+F F F 9@{ 4@2 ++v.F  . . . . . . . .F 0@H+K+I+^+0+0@a@b@c@d@            ",
"          e@F K f@y.g@h@F  . .F G { ] 2 I G F  . . . . . . . .i@s+I+a+s+z.j@R.q.k@              ",
"        T+r ..S.l@&@E+!.w.F  . . . .{ m@.+,@ .F  . . . . . . .n@o@H+a+i@J l@p.p@q@              ",
"      r@s@{ F.t@N.u@v@<.-@{ w@E.I v. .2 ] 2 u. . . . . . . . .n@6@]+a+T+)+&@P.b x@              ",
"      y@I F.z@q.A@B@f.X.C@u@5+R..+I v. .2 R.{ v.F  . . . . . .D@6@o@0+.@{ E@F@F F G@H@          ",
"      b@2 4@z@q.A@@+I@e f L.++G n. . .F  .E.] y. .F  . . . .F J@s+s+K@N+S.L@r }...{ 2           ",
"      M@y.| ] E+t <@q.t z@H F F F F F  .F G E.] 1 F F  . . .N+N@O@6@P@F w.Q@R@B.).| S@T@        ",
"    T. .H C.)+{ b | 4@U@.+b@F  . . . . . .F G | V@G F  . .F }.W@O@X@ .W+;+=  .b@Y@4@5+Z@        ",
"    `@ .F G G F F F B.r b@ .F  . . . . . . .F  .| J  . .F  #Z..#+#F F @#q.g@F ..).g@d ##        ",
"    $# . .F F F  .F F F F F  . . . . . . . . .F G j@v.F F ,@|.O@%#s@1 2 &#F `  .G H v@*#        ",
"    =# . . . . . . . . . . . . . . . . . . . . .F v.g@F F I A@-#;#h@h@ .F  .F  .S.o.D+>#        ",
"    ,# . . . . . . . . . . . . . . . . . . . . . .F  .F F F - '#,@@#F F F F r )#!#f 0.~#        ",
"    {# . . . . . . . . . . . . . . . . . . . . . . .F  .F h@]#^#/#(#F F F r | &@y+D+_#:#        ",
"    {#n. . . . . . . . . . . . . . . . . . . . . . . .F  .G.Y+7+<#G F  . .[#;+d.}#B@1+r+        ",
"    {# . . . . . . . . . . . . . . . . . . . . . . . .F  .2 P.@+u@F F F v.|#&@P.1#f.7+2#        ",
"    F  . . . . . . . . . . . . . . . . . . . . . . . . .F H ] !.K.F  .` ).] p.A@<#1+3#4#        ",
"    5#$#$#$#$#$#$#$#$#$#$#$#6#6#6#6#6#6#6#6#6#6#6#6#6#6#6#6#7#8#9#6#6#$#0#8@a#b#c#d#e#f#        "};
