/* XPM */
static char * etracericon_xpm[] = {
"32 32 446 2",
"  	c None",
". 	c #D76F2B",
"+ 	c #C8692A",
"@ 	c #BA6026",
"# 	c #B15A23",
"$ 	c #AC561F",
"% 	c #AA541C",
"& 	c #AB5118",
"* 	c #B35216",
"= 	c #BF5512",
"- 	c #CC5710",
"; 	c #CA6A2B",
"> 	c #BA662D",
", 	c #BE672D",
"' 	c #D06D2C",
") 	c #DE7028",
"! 	c #E47125",
"~ 	c #E86F21",
"{ 	c #E66C1E",
"] 	c #E0681A",
"^ 	c #D36017",
"/ 	c #BE5513",
"( 	c #A84B10",
"_ 	c #AC4B0C",
": 	c #C1510A",
"< 	c #CD6824",
"[ 	c #BB652D",
"} 	c #C66B2D",
"| 	c #EA792D",
"1 	c #FD802D",
"2 	c #FF812D",
"3 	c #FD7E2A",
"4 	c #FB7A27",
"5 	c #F97723",
"6 	c #F77420",
"7 	c #F7721C",
"8 	c #F67019",
"9 	c #F66E15",
"0 	c #F16A12",
"a 	c #D55C0E",
"b 	c #AE4B0B",
"c 	c #AE4A08",
"d 	c #CA5205",
"e 	c #BC4B00",
"f 	c #B44E0A",
"g 	c #E6762B",
"h 	c #FE812D",
"i 	c #FF802C",
"j 	c #FC7D29",
"k 	c #FA7925",
"l 	c #F87622",
"m 	c #F7731E",
"n 	c #F6711B",
"o 	c #F66F17",
"p 	c #F66D14",
"q 	c #F66B11",
"r 	c #F3670D",
"s 	c #CF570A",
"t 	c #A94506",
"u 	c #C25004",
"v 	c #B64800",
"w 	c #B94A00",
"x 	c #F46100",
"y 	c #FF6E0E",
"z 	c #FD7F2B",
"A 	c #FB7B27",
"B 	c #F97824",
"C 	c #F87520",
"D 	c #F6721D",
"E 	c #F6701A",
"F 	c #F66D16",
"G 	c #F66C12",
"H 	c #F76A0F",
"I 	c #F8690C",
"J 	c #E35F08",
"K 	c #AD4805",
"L 	c #BE4E01",
"M 	c #BD4C00",
"N 	c #FB6400",
"O 	c #FF6600",
"P 	c #FF7315",
"Q 	c #FD7E29",
"R 	c #FA7A26",
"S 	c #F97622",
"T 	c #F7741F",
"U 	c #F66E18",
"V 	c #F66D15",
"W 	c #F7690E",
"X 	c #F9680A",
"Y 	c #EC6207",
"Z 	c #B04703",
"` 	c #C85000",
" .	c #C75000",
"..	c #B34800",
"+.	c #F86400",
"@.	c #FF7A21",
"#.	c #FE7F2B",
"$.	c #FC7C28",
"%.	c #F97924",
"&.	c #F87621",
"*.	c #F6711A",
"=.	c #F66E17",
"-.	c #F66C13",
";.	c #F66B10",
">.	c #F96709",
",.	c #E65F05",
"'.	c #AB4502",
").	c #D25400",
"!.	c #AC4500",
"~.	c #EF5F00",
"{.	c #FF6804",
"].	c #FF7F29",
"^.	c #F7751F",
"/.	c #F6721C",
"(.	c #F66F19",
"_.	c #F8690B",
":.	c #FA6707",
"<.	c #D75804",
"[.	c #B54800",
"}.	c #C14D00",
"|.	c #CB5200",
"1.	c #FF6701",
"2.	c #FF6D0C",
"3.	c #FE802C",
"4.	c #F66C14",
"5.	c #F76B10",
"6.	c #F7690D",
"7.	c #B64902",
"8.	c #CE5200",
"9.	c #AB4400",
"0.	c #F56504",
"a.	c #FF771C",
"b.	c #BE5B21",
"c.	c #9B512A",
"d.	c #FA6C0E",
"e.	c #DD5C07",
"f.	c #B14801",
"g.	c #CA5100",
"h.	c #BD4D01",
"i.	c #FF6E0D",
"j.	c #FF6702",
"k.	c #DC5E0D",
"l.	c #8F4B29",
"m.	c #5C403C",
"n.	c #433A45",
"o.	c #3C3948",
"p.	c #433F4D",
"q.	c #5C484A",
"r.	c #8B5841",
"s.	c #C26C37",
"t.	c #FC802D",
"u.	c #DA671F",
"v.	c #614641",
"w.	c #142F56",
"x.	c #F96B0F",
"y.	c #F66B12",
"z.	c #AB4603",
"A.	c #D55700",
"B.	c #B84900",
"C.	c #D85905",
"D.	c #FF6F0F",
"E.	c #F06305",
"F.	c #674238",
"G.	c #163055",
"H.	c #343D55",
"I.	c #575E73",
"J.	c #687C99",
"K.	c #6A86A8",
"L.	c #667D9C",
"M.	c #546480",
"N.	c #394762",
"O.	c #183156",
"P.	c #293753",
"Q.	c #7C5243",
"R.	c #DF722E",
"S.	c #D96C28",
"T.	c #6C4941",
"U.	c #193156",
"V.	c #2A4469",
"W.	c #515A72",
"X.	c #2A344F",
"Y.	c #F86A0E",
"Z.	c #F9721A",
"`.	c #BF5006",
" +	c #C55002",
".+	c #AA4400",
"++	c #EE680F",
"@+	c #D75D0F",
"#+	c #32364B",
"$+	c #323A53",
"%+	c #6D85A7",
"&+	c #91B1D5",
"*+	c #A1BDDB",
"=+	c #A2BDDC",
"-+	c #9CB9D9",
";+	c #87A9CD",
">+	c #5D789C",
",+	c #2F415E",
"'+	c #183056",
")+	c #203354",
"!+	c #173057",
"~+	c #2A4368",
"{+	c #6587AE",
"]+	c #99B6D7",
"^+	c #655E6B",
"/+	c #534043",
"(+	c #F8731D",
"_+	c #D45D0E",
":+	c #B54A04",
"<+	c #FB731A",
"[+	c #E56009",
"}+	c #2E354D",
"|+	c #4B4A59",
"1+	c #7EA1C8",
"2+	c #94B3D4",
"3+	c #94B2D3",
"4+	c #93B2D3",
"5+	c #92B1D3",
"6+	c #91B0D3",
"7+	c #91B0D2",
"8+	c #89A9CE",
"9+	c #6384AA",
"0+	c #395378",
"a+	c #5E81AA",
"b+	c #88AACF",
"c+	c #8EAED1",
"d+	c #8CACD0",
"e+	c #474455",
"f+	c #7C4B38",
"g+	c #E06516",
"h+	c #AA4506",
"i+	c #CE5100",
"j+	c #AB4500",
"k+	c #FF7C24",
"l+	c #FE6D0C",
"m+	c #4F3D40",
"n+	c #454251",
"o+	c #769CC3",
"p+	c #7FA3C8",
"q+	c #7FA2C8",
"r+	c #7EA2C7",
"s+	c #7DA1C7",
"t+	c #7CA1C7",
"u+	c #7CA0C6",
"v+	c #7BA0C6",
"w+	c #7A9FC6",
"x+	c #799EC5",
"y+	c #789EC5",
"z+	c #749BC3",
"A+	c #353C52",
"B+	c #8A4F35",
"C+	c #F77623",
"D+	c #E56C1F",
"E+	c #A84708",
"F+	c #CC5100",
"G+	c #AD4500",
"H+	c #FF7F2A",
"I+	c #BE5C21",
"J+	c #66748C",
"K+	c #678FB9",
"L+	c #668FB9",
"M+	c #668EB8",
"N+	c #658EB8",
"O+	c #504B59",
"P+	c #574243",
"Q+	c #F67826",
"R+	c #E46F25",
"S+	c #A7470A",
"T+	c #F86E15",
"U+	c #3F3946",
"V+	c #46404C",
"W+	c #6487AD",
"X+	c #628AB3",
"Y+	c #626D83",
"Z+	c #183055",
"`+	c #E3681B",
" @	c #F67E30",
".@	c #E06E25",
"+@	c #A8490C",
"@@	c #F17625",
"#@	c #FF761B",
"$@	c #DF5E0C",
"%@	c #443F4D",
"&@	c #607EA0",
"*@	c #6086AE",
"=@	c #5A7FA7",
"-@	c #44526E",
";@	c #273B5C",
">@	c #354D70",
",@	c #476991",
"'@	c #5D82AA",
")@	c #5F85AD",
"!@	c #273652",
"~@	c #9E5630",
"{@	c #F6833A",
"]@	c #D56722",
"^@	c #B04D0E",
"/@	c #B24800",
"(@	c #DE6515",
"_@	c #E05E0B",
":@	c #3D3947",
"<@	c #293450",
"[@	c #5C5E6E",
"}@	c #5B80A8",
"|@	c #5D82A9",
"1@	c #53779D",
"2@	c #465570",
"3@	c #203456",
"4@	c #353A50",
"5@	c #995D3E",
"6@	c #644B48",
"7@	c #1F3355",
"8@	c #193157",
"9@	c #354765",
"0@	c #1F3354",
"a@	c #724A3E",
"b@	c #F68D4B",
"c@	c #C45C19",
"d@	c #BC5410",
"e@	c #C54E00",
"f@	c #C45206",
"g@	c #FF8C40",
"h@	c #FF6905",
"i@	c #F76403",
"j@	c #85492D",
"k@	c #1E3152",
"l@	c #273551",
"m@	c #4D4A58",
"n@	c #575B6D",
"o@	c #57667E",
"p@	c #55647D",
"q@	c #4F5A70",
"r@	c #494D60",
"s@	c #2E3A54",
"t@	c #3D3E4F",
"u@	c #A0603E",
"v@	c #F97F2E",
"w@	c #F77C2B",
"x@	c #B86535",
"y@	c #764E40",
"z@	c #4D4048",
"A@	c #B86639",
"B@	c #F49051",
"C@	c #AE5015",
"D@	c #CB5B11",
"E@	c #D35500",
"F@	c #AD4600",
"G@	c #FB883A",
"H@	c #FF771D",
"I@	c #F16305",
"J@	c #A25122",
"K@	c #443A44",
"L@	c #33374B",
"M@	c #35364A",
"N@	c #4D3D41",
"O@	c #6B4436",
"P@	c #974E26",
"Q@	c #DA5D0D",
"R@	c #F78C47",
"S@	c #E27B39",
"T@	c #AB5117",
"U@	c #D65F0F",
"V@	c #FF8F45",
"W@	c #FF7C25",
"X@	c #F98032",
"Y@	c #F89C61",
"Z@	c #C05E20",
"`@	c #C45A19",
" #	c #D55600",
".#	c #AF4600",
"+#	c #F7873C",
"@#	c #FF8533",
"##	c #FF7D27",
"$#	c #FA9D60",
"%#	c #E47F3F",
"&#	c #B1571F",
"*#	c #BF4D00",
"=#	c #C05004",
"-#	c #FD9753",
";#	c #FF7E28",
">#	c #FF822E",
",#	c #FE9E5E",
"'#	c #F49A60",
")#	c #B75F25",
"!#	c #CC631D",
"~#	c #B34700",
"{#	c #CD590D",
"]#	c #FF9E5D",
"^#	c #FF8331",
"/#	c #FFA163",
"(#	c #FCA972",
"_#	c #C3682C",
":#	c #C36426",
"<#	c #C9580D",
"[#	c #FD9E5E",
"}#	c #FF8E43",
"|#	c #FF6C0A",
"1#	c #FF7113",
"2#	c #FF9E5E",
"3#	c #F7A36B",
"4#	c #C76C30",
"5#	c #C26729",
"6#	c #B24700",
"7#	c #BD4F05",
"8#	c #F39251",
"9#	c #FFA365",
"0#	c #FF8635",
"a#	c #FF6B08",
"b#	c #FF7010",
"c#	c #FF8F44",
"d#	c #FFA569",
"e#	c #E9813C",
"f#	c #B34903",
"g#	c #C05B17",
"h#	c #B94900",
"i#	c #AC4400",
"j#	c #CF6016",
"k#	c #F89C60",
"l#	c #FFA86E",
"m#	c #FF9854",
"n#	c #FF8838",
"o#	c #FF7B23",
"p#	c #FF822F",
"q#	c #FF8B3D",
"r#	c #FFA96F",
"s#	c #F18E4E",
"t#	c #C3540A",
"u#	c #C24D00",
"v#	c #B44700",
"w#	c #C35309",
"x#	c #DD7129",
"y#	c #F19050",
"z#	c #FDA468",
"A#	c #FFAB73",
"B#	c #FFAA72",
"C#	c #FB9F63",
"D#	c #EE8A48",
"E#	c #D76920",
"F#	c #BC4F05",
"G#	c #BB4B00",
"H#	c #D05300",
"I#	c #C54F00",
"J#	c #B14800",
"K#	c #B74900",
"L#	c #CC5300",
"M#	c #CC5400",
"                                                                ",
"                      . + @ # $ % & * = -                       ",
"                  ; > , ' ) ! ~ { ] ^ / ( _ :                   ",
"              < [ } | 1 2 3 4 5 6 7 8 9 0 a b c d               ",
"            e f g h 2 2 2 i j k l m n o p q r s t u             ",
"          v w x y i 2 2 2 2 z A B C D E F G H I J K L           ",
"        e M N O O P 2 2 2 2 2 Q R S T n U V q W X Y Z `         ",
"       ...+.O O O O @.2 2 2 2 #.$.%.&.m *.=.-.;.I >.,.'.).      ",
"      !.~.O O O O O {.].2 2 2 2 3 4 5 ^./.(.V G W _.:.<.[.      ",
"    }.|.1.O O O O O O 2.2 2 2 2 3.$.k l m n =.4.5.6.>.:.7.8.    ",
"    9.0.{.O O O O O O O a.2 2 2 2 z A B C D 8 F G b.c.d.e.f.    ",
"  g.h.i.j.O O O k.l.m.n.o.p.q.r.s.t.j R l T n u.v.w.w.x.y.z.A.  ",
"  B.C.D.O O E.F.G.H.I.J.K.L.M.N.O.P.Q.R.%.S.T.U.V.W.X.Y.Z.`. +  ",
"  .+++i.O @+#+$+%+&+*+=+=+=+=+-+;+>+,+'+)+!+~+{+]+^+/+W (+_+:+  ",
"  .+<+i.[+}+|+1+2+3+3+4+5+5+5+6+7+7+8+9+0+a+b+c+d+e+f+5.6 g+h+  ",
"i+j+k+l+m+n+o+p+q+q+r+s+s+s+t+u+u+v+w+w+x+x+x+y+z+A+B+G C+D+E+  ",
"F+G+H+I+w.J+K+K+K+L+L+M+L+M+M+M+N+N+N+N+N+N+N+N+N+O+P+p Q+R+S+  ",
"  .+z T+U+V+W+X+X+X+X+X+X+X+X+X+X+X+X+X+X+X+X+X+X+Y+Z+`+ @.@+@  ",
"  .+@@#@$@}+%@&@*@*@*@*@*@*@*@*@*@*@*@=@-@;@>@,@'@)@!@~@{@]@^@  ",
"  /@(@i O _@:@<@[@}@|@|@|@|@|@|@|@1@2@3@4@5@6@7@8@9@0@a@b@c@d@  ",
"  e@f@g@h@O i@j@k@l@m@n@o@p@q@r@s@w.t@u@v@2 2 w@x@y@z@A@B@C@D@  ",
"  E@F@G@H@O O O I@J@F.K@L@M@N@O@P@Q@H@2 2 2 2 i j k l R@S@T@    ",
"    w U@V@{.O O O O O O O O O O O O j.W@2 2 2 2 z A X@Y@Z@`@    ",
"     #.#+#@#O O O O O O O O O O O O O h@##2 2 2 2 1 $#%#&#      ",
"      *#=#-#;#O O O O O O O O O O O O O h@W@2 2 >#,#'#)#!#      ",
"        ~#{#]#>#O O O O O O O O O O O O O 1.a.^#/#(#_#:#        ",
"          G+<#[#}#|#O O O O O O O O O O O O 1#2#3#4#5#          ",
"            6#7#8#9#0#a#O O O O O O O O b#c#d#e#f#g#            ",
"              h#i#j#k#l#m#n#i @.o#p#q#]#r#s#t#.+u#              ",
"                |.v#G+w#x#y#z#A#B#C#D#E#F#.+G#                  ",
"                    H#I#J#.+.+!.9..+.+K#`                       ",
"                              L#M#                              "};
