/* XPM */
static char * nmm_qt_client_xpm[] = {
"32 32 196 2",
"  	c None",
". 	c #F6F6F6",
"+ 	c #FAFAFA",
"@ 	c #F2F3F2",
"# 	c #FBFBFB",
"$ 	c #F9F9F9",
"% 	c #F5F5F5",
"& 	c #F8F8F8",
"* 	c #FCFCFC",
"= 	c #F7F7F7",
"- 	c #F8F7F7",
"; 	c #EEEEEE",
"> 	c #F6F4F4",
", 	c #F4EEEE",
"' 	c #F4F5F4",
") 	c #F4F4F4",
"! 	c #F3F3F3",
"~ 	c #F2F2F2",
"{ 	c #FFFFFF",
"] 	c #F0F0F0",
"^ 	c #FCFDFD",
"/ 	c #D67781",
"( 	c #D26973",
"_ 	c #FCFFFF",
": 	c #D8D8D8",
"< 	c #010101",
"[ 	c #8D8D8D",
"} 	c #ECEBEB",
"| 	c #F6ECED",
"1 	c #B00001",
"2 	c #B00004",
"3 	c #F3DFE1",
"4 	c #F9F8F8",
"5 	c #7A7A7A",
"6 	c #060606",
"7 	c #080808",
"8 	c #777777",
"9 	c #EFEFEF",
"0 	c #D0606B",
"a 	c #CB525D",
"b 	c #515151",
"c 	c #000000",
"d 	c #494949",
"e 	c #F1F1F1",
"f 	c #F7F1F2",
"g 	c #F3E7E9",
"h 	c #F3F2F2",
"i 	c #8C8C8C",
"j 	c #ECECEC",
"k 	c #EDEDED",
"l 	c #EBEBEB",
"m 	c #EAEAEA",
"n 	c #F4F2F2",
"o 	c #F7FDFC",
"p 	c #E9E9E9",
"q 	c #F4F3F3",
"r 	c #F7FEFD",
"s 	c #C84B57",
"t 	c #F5F9F8",
"u 	c #E8E8E8",
"v 	c #F3F4F4",
"w 	c #F5FAF9",
"x 	c #C94F5B",
"y 	c #B50112",
"z 	c #E7C4C7",
"A 	c #F1EDEE",
"B 	c #E6E6E6",
"C 	c #F2EFF0",
"D 	c #E4B7BC",
"E 	c #B50010",
"F 	c #B7091A",
"G 	c #F5FFFF",
"H 	c #F1F0F0",
"I 	c #E7E7E7",
"J 	c #E5E5E5",
"K 	c #F7FFFF",
"L 	c #B4000F",
"M 	c #B70819",
"N 	c #B91121",
"O 	c #CD5F69",
"P 	c #E4E4E4",
"Q 	c #F0EDED",
"R 	c #E3B7BC",
"S 	c #F3FEFD",
"T 	c #F0EFEF",
"U 	c #E5E4E5",
"V 	c #E2E2E2",
"W 	c #F1F6F5",
"X 	c #C9505B",
"Y 	c #E5C3C6",
"Z 	c #EEEAEB",
"` 	c #E3E4E3",
" .	c #DBDED9",
"..	c #D9DAD9",
"+.	c #F2FAF9",
"@.	c #C74B57",
"#.	c #F0F4F4",
"$.	c #81C347",
"%.	c #7DC241",
"&.	c #7EC242",
"*.	c #80C344",
"=.	c #84C54B",
"-.	c #85C54C",
";.	c #EDEDEE",
">.	c #F3F2F3",
",.	c #EEEBEC",
"'.	c #F0F6F5",
").	c #EEEFEF",
"!.	c #E1E1E1",
"~.	c #F0EFF0",
"{.	c #7FC243",
"].	c #7FC344",
"^.	c #7AC03C",
"/.	c #99CF69",
"(.	c #78BF39",
"_.	c #80C345",
":.	c #77BF37",
"<.	c #B1D194",
"[.	c #ECEDEB",
"}.	c #E3E3E3",
"|.	c #DFDFDF",
"1.	c #7FC244",
"2.	c #75BE35",
"3.	c #CFE8B9",
"4.	c #74BD33",
"5.	c #E4F2D7",
"6.	c #6BB927",
"7.	c #77BB3A",
"8.	c #DEDEDE",
"9.	c #9BD06E",
"0.	c #6FBB2C",
"a.	c #CFE8B8",
"b.	c #C3E2A7",
"c.	c #C4E3A8",
"d.	c #82C548",
"e.	c #E0DFE2",
"f.	c #E0E0E0",
"g.	c #82C448",
"h.	c #AED888",
"i.	c #FDFEFD",
"j.	c #C1E2A4",
"k.	c #AED988",
"l.	c #60B517",
"m.	c #DBDADA",
"n.	c #EAE7E7",
"o.	c #E9EAEA",
"p.	c #EBEAEA",
"q.	c #A8D680",
"r.	c #73BD32",
"s.	c #C2E3A6",
"t.	c #AFD989",
"u.	c #6FBB2D",
"v.	c #82C447",
"w.	c #DCDCDC",
"x.	c #DFE0DF",
"y.	c #ECF8F7",
"z.	c #B4000B",
"A.	c #E7E1E2",
"B.	c #E9E7E7",
"C.	c #81C346",
"D.	c #8FCB5C",
"E.	c #6EBA2A",
"F.	c #D7ECC4",
"G.	c #96CE66",
"H.	c #CA5F69",
"I.	c #B91323",
"J.	c #BE2937",
"K.	c #EBF3F3",
"L.	c #78BF38",
"M.	c #DDEFCD",
"N.	c #EFF7E6",
"O.	c #F5FAEF",
"P.	c #73BD31",
"Q.	c #BADE9A",
"R.	c #D9D9D9",
"S.	c #E7E6E6",
"T.	c #E8EAEA",
"U.	c #B10001",
"V.	c #DEBDC0",
"W.	c #E7E3E4",
"X.	c #7EC241",
"Y.	c #E6F3DA",
"Z.	c #CBE6B2",
"`.	c #78BF3A",
" +	c #7EC243",
".+	c #83C449",
"++	c #C4C5C4",
"@+	c #EEEDEE",
"#+	c #E9E8E8",
"$+	c #E1C4C7",
"%+	c #EBF1F1",
"&+	c #DFE0E0",
"*+	c #7CC13F",
"=+	c #95CD65",
"-+	c #81C446",
";+	c #83C54A",
"                                . +                             ",
"                            @ # + $                             ",
"                        % # + $ $ $ &                           ",
"                    % * $ + $ $ & & =                           ",
"                . * + # $ & - = = . . %                         ",
"            = * + + + ; $ > , . ' ) ! ~ + $ + $ & $ & & =       ",
"        { = + + + $ $ ] ^ / ( _ # + + + + + $ $ $ & & & $       ",
"    = : < [ { $ $ & + } | 1 2 3 4 + + $ $ & & & & & = = &       ",
"    + 5 6 7 8 ~ + ~ ] 9 _ 0 a _ $ $ & & & & & = = = = . &       ",
"    ~ b c d . e e $ = ; $ f g h ! ~ ! ~ ~ e ~ e e ] . % .       ",
"      { { i ! $ = . . j & & 9 # $ $ & & & = = = . ; = % .       ",
"      ] = ! e . . % % j = & ] $ = = = . . . % % % k . ) %       ",
"        $ = & k % % ) l = = 9 & . . . % % % ) ) ) j % ! %       ",
"        ] % % k . ) ) m . . ; = % % % n o ) ) ) ~ l % ~ )       ",
"          . % = m ! ! p % % j = % % q r s t ! ! ~ p ) ~ !       ",
"          9 ) ! p ) ~ u % % l . ) v w x y z A ~ e u ! e ~       ",
"            ) ! % B e u ) ) m % ! C D E F F G H e I ~ ] ~       ",
"            9 ~ e J ) I ! ~ p % ~ K L M M N O ] 9 B ! 9 ]       ",
"              ~ e ) P B ! ~ I ) ~ Q R E F F S T 9 U e ; ]       ",
"              ; ] 9 V p e e B ! e e W X y Y Z 9 ; ` ] ; 9       ",
"               .9 9 e ..] e J ! ] ] T +.@.#.9 ; ; V ] k 9       ",
"$.%.&.*.=.=.-.  ;.; ; P ] 9 P >.] 9 9 ,.'.).k k j !.~.k k       ",
"{.].^./.(._.:._.<.[.k }.9 9 V ~ ; ; ; ; k k k k j |.9 l k       ",
"1.2.{ 3.{ 4.5.6.7.;.j V 9 ; !.e ; ; k k k j j j l 8.; l j       ",
"$.9.{ 0.a.b.{ c.d.e.l V k k f.~ 9 9 ; ; ; ; k k k |.k m j       ",
"g.h.i.4.j.k.{ l.g.  l !.k k B }.}.}.}.V V V V !.!.m.n.o.p.      ",
"g.q.{ r.s.t.{ u.v.  w.x.j k l l l m l l m m m p p y.z.A.B.      ",
"C.D.{ E.F.G.{ E.C.    P j l l l l l m m m m p p u H.I.J.K.      ",
"1.L.M.N.O.P.j.Q.].    R.m l m m m m p p p u u u S.T.U.V.W.      ",
"1.X.4.Y.Z.`. +_..+    ++j k @+k l m m m p p p p p #+$+%+&+      ",
"1.&.&.*+=+].-+g.                                                ",
"v.;+                                                            "};
