/* XPM */
static char *_ad[] = {
/* columns rows colors chars-per-pixel */
"32 32 56 1 ",
"  c #000000",
". c #090703",
"X c #0D0A04",
"o c #120E07",
"O c #1A1409",
"+ c #1F180B",
"@ c #221A0C",
"# c #2B1F0D",
"$ c #2B210E",
"% c #2D2311",
"& c #322612",
"* c #352913",
"= c #3A2C14",
"- c #3C3017",
"; c #3E3219",
": c #423217",
"> c #43361A",
", c #48371A",
"< c #46381C",
"1 c #4C3B1D",
"2 c #523E1D",
"3 c #55411E",
"4 c #59421E",
"5 c #4E4020",
"6 c #544321",
"7 c #5B4521",
"8 c #5D4923",
"9 c #614721",
"0 c #644B23",
"q c #6A4E24",
"w c #675126",
"e c #6B5126",
"r c #625028",
"t c #6C5428",
"y c #6E5B2D",
"u c #715427",
"i c #715528",
"p c #745A2B",
"a c #7A5D2B",
"s c #7E612E",
"d c #716132",
"f c #7F6331",
"g c #82622E",
"h c #86692C",
"j c #836430",
"k c #846B35",
"l c #8B6C34",
"z c #8F7236",
"x c #947035",
"c c #977638",
"v c #967E3C",
"b c #9D7B3B",
"n c #A9883D",
"m c #B08840",
"M c #DCB355",
"N c None",
/* pixels */
"NNNNNNNNNNN,;>>>>1>NNNNNNNNNNNNN",
"NNNNNNNNN,1ifsglgxfi71NNNNNNNNNN",
"NNNNNNN22ape666j6wrigj01NNNNNNNN",
"NNNNNN18q6<:%$qa,&1retas6NNNNNNN",
"NNNN63w76-X  oqa= N =kysf6NNNNNN",
"NNNN3e63O  NNNrp= NNNNdkaz8NNNNN",
"NNN2e43X  NNNNpt= NNNNNNvfl1NNNN",
"NN70w3X NNNNNNaa* NNNNNNNvlb&NNN",
"NN9a4O NNNNNNNig= NNNNNNNMgbyNNN",
"N804=  NNNNNNNwu= NNNNNNNNnkc%NN",
"N4q4X NNNNNNNN0e= NNNNNNNNNaz7NN",
"w34: NNNNNNNNN8i= NNNNNNNNNzjaXN",
"e74# NNNNNNNNNw7* NNNNNNNNNbyp+N",
"8t2O.NNNNNNNNNiu=.NNNNNNNNNmug%N",
"8e1,,,:1,,,1;,6p11>22226668tpg= ",
"3w4212122313224q262267676690tu= ",
"792,>>><>1>1>26q2656688rrrts8q= ",
"i72O         o6q*          2r8% ",
"j26@NNNNNNNNNN79* NNNNNNNNN6t9+ ",
"N4w* NNNNNNNNN00= NNNNNNNNN7t9 N",
"Nt02oNNNNNNNNN0e* NNNNNNNN2q94 N",
"Nh2q&NNNNNNNNN90= NNNNNNNN2u4$ N",
"NN496+NNNNNNNN49= NNNNNNN,844  N",
"NNa281ONNNNNNN29* NNNNNN-693@ NN",
"NNNt30>NNNNNNN26* NNNNN:4q1>  NN",
"NNNNk332%NNNNN69& NNNN=4738  NNN",
"NNNNNz2q7:%NNN69& NN*,0e38. NNNN",
"NNNNNNy69q7,*&29=$&,7e373  NNNNN",
"NNNNNNN7832967672777121@  NNNNNN",
"NNNNNNNNN,762111,111>$   NNNNNNN",
"NNNNNNNNNNNo&-;;-*+    NNNNNNNNN",
"NNNNNNNNNNNNNN     NNNNNNNNNNNNN"
};
