/* XPM */
static char * deadlycobra_xpm[] = {
"32 32 310 2",
"  	c None",
". 	c #212121",
"+ 	c #232122",
"@ 	c #2B2126",
"# 	c #2F2128",
"$ 	c #252123",
"% 	c #222321",
"& 	c #282F21",
"* 	c #2D3921",
"= 	c #2F3D21",
"- 	c #2B3521",
"; 	c #252921",
"> 	c #3F2130",
", 	c #35212B",
"' 	c #4F2138",
") 	c #95215A",
"! 	c #A92164",
"~ 	c #77214B",
"{ 	c #312129",
"] 	c #232521",
"^ 	c #354921",
"/ 	c #3E5B21",
"( 	c #3D5921",
"_ 	c #3C5721",
": 	c #314121",
"< 	c #432132",
"[ 	c #9B215D",
"} 	c #C12170",
"| 	c #A72163",
"1 	c #55213B",
"2 	c #8B2155",
"3 	c #D7217B",
"4 	c #D32179",
"5 	c #B12168",
"6 	c #512139",
"7 	c #252421",
"8 	c #405F21",
"9 	c #416121",
"0 	c #344721",
"a 	c #5D213F",
"b 	c #CF2177",
"c 	c #7D214E",
"d 	c #33212A",
"e 	c #272124",
"f 	c #612141",
"g 	c #BB216D",
"h 	c #852152",
"i 	c #37212C",
"j 	c #2C3721",
"k 	c #426321",
"l 	c #3B5521",
"m 	c #272D21",
"n 	c #7F214F",
"o 	c #AD2166",
"p 	c #912158",
"q 	c #492135",
"r 	c #3D212F",
"s 	c #2D2127",
"t 	c #262B21",
"u 	c #395121",
"v 	c #364B21",
"w 	c #222222",
"x 	c #232323",
"y 	c #272727",
"z 	c #3B3B3B",
"A 	c #2B3628",
"B 	c #273B21",
"C 	c #283D21",
"D 	c #293525",
"E 	c #3A3C3A",
"F 	c #414141",
"G 	c #2D2D2D",
"H 	c #848484",
"I 	c #657062",
"J 	c #325C28",
"K 	c #2F6521",
"L 	c #316024",
"M 	c #566850",
"N 	c #9A9A9A",
"O 	c #5C5C5C",
"P 	c #282828",
"Q 	c #878787",
"R 	c #A8A8A8",
"S 	c #3F5C36",
"T 	c #306521",
"U 	c #3A652F",
"V 	c #888B87",
"W 	c #BDBDBD",
"X 	c #525252",
"Y 	c #262824",
"Z 	c #2B2F27",
"` 	c #262723",
" .	c #252525",
"..	c #ADAFAE",
"+.	c #394436",
"@.	c #33452F",
"#.	c #8A8C8A",
"$.	c #BBBBBB",
"%.	c #464646",
"&.	c #252723",
"*.	c #2F3428",
"=.	c #343C2C",
"-.	c #2C3028",
";.	c #232422",
">.	c #2E3228",
",.	c #4C5B39",
"'.	c #55693F",
").	c #53683C",
"!.	c #4B5D37",
"~.	c #3F4C30",
"{.	c #343D2B",
"].	c #898B87",
"^.	c #979797",
"/.	c #313131",
"(.	c #656862",
"_.	c #A3A6A0",
":.	c #4F5C40",
"<.	c #556C3A",
"[.	c #58703C",
"}.	c #58703E",
"|.	c #38422E",
"1.	c #242523",
"2.	c #373F2D",
"3.	c #54683E",
"4.	c #59703E",
"5.	c #5A733D",
"6.	c #5A763C",
"7.	c #5A773B",
"8.	c #546D39",
"9.	c #878E7E",
"0.	c #606858",
"a.	c #4D6335",
"b.	c #495F31",
"c.	c #4C6432",
"d.	c #516C34",
"e.	c #536D35",
"f.	c #5F6F4D",
"g.	c #7E8478",
"h.	c #4D6137",
"i.	c #5A783A",
"j.	c #5B753D",
"k.	c #4A5B35",
"l.	c #2A2E26",
"m.	c #252624",
"n.	c #39442E",
"o.	c #566E3C",
"p.	c #5B7A3A",
"q.	c #5B7B39",
"r.	c #587638",
"s.	c #4B563E",
"t.	c #4E6238",
"u.	c #5C7F37",
"v.	c #5D8137",
"w.	c #5E8337",
"x.	c #557137",
"y.	c #465337",
"z.	c #506735",
"A.	c #5B7C38",
"B.	c #5B793B",
"C.	c #5B783C",
"D.	c #536B39",
"E.	c #2F3628",
"F.	c #39452D",
"G.	c #56703A",
"H.	c #5C7C3A",
"I.	c #5C7E38",
"J.	c #5D8038",
"K.	c #537232",
"L.	c #5B7F35",
"M.	c #5F8636",
"N.	c #608836",
"O.	c #5D8335",
"P.	c #577834",
"Q.	c #5C8036",
"R.	c #5C7D39",
"S.	c #59763A",
"T.	c #323B29",
"U.	c #242622",
"V.	c #38432B",
"W.	c #567238",
"X.	c #5E8436",
"Y.	c #608935",
"Z.	c #5F8B35",
"`.	c #618A34",
" +	c #5F8C34",
".+	c #628C34",
"++	c #5E8238",
"@+	c #526D35",
"#+	c #2E3626",
"$+	c #323C28",
"%+	c #557335",
"&+	c #5E8A34",
"*+	c #628D33",
"=+	c #628E32",
"-+	c #609032",
";+	c #49612F",
">+	c #292E24",
",+	c #2B3024",
"'+	c #4B6430",
")+	c #5F8537",
"!+	c #5F8836",
"~+	c #5F8D33",
"{+	c #639131",
"]+	c #619331",
"^+	c #629531",
"/+	c #629630",
"(+	c #609131",
"_+	c #608E34",
":+	c #5B8034",
"<+	c #3A4929",
"[+	c #374428",
"}+	c #587B33",
"|+	c #639830",
"1+	c #649B2F",
"2+	c #608F33",
"3+	c #4C692D",
"4+	c #2B3224",
"5+	c #282C22",
"6+	c #41562A",
"7+	c #5B8731",
"8+	c #66992F",
"9+	c #669A2E",
"0+	c #659E2E",
"a+	c #659F2D",
"b+	c #66A12D",
"c+	c #649C2E",
"d+	c #639A2E",
"e+	c #63992F",
"f+	c #619430",
"g+	c #577E2E",
"h+	c #354426",
"i+	c #292F23",
"j+	c #48642A",
"k+	c #5F9030",
"l+	c #66A22C",
"m+	c #66A32B",
"n+	c #67A52B",
"o+	c #65A02C",
"p+	c #5E902E",
"q+	c #425A28",
"r+	c #262A22",
"s+	c #2B3323",
"t+	c #4C6E2A",
"u+	c #62992D",
"v+	c #68A82A",
"w+	c #69AA2A",
"x+	c #649E2C",
"y+	c #4D7129",
"z+	c #2F3923",
"A+	c #537B29",
"B+	c #65A12B",
"C+	c #67A62A",
"D+	c #69AC28",
"E+	c #6AAE28",
"F+	c #68AA28",
"G+	c #68A929",
"H+	c #578729",
"I+	c #354624",
"J+	c #364824",
"K+	c #5A8E28",
"L+	c #6AAF27",
"M+	c #6BB127",
"N+	c #6BB226",
"O+	c #629D29",
"P+	c #425F25",
"Q+	c #456525",
"R+	c #64A228",
"S+	c #6CB525",
"T+	c #6CB624",
"U+	c #69AD27",
"V+	c #538226",
"W+	c #2C3622",
"X+	c #2E3A22",
"Y+	c #5A9026",
"Z+	c #6AB026",
"`+	c #6DB725",
" @	c #6DB923",
".@	c #6EBB23",
"+@	c #619F25",
"@@	c #3D5723",
"#@	c #4C7424",
"$@	c #68AC26",
"%@	c #6EBC22",
"&@	c #6FBF21",
"*@	c #6DBA22",
"=@	c #6BB424",
"-@	c #568A24",
";@	c #456624",
">@	c #66A826",
",@	c #6FBE22",
"'@	c #69B024",
")@	c #4C7523",
"!@	c #436224",
"~@	c #65A626",
"{@	c #6DB824",
"]@	c #62A224",
"^@	c #3C5622",
"/@	c #394F23",
"(@	c #5E9826",
"_@	c #6CB426",
":@	c #609C26",
"<@	c #354822",
"[@	c #242721",
"}@	c #2F3C22",
"|@	c #3B5323",
"1@	c #466824",
"2@	c #476923",
"3@	c #466723",
"4@	c #3E5824",
"5@	c #293022",
"                  .         . . . . . . . . . .                 ",
"              . + @ # $ . % & * = - ; . + # > , $               ",
"              $ ' ) ! ~ { ] ^ / ( _ : . < [ } | 1 $             ",
"            . # 2 3 4 5 6 7 ^ 8 9 ( 0 $ a b 3 b c d             ",
"          . . e f 5 g h i j / 9 k 9 l m i n o p q +             ",
"          . . . e i r s . t : u _ _ v & . e # @ + . .           ",
"        . . . . . . . . w . . . . . . . . x w . . . .           ",
"      . . . . . . . . y z A B C C C B D E F x . . . . .         ",
"    . . . . . . . . . G H I J K K K L M N O w . . . . . .       ",
"    . . . . . . . . . P Q R S T K K U V W X w . . . . . .       ",
"    . . . % Y Z ` . .  .Q ..+.B C C @.#.$.%.&.*.=.-.;.. . .     ",
"  . . . % >.,.'.).!.~.{.].^./.. . % -.(._.:.<.[.}.).|.1.. .     ",
"  . . . 1.2.3.4.5.6.7.8.9.0.a.b.c.d.e.f.g.h.i.6.j.5.k.l.. . .   ",
"  . . . m.n.o.j.6.p.q.r.s.t.u.v.w.w.v.x.y.z.A.p.B.C.D.E.% . .   ",
"  . . . 1.F.G.B.H.I.J.v.K.L.M.M.N.N.N.O.P.Q.w.J.R.H.S.T.% . .   ",
"  . . . U.V.W.R.J.w.X.M.Y.Z.`. + + + +.+Y.Y.M.X.++J.@+#+% . .   ",
"    . . % $+%+J.w.M.Y.&+*+=+-+-+-+-+-+-+=+*+ +Y.M.w.;+>+. . .   ",
"    . . . ,+'+)+!+&+~+-+{+]+^+/+/+/+/+^+]+(+-+_+Z.:+<+U.. .     ",
"    . . . ;.[+}+.+=+{+]+/+|+1+1+1+1+1+1+|+/+]+{+2+3+4+. . .     ",
"      . . . 5+6+7+]+/+8+9+0+a+a+b+b+a+a+c+d+e+f+g+h+] . . .     ",
"      . . . . i+j+k+e+c+a+l+m+n+n+n+n+m+o+a+c+p+q+r+. . .       ",
"        . . . . s+t+u+o+m+n+v+w+w+w+w+v+n+m+x+y+s+. . .         ",
"          . . . % z+A+B+C+w+D+D+E+E+D+F+G+C+H+I+% . .           ",
"            . . . % J+K+G+D+L+M+N+N+M+L+D+O+P+U.. . .           ",
"              . . . ] Q+R+L+N+S+T+T+S+N+U+V+W+. . .             ",
"                . . . X+Y+Z+`+ @.@.@ @S++@@@] . .               ",
"                    . r+#@$@T+%@&@&@*@=@-@W+. . .               ",
"                    . % ;@>@T+.@,@,@.@'@)@% . .                 ",
"                    . % !@~@S+{@ @ @T+]@^@. . .                 ",
"                    . . /@(@Z+_@S+S+_@:@<@. . .                 ",
"                      . [@}@|@1@2@3@;@4@5@. . .                 ",
"                      . . . . . . . . . . . .                   "};
