/* XPM */
static char * triplea_xpm[] = {
"32 32 252 2",
"  	c None",
". 	c #4C4C4C",
"+ 	c #767676",
"@ 	c #6C6C6C",
"# 	c #909090",
"$ 	c #414141",
"% 	c #737373",
"& 	c #434343",
"* 	c #4E4E4E",
"= 	c #A9A9A9",
"- 	c #B7B7B7",
"; 	c #6D6D6D",
"> 	c #505050",
", 	c #525252",
"' 	c #707070",
") 	c #A6A6A6",
"! 	c #888888",
"~ 	c #424242",
"{ 	c #7A7A7A",
"] 	c #666666",
"^ 	c #5A5A5A",
"/ 	c #8D8D8D",
"( 	c #252525",
"_ 	c #6E6E6E",
": 	c #646464",
"< 	c #040404",
"[ 	c #A4A4A4",
"} 	c #A5A5A5",
"| 	c #636363",
"1 	c #353535",
"2 	c #717171",
"3 	c #8A8A8A",
"4 	c #848484",
"5 	c #000000",
"6 	c #070707",
"7 	c #1A1A1A",
"8 	c #171717",
"9 	c #0F0F0F",
"0 	c #323232",
"a 	c #232323",
"b 	c #2F2F2F",
"c 	c #343434",
"d 	c #4A4A4A",
"e 	c #454545",
"f 	c #545454",
"g 	c #3F3F3F",
"h 	c #757575",
"i 	c #9D9D9D",
"j 	c #939393",
"k 	c #9C9C9C",
"l 	c #969696",
"m 	c #7E7E7E",
"n 	c #868686",
"o 	c #9B9B9B",
"p 	c #515151",
"q 	c #404040",
"r 	c #373737",
"s 	c #696969",
"t 	c #9E9E9E",
"u 	c #8B8B8B",
"v 	c #747474",
"w 	c #818181",
"x 	c #9F9F9F",
"y 	c #2C2C2C",
"z 	c #212121",
"A 	c #444444",
"B 	c #4D4D4D",
"C 	c #1F1F1F",
"D 	c #6A6A6A",
"E 	c #030303",
"F 	c #292929",
"G 	c #5E5E5E",
"H 	c #B6B6B6",
"I 	c #777777",
"J 	c #A8A8A8",
"K 	c #2D2D2D",
"L 	c #121212",
"M 	c #333333",
"N 	c #5D5D5D",
"O 	c #727272",
"P 	c #828282",
"Q 	c #111111",
"R 	c #565656",
"S 	c #B2B2B2",
"T 	c #6F6F6F",
"U 	c #535353",
"V 	c #393939",
"W 	c #3D3D3D",
"X 	c #474747",
"Y 	c #5B5B5B",
"Z 	c #656565",
"` 	c #929292",
" .	c #2B2B2B",
"..	c #262727",
"+.	c #595959",
"@.	c #101010",
"#.	c #141414",
"$.	c #4E1315",
"%.	c #9B2227",
"&.	c #922024",
"*.	c #992125",
"=.	c #A92228",
"-.	c #A82227",
";.	c #AB2228",
">.	c #932024",
",.	c #8D1F23",
"'.	c #494949",
").	c #585858",
"!.	c #B7242B",
"~.	c #B8242B",
"{.	c #B8242A",
"].	c #B12229",
"^.	c #B9242B",
"/.	c #676767",
"(.	c #464646",
"_.	c #262626",
":.	c #9F2026",
"<.	c #5C5C5C",
"[.	c #363636",
"}.	c #AA2128",
"|.	c #942125",
"1.	c #838383",
"2.	c #BA242B",
"3.	c #982024",
"4.	c #AC2329",
"5.	c #282828",
"6.	c #9A9A9A",
"7.	c #7C7C7C",
"8.	c #1E1E1E",
"9.	c #A72127",
"0.	c #BB242A",
"a.	c #972126",
"b.	c #A3A3A3",
"c.	c #8E8E8E",
"d.	c #858585",
"e.	c #8F8F8F",
"f.	c #BB242B",
"g.	c #901F24",
"h.	c #A12127",
"i.	c #B12329",
"j.	c #050505",
"k.	c #949494",
"l.	c #808080",
"m.	c #A42127",
"n.	c #B02229",
"o.	c #BC242B",
"p.	c #A02227",
"q.	c #AEAEAE",
"r.	c #ABABAB",
"s.	c #151515",
"t.	c #5F5F5F",
"u.	c #8E1F23",
"v.	c #9B2025",
"w.	c #9E2126",
"x.	c #B7232A",
"y.	c #882123",
"z.	c #020202",
"A.	c #959595",
"B.	c #222222",
"C.	c #191919",
"D.	c #131313",
"E.	c #898989",
"F.	c #B42026",
"G.	c #AF2229",
"H.	c #9F2226",
"I.	c #202020",
"J.	c #4B4B4B",
"K.	c #EFEFEF",
"L.	c #C4C4C4",
"M.	c #3C3C3C",
"N.	c #6C3739",
"O.	c #C62129",
"P.	c #54292B",
"Q.	c #313131",
"R.	c #1B2929",
"S.	c #B6262D",
"T.	c #B9232A",
"U.	c #902125",
"V.	c #C7C7C7",
"W.	c #ECECEC",
"X.	c #EEEEEE",
"Y.	c #BEBEBE",
"Z.	c #615152",
"`.	c #534141",
" +	c #303434",
".+	c #44181A",
"++	c #C7242B",
"@+	c #151111",
"#+	c #242424",
"$+	c #616161",
"%+	c #BE2229",
"&+	c #B11F25",
"*+	c #3E3E3E",
"=+	c #E0E0E0",
"-+	c #E5E5E5",
";+	c #E7E7E7",
">+	c #BABABA",
",+	c #7F7F7F",
"'+	c #C3C3C3",
")+	c #787D7D",
"!+	c #7F5456",
"~+	c #404343",
"{+	c #161616",
"]+	c #090909",
"^+	c #0F0E0E",
"/+	c #311819",
"(+	c #1D1E1E",
"_+	c #1E1D1D",
":+	c #2E2E2E",
"<+	c #575757",
"[+	c #626262",
"}+	c #919191",
"|+	c #C6C6C6",
"1+	c #C0C0C0",
"2+	c #B9B9B9",
"3+	c #BBBBBB",
"4+	c #CFCFCF",
"5+	c #D0D0D0",
"6+	c #878787",
"7+	c #484848",
"8+	c #989898",
"9+	c #8C8C8C",
"0+	c #686868",
"a+	c #555555",
"b+	c #1C1C1C",
"c+	c #0B0B0B",
"d+	c #B4B4B4",
"e+	c #D3D3D3",
"f+	c #D4D4D4",
"g+	c #A1A1A1",
"h+	c #3A3A3A",
"i+	c #303030",
"j+	c #B1B1B1",
"k+	c #B8B8B8",
"l+	c #C2C2C2",
"m+	c #C5C5C5",
"n+	c #7D7D7D",
"o+	c #979797",
"p+	c #C8C8C8",
"q+	c #CBCBCB",
"r+	c #D1D1D1",
"s+	c #D6D6D6",
"t+	c #D9D9D9",
"u+	c #DCDCDC",
"v+	c #DDDDDD",
"w+	c #DEDEDE",
"x+	c #DBDBDB",
"y+	c #D8D8D8",
"z+	c #B3B3B3",
"A+	c #ADADAD",
"B+	c #999999",
"C+	c #1B1B1B",
"                                                                ",
"                                                                ",
"  . +                                                           ",
"      @ # $   $ % &                                             ",
"        * = - ; >                                               ",
"          , ' ) !                                               ",
"        ~ { ]   ^ /     ( * *                                   ",
"        _ :           < @ [ } |                                 ",
"        .             1 2 3 # 4 5 6 5 5 5 7 8 9 8 0 a b c d     ",
"                  6 ( e f + { g h i j k # k l m n o p q g r     ",
"                < s t u v w % x ) % y z A B C D @ E             ",
"                F G k H ! I = J K L M N d O P c                 ",
"              Q g R @ t S J ! x 2 T D U V                       ",
"          y $ & W X Y Z ` / *  .b ..                            ",
"        5 . +., G R W g D b   @.#.$.%.&.*.=.-.-.;.  >.,.        ",
"          A '.& ).] ~ F 6           !.~.  {.].  ~.~.^.          ",
"        M +.' > G | /.(._.                ^.:.                  ",
"        e <.G D l N . [.                !.}.      |.            ",
"          c ~ D j 1.<.' c               2.3.    !.4.            ",
"            5.@ 6./ $ 7.1.| 8.        !.9.      ;.0.a.          ",
"            r % b.c.F R + d.e.s       f.g.    ^.h.  i.          ",
"            j.k.) T   C $ | l.T     !.m.      n.    o.p.        ",
"        q.1 ) l.r.~ b   s.X 7.t.    f.u.    !.v.    w.x.y.      ",
"  l.B b z.p U 7.A.y B.C.D.^ E./.  !.F.      G.  ~.~.~.x.H.      ",
"[.I.& 1 J.+.l.* } K.L.P r c D M.N.O.P.Q.R.S.            T.U.    ",
"8 J.+ r Z * . V.W.X.K.X.Y.1 + > Z.`. +_..+++@+I.#+M $+  %+&+    ",
"z *+ .<.. ) =+=+-+;+;+-+>+r l.,+'+H J A.)+!+~+5.{+]+z.^+/+(+_+  ",
"z :+<+[+}+|+1+2+3+Y.4+5+6+7+n p % k b.8+9+w + 0+a+q  .b+Q c+#.2+",
"z , *+s 2 A.b.d+L.e+f+e+% G . 2 ' <.g+` 6+7.2 Z +.> e h+i+z c.4 ",
"K ] 0+Y j+k+Y.l+|+V.V.m+'+k.b.n+h o+k.3 ,+v s G U 7+g c  ._.x 5.",
"g+p+q+5+r+s+t+u+v+w+w+v+x+y+f+r+q+|+1+>+z+A+) x B+` 9+n l.% C+#.",
"  . y y :+b Q.0 M M M M 0 Q.b :+y F 5.( a I.8.b+C.{+s.L 9 9 s.  "};
