/* XPM */
static char *bloodfrontier__[] = {
/* columns rows colors chars-per-pixel */
"32 32 159 2",
"   c #030303",
".  c #080707",
"X  c #0A0907",
"o  c #070708",
"O  c #0C0C0B",
"+  c #100F0C",
"@  c #12110E",
"#  c #0F1011",
"$  c #141413",
"%  c #181714",
"&  c #1B1915",
"*  c #1D1C1B",
"=  c #221D17",
"-  c #211F1B",
";  c #272017",
":  c #22211E",
">  c #2B241C",
",  c #28281F",
"<  c #31291F",
"1  c #242322",
"2  c #282623",
"3  c #2C2B23",
"4  c #2C2C2B",
"5  c #352E24",
"6  c #392E22",
"7  c #312F2E",
"8  c #3B3225",
"9  c #32312D",
"0  c #35382D",
"q  c #2A3135",
"w  c #2A3239",
"e  c #343432",
"r  c #383736",
"t  c #3A3837",
"y  c #30393D",
"u  c #3D3C3A",
"i  c #423425",
"p  c #48372A",
"a  c #443A2B",
"s  c #4D3C2E",
"d  c #423C32",
"f  c #403F3D",
"g  c #3D403F",
"h  c #55422C",
"j  c #5D462F",
"k  c #414335",
"l  c #4E4633",
"z  c #42413E",
"x  c #4C4B39",
"c  c #554530",
"v  c #5A4735",
"b  c #544A36",
"n  c #5E4A35",
"m  c #544A3B",
"M  c #5D523C",
"N  c #644C34",
"B  c #604F39",
"V  c #625037",
"C  c #6D5135",
"Z  c #655139",
"A  c #6C543B",
"S  c #71573E",
"D  c #765C3E",
"F  c #7C5A3C",
"G  c #30414E",
"H  c #454341",
"J  c #484645",
"K  c #4A4846",
"L  c #4D4B49",
"P  c #514E4C",
"I  c #595745",
"U  c #53514E",
"Y  c #424C54",
"T  c #4D555D",
"R  c #575553",
"E  c #595653",
"W  c #5B5956",
"Q  c #5E5B58",
"!  c #615341",
"~  c #6E5945",
"^  c #795F41",
"/  c #755E48",
"(  c #615E5C",
")  c #666052",
"_  c #64615E",
"`  c #7F6A53",
"'  c #726D5D",
"]  c #4A5863",
"[  c #525B66",
"{  c #5B6369",
"}  c #666461",
"|  c #696663",
" . c #6D6A67",
".. c #6F6C69",
"X. c #716E6A",
"o. c #797265",
"O. c #74716E",
"+. c #63707A",
"@. c #767370",
"#. c #797672",
"$. c #7D7976",
"%. c #7F7C78",
"&. c #85623E",
"*. c #88643E",
"=. c #826442",
"-. c #8C6543",
";. c #8D6940",
":. c #916644",
">. c #936A45",
",. c #956848",
"<. c #95714C",
"1. c #9B734A",
"2. c #987B5F",
"3. c #A76E47",
"4. c #AA7447",
"5. c #A87847",
"6. c #A67748",
"7. c #AC7348",
"8. c #AC7C4C",
"9. c #B37545",
"0. c #B37D4D",
"q. c #BE7A48",
"w. c #A67D52",
"e. c #A67E58",
"r. c #817C73",
"t. c #817E7A",
"y. c #C07F4B",
"u. c #BC864D",
"i. c #85827D",
"p. c #C4824B",
"a. c #CE834B",
"s. c #D0864D",
"d. c #D28A4D",
"f. c #C28551",
"g. c #C68851",
"h. c #D49555",
"j. c #DB9453",
"k. c #DB9B56",
"l. c #E29B56",
"z. c #E99C56",
"x. c #E39D5A",
"c. c #EA9F5A",
"v. c #EAA35A",
"b. c #F2A65B",
"n. c #F4A95C",
"m. c #F9AB5D",
"M. c #777F84",
"N. c #7E7E85",
"B. c #878380",
"V. c #8A8683",
"C. c #8D8A86",
"Z. c #8F8C88",
"A. c #918E89",
"S. c #95918D",
"D. c #98948F",
"F. c #9A9692",
"G. c #9D9995",
"H. c #A39F9A",
"J. c None",
/* pixels */
"J.J.J.J.J.J.J.J.J.J.J.J.4 t u H u e 1 J.J.J.J.J.J.J.J.J.J.J.J.J.",
"J.J.J.J.J.J.J.J.J.r R O.#.G.G.S.S.S.S._ z * J.J.J.J.J.J.J.J.J.J.",
"J.J.J.J.J.J.J.r _  .V.A.#.%.O...#.t.i.#.$. .L * J.J.J.J.J.J.J.J.",
"J.J.J.J.J.e H ( t.$.@.Q r 4 * % * 1 r U $.D.F.O.r J.J.J.J.J.J.J.",
"J.J.J.J.u U #.C.%.U 4 O       .       . * H @.#.t.z e J.J.J.J.J.",
"J.J.J.r u O.V.X.t O O * 4 e g T [ Y q $ # . 4 W A.t.J H J.J.J.J.",
"J.J.f u E i.#.e $ 1 q y Y { N.V.$.o.' I , & O * _ $.S.e J.J.J.J.",
"J.J.e E X.O.H $ 4 w G ] +.M.r.2.e.w.w.1.^ a & O 1 ( G.@.4 J.J.J.",
"J.e u Q #.W & 2 2 e z U ) ` <.0.f.8.f.f.0.=.h = @ t $.$.t U J.J.",
"J.e P @.#.e 1 1 3 d m ! >.9.q.s.j.l.c.x.h.0.;.6 > % _ A.@.9 J.J.",
"J.4 } #. .- 2 * 9 d m / 3.q.a.z.b.m.m.b.x.g.1.M - % z C.$.7 J.J.",
"u 7 } ..U - * 2 d m ~ ,.7.p.d.b.m.m.m.n.v.h.1.k : : 4 X.$.r J.J.",
"t u t.%.u 2 % > s A -.:.7.y.d.z.b.n.n.b.v.k.8.x 3 * 4 #.#.z J.J.",
"9 t $.O.e 2 O > p N A S 3.0.p.d.l.v.v.v.l.h.8.M 0 & 2  .O.R 1 J.",
"4 e $.X.t : X = 5 s v F -.-.>.4.j.k.k.k.h.p.>.b 0 % 4 | O.K J.J.",
"e e X.$.K * X @ > 5 a N S b B Z 5.6.5.u.u.5.D l 3 * r X.$.H J.J.",
"t : | $._ & X X & , 5 a n b n n Z A A A =.;.V l & 4 z t...7 J.J.",
"J.% P @.i.: +   + - 3 8 s n C F &.*.&.D Z N l 8 % 9 W i._ 1 J.J.",
"J.& 9 | S.L &     @ = 3 8 p h j N C N c a a 8 % 1 H #.i.L : J.J.",
"J.4 $ K S.V.2 @     O & ; < 6 6 8 i 8 8 8 5 & & t _ B...1 u J.J.",
"J.J.$ 1 @.F.O.* O     X @ & = ; ; > ; = = O $ e W t.t.K & J.J.J.",
"J.J.r . f i.F.| 1 O       X O O + + O X   $ t ( t.i.E * J.J.J.J.",
"J.J.J.- $ J O.Z.t.e % O     o O O O . O 1 J Q $.| P 1 1 J.J.J.J.",
"J.J.J.J.$ O f O.D.i.$.u 2 J.J.J.J.J.e J ..$.t.t.J * % J.J.J.J.J.",
"J.J.J.J.J.$ . 2 | %.F.D.H U J.J.J.e K _ $.X.| f $ $ J.J.J.J.J.J.",
"J.J.J.J.J.J.$ X 2 L %.S. .7 J.J.J.4 L #.t. .J O J.J.J.J.J.J.J.J.",
"J.4 u z J L P ( | } $.Z.X.4 J.J.J.1 U B.A.A.i.L L f H H u $ J.J.",
"t H t.F.i.F.S.Z.A.t.V.V.J 1 J.J.J.* e O.S.C.F.$.Z.i.F.D.H.K K J.",
"4 e C.B._ | _ Q E L J 9 $ J.J.J.J.%   * K Q W P ( E O.V.S.W 4 J.",
"4 e %.U & O X .         J.J.J.J.J.J.J.  . O O . . . $ f i.W 4 J.",
"* 2 z * O J.J.J.J.J.J.J.J.J.J.J.J.J.J.J.J.J.J.J.J.J.X . t H * J.",
"J..   J.J.J.J.J.J.J.J.J.J.J.J.J.J.J.J.J.J.J.J.J.J.J.J.J.  O J.J."
};
