/* XPM */
static char * pdiaspora_xpm[] = {
"32 32 480 2",
"  	c None",
". 	c #001625",
"+ 	c #000000",
"@ 	c #000C14",
"# 	c #000509",
"$ 	c #001523",
"% 	c #00060D",
"& 	c #001220",
"* 	c #000309",
"= 	c #000D14",
"- 	c #021922",
"; 	c #000104",
"> 	c #01141B",
", 	c #011722",
"' 	c #001E2E",
") 	c #000308",
"! 	c #00101A",
"~ 	c #00101C",
"{ 	c #001322",
"] 	c #05384A",
"^ 	c #00030A",
"/ 	c #000106",
"( 	c #064458",
"_ 	c #002536",
": 	c #00050B",
"< 	c #001A2C",
"[ 	c #145C6E",
"} 	c #001824",
"| 	c #000409",
"1 	c #000912",
"2 	c #3491A5",
"3 	c #000008",
"4 	c #00050E",
"5 	c #59ADBE",
"6 	c #003B51",
"7 	c #003045",
"8 	c #00121E",
"9 	c #00020D",
"0 	c #529AA9",
"a 	c #185868",
"b 	c #000911",
"c 	c #001520",
"d 	c #00040A",
"e 	c #000E16",
"f 	c #001A28",
"g 	c #457481",
"h 	c #4F8494",
"i 	c #001D2F",
"j 	c #76919D",
"k 	c #70AFC0",
"l 	c #4099AF",
"m 	c #3B7D91",
"n 	c #E2FDFF",
"o 	c #60B2C1",
"p 	c #000F1C",
"q 	c #012334",
"r 	c #012B3C",
"s 	c #012636",
"t 	c #00040B",
"u 	c #000A15",
"v 	c #15657E",
"w 	c #23677B",
"x 	c #B0DEE8",
"y 	c #6AC0D1",
"z 	c #BDF7FF",
"A 	c #708B91",
"B 	c #9AB4B6",
"C 	c #95BAC2",
"D 	c #D3FDFF",
"E 	c #47A6BB",
"F 	c #000712",
"G 	c #00192A",
"H 	c #4B7E8C",
"I 	c #327180",
"J 	c #001623",
"K 	c #000810",
"L 	c #000913",
"M 	c #051724",
"N 	c #6FC1D5",
"O 	c #7E9397",
"P 	c #4F6E77",
"Q 	c #D8FFFF",
"R 	c #D5FCFF",
"S 	c #39514F",
"T 	c #E1E0CB",
"U 	c #F0E7D6",
"V 	c #CDC7B7",
"W 	c #5C6463",
"X 	c #AAE6F8",
"Y 	c #266074",
"Z 	c #A3C9D1",
"` 	c #B7E1E8",
" .	c #0A5167",
"..	c #021F2D",
"+.	c #001A2A",
"@.	c #022A3B",
"#.	c #002131",
"$.	c #001825",
"%.	c #145C72",
"&.	c #226074",
"*.	c #49636D",
"=.	c #BAC0B9",
"-.	c #FFFFFF",
";.	c #AEA5A0",
">.	c #9DB9BF",
",.	c #3A3D38",
"'.	c #E4E2CE",
").	c #FFFFF3",
"!.	c #F9F9F5",
"~.	c #FFFFF9",
"{.	c #979C98",
"].	c #CEFEFF",
"^.	c #E6FAFD",
"/.	c #54A7BA",
"(.	c #74C2D1",
"_.	c #001626",
":.	c #001928",
"<.	c #000003",
"[.	c #001223",
"}.	c #00101E",
"|.	c #2C8BA0",
"1.	c #1C859D",
"2.	c #FCFFFF",
"3.	c #5C747D",
"4.	c #C0BCAC",
"5.	c #E5DFC9",
"6.	c #F3F6E7",
"7.	c #B7BAB9",
"8.	c #2D2823",
"9.	c #6C6A5A",
"0.	c #8A8470",
"a.	c #AEC0B3",
"b.	c #F4F9F5",
"c.	c #7E989C",
"d.	c #92D4E5",
"e.	c #D4EAF0",
"f.	c #C0E8EF",
"g.	c #2B8399",
"h.	c #02354A",
"i.	c #00050D",
"j.	c #00070F",
"k.	c #001522",
"l.	c #00070E",
"m.	c #001B2A",
"n.	c #001D2D",
"o.	c #00283A",
"p.	c #0B576F",
"q.	c #80C2D2",
"r.	c #D1FFFF",
"s.	c #7F969C",
"t.	c #3F3730",
"u.	c #786F65",
"v.	c #858173",
"w.	c #A6A396",
"x.	c #ABABA0",
"y.	c #B0AC9E",
"z.	c #F3F2DC",
"A.	c #EAEBD8",
"B.	c #898984",
"C.	c #445257",
"D.	c #8DB5BF",
"E.	c #DAF7FE",
"F.	c #E0F4F8",
"G.	c #BCE8EF",
"H.	c #3597AD",
"I.	c #288299",
"J.	c #2C899E",
"K.	c #00101D",
"L.	c #001725",
"M.	c #000001",
"N.	c #000610",
"O.	c #001321",
"P.	c #165A71",
"Q.	c #70B6CA",
"R.	c #95C5CF",
"S.	c #68716A",
"T.	c #747C77",
"U.	c #ECF0DA",
"V.	c #E2DED9",
"W.	c #BBB9AE",
"X.	c #8E8E81",
"Y.	c #696654",
"Z.	c #6C605E",
"`.	c #372E26",
" +	c #969485",
".+	c #BACCBD",
"++	c #67665B",
"@+	c #4B5456",
"#+	c #C2F7FF",
"$+	c #D9FFFF",
"%+	c #A8E5F5",
"&+	c #D0F5FE",
"*+	c #468498",
"=+	c #1C6177",
"-+	c #000510",
";+	c #032A3C",
">+	c #00111C",
",+	c #00060E",
"'+	c #2A5465",
")+	c #618387",
"!+	c #D8DBD2",
"~+	c #E7E3D9",
"{+	c #CDC2B3",
"]+	c #A99D8F",
"^+	c #9F988B",
"/+	c #D2D2C5",
"(+	c #FDFDFB",
"_+	c #F2FEF5",
":+	c #9C9A8D",
"<+	c #2E2D29",
"[+	c #696055",
"}+	c #D0C6AD",
"|+	c #BBB29E",
"1+	c #565543",
"2+	c #A5D2E0",
"3+	c #5E5048",
"4+	c #ACA79C",
"5+	c #716865",
"6+	c #9DB5BB",
"7+	c #8CB7C4",
"8+	c #9DDBEB",
"9+	c #78CFE1",
"0+	c #0A1E2A",
"a+	c #002235",
"b+	c #000307",
"c+	c #223945",
"d+	c #759DA8",
"e+	c #576364",
"f+	c #6F6F64",
"g+	c #ABAEA4",
"h+	c #DDDED2",
"i+	c #F4F6ED",
"j+	c #A9AB99",
"k+	c #888178",
"l+	c #B6BDB0",
"m+	c #97948C",
"n+	c #2A2F28",
"o+	c #313D3C",
"p+	c #EDDDCD",
"q+	c #F5F0E0",
"r+	c #ECECDC",
"s+	c #878884",
"t+	c #6F6866",
"u+	c #E1D8BF",
"v+	c #F7FCE7",
"w+	c #FFFFFC",
"x+	c #DCDFD0",
"y+	c #959E9D",
"z+	c #89B0BA",
"A+	c #7EBCCF",
"B+	c #1B2F39",
"C+	c #090F15",
"D+	c #7BA5B4",
"E+	c #A4D0DB",
"F+	c #777565",
"G+	c #5E5E4D",
"H+	c #272C24",
"I+	c #262522",
"J+	c #272B21",
"K+	c #232F25",
"L+	c #8C8D80",
"M+	c #2B352A",
"N+	c #28302C",
"O+	c #1F2A2A",
"P+	c #FFFFEF",
"Q+	c #C3B9A6",
"R+	c #FBFAE2",
"S+	c #FDFDFC",
"T+	c #BCB5AB",
"U+	c #DBD5C1",
"V+	c #FFFFF5",
"W+	c #F8FEFF",
"X+	c #FFFEFC",
"Y+	c #928984",
"Z+	c #95C1CC",
"`+	c #84AEBC",
" @	c #172B37",
".@	c #00030B",
"+@	c #162027",
"@@	c #688B96",
"#@	c #C4B4A0",
"$@	c #EBFFFB",
"%@	c #CAC5B9",
"&@	c #262023",
"*@	c #142012",
"=@	c #0C1008",
"-@	c #131C0F",
";@	c #000600",
">@	c #2E322C",
",@	c #313027",
"'@	c #3A3C31",
")@	c #FFFFFE",
"!@	c #CDCEBD",
"~@	c #E5DAC1",
"{@	c #FEFFEC",
"]@	c #FBFEFD",
"^@	c #F7FFFF",
"/@	c #D1CCC6",
"(@	c #AEA9A1",
"_@	c #F5FEFE",
":@	c #F8FEFC",
"<@	c #867A72",
"[@	c #96C4D1",
"}@	c #81AAB7",
"|@	c #151D22",
"1@	c #09141B",
"2@	c #B9FCFF",
"3@	c #675F50",
"4@	c #C6CBC7",
"5@	c #37482C",
"6@	c #090E00",
"7@	c #6B918E",
"8@	c #97C6CE",
"9@	c #536A71",
"0@	c #D4FFFF",
"a@	c #627B82",
"b@	c #6D868A",
"c@	c #323E3E",
"d@	c #EFEFDD",
"e@	c #ADAF9D",
"f@	c #D1C0AD",
"g@	c #F0E9D6",
"h@	c #F4FFFC",
"i@	c #F7FFFE",
"j@	c #F6FFFF",
"k@	c #C3C2BC",
"l@	c #515249",
"m@	c #F0F4F3",
"n@	c #F1FEFE",
"o@	c #E7F3EF",
"p@	c #494036",
"q@	c #8DB9C5",
"r@	c #5D7E8A",
"s@	c #010204",
"t@	c #25768A",
"u@	c #41859A",
"v@	c #82ABB3",
"w@	c #628080",
"x@	c #5F7F81",
"y@	c #92BDC7",
"z@	c #C0F4FF",
"A@	c #D0F5FF",
"B@	c #CFF4FE",
"C@	c #D2F5FC",
"D@	c #D1F5FF",
"E@	c #B6EEFC",
"F@	c #C9FFFF",
"G@	c #799296",
"H@	c #100B02",
"I@	c #A3988C",
"J@	c #DACCBC",
"K@	c #EDFAE9",
"L@	c #F3FFFF",
"M@	c #EDFFFF",
"N@	c #8E887C",
"O@	c #131F16",
"P@	c #E4F2F0",
"Q@	c #FBFFFF",
"R@	c #BAB9B3",
"S@	c #485451",
"T@	c #83B1BF",
"U@	c #070B11",
"V@	c #032D3E",
"W@	c #032C3D",
"X@	c #030A0F",
"Y@	c #4C6770",
"Z@	c #7AA6B4",
"`@	c #7FC2D3",
" #	c #8BCCDC",
".#	c #366172",
"+#	c #AFE3EC",
"@#	c #50A6B8",
"##	c #97D7E3",
"$#	c #D6EDF3",
"%#	c #5393A8",
"&#	c #EAFBFF",
"*#	c #CCF3FD",
"=#	c #D0FFFF",
"-#	c #6A8189",
";#	c #73675C",
">#	c #DDDFC6",
",#	c #F9FFFF",
"'#	c #E9FFFF",
")#	c #DCFFFF",
"!#	c #DEE2DC",
"~#	c #504847",
"{#	c #111915",
"]#	c #B9DFD0",
"^#	c #AFB7AB",
"/#	c #343021",
"(#	c #9CD3E3",
"_#	c #132B38",
":#	c #001926",
"<#	c #000204",
"[#	c #052839",
"}#	c #094A61",
"|#	c #02101B",
"1#	c #1F7188",
"2#	c #001A30",
"3#	c #C7FAFF",
"4#	c #002E44",
"5#	c #00253D",
"6#	c #B0E3EC",
"7#	c #C6F0F9",
"8#	c #B1E8F5",
"9#	c #93BBC6",
"0#	c #7C959A",
"a#	c #484335",
"b#	c #8F988D",
"c#	c #B8D1CE",
"d#	c #B1C9B9",
"e#	c #636059",
"f#	c #658288",
"g#	c #567174",
"h#	c #6E8B8C",
"i#	c #5E7A80",
"j#	c #A9DCEA",
"k#	c #1D272C",
"l#	c #001424",
"m#	c #001320",
"n#	c #072F3E",
"o#	c #0C4556",
"p#	c #002030",
"q#	c #001C2B",
"r#	c #0B536A",
"s#	c #156174",
"t#	c #3897AC",
"u#	c #45ADC0",
"v#	c #D8F8FC",
"w#	c #68A4B8",
"x#	c #ADECF8",
"y#	c #BDFBFF",
"z#	c #BFFCFF",
"A#	c #506D71",
"B#	c #6A8487",
"C#	c #688489",
"D#	c #87B4BC",
"E#	c #9FCFDC",
"F#	c #7A9FA9",
"G#	c #83ABB7",
"H#	c #7A9EA8",
"I#	c #000105",
"J#	c #000206",
"K#	c #000207",
"L#	c #000E15",
"M#	c #022231",
"N#	c #012637",
"O#	c #000A11",
"P#	c #00263A",
"Q#	c #84CCD8",
"R#	c #003146",
"S#	c #04384E",
"T#	c #1D5F75",
"U#	c #3A6C7F",
"V#	c #568699",
"W#	c #7FC9DC",
"X#	c #7BAFC1",
"Y#	c #749BA7",
"Z#	c #638591",
"`#	c #2B414D",
" $	c #05090E",
".$	c #00111D",
"+$	c #0C4B60",
"@$	c #001C2C",
"#$	c #033447",
"$$	c #000B15",
"%$	c #011724",
"&$	c #063447",
"*$	c #0A4E67",
"=$	c #030407",
"-$	c #020E1A",
";$	c #000F1A",
">$	c #022535",
",$	c #00050A",
"'$	c #000A14",
")$	c #001B29",
"!$	c #000B14",
"~$	c #000A13",
"{$	c #000A12",
"]$	c #001624",
"                                                                ",
"                                                                ",
"              . +                                               ",
"              @ # + $ % &                                       ",
"            * = - ; > , ' )       + ! ~                         ",
"            { + ] ^ / ( _ : < + + [ } |                         ",
"            1 ^ 2 3 4 5 6 7 8 9 0 a b @ + c                     ",
"          d e f g h i j k l m n o p q : r s d                   ",
"        t u . v w x y z A B C D E F G H I d J                   ",
"      K L M N O P Q R S T U V W X Y Z `  ...+.+                 ",
"< @.#.$.%.&.*.=.-.;.>.,.'.).!.~.{.].^./.(._.:.; <.  [.          ",
"}.! r |.1.2.3.4.5.6.-.7.8.9.0.a.b.c.d.e.f.g.h.i.j.k.l.*         ",
"  m.n.o.p.q.r.s.t.u.v.w.x.y.z.A.B.C.D.E.F.G.H.I.J.K.L.M.L.      ",
"  N.O.P.Q.R.S.T.U.V.W.X.Y.Z.`. +.+++@+#+Q $+%+&+*+=+-+;++ >+,+  ",
"    ^ '+)+!+~+{+]+^+/+(+_+:+<+[+}+|+1+2+3+4+5+6+7+8+9+0+a+b++   ",
"      c+d+e+f+g+h+i+j+k+l+m+n+o+p+q+r+s+t+u+v+w+x+y+z+A+B++ M.  ",
"      C+D+E+F+G+H+I+J+K+L+M+N+O+P+Q+R+w+S+T+U+V+W+X+Y+Z+`+ @.@  ",
"      +@@@#@$@%@&@*@=@-@;@>@,@'@)@!@~@{@]@^@/@(@-._@:@<@[@}@|@+ ",
"    + 1@2@3@4@5@6@7@8@9@0@a@b@c@d@e@f@g@h@i@j@k@l@m@n@o@p@q@r@s@",
"  + + t@u@v@w@x@y@z@A@B@C@D@E@F@G@H@I@J@K@L@M@M@N@O@P@Q@R@S@T@U@",
"  + V@W@X@Y@Z@`@ #.#+#@###$#%#&#*#=#-#;#>#,#'#)#!#~#{#]#^#/#(#_#",
"  :#| <#+ % [#}#|#,+1#2#3#4#5#-.6#7#8#9#0#a#b#c#d#e#f#g#h#i#j#k#",
"  j./ +   l#m#b b+; n#o#p#q#r#s#t#u#v#w#x#y#z#A#B#C#D#E#F#G#H#  ",
"              I#  J#K#m.L#M#N#O#P#Q#R#S#T#U#V#W#X#Y#Z#`# $      ",
"                    + L + .$; + +$@$#$.$d $$%$&$*$=$-$+         ",
"                          i.* ;$) >$>+J#) : ,$'$)$j.t           ",
"                                !$~$,$M.      ; {$]$            ",
"                                  ; )                           ",
"                                                                ",
"                                                                ",
"                                                                ",
"                                                                "};
