/* XPM */
static char * sandboxgamemaker_xpm[] = {
"32 32 387 2",
"  	c None",
". 	c #5D7EAA",
"+ 	c #5C7EAB",
"@ 	c #5A7DAA",
"# 	c #5B7DAB",
"$ 	c #5C7EAA",
"% 	c #5D7EA9",
"& 	c #5C7DAA",
"* 	c #5C8CAE",
"= 	c #5D97AE",
"- 	c #5D9FB0",
"; 	c #60A2B0",
"> 	c #6BA4B3",
", 	c #75A1B5",
"' 	c #7D9ABA",
") 	c #587BAA",
"! 	c #5A7EAA",
"~ 	c #5D7FA9",
"{ 	c #5A7FAC",
"] 	c #5B7FAB",
"^ 	c #5C99B0",
"/ 	c #5FAEB0",
"( 	c #5EAEB1",
"_ 	c #5EACB1",
": 	c #5DACB0",
"< 	c #5EADB1",
"[ 	c #5DADB1",
"} 	c #5BACB1",
"| 	c #5EADAF",
"1 	c #8EC2C0",
"2 	c #9CB0C4",
"3 	c #597DAA",
"4 	c #5B80AA",
"5 	c #5B7EAC",
"6 	c #5B8BAD",
"7 	c #5EADB0",
"8 	c #5DACB1",
"9 	c #5EACB0",
"0 	c #5DADB0",
"a 	c #5CACAE",
"b 	c #AFCECB",
"c 	c #7993B7",
"d 	c #5A7EA9",
"e 	c #5B7EAB",
"f 	c #5C91AD",
"g 	c #5EAFB1",
"h 	c #59AAAF",
"i 	c #A5CCC7",
"j 	c #889EBB",
"k 	c #5A7EAD",
"l 	c #5B8DAD",
"m 	c #5AACB1",
"n 	c #5CAEB2",
"o 	c #5AABAF",
"p 	c #B3D3CC",
"q 	c #7892B5",
"r 	c #5A81AC",
"s 	c #5EAEB2",
"t 	c #77B7B9",
"u 	c #BBA799",
"v 	c #A17662",
"w 	c #67A6A6",
"x 	c #5BACB0",
"y 	c #60B0B1",
"z 	c #76B9BB",
"A 	c #62A0A9",
"B 	c #4D8D9A",
"C 	c #418595",
"D 	c #4C959E",
"E 	c #60B0B4",
"F 	c #58AAAE",
"G 	c #D4DDD8",
"H 	c #597EAC",
"I 	c #5D7EA6",
"J 	c #5B7EAA",
"K 	c #5D9EAF",
"L 	c #9ECBC7",
"M 	c #CA8C78",
"N 	c #519FB7",
"O 	c #779995",
"P 	c #5FAEAF",
"Q 	c #8CBDBE",
"R 	c #6B8D99",
"S 	c #8899A1",
"T 	c #96A0A3",
"U 	c #BDC2BE",
"V 	c #DBDBCC",
"W 	c #E3E1D2",
"X 	c #CACCC4",
"Y 	c #4D7E90",
"Z 	c #5FAEB2",
"` 	c #7AB9B7",
" .	c #B2BBCA",
"..	c #5C7FA9",
"+.	c #5982AD",
"@.	c #60AFB1",
"#.	c #7DBBBA",
"$.	c #E2A48E",
"%.	c #A86752",
"&.	c #9ECCCA",
"*.	c #8494A3",
"=.	c #9CA8AB",
"-.	c #F3EDD6",
";.	c #F3EBCD",
">.	c #EFE7CB",
",.	c #F0EDD6",
"'.	c #F0EFDD",
").	c #FAF5DE",
"!.	c #ABB5B2",
"~.	c #45768E",
"{.	c #58AAAF",
"].	c #D5E1D6",
"^.	c #577CA9",
"/.	c #5D7FA7",
"(.	c #5A7FAB",
"_.	c #5C95AD",
":.	c #7DBABA",
"<.	c #D79E89",
"[.	c #CBCABE",
"}.	c #788288",
"|.	c #EDD9A8",
"1.	c #E6C98B",
"2.	c #E5C583",
"3.	c #E6C583",
"4.	c #ECC984",
"5.	c #EAC987",
"6.	c #AAA389",
"7.	c #546B84",
"8.	c #3E567A",
"9.	c #538096",
"0.	c #9BC8C4",
"a.	c #8FA3BE",
"b.	c #57A0AE",
"c.	c #58ABAF",
"d.	c #5BABB1",
"e.	c #A5CECB",
"f.	c #BA7A61",
"g.	c #B9DBD5",
"h.	c #6D7880",
"i.	c #A0987C",
"j.	c #ACA07D",
"k.	c #9E967A",
"l.	c #828377",
"m.	c #5B6C77",
"n.	c #344F74",
"o.	c #405A7E",
"p.	c #496082",
"q.	c #485E80",
"r.	c #527E95",
"s.	c #6DB2B5",
"t.	c #C1C6CE",
"u.	c #5A7DAB",
"v.	c #5479AA",
"w.	c #D6E1D4",
"x.	c #DBE5D6",
"y.	c #CADECF",
"z.	c #A9CFC8",
"A.	c #73B8BA",
"B.	c #BFDCD5",
"C.	c #9B6F5E",
"D.	c #58AFB2",
"E.	c #CECECC",
"F.	c #3F587D",
"G.	c #40597F",
"H.	c #455D80",
"I.	c #495F82",
"J.	c #485F80",
"K.	c #485F81",
"L.	c #475E80",
"M.	c #475F80",
"N.	c #507C93",
"O.	c #58ADB3",
"P.	c #69AFAE",
"Q.	c #7FB2A0",
"R.	c #DADAD7",
"S.	c #557AAA",
"T.	c #EDCF94",
"U.	c #E6C687",
"V.	c #E4C585",
"W.	c #E5C586",
"X.	c #EAC886",
"Y.	c #EED4B7",
"Z.	c #CF9263",
"`.	c #C0BF93",
" +	c #DCDBC0",
".+	c #6B7E97",
"++	c #495F83",
"@+	c #6C7F89",
"#+	c #D9C68C",
"$+	c #ECC885",
"%+	c #E8C583",
"&+	c #E7E0D4",
"*+	c #537AA9",
"=+	c #557BAB",
"-+	c #ECCB8A",
";+	c #E6C787",
">+	c #E6C786",
",+	c #ECD4A4",
"'+	c #D9A072",
")+	c #D68A6F",
"!+	c #DEAA73",
"~+	c #E6C788",
"{+	c #CACAC8",
"]+	c #4C6892",
"^+	c #485E81",
"/+	c #7B8182",
"(+	c #EAC988",
"_+	c #E5C686",
":+	c #E6C482",
"<+	c #E7E0D5",
"[+	c #547AAC",
"}+	c #E3C68A",
"|+	c #E6C686",
"1+	c #E6C7B6",
"2+	c #DA854D",
"3+	c #C65739",
"4+	c #E0B077",
"5+	c #F5E1B9",
"6+	c #6C809C",
"7+	c #4D6990",
"8+	c #475F81",
"9+	c #777D83",
"0+	c #E7C789",
"a+	c #EBDBB2",
"b+	c #D8DAD1",
"c+	c #557BAA",
"d+	c #567DAD",
"e+	c #CBB88E",
"f+	c #ECD6A7",
"g+	c #DEA382",
"h+	c #CC6540",
"i+	c #C55638",
"j+	c #C65537",
"k+	c #DB9E6A",
"l+	c #C8C8C7",
"m+	c #5175A0",
"n+	c #737A84",
"o+	c #EED59F",
"p+	c #ECDFBC",
"q+	c #EAD6A9",
"r+	c #BDC7CF",
"s+	c #597EAB",
"t+	c #5B7FA9",
"u+	c #A3A499",
"v+	c #E6C684",
"w+	c #F2E7CB",
"x+	c #CB6D46",
"y+	c #C75539",
"z+	c #C65639",
"A+	c #C45235",
"B+	c #E4BB7F",
"C+	c #E1C58F",
"D+	c #DDBD82",
"E+	c #F5E1BB",
"F+	c #6A7E9C",
"G+	c #5677A3",
"H+	c #455C83",
"I+	c #8A836E",
"J+	c #E2B65D",
"K+	c #E0B662",
"L+	c #E8C987",
"M+	c #92A6BB",
"N+	c #5C80AA",
"O+	c #6B87A8",
"P+	c #ECC983",
"Q+	c #F1E3CD",
"R+	c #C96F32",
"S+	c #D18341",
"T+	c #D18041",
"U+	c #CB723D",
"V+	c #EACB8B",
"W+	c #E6C88A",
"X+	c #E3C485",
"Y+	c #E6C789",
"Z+	c #C8C8C8",
"`+	c #4C71A0",
" @	c #4D6890",
".@	c #475D82",
"+@	c #445C84",
"@@	c #4F627E",
"#@	c #A68F5C",
"$@	c #E0AD47",
"%@	c #DBAB47",
"&@	c #DBAA47",
"*@	c #DEAB44",
"=@	c #5B7EA8",
"-@	c #5E7EA8",
";@	c #577CAC",
">@	c #C3B591",
",@	c #E6CA8E",
"'@	c #ECD8AB",
")@	c #DCB256",
"!@	c #DCAA46",
"~@	c #DBAD47",
"{@	c #DAAB47",
"]@	c #E0B866",
"^@	c #EBCD92",
"/@	c #C6B58F",
"(@	c #AAA28C",
"_@	c #A9A088",
":@	c #BFA469",
"<@	c #DFAC40",
"[@	c #DAAA46",
"}@	c #DBAB46",
"|@	c #A89970",
"1@	c #597EAD",
"2@	c #6A87A7",
"3@	c #E6C584",
"4@	c #ECD5A8",
"5@	c #E5C788",
"6@	c #D9A842",
"7@	c #DBAA46",
"8@	c #DBAD4E",
"9@	c #E5C481",
"0@	c #EACE94",
"a@	c #D6B77C",
"b@	c #E8CC91",
"c@	c #EBD0A0",
"d@	c #E1BD70",
"e@	c #DAA942",
"f@	c #DAAA47",
"g@	c #DAAB49",
"h@	c #5E80A8",
"i@	c #5C7EA9",
"j@	c #5A7EAB",
"k@	c #959D9B",
"l@	c #E7CA91",
"m@	c #EAD09E",
"n@	c #DEB55E",
"o@	c #E2BD6F",
"p@	c #E4C27D",
"q@	c #E7C686",
"r@	c #EBCE95",
"s@	c #D3B57B",
"t@	c #E6C685",
"u@	c #DEC699",
"v@	c #D1B88C",
"w@	c #EAD1A0",
"x@	c #DDAC40",
"y@	c #7F8A8F",
"z@	c #577DAC",
"A@	c #A8A699",
"B@	c #EACA89",
"C@	c #D1B78C",
"D@	c #DCBC80",
"E@	c #E5C888",
"F@	c #E7C78A",
"G@	c #E7C788",
"H@	c #F2DCB3",
"I@	c #96A3AE",
"J@	c #587EAC",
"K@	c #577CAD",
"L@	c #949C9C",
"M@	c #E5C584",
"N@	c #F2E1BC",
"O@	c #9D7F57",
"P@	c #E8C988",
"Q@	c #EEDBB3",
"R@	c #879FBD",
"S@	c #587CAB",
"T@	c #597DAD",
"U@	c #6986A7",
"V@	c #BFB292",
"W@	c #EDCA87",
"X@	c #E7C886",
"Y@	c #E9CA89",
"Z@	c #E5C787",
"`@	c #EFD4A0",
" #	c #BBC0BE",
".#	c #6184B0",
"+#	c #5D7DA9",
"@#	c #6583A9",
"##	c #979E9E",
"$#	c #BBB094",
"%#	c #CFBA8E",
"&#	c #D6C090",
"*#	c #D1BE98",
"=#	c #BBB7A6",
"-#	c #97A7B8",
";#	c #5F83B0",
">#	c #587CAC",
",#	c #587DAC",
"'#	c #567CAE",
")#	c #557BAC",
"!#	c #547CAD",
"~#	c #587DAA",
"{#	c #5E7FAA",
"                                                                ",
"                                                                ",
"                                                                ",
"                        .   . + @ # $                           ",
"                    % & # * = - ; > , ' ) ! ~                   ",
"                  { ] ^ / ( _ : < [ } | 1 2 3 4                 ",
"                5 6 _ 7 8 < : 9 [ : : 0 < a b c d               ",
"              e f g _ : < < < : < < < : < 0 h i j !             ",
"            k l ( _ : m n < : < : : 8 : < 9 8 o p q ]           ",
"          . r s : 7 t u v w 0 8 x y z A B C D E F G H I         ",
"          J K < _ [ L M N O P Q R S T U V W X Y Z `  .@         ",
"        ..+.@.: < < #.$.%.&.*.=.-.;.>.,.'.).!.~.< {.].^./.      ",
"        (._.7 < < _ :.<.[.}.|.1.2.3.4.5.6.7.8.9.( : 0.a.        ",
"        5 b.c.d.[ _ e.f.g.h.i.j.k.l.m.n.o.p.q.r.( < s.t.u.      ",
"        v.w.x.y.z.A.B.C.D.E.F.G.H.p.I.J.K.L.M.N.O.P.Q.R.S.      ",
"        S.T.U.V.W.X.Y.Z.`. +.+++L.K.J.K.L.K.K.@+#+$+%+&+*+      ",
"        =+-+;+>+,+'+)+!+;+~+{+]+L.q.K.L.K.K.^+/+(+_+:+<+*+      ",
"        [+}+|+~+1+2+3+3+4+|+5+6+7+L.q.L.K.K.8+9+5.0+a+b+c+      ",
"        d+e+;+f+g+h+i+j+k+;+~+l+m+p.8+L.K.K.M.n+o+p+q+r+s+      ",
"        t+u+v+w+x+y+z+A+B+C+D+E+F+G+q.L.K.L.H+I+J+K+L+M++       ",
"        N+O+P+Q+R+S+T+U+V+W+X+Y+Z+`+ @.@+@@@#@$@%@&@*@=@-@      ",
"          ;@>@,@'@)@!@~@{@]@~+|+^@/@(@_@:@<@%@[@%@}@|@1@        ",
"          5 2@5.3@4@5@6@7@!@8@9@0@a@>+_+b@c@d@e@f@g@h@i@        ",
"            j@k@5.;+l@m@n@o@p@q@r@s@;+_+t@u@v@w@x@y@k           ",
"              z@A@B@C@D@E@;+;+F@G@>+;+_+;+~+|+H@I@J@            ",
"                K@L@5.U._+;+M@N@O@P@_+|+;+M@Q@R@S@              ",
"                  T@U@V@W@X@>+t@Y@Z@|+v+`@ #.#J                 ",
"                    +#z@@###$#%#&#*#=#-#;#>#]                   ",
"                        ~ + ,#'#)#!#~#i@{#                      ",
"                                                                ",
"                                                                ",
"                                                                "};
